# MagicaVoxel @ Ephtracy

# group
o Head

# material
mtllib test3-0-Head.mtl
usemtl palette

# normals
vn -1 0 0
vn 1 0 0
vn 0 -1 0
vn 0 1 0
vn 0 0 -1
vn 0 0 1

# texcoords
vt 0.0175781 0.5
vt 0.0214844 0.5
vt 0.0253906 0.5
vt 0.0292969 0.5

# verts
v -0.9 1.3 -0.1
v -0.9 1.9 -0.1
v -0.9 1.3 0
v -0.9 1.9 0
v -0.8 1.2 -0.1
v -0.8 1.3 -0.1
v -0.8 1.9 -0.1
v -0.8 2.1 -0.1
v -0.8 1.2 0
v -0.8 1.3 0
v -0.8 1.9 0
v -0.8 2.1 0
v -0.7 1.1 -0.1
v -0.7 1.2 -0.1
v -0.7 2.1 -0.1
v -0.7 2.2 -0.1
v -0.7 1.1 0
v -0.7 1.2 0
v -0.7 2.1 0
v -0.7 2.2 0
v -0.6 1 -0.1
v -0.6 1.1 -0.1
v -0.6 2.2 -0.1
v -0.6 2.3 -0.1
v -0.6 1 0
v -0.6 1.1 0
v -0.6 2.2 0
v -0.6 2.3 0
v 0.6 1 -0.1
v 0.6 1.1 -0.1
v 0.6 2.2 -0.1
v 0.6 2.3 -0.1
v 0.6 1 0
v 0.6 1.1 0
v 0.6 2.2 0
v 0.6 2.3 0
v 0.7 1.1 -0.1
v 0.7 1.2 -0.1
v 0.7 2.1 -0.1
v 0.7 2.2 -0.1
v 0.7 1.1 0
v 0.7 1.2 0
v 0.7 2.1 0
v 0.7 2.2 0
v 0.8 1.2 -0.1
v 0.8 1.3 -0.1
v 0.8 1.9 -0.1
v 0.8 2.1 -0.1
v 0.8 1.2 0
v 0.8 1.3 0
v 0.8 1.9 0
v 0.8 2.1 0
v 0.9 1.3 -0.1
v 0.9 1.9 -0.1
v 0.9 1.3 0
v 0.9 1.9 0
v -0.6 1 -0.1
v -0.6 1 0
v -0.3 1 -0.1
v -0.3 1 0
v 0.3 1 -0.1
v 0.3 1 0
v 0.6 1 -0.1
v 0.6 1 0
v -0.7 1.1 -0.1
v -0.7 1.1 0
v -0.6 1.1 -0.1
v -0.6 1.1 0
v 0.6 1.1 -0.1
v 0.6 1.1 0
v 0.7 1.1 -0.1
v 0.7 1.1 0
v -0.8 1.2 -0.1
v -0.8 1.2 0
v -0.7 1.2 -0.1
v -0.7 1.2 0
v 0.7 1.2 -0.1
v 0.7 1.2 0
v 0.8 1.2 -0.1
v 0.8 1.2 0
v -0.9 1.3 -0.1
v -0.9 1.3 0
v -0.8 1.3 -0.1
v -0.8 1.3 0
v 0.8 1.3 -0.1
v 0.8 1.3 0
v 0.9 1.3 -0.1
v 0.9 1.3 0
v -0.9 1.9 -0.1
v -0.9 1.9 0
v -0.8 1.9 -0.1
v -0.8 1.9 0
v 0.8 1.9 -0.1
v 0.8 1.9 0
v 0.9 1.9 -0.1
v 0.9 1.9 0
v -0.8 2.1 -0.1
v -0.8 2.1 0
v -0.7 2.1 -0.1
v -0.7 2.1 0
v 0.7 2.1 -0.1
v 0.7 2.1 0
v 0.8 2.1 -0.1
v 0.8 2.1 0
v -0.7 2.2 -0.1
v -0.7 2.2 0
v -0.6 2.2 -0.1
v -0.6 2.2 0
v 0.6 2.2 -0.1
v 0.6 2.2 0
v 0.7 2.2 -0.1
v 0.7 2.2 0
v -0.6 2.3 -0.1
v -0.6 2.3 0
v 0.6 2.3 -0.1
v 0.6 2.3 0
v -0.6 1 -0.1
v -0.3 1 -0.1
v 0.3 1 -0.1
v 0.6 1 -0.1
v -0.7 1.1 -0.1
v -0.6 1.1 -0.1
v -0.3 1.1 -0.1
v 0 1.1 -0.1
v 0.3 1.1 -0.1
v 0.6 1.1 -0.1
v 0.7 1.1 -0.1
v -0.8 1.2 -0.1
v -0.7 1.2 -0.1
v -0.6 1.2 -0.1
v -0.5 1.2 -0.1
v 0 1.2 -0.1
v 0.1 1.2 -0.1
v 0.2 1.2 -0.1
v 0.3 1.2 -0.1
v 0.4 1.2 -0.1
v 0.6 1.2 -0.1
v 0.7 1.2 -0.1
v 0.8 1.2 -0.1
v -0.9 1.3 -0.1
v -0.8 1.3 -0.1
v -0.7 1.3 -0.1
v -0.6 1.3 -0.1
v -0.5 1.3 -0.1
v 0.1 1.3 -0.1
v 0.2 1.3 -0.1
v 0.3 1.3 -0.1
v 0.4 1.3 -0.1
v 0.7 1.3 -0.1
v 0.8 1.3 -0.1
v 0.9 1.3 -0.1
v -0.2 1.4 -0.1
v -0.1 1.4 -0.1
v 0.2 1.4 -0.1
v 0.3 1.4 -0.1
v 0.6 1.4 -0.1
v 0.7 1.4 -0.1
v -0.7 1.5 -0.1
v -0.6 1.5 -0.1
v -0.2 1.6 -0.1
v -0.1 1.6 -0.1
v 0.6 1.6 -0.1
v 0.7 1.6 -0.1
v -0.9 1.9 -0.1
v -0.8 1.9 -0.1
v -0.7 1.9 -0.1
v 0.7 1.9 -0.1
v 0.8 1.9 -0.1
v 0.9 1.9 -0.1
v -0.8 2.1 -0.1
v -0.7 2.1 -0.1
v -0.6 2.1 -0.1
v 0.6 2.1 -0.1
v 0.7 2.1 -0.1
v 0.8 2.1 -0.1
v -0.7 2.2 -0.1
v -0.6 2.2 -0.1
v 0.6 2.2 -0.1
v 0.7 2.2 -0.1
v -0.6 2.3 -0.1
v 0.6 2.3 -0.1
v -0.6 1 0
v -0.3 1 0
v 0.3 1 0
v 0.6 1 0
v -0.7 1.1 0
v -0.6 1.1 0
v -0.3 1.1 0
v 0 1.1 0
v 0.3 1.1 0
v 0.6 1.1 0
v 0.7 1.1 0
v -0.8 1.2 0
v -0.7 1.2 0
v -0.6 1.2 0
v -0.5 1.2 0
v 0 1.2 0
v 0.1 1.2 0
v 0.2 1.2 0
v 0.3 1.2 0
v 0.4 1.2 0
v 0.6 1.2 0
v 0.7 1.2 0
v 0.8 1.2 0
v -0.9 1.3 0
v -0.8 1.3 0
v -0.7 1.3 0
v -0.6 1.3 0
v -0.5 1.3 0
v 0.1 1.3 0
v 0.2 1.3 0
v 0.3 1.3 0
v 0.4 1.3 0
v 0.7 1.3 0
v 0.8 1.3 0
v 0.9 1.3 0
v -0.2 1.4 0
v -0.1 1.4 0
v 0.2 1.4 0
v 0.3 1.4 0
v 0.6 1.4 0
v 0.7 1.4 0
v -0.7 1.5 0
v -0.6 1.5 0
v -0.2 1.6 0
v -0.1 1.6 0
v 0.6 1.6 0
v 0.7 1.6 0
v -0.9 1.9 0
v -0.8 1.9 0
v -0.7 1.9 0
v 0.7 1.9 0
v 0.8 1.9 0
v 0.9 1.9 0
v -0.8 2.1 0
v -0.7 2.1 0
v -0.6 2.1 0
v 0.6 2.1 0
v 0.7 2.1 0
v 0.8 2.1 0
v -0.7 2.2 0
v -0.6 2.2 0
v 0.6 2.2 0
v 0.7 2.2 0
v -0.6 2.3 0
v 0.6 2.3 0

# faces
f 3/4/1 2/4/1 1/4/1
f 4/4/1 2/4/1 3/4/1
f 9/4/1 6/4/1 5/4/1
f 10/4/1 6/4/1 9/4/1
f 11/4/1 8/4/1 7/4/1
f 12/4/1 8/4/1 11/4/1
f 17/4/1 14/4/1 13/4/1
f 18/4/1 14/4/1 17/4/1
f 19/4/1 16/4/1 15/4/1
f 20/4/1 16/4/1 19/4/1
f 25/4/1 22/4/1 21/4/1
f 26/4/1 22/4/1 25/4/1
f 27/4/1 24/4/1 23/4/1
f 28/4/1 24/4/1 27/4/1
f 29/4/2 30/4/2 33/4/2
f 33/4/2 30/4/2 34/4/2
f 31/4/2 32/4/2 35/4/2
f 35/4/2 32/4/2 36/4/2
f 37/4/2 38/4/2 41/4/2
f 41/4/2 38/4/2 42/4/2
f 39/4/2 40/4/2 43/4/2
f 43/4/2 40/4/2 44/4/2
f 45/4/2 46/4/2 49/4/2
f 49/4/2 46/4/2 50/4/2
f 47/4/2 48/4/2 51/4/2
f 51/4/2 48/4/2 52/4/2
f 53/4/2 54/4/2 55/4/2
f 55/4/2 54/4/2 56/4/2
f 59/4/3 58/4/3 57/4/3
f 60/4/3 58/4/3 59/4/3
f 61/2/3 60/2/3 59/2/3
f 62/2/3 60/2/3 61/2/3
f 63/4/3 62/4/3 61/4/3
f 64/4/3 62/4/3 63/4/3
f 67/4/3 66/4/3 65/4/3
f 68/4/3 66/4/3 67/4/3
f 71/4/3 70/4/3 69/4/3
f 72/4/3 70/4/3 71/4/3
f 75/4/3 74/4/3 73/4/3
f 76/4/3 74/4/3 75/4/3
f 79/4/3 78/4/3 77/4/3
f 80/4/3 78/4/3 79/4/3
f 83/4/3 82/4/3 81/4/3
f 84/4/3 82/4/3 83/4/3
f 87/4/3 86/4/3 85/4/3
f 88/4/3 86/4/3 87/4/3
f 89/4/4 90/4/4 91/4/4
f 91/4/4 90/4/4 92/4/4
f 93/4/4 94/4/4 95/4/4
f 95/4/4 94/4/4 96/4/4
f 97/4/4 98/4/4 99/4/4
f 99/4/4 98/4/4 100/4/4
f 101/4/4 102/4/4 103/4/4
f 103/4/4 102/4/4 104/4/4
f 105/4/4 106/4/4 107/4/4
f 107/4/4 106/4/4 108/4/4
f 109/4/4 110/4/4 111/4/4
f 111/4/4 110/4/4 112/4/4
f 113/4/4 114/4/4 115/4/4
f 115/4/4 114/4/4 116/4/4
f 122/4/5 118/4/5 117/4/5
f 123/2/5 119/2/5 118/2/5
f 123/4/5 118/4/5 122/4/5
f 124/2/5 119/2/5 123/2/5
f 125/4/5 120/4/5 119/4/5
f 125/2/5 119/2/5 124/2/5
f 126/4/5 120/4/5 125/4/5
f 129/4/5 122/4/5 121/4/5
f 130/3/5 124/3/5 123/3/5
f 130/3/5 123/3/5 122/3/5
f 130/4/5 122/4/5 129/4/5
f 131/3/5 124/3/5 130/3/5
f 132/1/5 125/1/5 124/1/5
f 132/3/5 124/3/5 131/3/5
f 132/1/5 126/1/5 125/1/5
f 133/1/5 126/1/5 132/1/5
f 134/1/5 126/1/5 133/1/5
f 135/1/5 126/1/5 134/1/5
f 136/1/5 126/1/5 135/1/5
f 137/4/5 127/4/5 126/4/5
f 137/1/5 126/1/5 136/1/5
f 138/4/5 127/4/5 137/4/5
f 141/4/5 129/4/5 128/4/5
f 142/3/5 131/3/5 130/3/5
f 142/3/5 130/3/5 129/3/5
f 142/4/5 129/4/5 141/4/5
f 143/3/5 131/3/5 142/3/5
f 144/1/5 132/1/5 131/1/5
f 144/3/5 131/3/5 143/3/5
f 144/1/5 133/1/5 132/1/5
f 145/4/5 134/4/5 133/4/5
f 145/1/5 133/1/5 144/1/5
f 146/1/5 135/1/5 134/1/5
f 146/4/5 134/4/5 145/4/5
f 147/4/5 136/4/5 135/4/5
f 147/1/5 135/1/5 146/1/5
f 148/1/5 137/1/5 136/1/5
f 148/4/5 136/4/5 147/4/5
f 148/1/5 138/1/5 137/1/5
f 149/4/5 139/4/5 138/4/5
f 149/1/5 138/1/5 148/1/5
f 150/4/5 139/4/5 149/4/5
f 152/1/5 146/1/5 145/1/5
f 152/1/5 144/1/5 143/1/5
f 152/1/5 145/1/5 144/1/5
f 153/1/5 146/1/5 152/1/5
f 154/4/5 147/4/5 146/4/5
f 154/1/5 146/1/5 153/1/5
f 155/1/5 148/1/5 147/1/5
f 155/4/5 147/4/5 154/4/5
f 155/1/5 150/1/5 149/1/5
f 155/1/5 149/1/5 148/1/5
f 156/1/5 150/1/5 155/1/5
f 157/1/5 150/1/5 156/1/5
f 158/3/5 143/3/5 142/3/5
f 158/3/5 142/3/5 141/3/5
f 159/1/5 152/1/5 143/1/5
f 159/3/5 143/3/5 158/3/5
f 160/4/5 153/4/5 152/4/5
f 160/1/5 152/1/5 159/1/5
f 160/1/5 159/1/5 158/1/5
f 161/1/5 154/1/5 153/1/5
f 161/4/5 153/4/5 160/4/5
f 161/1/5 156/1/5 155/1/5
f 161/1/5 155/1/5 154/1/5
f 162/4/5 157/4/5 156/4/5
f 162/1/5 156/1/5 161/1/5
f 163/1/5 150/1/5 157/1/5
f 163/4/5 157/4/5 162/4/5
f 164/4/5 141/4/5 140/4/5
f 165/3/5 158/3/5 141/3/5
f 165/4/5 141/4/5 164/4/5
f 166/1/5 160/1/5 158/1/5
f 166/3/5 158/3/5 165/3/5
f 166/1/5 162/1/5 161/1/5
f 166/1/5 163/1/5 162/1/5
f 166/1/5 161/1/5 160/1/5
f 167/1/5 150/1/5 163/1/5
f 167/1/5 163/1/5 166/1/5
f 168/4/5 151/4/5 150/4/5
f 168/1/5 150/1/5 167/1/5
f 169/4/5 151/4/5 168/4/5
f 170/4/5 166/4/5 165/4/5
f 171/1/5 167/1/5 166/1/5
f 171/4/5 166/4/5 170/4/5
f 172/1/5 167/1/5 171/1/5
f 173/1/5 167/1/5 172/1/5
f 174/4/5 168/4/5 167/4/5
f 174/1/5 167/1/5 173/1/5
f 175/4/5 168/4/5 174/4/5
f 176/4/5 172/4/5 171/4/5
f 177/1/5 173/1/5 172/1/5
f 177/4/5 172/4/5 176/4/5
f 178/4/5 174/4/5 173/4/5
f 178/1/5 173/1/5 177/1/5
f 179/4/5 174/4/5 178/4/5
f 180/4/5 178/4/5 177/4/5
f 181/4/5 178/4/5 180/4/5
f 182/4/6 183/4/6 187/4/6
f 183/2/6 184/2/6 188/2/6
f 187/4/6 183/4/6 188/4/6
f 188/2/6 184/2/6 189/2/6
f 184/4/6 185/4/6 190/4/6
f 189/2/6 184/2/6 190/2/6
f 190/4/6 185/4/6 191/4/6
f 186/4/6 187/4/6 194/4/6
f 188/3/6 189/3/6 195/3/6
f 187/3/6 188/3/6 195/3/6
f 194/4/6 187/4/6 195/4/6
f 195/3/6 189/3/6 196/3/6
f 189/1/6 190/1/6 197/1/6
f 196/3/6 189/3/6 197/3/6
f 190/1/6 191/1/6 197/1/6
f 197/1/6 191/1/6 198/1/6
f 198/1/6 191/1/6 199/1/6
f 199/1/6 191/1/6 200/1/6
f 200/1/6 191/1/6 201/1/6
f 191/4/6 192/4/6 202/4/6
f 201/1/6 191/1/6 202/1/6
f 202/4/6 192/4/6 203/4/6
f 193/4/6 194/4/6 206/4/6
f 195/3/6 196/3/6 207/3/6
f 194/3/6 195/3/6 207/3/6
f 206/4/6 194/4/6 207/4/6
f 207/3/6 196/3/6 208/3/6
f 196/1/6 197/1/6 209/1/6
f 208/3/6 196/3/6 209/3/6
f 197/1/6 198/1/6 209/1/6
f 198/4/6 199/4/6 210/4/6
f 209/1/6 198/1/6 210/1/6
f 199/1/6 200/1/6 211/1/6
f 210/4/6 199/4/6 211/4/6
f 200/4/6 201/4/6 212/4/6
f 211/1/6 200/1/6 212/1/6
f 201/1/6 202/1/6 213/1/6
f 212/4/6 201/4/6 213/4/6
f 202/1/6 203/1/6 213/1/6
f 203/4/6 204/4/6 214/4/6
f 213/1/6 203/1/6 214/1/6
f 214/4/6 204/4/6 215/4/6
f 210/1/6 211/1/6 217/1/6
f 208/1/6 209/1/6 217/1/6
f 209/1/6 210/1/6 217/1/6
f 217/1/6 211/1/6 218/1/6
f 211/4/6 212/4/6 219/4/6
f 218/1/6 211/1/6 219/1/6
f 212/1/6 213/1/6 220/1/6
f 219/4/6 212/4/6 220/4/6
f 214/1/6 215/1/6 220/1/6
f 213/1/6 214/1/6 220/1/6
f 220/1/6 215/1/6 221/1/6
f 221/1/6 215/1/6 222/1/6
f 207/3/6 208/3/6 223/3/6
f 206/3/6 207/3/6 223/3/6
f 208/1/6 217/1/6 224/1/6
f 223/3/6 208/3/6 224/3/6
f 217/4/6 218/4/6 225/4/6
f 224/1/6 217/1/6 225/1/6
f 223/1/6 224/1/6 225/1/6
f 218/1/6 219/1/6 226/1/6
f 225/4/6 218/4/6 226/4/6
f 220/1/6 221/1/6 226/1/6
f 219/1/6 220/1/6 226/1/6
f 221/4/6 222/4/6 227/4/6
f 226/1/6 221/1/6 227/1/6
f 222/1/6 215/1/6 228/1/6
f 227/4/6 222/4/6 228/4/6
f 205/4/6 206/4/6 229/4/6
f 206/3/6 223/3/6 230/3/6
f 229/4/6 206/4/6 230/4/6
f 223/1/6 225/1/6 231/1/6
f 230/3/6 223/3/6 231/3/6
f 226/1/6 227/1/6 231/1/6
f 227/1/6 228/1/6 231/1/6
f 225/1/6 226/1/6 231/1/6
f 228/1/6 215/1/6 232/1/6
f 231/1/6 228/1/6 232/1/6
f 215/4/6 216/4/6 233/4/6
f 232/1/6 215/1/6 233/1/6
f 233/4/6 216/4/6 234/4/6
f 230/4/6 231/4/6 235/4/6
f 231/1/6 232/1/6 236/1/6
f 235/4/6 231/4/6 236/4/6
f 236/1/6 232/1/6 237/1/6
f 237/1/6 232/1/6 238/1/6
f 232/4/6 233/4/6 239/4/6
f 238/1/6 232/1/6 239/1/6
f 239/4/6 233/4/6 240/4/6
f 236/4/6 237/4/6 241/4/6
f 237/1/6 238/1/6 242/1/6
f 241/4/6 237/4/6 242/4/6
f 238/4/6 239/4/6 243/4/6
f 242/1/6 238/1/6 243/1/6
f 243/4/6 239/4/6 244/4/6
f 242/4/6 243/4/6 245/4/6
f 245/4/6 243/4/6 246/4/6
