# MagicaVoxel @ Ephtracy

# group
o LeftSide

# material
mtllib test3-2-LeftSide.mtl
usemtl palette

# normals
vn -1 0 0
vn 1 0 0
vn 0 -1 0
vn 0 1 0
vn 0 0 -1
vn 0 0 1

# texcoords
vt 0.0175781 0.5
vt 0.0214844 0.5
vt 0.0292969 0.5

# verts
v -0.7 0.4 -0.1
v -0.7 0.7 -0.1
v -0.7 0.4 0
v -0.7 0.7 0
v -0.6 0.3 -0.1
v -0.6 0.4 -0.1
v -0.6 0.7 -0.1
v -0.6 0.9 -0.1
v -0.6 0.3 0
v -0.6 0.4 0
v -0.6 0.7 0
v -0.6 0.9 0
v -0.5 0 -0.1
v -0.5 0.3 -0.1
v -0.5 0.9 -0.1
v -0.5 1 -0.1
v -0.5 0 0
v -0.5 0.3 0
v -0.5 0.9 0
v -0.5 1 0
v -0.3 0 -0.1
v -0.3 0.1 -0.1
v -0.3 0 0
v -0.3 0.1 0
v -0.2 0.1 -0.1
v -0.2 0.2 -0.1
v -0.2 0.1 0
v -0.2 0.2 0
v 0 0.2 -0.1
v 0 0.3 -0.1
v 0 1 -0.1
v 0 0.2 0
v 0 0.3 0
v 0 1 0
v -0.5 0 -0.1
v -0.5 0 0
v -0.3 0 -0.1
v -0.3 0 0
v -0.3 0.1 -0.1
v -0.3 0.1 0
v -0.2 0.1 -0.1
v -0.2 0.1 0
v -0.2 0.2 -0.1
v -0.2 0.2 0
v 0 0.2 -0.1
v 0 0.2 0
v -0.6 0.3 -0.1
v -0.6 0.3 0
v -0.5 0.3 -0.1
v -0.5 0.3 0
v -0.7 0.4 -0.1
v -0.7 0.4 0
v -0.6 0.4 -0.1
v -0.6 0.4 0
v -0.7 0.7 -0.1
v -0.7 0.7 0
v -0.6 0.7 -0.1
v -0.6 0.7 0
v -0.6 0.9 -0.1
v -0.6 0.9 0
v -0.5 0.9 -0.1
v -0.5 0.9 0
v -0.5 1 -0.1
v -0.5 1 0
v -0.4 1 -0.1
v -0.4 1 0
v 0 1 -0.1
v 0 1 0
v -0.5 0 -0.1
v -0.3 0 -0.1
v -0.4 0.1 -0.1
v -0.3 0.1 -0.1
v -0.2 0.1 -0.1
v -0.3 0.2 -0.1
v -0.2 0.2 -0.1
v 0 0.2 -0.1
v -0.6 0.3 -0.1
v -0.5 0.3 -0.1
v -0.2 0.3 -0.1
v 0 0.3 -0.1
v -0.7 0.4 -0.1
v -0.6 0.4 -0.1
v -0.4 0.4 -0.1
v -0.3 0.4 -0.1
v -0.7 0.7 -0.1
v -0.6 0.7 -0.1
v -0.5 0.7 -0.1
v -0.4 0.8 -0.1
v -0.3 0.8 -0.1
v -0.6 0.9 -0.1
v -0.5 0.9 -0.1
v -0.4 0.9 -0.1
v -0.5 1 -0.1
v -0.4 1 -0.1
v 0 1 -0.1
v -0.5 0 0
v -0.3 0 0
v -0.4 0.1 0
v -0.3 0.1 0
v -0.2 0.1 0
v -0.3 0.2 0
v -0.2 0.2 0
v 0 0.2 0
v -0.6 0.3 0
v -0.5 0.3 0
v -0.2 0.3 0
v 0 0.3 0
v -0.7 0.4 0
v -0.6 0.4 0
v -0.4 0.4 0
v -0.3 0.4 0
v -0.7 0.7 0
v -0.6 0.7 0
v -0.5 0.7 0
v -0.4 0.8 0
v -0.3 0.8 0
v -0.6 0.9 0
v -0.5 0.9 0
v -0.4 0.9 0
v -0.5 1 0
v -0.4 1 0
v 0 1 0

# faces
f 3/3/1 2/3/1 1/3/1
f 4/3/1 2/3/1 3/3/1
f 9/3/1 6/3/1 5/3/1
f 10/3/1 6/3/1 9/3/1
f 11/3/1 8/3/1 7/3/1
f 12/3/1 8/3/1 11/3/1
f 17/3/1 14/3/1 13/3/1
f 18/3/1 14/3/1 17/3/1
f 19/3/1 16/3/1 15/3/1
f 20/3/1 16/3/1 19/3/1
f 21/3/2 22/3/2 23/3/2
f 23/3/2 22/3/2 24/3/2
f 25/3/2 26/3/2 27/3/2
f 27/3/2 26/3/2 28/3/2
f 29/3/2 30/3/2 32/3/2
f 30/1/2 31/1/2 33/1/2
f 32/3/2 30/3/2 33/3/2
f 33/1/2 31/1/2 34/1/2
f 37/3/3 36/3/3 35/3/3
f 38/3/3 36/3/3 37/3/3
f 41/3/3 40/3/3 39/3/3
f 42/3/3 40/3/3 41/3/3
f 45/3/3 44/3/3 43/3/3
f 46/3/3 44/3/3 45/3/3
f 49/3/3 48/3/3 47/3/3
f 50/3/3 48/3/3 49/3/3
f 53/3/3 52/3/3 51/3/3
f 54/3/3 52/3/3 53/3/3
f 55/3/4 56/3/4 57/3/4
f 57/3/4 56/3/4 58/3/4
f 59/3/4 60/3/4 61/3/4
f 61/3/4 60/3/4 62/3/4
f 63/3/4 64/3/4 65/3/4
f 65/3/4 64/3/4 66/3/4
f 65/1/4 66/1/4 67/1/4
f 67/1/4 66/1/4 68/1/4
f 71/3/5 70/3/5 69/3/5
f 72/3/5 70/3/5 71/3/5
f 74/1/5 72/1/5 71/1/5
f 74/3/5 73/3/5 72/3/5
f 75/3/5 73/3/5 74/3/5
f 78/3/5 71/3/5 69/3/5
f 79/3/5 76/3/5 75/3/5
f 79/1/5 75/1/5 74/1/5
f 80/3/5 76/3/5 79/3/5
f 82/3/5 78/3/5 77/3/5
f 83/1/5 74/1/5 71/1/5
f 83/3/5 71/3/5 78/3/5
f 83/3/5 78/3/5 82/3/5
f 83/1/5 79/1/5 74/1/5
f 83/1/5 80/1/5 79/1/5
f 84/1/5 80/1/5 83/1/5
f 85/3/5 82/3/5 81/3/5
f 86/1/5 83/1/5 82/1/5
f 86/3/5 82/3/5 85/3/5
f 87/1/5 83/1/5 86/1/5
f 88/2/5 84/2/5 83/2/5
f 88/1/5 83/1/5 87/1/5
f 89/1/5 80/1/5 84/1/5
f 89/2/5 84/2/5 88/2/5
f 90/3/5 87/3/5 86/3/5
f 91/1/5 88/1/5 87/1/5
f 91/3/5 87/3/5 90/3/5
f 91/1/5 89/1/5 88/1/5
f 92/1/5 89/1/5 91/1/5
f 93/3/5 92/3/5 91/3/5
f 94/1/5 89/1/5 92/1/5
f 94/3/5 92/3/5 93/3/5
f 95/1/5 80/1/5 89/1/5
f 95/1/5 89/1/5 94/1/5
f 96/3/6 97/3/6 98/3/6
f 98/3/6 97/3/6 99/3/6
f 98/1/6 99/1/6 101/1/6
f 99/3/6 100/3/6 101/3/6
f 101/3/6 100/3/6 102/3/6
f 96/3/6 98/3/6 105/3/6
f 102/3/6 103/3/6 106/3/6
f 101/1/6 102/1/6 106/1/6
f 106/3/6 103/3/6 107/3/6
f 104/3/6 105/3/6 109/3/6
f 98/1/6 101/1/6 110/1/6
f 105/3/6 98/3/6 110/3/6
f 109/3/6 105/3/6 110/3/6
f 101/1/6 106/1/6 110/1/6
f 106/1/6 107/1/6 110/1/6
f 110/1/6 107/1/6 111/1/6
f 108/3/6 109/3/6 112/3/6
f 109/1/6 110/1/6 113/1/6
f 112/3/6 109/3/6 113/3/6
f 113/1/6 110/1/6 114/1/6
f 110/2/6 111/2/6 115/2/6
f 114/1/6 110/1/6 115/1/6
f 111/1/6 107/1/6 116/1/6
f 115/2/6 111/2/6 116/2/6
f 113/3/6 114/3/6 117/3/6
f 114/1/6 115/1/6 118/1/6
f 117/3/6 114/3/6 118/3/6
f 115/1/6 116/1/6 118/1/6
f 118/1/6 116/1/6 119/1/6
f 118/3/6 119/3/6 120/3/6
f 119/1/6 116/1/6 121/1/6
f 120/3/6 119/3/6 121/3/6
f 116/1/6 107/1/6 122/1/6
f 121/1/6 116/1/6 122/1/6
