# MagicaVoxel @ Ephtracy

# group
o LeftSide

# material
mtllib test3-1-LeftSide.mtl
usemtl palette

# normals
vn -1 0 0
vn 1 0 0
vn 0 -1 0
vn 0 1 0
vn 0 0 -1
vn 0 0 1

# texcoords
vt 0.0175781 0.5
vt 0.0214844 0.5
vt 0.0292969 0.5

# verts
v 0 0.2 -0.1
v 0 0.3 -0.1
v 0 1 -0.1
v 0 0.2 0
v 0 0.3 0
v 0 1 0
v 0.2 0.1 -0.1
v 0.2 0.2 -0.1
v 0.2 0.1 0
v 0.2 0.2 0
v 0.3 0 -0.1
v 0.3 0.1 -0.1
v 0.3 0 0
v 0.3 0.1 0
v 0.5 0 -0.1
v 0.5 0.3 -0.1
v 0.5 0.9 -0.1
v 0.5 1 -0.1
v 0.5 0 0
v 0.5 0.3 0
v 0.5 0.9 0
v 0.5 1 0
v 0.6 0.3 -0.1
v 0.6 0.4 -0.1
v 0.6 0.7 -0.1
v 0.6 0.9 -0.1
v 0.6 0.3 0
v 0.6 0.4 0
v 0.6 0.7 0
v 0.6 0.9 0
v 0.7 0.4 -0.1
v 0.7 0.7 -0.1
v 0.7 0.4 0
v 0.7 0.7 0
v 0.3 0 -0.1
v 0.3 0 0
v 0.5 0 -0.1
v 0.5 0 0
v 0.2 0.1 -0.1
v 0.2 0.1 0
v 0.3 0.1 -0.1
v 0.3 0.1 0
v 0 0.2 -0.1
v 0 0.2 0
v 0.2 0.2 -0.1
v 0.2 0.2 0
v 0.5 0.3 -0.1
v 0.5 0.3 0
v 0.6 0.3 -0.1
v 0.6 0.3 0
v 0.6 0.4 -0.1
v 0.6 0.4 0
v 0.7 0.4 -0.1
v 0.7 0.4 0
v 0.6 0.7 -0.1
v 0.6 0.7 0
v 0.7 0.7 -0.1
v 0.7 0.7 0
v 0.5 0.9 -0.1
v 0.5 0.9 0
v 0.6 0.9 -0.1
v 0.6 0.9 0
v 0 1 -0.1
v 0 1 0
v 0.4 1 -0.1
v 0.4 1 0
v 0.5 1 -0.1
v 0.5 1 0
v 0.3 0 -0.1
v 0.5 0 -0.1
v 0.2 0.1 -0.1
v 0.3 0.1 -0.1
v 0.4 0.1 -0.1
v 0 0.2 -0.1
v 0.2 0.2 -0.1
v 0.3 0.2 -0.1
v 0 0.3 -0.1
v 0.2 0.3 -0.1
v 0.5 0.3 -0.1
v 0.6 0.3 -0.1
v 0.4 0.4 -0.1
v 0.5 0.4 -0.1
v 0.6 0.4 -0.1
v 0.7 0.4 -0.1
v 0.5 0.7 -0.1
v 0.6 0.7 -0.1
v 0.7 0.7 -0.1
v 0.4 0.9 -0.1
v 0.5 0.9 -0.1
v 0.6 0.9 -0.1
v 0 1 -0.1
v 0.4 1 -0.1
v 0.5 1 -0.1
v 0.3 0 0
v 0.5 0 0
v 0.2 0.1 0
v 0.3 0.1 0
v 0.4 0.1 0
v 0 0.2 0
v 0.2 0.2 0
v 0.3 0.2 0
v 0 0.3 0
v 0.2 0.3 0
v 0.5 0.3 0
v 0.6 0.3 0
v 0.4 0.4 0
v 0.5 0.4 0
v 0.6 0.4 0
v 0.7 0.4 0
v 0.5 0.7 0
v 0.6 0.7 0
v 0.7 0.7 0
v 0.4 0.9 0
v 0.5 0.9 0
v 0.6 0.9 0
v 0 1 0
v 0.4 1 0
v 0.5 1 0

# faces
f 4/3/1 2/3/1 1/3/1
f 5/1/1 3/1/1 2/1/1
f 5/3/1 2/3/1 4/3/1
f 6/1/1 3/1/1 5/1/1
f 9/3/1 8/3/1 7/3/1
f 10/3/1 8/3/1 9/3/1
f 13/3/1 12/3/1 11/3/1
f 14/3/1 12/3/1 13/3/1
f 15/3/2 16/3/2 19/3/2
f 19/3/2 16/3/2 20/3/2
f 17/3/2 18/3/2 21/3/2
f 21/3/2 18/3/2 22/3/2
f 23/3/2 24/3/2 27/3/2
f 27/3/2 24/3/2 28/3/2
f 25/3/2 26/3/2 29/3/2
f 29/3/2 26/3/2 30/3/2
f 31/3/2 32/3/2 33/3/2
f 33/3/2 32/3/2 34/3/2
f 37/3/3 36/3/3 35/3/3
f 38/3/3 36/3/3 37/3/3
f 41/3/3 40/3/3 39/3/3
f 42/3/3 40/3/3 41/3/3
f 45/3/3 44/3/3 43/3/3
f 46/3/3 44/3/3 45/3/3
f 49/3/3 48/3/3 47/3/3
f 50/3/3 48/3/3 49/3/3
f 53/3/3 52/3/3 51/3/3
f 54/3/3 52/3/3 53/3/3
f 55/3/4 56/3/4 57/3/4
f 57/3/4 56/3/4 58/3/4
f 59/3/4 60/3/4 61/3/4
f 61/3/4 60/3/4 62/3/4
f 63/1/4 64/1/4 65/1/4
f 65/1/4 64/1/4 66/1/4
f 65/3/4 66/3/4 67/3/4
f 67/3/4 66/3/4 68/3/4
f 72/3/5 70/3/5 69/3/5
f 73/3/5 70/3/5 72/3/5
f 75/3/5 72/3/5 71/3/5
f 76/1/5 73/1/5 72/1/5
f 76/3/5 72/3/5 75/3/5
f 77/3/5 75/3/5 74/3/5
f 78/1/5 76/1/5 75/1/5
f 78/3/5 75/3/5 77/3/5
f 79/3/5 70/3/5 73/3/5
f 81/1/5 76/1/5 78/1/5
f 81/3/5 80/3/5 79/3/5
f 81/3/5 79/3/5 73/3/5
f 81/1/5 78/1/5 77/1/5
f 81/1/5 73/1/5 76/1/5
f 82/3/5 80/3/5 81/3/5
f 83/3/5 80/3/5 82/3/5
f 85/2/5 82/2/5 81/2/5
f 85/1/5 83/1/5 82/1/5
f 86/3/5 84/3/5 83/3/5
f 86/1/5 83/1/5 85/1/5
f 87/3/5 84/3/5 86/3/5
f 88/1/5 81/1/5 77/1/5
f 88/2/5 85/2/5 81/2/5
f 89/3/5 86/3/5 85/3/5
f 89/2/5 85/2/5 88/2/5
f 90/3/5 86/3/5 89/3/5
f 91/1/5 88/1/5 77/1/5
f 92/3/5 89/3/5 88/3/5
f 92/1/5 88/1/5 91/1/5
f 93/3/5 89/3/5 92/3/5
f 94/3/6 95/3/6 97/3/6
f 97/3/6 95/3/6 98/3/6
f 96/3/6 97/3/6 100/3/6
f 97/1/6 98/1/6 101/1/6
f 100/3/6 97/3/6 101/3/6
f 99/3/6 100/3/6 102/3/6
f 100/1/6 101/1/6 103/1/6
f 102/3/6 100/3/6 103/3/6
f 98/3/6 95/3/6 104/3/6
f 103/1/6 101/1/6 106/1/6
f 104/3/6 105/3/6 106/3/6
f 98/3/6 104/3/6 106/3/6
f 102/1/6 103/1/6 106/1/6
f 101/1/6 98/1/6 106/1/6
f 106/3/6 105/3/6 107/3/6
f 107/3/6 105/3/6 108/3/6
f 106/2/6 107/2/6 110/2/6
f 107/1/6 108/1/6 110/1/6
f 108/3/6 109/3/6 111/3/6
f 110/1/6 108/1/6 111/1/6
f 111/3/6 109/3/6 112/3/6
f 102/1/6 106/1/6 113/1/6
f 106/2/6 110/2/6 113/2/6
f 110/3/6 111/3/6 114/3/6
f 113/2/6 110/2/6 114/2/6
f 114/3/6 111/3/6 115/3/6
f 102/1/6 113/1/6 116/1/6
f 113/3/6 114/3/6 117/3/6
f 116/1/6 113/1/6 117/1/6
f 117/3/6 114/3/6 118/3/6
