# MagicaVoxel @ Ephtracy

# group
o Limb

# material
mtllib Limb-0-Limb.mtl
usemtl palette

# normals
vn -1 0 0
vn 1 0 0
vn 0 -1 0
vn 0 1 0
vn 0 0 -1
vn 0 0 1

# texcoords
vt 0.00195312 0.5
vt 0.00585938 0.5
vt 0.00976562 0.5
vt 0.0371094 0.5

# verts
v 0.8 0 -0.1
v 0.8 0.1 -0.1
v 0.8 0.2 -0.1
v 0.8 0.3 -0.1
v 0.8 0.4 -0.1
v 0.8 0 0
v 0.8 0.1 0
v 0.8 0.2 0
v 0.8 0.3 0
v 0.8 0.4 0
v 1 0 -0.1
v 1 0.1 -0.1
v 1 0 0
v 1 0.1 0
v 1.1 0.1 -0.1
v 1.1 0.2 -0.1
v 1.1 0.3 -0.1
v 1.1 0.4 -0.1
v 1.1 0.1 0
v 1.1 0.2 0
v 1.1 0.3 0
v 1.1 0.4 0
v 1.2 0.2 -0.1
v 1.2 0.3 -0.1
v 1.2 0.2 0
v 1.2 0.3 0
v 0.8 0 -0.1
v 0.8 0 0
v 1 0 -0.1
v 1 0 0
v 1 0.1 -0.1
v 1 0.1 0
v 1.1 0.1 -0.1
v 1.1 0.1 0
v 1.1 0.2 -0.1
v 1.1 0.2 0
v 1.2 0.2 -0.1
v 1.2 0.2 0
v 1.1 0.3 -0.1
v 1.1 0.3 0
v 1.2 0.3 -0.1
v 1.2 0.3 0
v 0.8 0.4 -0.1
v 0.8 0.4 0
v 1 0.4 -0.1
v 1 0.4 0
v 1.1 0.4 -0.1
v 1.1 0.4 0
v 0.8 0 -0.1
v 1 0 -0.1
v 0.8 0.1 -0.1
v 0.9 0.1 -0.1
v 1 0.1 -0.1
v 1.1 0.1 -0.1
v 0.8 0.2 -0.1
v 0.9 0.2 -0.1
v 1 0.2 -0.1
v 1.1 0.2 -0.1
v 1.2 0.2 -0.1
v 0.8 0.3 -0.1
v 0.9 0.3 -0.1
v 1 0.3 -0.1
v 1.1 0.3 -0.1
v 1.2 0.3 -0.1
v 0.8 0.4 -0.1
v 1 0.4 -0.1
v 1.1 0.4 -0.1
v 0.8 0 0
v 1 0 0
v 0.8 0.1 0
v 0.9 0.1 0
v 1 0.1 0
v 1.1 0.1 0
v 0.8 0.2 0
v 0.9 0.2 0
v 1 0.2 0
v 1.1 0.2 0
v 1.2 0.2 0
v 0.8 0.3 0
v 0.9 0.3 0
v 1 0.3 0
v 1.1 0.3 0
v 1.2 0.3 0
v 0.8 0.4 0
v 1 0.4 0
v 1.1 0.4 0

# faces
f 6/1/1 2/1/1 1/1/1
f 7/3/1 3/3/1 2/3/1
f 7/1/1 2/1/1 6/1/1
f 8/4/1 4/4/1 3/4/1
f 8/3/1 3/3/1 7/3/1
f 9/3/1 5/3/1 4/3/1
f 9/4/1 4/4/1 8/4/1
f 10/3/1 5/3/1 9/3/1
f 11/1/2 12/1/2 13/1/2
f 13/1/2 12/1/2 14/1/2
f 15/1/2 16/1/2 19/1/2
f 19/1/2 16/1/2 20/1/2
f 17/1/2 18/1/2 21/1/2
f 21/1/2 18/1/2 22/1/2
f 23/1/2 24/1/2 25/1/2
f 25/1/2 24/1/2 26/1/2
f 29/1/3 28/1/3 27/1/3
f 30/1/3 28/1/3 29/1/3
f 33/1/3 32/1/3 31/1/3
f 34/1/3 32/1/3 33/1/3
f 37/1/3 36/1/3 35/1/3
f 38/1/3 36/1/3 37/1/3
f 39/1/4 40/1/4 41/1/4
f 41/1/4 40/1/4 42/1/4
f 43/3/4 44/3/4 45/3/4
f 45/3/4 44/3/4 46/3/4
f 45/1/4 46/1/4 47/1/4
f 47/1/4 46/1/4 48/1/4
f 51/1/5 50/1/5 49/1/5
f 52/1/5 50/1/5 51/1/5
f 53/1/5 50/1/5 52/1/5
f 55/3/5 52/3/5 51/3/5
f 56/2/5 53/2/5 52/2/5
f 56/3/5 52/3/5 55/3/5
f 57/1/5 54/1/5 53/1/5
f 57/2/5 53/2/5 56/2/5
f 58/1/5 54/1/5 57/1/5
f 60/4/5 56/4/5 55/4/5
f 61/3/5 57/3/5 56/3/5
f 61/4/5 56/4/5 60/4/5
f 62/2/5 58/2/5 57/2/5
f 62/3/5 57/3/5 61/3/5
f 63/1/5 59/1/5 58/1/5
f 63/2/5 58/2/5 62/2/5
f 64/1/5 59/1/5 63/1/5
f 65/3/5 62/3/5 61/3/5
f 65/3/5 61/3/5 60/3/5
f 66/1/5 63/1/5 62/1/5
f 66/3/5 62/3/5 65/3/5
f 67/1/5 63/1/5 66/1/5
f 68/1/6 69/1/6 70/1/6
f 70/1/6 69/1/6 71/1/6
f 71/1/6 69/1/6 72/1/6
f 70/3/6 71/3/6 74/3/6
f 71/2/6 72/2/6 75/2/6
f 74/3/6 71/3/6 75/3/6
f 72/1/6 73/1/6 76/1/6
f 75/2/6 72/2/6 76/2/6
f 76/1/6 73/1/6 77/1/6
f 74/4/6 75/4/6 79/4/6
f 75/3/6 76/3/6 80/3/6
f 79/4/6 75/4/6 80/4/6
f 76/2/6 77/2/6 81/2/6
f 80/3/6 76/3/6 81/3/6
f 77/1/6 78/1/6 82/1/6
f 81/2/6 77/2/6 82/2/6
f 82/1/6 78/1/6 83/1/6
f 80/3/6 81/3/6 84/3/6
f 79/3/6 80/3/6 84/3/6
f 81/1/6 82/1/6 85/1/6
f 84/3/6 81/3/6 85/3/6
f 85/1/6 82/1/6 86/1/6
