# MagicaVoxel @ Ephtracy

# group
o Limb

# material
mtllib Limb-6-Limb.mtl
usemtl palette

# normals
vn -1 0 0
vn 1 0 0
vn 0 -1 0
vn 0 1 0
vn 0 0 -1
vn 0 0 1

# texcoords
vt 0.00195312 0.5
vt 0.00585938 0.5
vt 0.00976562 0.5
vt 0.0371094 0.5
vt 0.0410156 0.5

# verts
v -1.2 0.2 -0.1
v -1.2 0.5 -0.1
v -1.2 0.2 0
v -1.2 0.5 0
v -1.1 0 -0.1
v -1.1 0.2 -0.1
v -1.1 0 0
v -1.1 0.2 0
v -0.7 0.5 -0.1
v -0.7 0.6 -0.1
v -0.7 0.5 0
v -0.7 0.6 0
v -0.2 0.5 -0.1
v -0.2 0.6 -0.1
v -0.2 0.5 0
v -0.2 0.6 0
v 0 0 -0.1
v 0 0.1 -0.1
v 0 0.2 -0.1
v 0 0.4 -0.1
v 0 0.5 -0.1
v 0 0 0
v 0 0.1 0
v 0 0.2 0
v 0 0.4 0
v 0 0.5 0
v -1.1 0 -0.1
v -1.1 0 0
v 0 0 -0.1
v 0 0 0
v -1.2 0.2 -0.1
v -1.2 0.2 0
v -1.1 0.2 -0.1
v -1.1 0.2 0
v -1.2 0.5 -0.1
v -1.2 0.5 0
v -0.7 0.5 -0.1
v -0.7 0.5 0
v -0.2 0.5 -0.1
v -0.2 0.5 0
v 0 0.5 -0.1
v 0 0.5 0
v -0.7 0.6 -0.1
v -0.7 0.6 0
v -0.2 0.6 -0.1
v -0.2 0.6 0
v -1.1 0 -0.1
v 0 0 -0.1
v -1 0.1 -0.1
v -0.7 0.1 -0.1
v -0.5 0.1 -0.1
v 0 0.1 -0.1
v -1.2 0.2 -0.1
v -1.1 0.2 -0.1
v -1 0.2 -0.1
v -0.9 0.2 -0.1
v -0.8 0.2 -0.1
v -0.7 0.2 -0.1
v -0.5 0.2 -0.1
v 0 0.2 -0.1
v -1 0.3 -0.1
v -0.9 0.3 -0.1
v -0.8 0.3 -0.1
v -1.1 0.4 -0.1
v -0.9 0.4 -0.1
v -0.7 0.4 -0.1
v -0.2 0.4 -0.1
v 0 0.4 -0.1
v -1.2 0.5 -0.1
v -0.7 0.5 -0.1
v -0.2 0.5 -0.1
v 0 0.5 -0.1
v -0.7 0.6 -0.1
v -0.2 0.6 -0.1
v -1.1 0 0
v 0 0 0
v -1 0.1 0
v -0.7 0.1 0
v -0.5 0.1 0
v 0 0.1 0
v -1.2 0.2 0
v -1.1 0.2 0
v -1 0.2 0
v -0.9 0.2 0
v -0.8 0.2 0
v -0.7 0.2 0
v -0.5 0.2 0
v 0 0.2 0
v -1 0.3 0
v -0.9 0.3 0
v -0.8 0.3 0
v -1.1 0.4 0
v -0.9 0.4 0
v -0.7 0.4 0
v -0.2 0.4 0
v 0 0.4 0
v -1.2 0.5 0
v -0.7 0.5 0
v -0.2 0.5 0
v 0 0.5 0
v -0.7 0.6 0
v -0.2 0.6 0

# faces
f 3/1/1 2/1/1 1/1/1
f 4/1/1 2/1/1 3/1/1
f 7/1/1 6/1/1 5/1/1
f 8/1/1 6/1/1 7/1/1
f 11/1/1 10/1/1 9/1/1
f 12/1/1 10/1/1 11/1/1
f 13/1/2 14/1/2 15/1/2
f 15/1/2 14/1/2 16/1/2
f 17/1/2 18/1/2 22/1/2
f 18/5/2 19/5/2 23/5/2
f 22/1/2 18/1/2 23/1/2
f 19/4/2 20/4/2 24/4/2
f 23/5/2 19/5/2 24/5/2
f 20/1/2 21/1/2 25/1/2
f 24/4/2 20/4/2 25/4/2
f 25/1/2 21/1/2 26/1/2
f 29/1/3 28/1/3 27/1/3
f 30/1/3 28/1/3 29/1/3
f 33/1/3 32/1/3 31/1/3
f 34/1/3 32/1/3 33/1/3
f 35/1/4 36/1/4 37/1/4
f 37/1/4 36/1/4 38/1/4
f 39/1/4 40/1/4 41/1/4
f 41/1/4 40/1/4 42/1/4
f 43/1/4 44/1/4 45/1/4
f 45/1/4 44/1/4 46/1/4
f 49/1/5 48/1/5 47/1/5
f 50/1/5 48/1/5 49/1/5
f 51/1/5 48/1/5 50/1/5
f 52/1/5 48/1/5 51/1/5
f 54/1/5 49/1/5 47/1/5
f 55/2/5 50/2/5 49/2/5
f 55/1/5 49/1/5 54/1/5
f 56/2/5 50/2/5 55/2/5
f 57/2/5 50/2/5 56/2/5
f 58/3/5 51/3/5 50/3/5
f 58/2/5 50/2/5 57/2/5
f 59/5/5 52/5/5 51/5/5
f 59/3/5 51/3/5 58/3/5
f 60/5/5 52/5/5 59/5/5
f 61/3/5 55/3/5 54/3/5
f 61/2/5 56/2/5 55/2/5
f 62/3/5 57/3/5 56/3/5
f 62/2/5 56/2/5 61/2/5
f 63/4/5 58/4/5 57/4/5
f 63/3/5 57/3/5 62/3/5
f 63/4/5 60/4/5 59/4/5
f 63/4/5 59/4/5 58/4/5
f 64/1/5 54/1/5 53/1/5
f 64/3/5 61/3/5 54/3/5
f 64/3/5 62/3/5 61/3/5
f 65/4/5 63/4/5 62/4/5
f 65/3/5 62/3/5 64/3/5
f 66/4/5 60/4/5 63/4/5
f 66/4/5 63/4/5 65/4/5
f 67/4/5 60/4/5 66/4/5
f 68/4/5 60/4/5 67/4/5
f 69/1/5 65/1/5 64/1/5
f 69/1/5 64/1/5 53/1/5
f 69/1/5 66/1/5 65/1/5
f 70/4/5 67/4/5 66/4/5
f 70/1/5 66/1/5 69/1/5
f 71/1/5 68/1/5 67/1/5
f 71/4/5 67/4/5 70/4/5
f 72/1/5 68/1/5 71/1/5
f 73/1/5 71/1/5 70/1/5
f 74/1/5 71/1/5 73/1/5
f 75/1/6 76/1/6 77/1/6
f 77/1/6 76/1/6 78/1/6
f 78/1/6 76/1/6 79/1/6
f 79/1/6 76/1/6 80/1/6
f 75/1/6 77/1/6 82/1/6
f 77/2/6 78/2/6 83/2/6
f 82/1/6 77/1/6 83/1/6
f 83/2/6 78/2/6 84/2/6
f 84/2/6 78/2/6 85/2/6
f 78/3/6 79/3/6 86/3/6
f 85/2/6 78/2/6 86/2/6
f 79/5/6 80/5/6 87/5/6
f 86/3/6 79/3/6 87/3/6
f 87/5/6 80/5/6 88/5/6
f 82/3/6 83/3/6 89/3/6
f 83/2/6 84/2/6 89/2/6
f 84/3/6 85/3/6 90/3/6
f 89/2/6 84/2/6 90/2/6
f 85/4/6 86/4/6 91/4/6
f 90/3/6 85/3/6 91/3/6
f 87/4/6 88/4/6 91/4/6
f 86/4/6 87/4/6 91/4/6
f 81/1/6 82/1/6 92/1/6
f 82/3/6 89/3/6 92/3/6
f 89/3/6 90/3/6 92/3/6
f 90/4/6 91/4/6 93/4/6
f 92/3/6 90/3/6 93/3/6
f 91/4/6 88/4/6 94/4/6
f 93/4/6 91/4/6 94/4/6
f 94/4/6 88/4/6 95/4/6
f 95/4/6 88/4/6 96/4/6
f 92/1/6 93/1/6 97/1/6
f 81/1/6 92/1/6 97/1/6
f 93/1/6 94/1/6 97/1/6
f 94/4/6 95/4/6 98/4/6
f 97/1/6 94/1/6 98/1/6
f 95/1/6 96/1/6 99/1/6
f 98/4/6 95/4/6 99/4/6
f 99/1/6 96/1/6 100/1/6
f 98/1/6 99/1/6 101/1/6
f 101/1/6 99/1/6 102/1/6
