# MagicaVoxel @ Ephtracy

# group
o Limb

# material
mtllib Limb-10-Limb.mtl
usemtl palette

# normals
vn -1 0 0
vn 1 0 0
vn 0 -1 0
vn 0 1 0
vn 0 0 -1
vn 0 0 1

# texcoords
vt 0.00195312 0.5
vt 0.0332031 0.5
vt 0.0410156 0.5

# verts
v -0.7 0.4 -0.1
v -0.7 0.7 -0.1
v -0.7 0.4 0
v -0.7 0.7 0
v -0.6 0.3 -0.1
v -0.6 0.4 -0.1
v -0.6 0.7 -0.1
v -0.6 0.9 -0.1
v -0.6 0.3 0
v -0.6 0.4 0
v -0.6 0.7 0
v -0.6 0.9 0
v -0.5 0 -0.1
v -0.5 0.3 -0.1
v -0.5 0.9 -0.1
v -0.5 1 -0.1
v -0.5 0 0
v -0.5 0.3 0
v -0.5 0.9 0
v -0.5 1 0
v -0.3 0 -0.1
v -0.3 0.1 -0.1
v -0.3 0.4 -0.1
v -0.3 0.8 -0.1
v -0.3 1 -0.1
v -0.3 0 0
v -0.3 0.1 0
v -0.3 0.4 0
v -0.3 0.8 0
v -0.3 1 0
v -0.5 0 -0.1
v -0.5 0 0
v -0.3 0 -0.1
v -0.3 0 0
v -0.6 0.3 -0.1
v -0.6 0.3 0
v -0.5 0.3 -0.1
v -0.5 0.3 0
v -0.7 0.4 -0.1
v -0.7 0.4 0
v -0.6 0.4 -0.1
v -0.6 0.4 0
v -0.7 0.7 -0.1
v -0.7 0.7 0
v -0.6 0.7 -0.1
v -0.6 0.7 0
v -0.6 0.9 -0.1
v -0.6 0.9 0
v -0.5 0.9 -0.1
v -0.5 0.9 0
v -0.5 1 -0.1
v -0.5 1 0
v -0.4 1 -0.1
v -0.4 1 0
v -0.3 1 -0.1
v -0.3 1 0
v -0.5 0 -0.1
v -0.3 0 -0.1
v -0.4 0.1 -0.1
v -0.3 0.1 -0.1
v -0.6 0.3 -0.1
v -0.5 0.3 -0.1
v -0.7 0.4 -0.1
v -0.6 0.4 -0.1
v -0.4 0.4 -0.1
v -0.3 0.4 -0.1
v -0.7 0.7 -0.1
v -0.6 0.7 -0.1
v -0.5 0.7 -0.1
v -0.4 0.8 -0.1
v -0.3 0.8 -0.1
v -0.6 0.9 -0.1
v -0.5 0.9 -0.1
v -0.4 0.9 -0.1
v -0.5 1 -0.1
v -0.4 1 -0.1
v -0.3 1 -0.1
v -0.5 0 0
v -0.3 0 0
v -0.4 0.1 0
v -0.3 0.1 0
v -0.6 0.3 0
v -0.5 0.3 0
v -0.7 0.4 0
v -0.6 0.4 0
v -0.4 0.4 0
v -0.3 0.4 0
v -0.7 0.7 0
v -0.6 0.7 0
v -0.5 0.7 0
v -0.4 0.8 0
v -0.3 0.8 0
v -0.6 0.9 0
v -0.5 0.9 0
v -0.4 0.9 0
v -0.5 1 0
v -0.4 1 0
v -0.3 1 0

# faces
f 3/1/1 2/1/1 1/1/1
f 4/1/1 2/1/1 3/1/1
f 9/1/1 6/1/1 5/1/1
f 10/1/1 6/1/1 9/1/1
f 11/1/1 8/1/1 7/1/1
f 12/1/1 8/1/1 11/1/1
f 17/1/1 14/1/1 13/1/1
f 18/1/1 14/1/1 17/1/1
f 19/1/1 16/1/1 15/1/1
f 20/1/1 16/1/1 19/1/1
f 21/1/2 22/1/2 26/1/2
f 22/2/2 23/2/2 27/2/2
f 26/1/2 22/1/2 27/1/2
f 23/3/2 24/3/2 28/3/2
f 27/2/2 23/2/2 28/2/2
f 24/2/2 25/2/2 29/2/2
f 28/3/2 24/3/2 29/3/2
f 29/2/2 25/2/2 30/2/2
f 33/1/3 32/1/3 31/1/3
f 34/1/3 32/1/3 33/1/3
f 37/1/3 36/1/3 35/1/3
f 38/1/3 36/1/3 37/1/3
f 41/1/3 40/1/3 39/1/3
f 42/1/3 40/1/3 41/1/3
f 43/1/4 44/1/4 45/1/4
f 45/1/4 44/1/4 46/1/4
f 47/1/4 48/1/4 49/1/4
f 49/1/4 48/1/4 50/1/4
f 51/1/4 52/1/4 53/1/4
f 53/1/4 52/1/4 54/1/4
f 53/2/4 54/2/4 55/2/4
f 55/2/4 54/2/4 56/2/4
f 59/1/5 58/1/5 57/1/5
f 60/1/5 58/1/5 59/1/5
f 62/1/5 59/1/5 57/1/5
f 64/1/5 62/1/5 61/1/5
f 65/2/5 60/2/5 59/2/5
f 65/1/5 59/1/5 62/1/5
f 65/1/5 62/1/5 64/1/5
f 66/2/5 60/2/5 65/2/5
f 67/1/5 64/1/5 63/1/5
f 68/2/5 65/2/5 64/2/5
f 68/1/5 64/1/5 67/1/5
f 69/2/5 65/2/5 68/2/5
f 70/3/5 66/3/5 65/3/5
f 70/2/5 65/2/5 69/2/5
f 71/3/5 66/3/5 70/3/5
f 72/1/5 69/1/5 68/1/5
f 73/2/5 70/2/5 69/2/5
f 73/1/5 69/1/5 72/1/5
f 73/2/5 71/2/5 70/2/5
f 74/2/5 71/2/5 73/2/5
f 75/1/5 74/1/5 73/1/5
f 76/2/5 71/2/5 74/2/5
f 76/1/5 74/1/5 75/1/5
f 77/2/5 71/2/5 76/2/5
f 78/1/6 79/1/6 80/1/6
f 80/1/6 79/1/6 81/1/6
f 78/1/6 80/1/6 83/1/6
f 82/1/6 83/1/6 85/1/6
f 80/2/6 81/2/6 86/2/6
f 83/1/6 80/1/6 86/1/6
f 85/1/6 83/1/6 86/1/6
f 86/2/6 81/2/6 87/2/6
f 84/1/6 85/1/6 88/1/6
f 85/2/6 86/2/6 89/2/6
f 88/1/6 85/1/6 89/1/6
f 89/2/6 86/2/6 90/2/6
f 86/3/6 87/3/6 91/3/6
f 90/2/6 86/2/6 91/2/6
f 91/3/6 87/3/6 92/3/6
f 89/1/6 90/1/6 93/1/6
f 90/2/6 91/2/6 94/2/6
f 93/1/6 90/1/6 94/1/6
f 91/2/6 92/2/6 94/2/6
f 94/2/6 92/2/6 95/2/6
f 94/1/6 95/1/6 96/1/6
f 95/2/6 92/2/6 97/2/6
f 96/1/6 95/1/6 97/1/6
f 97/2/6 92/2/6 98/2/6
