# MagicaVoxel @ Ephtracy

# group
o Limb

# material
mtllib Limb-7-Limb.mtl
usemtl palette

# normals
vn -1 0 0
vn 1 0 0
vn 0 -1 0
vn 0 1 0
vn 0 0 -1
vn 0 0 1

# texcoords
vt 0.00195312 0.5
vt 0.00585938 0.5
vt 0.00976562 0.5
vt 0.0332031 0.5

# verts
v 0.3 0 -0.1
v 0.3 0.1 -0.1
v 0.3 0.6 -0.1
v 0.3 0.7 -0.1
v 0.3 0.8 -0.1
v 0.3 1 -0.1
v 0.3 0 0
v 0.3 0.1 0
v 0.3 0.6 0
v 0.3 0.7 0
v 0.3 0.8 0
v 0.3 1 0
v 0.5 0 -0.1
v 0.5 0.6 -0.1
v 0.5 0.9 -0.1
v 0.5 1 -0.1
v 0.5 0 0
v 0.5 0.6 0
v 0.5 0.9 0
v 0.5 1 0
v 0.6 0.6 -0.1
v 0.6 0.9 -0.1
v 0.6 0.6 0
v 0.6 0.9 0
v 0.3 0 -0.1
v 0.3 0 0
v 0.5 0 -0.1
v 0.5 0 0
v 0.5 0.6 -0.1
v 0.5 0.6 0
v 0.6 0.6 -0.1
v 0.6 0.6 0
v 0.5 0.9 -0.1
v 0.5 0.9 0
v 0.6 0.9 -0.1
v 0.6 0.9 0
v 0.3 1 -0.1
v 0.3 1 0
v 0.4 1 -0.1
v 0.4 1 0
v 0.5 1 -0.1
v 0.5 1 0
v 0.3 0 -0.1
v 0.5 0 -0.1
v 0.3 0.1 -0.1
v 0.4 0.1 -0.1
v 0.3 0.6 -0.1
v 0.4 0.6 -0.1
v 0.5 0.6 -0.1
v 0.6 0.6 -0.1
v 0.3 0.7 -0.1
v 0.5 0.7 -0.1
v 0.3 0.8 -0.1
v 0.4 0.8 -0.1
v 0.5 0.8 -0.1
v 0.5 0.9 -0.1
v 0.6 0.9 -0.1
v 0.3 1 -0.1
v 0.4 1 -0.1
v 0.5 1 -0.1
v 0.3 0 0
v 0.5 0 0
v 0.3 0.1 0
v 0.4 0.1 0
v 0.3 0.6 0
v 0.4 0.6 0
v 0.5 0.6 0
v 0.6 0.6 0
v 0.3 0.7 0
v 0.5 0.7 0
v 0.3 0.8 0
v 0.4 0.8 0
v 0.5 0.8 0
v 0.5 0.9 0
v 0.6 0.9 0
v 0.3 1 0
v 0.4 1 0
v 0.5 1 0

# faces
f 7/1/1 2/1/1 1/1/1
f 8/4/1 3/4/1 2/4/1
f 8/1/1 2/1/1 7/1/1
f 9/3/1 4/3/1 3/3/1
f 9/4/1 3/4/1 8/4/1
f 10/2/1 5/2/1 4/2/1
f 10/3/1 4/3/1 9/3/1
f 11/4/1 6/4/1 5/4/1
f 11/2/1 5/2/1 10/2/1
f 12/4/1 6/4/1 11/4/1
f 13/1/2 14/1/2 17/1/2
f 17/1/2 14/1/2 18/1/2
f 15/1/2 16/1/2 19/1/2
f 19/1/2 16/1/2 20/1/2
f 21/1/2 22/1/2 23/1/2
f 23/1/2 22/1/2 24/1/2
f 27/1/3 26/1/3 25/1/3
f 28/1/3 26/1/3 27/1/3
f 31/1/3 30/1/3 29/1/3
f 32/1/3 30/1/3 31/1/3
f 33/1/4 34/1/4 35/1/4
f 35/1/4 34/1/4 36/1/4
f 37/4/4 38/4/4 39/4/4
f 39/4/4 38/4/4 40/4/4
f 39/1/4 40/1/4 41/1/4
f 41/1/4 40/1/4 42/1/4
f 45/1/5 44/1/5 43/1/5
f 46/1/5 44/1/5 45/1/5
f 47/4/5 46/4/5 45/4/5
f 48/1/5 44/1/5 46/1/5
f 48/4/5 46/4/5 47/4/5
f 49/1/5 44/1/5 48/1/5
f 51/3/5 48/3/5 47/3/5
f 51/3/5 49/3/5 48/3/5
f 52/1/5 50/1/5 49/1/5
f 52/3/5 49/3/5 51/3/5
f 53/2/5 52/2/5 51/2/5
f 54/2/5 52/2/5 53/2/5
f 55/1/5 50/1/5 52/1/5
f 55/2/5 52/2/5 54/2/5
f 56/1/5 55/1/5 54/1/5
f 56/1/5 50/1/5 55/1/5
f 57/1/5 50/1/5 56/1/5
f 58/4/5 54/4/5 53/4/5
f 59/1/5 56/1/5 54/1/5
f 59/4/5 54/4/5 58/4/5
f 60/1/5 56/1/5 59/1/5
f 61/1/6 62/1/6 63/1/6
f 63/1/6 62/1/6 64/1/6
f 63/4/6 64/4/6 65/4/6
f 64/1/6 62/1/6 66/1/6
f 65/4/6 64/4/6 66/4/6
f 66/1/6 62/1/6 67/1/6
f 65/3/6 66/3/6 69/3/6
f 66/3/6 67/3/6 69/3/6
f 67/1/6 68/1/6 70/1/6
f 69/3/6 67/3/6 70/3/6
f 69/2/6 70/2/6 71/2/6
f 71/2/6 70/2/6 72/2/6
f 70/1/6 68/1/6 73/1/6
f 72/2/6 70/2/6 73/2/6
f 72/1/6 73/1/6 74/1/6
f 73/1/6 68/1/6 74/1/6
f 74/1/6 68/1/6 75/1/6
f 71/4/6 72/4/6 76/4/6
f 72/1/6 74/1/6 77/1/6
f 76/4/6 72/4/6 77/4/6
f 77/1/6 74/1/6 78/1/6
