# MagicaVoxel @ Ephtracy

# group
o Limb

# material
mtllib Limb-1-Limb.mtl
usemtl palette

# normals
vn -1 0 0
vn 1 0 0
vn 0 -1 0
vn 0 1 0
vn 0 0 -1
vn 0 0 1

# texcoords
vt 0.00195312 0.5
vt 0.00585938 0.5
vt 0.00976562 0.5
vt 0.0371094 0.5
vt 0.0410156 0.5

# verts
v 0 0 -0.1
v 0 0.1 -0.1
v 0 0.2 -0.1
v 0 0.4 -0.1
v 0 0 0
v 0 0.1 0
v 0 0.2 0
v 0 0.4 0
v 0.8 0 -0.1
v 0.8 0.1 -0.1
v 0.8 0.2 -0.1
v 0.8 0.4 -0.1
v 0.8 0 0
v 0.8 0.1 0
v 0.8 0.2 0
v 0.8 0.4 0
v 0 0 -0.1
v 0 0 0
v 0.8 0 -0.1
v 0.8 0 0
v 0 0.4 -0.1
v 0 0.4 0
v 0.1 0.4 -0.1
v 0.1 0.4 0
v 0.5 0.4 -0.1
v 0.5 0.4 0
v 0.8 0.4 -0.1
v 0.8 0.4 0
v 0 0 -0.1
v 0.8 0 -0.1
v 0 0.1 -0.1
v 0.2 0.1 -0.1
v 0.6 0.1 -0.1
v 0.8 0.1 -0.1
v 0 0.2 -0.1
v 0.1 0.2 -0.1
v 0.2 0.2 -0.1
v 0.4 0.2 -0.1
v 0.6 0.2 -0.1
v 0.8 0.2 -0.1
v 0.2 0.3 -0.1
v 0.4 0.3 -0.1
v 0.5 0.3 -0.1
v 0.6 0.3 -0.1
v 0 0.4 -0.1
v 0.1 0.4 -0.1
v 0.5 0.4 -0.1
v 0.8 0.4 -0.1
v 0 0 0
v 0.8 0 0
v 0 0.1 0
v 0.2 0.1 0
v 0.6 0.1 0
v 0.8 0.1 0
v 0 0.2 0
v 0.1 0.2 0
v 0.2 0.2 0
v 0.4 0.2 0
v 0.6 0.2 0
v 0.8 0.2 0
v 0.2 0.3 0
v 0.4 0.3 0
v 0.5 0.3 0
v 0.6 0.3 0
v 0 0.4 0
v 0.1 0.4 0
v 0.5 0.4 0
v 0.8 0.4 0

# faces
f 5/1/1 2/1/1 1/1/1
f 6/5/1 3/5/1 2/5/1
f 6/1/1 2/1/1 5/1/1
f 7/4/1 4/4/1 3/4/1
f 7/5/1 3/5/1 6/5/1
f 8/4/1 4/4/1 7/4/1
f 9/1/2 10/1/2 13/1/2
f 10/5/2 11/5/2 14/5/2
f 13/1/2 10/1/2 14/1/2
f 11/4/2 12/4/2 15/4/2
f 14/5/2 11/5/2 15/5/2
f 15/4/2 12/4/2 16/4/2
f 19/1/3 18/1/3 17/1/3
f 20/1/3 18/1/3 19/1/3
f 21/4/4 22/4/4 23/4/4
f 23/4/4 22/4/4 24/4/4
f 23/3/4 24/3/4 25/3/4
f 25/3/4 24/3/4 26/3/4
f 25/4/4 26/4/4 27/4/4
f 27/4/4 26/4/4 28/4/4
f 31/1/5 30/1/5 29/1/5
f 32/1/5 30/1/5 31/1/5
f 33/1/5 30/1/5 32/1/5
f 34/1/5 30/1/5 33/1/5
f 35/5/5 32/5/5 31/5/5
f 36/5/5 32/5/5 35/5/5
f 37/2/5 33/2/5 32/2/5
f 37/5/5 32/5/5 36/5/5
f 38/2/5 33/2/5 37/2/5
f 39/5/5 34/5/5 33/5/5
f 39/2/5 33/2/5 38/2/5
f 40/5/5 34/5/5 39/5/5
f 41/2/5 38/2/5 37/2/5
f 41/3/5 37/3/5 36/3/5
f 42/3/5 39/3/5 38/3/5
f 42/2/5 38/2/5 41/2/5
f 43/3/5 39/3/5 42/3/5
f 44/4/5 40/4/5 39/4/5
f 44/3/5 39/3/5 43/3/5
f 45/4/5 36/4/5 35/4/5
f 46/3/5 43/3/5 42/3/5
f 46/4/5 36/4/5 45/4/5
f 46/3/5 41/3/5 36/3/5
f 46/3/5 42/3/5 41/3/5
f 47/4/5 44/4/5 43/4/5
f 47/3/5 43/3/5 46/3/5
f 48/4/5 40/4/5 44/4/5
f 48/4/5 44/4/5 47/4/5
f 49/1/6 50/1/6 51/1/6
f 51/1/6 50/1/6 52/1/6
f 52/1/6 50/1/6 53/1/6
f 53/1/6 50/1/6 54/1/6
f 51/5/6 52/5/6 55/5/6
f 55/5/6 52/5/6 56/5/6
f 52/2/6 53/2/6 57/2/6
f 56/5/6 52/5/6 57/5/6
f 57/2/6 53/2/6 58/2/6
f 53/5/6 54/5/6 59/5/6
f 58/2/6 53/2/6 59/2/6
f 59/5/6 54/5/6 60/5/6
f 57/2/6 58/2/6 61/2/6
f 56/3/6 57/3/6 61/3/6
f 58/3/6 59/3/6 62/3/6
f 61/2/6 58/2/6 62/2/6
f 62/3/6 59/3/6 63/3/6
f 59/4/6 60/4/6 64/4/6
f 63/3/6 59/3/6 64/3/6
f 55/4/6 56/4/6 65/4/6
f 62/3/6 63/3/6 66/3/6
f 65/4/6 56/4/6 66/4/6
f 56/3/6 61/3/6 66/3/6
f 61/3/6 62/3/6 66/3/6
f 63/4/6 64/4/6 67/4/6
f 66/3/6 63/3/6 67/3/6
f 64/4/6 60/4/6 68/4/6
f 67/4/6 64/4/6 68/4/6
