# MagicaVoxel @ Ephtracy

# group
o Limb

# material
mtllib Limb-4-Limb.mtl
usemtl palette

# normals
vn -1 0 0
vn 1 0 0
vn 0 -1 0
vn 0 1 0
vn 0 0 -1
vn 0 0 1

# texcoords
vt 0.00195312 0.5
vt 0.00585938 0.5
vt 0.00976562 0.5
vt 0.0175781 0.5
vt 0.0214844 0.5
vt 0.0253906 0.5
vt 0.0410156 0.5

# verts
v -0.9 0 -0.1
v -0.9 0.2 -0.1
v -0.9 0 0
v -0.9 0.2 0
v -0.8 0.2 -0.1
v -0.8 0.3 -0.1
v -0.8 0.2 0
v -0.8 0.3 0
v -0.6 0.3 -0.1
v -0.6 0.4 -0.1
v -0.6 0.3 0
v -0.6 0.4 0
v -0.5 0.4 -0.1
v -0.5 0.5 -0.1
v -0.5 0.4 0
v -0.5 0.5 0
v 0 0 -0.1
v 0 0.1 -0.1
v 0 0.2 -0.1
v 0 0.4 -0.1
v 0 0.5 -0.1
v 0 0 0
v 0 0.1 0
v 0 0.2 0
v 0 0.4 0
v 0 0.5 0
v -0.9 0 -0.1
v -0.9 0 0
v 0 0 -0.1
v 0 0 0
v -0.9 0.2 -0.1
v -0.9 0.2 0
v -0.8 0.2 -0.1
v -0.8 0.2 0
v -0.8 0.3 -0.1
v -0.8 0.3 0
v -0.6 0.3 -0.1
v -0.6 0.3 0
v -0.6 0.4 -0.1
v -0.6 0.4 0
v -0.5 0.4 -0.1
v -0.5 0.4 0
v -0.5 0.5 -0.1
v -0.5 0.5 0
v 0 0.5 -0.1
v 0 0.5 0
v -0.9 0 -0.1
v 0 0 -0.1
v -0.8 0.1 -0.1
v -0.7 0.1 -0.1
v -0.4 0.1 -0.1
v -0.3 0.1 -0.1
v -0.2 0.1 -0.1
v -0.1 0.1 -0.1
v 0 0.1 -0.1
v -0.9 0.2 -0.1
v -0.8 0.2 -0.1
v -0.7 0.2 -0.1
v -0.6 0.2 -0.1
v -0.5 0.2 -0.1
v -0.4 0.2 -0.1
v -0.3 0.2 -0.1
v -0.2 0.2 -0.1
v -0.1 0.2 -0.1
v 0 0.2 -0.1
v -0.8 0.3 -0.1
v -0.6 0.3 -0.1
v -0.5 0.3 -0.1
v -0.4 0.3 -0.1
v -0.3 0.3 -0.1
v -0.2 0.3 -0.1
v -0.6 0.4 -0.1
v -0.5 0.4 -0.1
v -0.4 0.4 -0.1
v -0.3 0.4 -0.1
v -0.1 0.4 -0.1
v 0 0.4 -0.1
v -0.5 0.5 -0.1
v 0 0.5 -0.1
v -0.9 0 0
v 0 0 0
v -0.8 0.1 0
v -0.7 0.1 0
v -0.4 0.1 0
v -0.3 0.1 0
v -0.2 0.1 0
v -0.1 0.1 0
v 0 0.1 0
v -0.9 0.2 0
v -0.8 0.2 0
v -0.7 0.2 0
v -0.6 0.2 0
v -0.5 0.2 0
v -0.4 0.2 0
v -0.3 0.2 0
v -0.2 0.2 0
v -0.1 0.2 0
v 0 0.2 0
v -0.8 0.3 0
v -0.6 0.3 0
v -0.5 0.3 0
v -0.4 0.3 0
v -0.3 0.3 0
v -0.2 0.3 0
v -0.6 0.4 0
v -0.5 0.4 0
v -0.4 0.4 0
v -0.3 0.4 0
v -0.1 0.4 0
v 0 0.4 0
v -0.5 0.5 0
v 0 0.5 0

# faces
f 3/1/1 2/1/1 1/1/1
f 4/1/1 2/1/1 3/1/1
f 7/1/1 6/1/1 5/1/1
f 8/1/1 6/1/1 7/1/1
f 11/1/1 10/1/1 9/1/1
f 12/1/1 10/1/1 11/1/1
f 15/1/1 14/1/1 13/1/1
f 16/1/1 14/1/1 15/1/1
f 17/1/2 18/1/2 22/1/2
f 18/7/2 19/7/2 23/7/2
f 22/1/2 18/1/2 23/1/2
f 19/3/2 20/3/2 24/3/2
f 23/7/2 19/7/2 24/7/2
f 20/1/2 21/1/2 25/1/2
f 24/3/2 20/3/2 25/3/2
f 25/1/2 21/1/2 26/1/2
f 29/1/3 28/1/3 27/1/3
f 30/1/3 28/1/3 29/1/3
f 31/1/4 32/1/4 33/1/4
f 33/1/4 32/1/4 34/1/4
f 35/1/4 36/1/4 37/1/4
f 37/1/4 36/1/4 38/1/4
f 39/1/4 40/1/4 41/1/4
f 41/1/4 40/1/4 42/1/4
f 43/1/4 44/1/4 45/1/4
f 45/1/4 44/1/4 46/1/4
f 49/1/5 48/1/5 47/1/5
f 50/1/5 48/1/5 49/1/5
f 51/1/5 48/1/5 50/1/5
f 52/1/5 48/1/5 51/1/5
f 53/1/5 48/1/5 52/1/5
f 54/1/5 48/1/5 53/1/5
f 55/1/5 48/1/5 54/1/5
f 56/1/5 49/1/5 47/1/5
f 57/3/5 50/3/5 49/3/5
f 57/1/5 49/1/5 56/1/5
f 58/4/5 51/4/5 50/4/5
f 58/3/5 50/3/5 57/3/5
f 59/4/5 51/4/5 58/4/5
f 60/4/5 51/4/5 59/4/5
f 61/6/5 52/6/5 51/6/5
f 61/4/5 51/4/5 60/4/5
f 62/2/5 53/2/5 52/2/5
f 62/6/5 52/6/5 61/6/5
f 63/3/5 54/3/5 53/3/5
f 63/2/5 53/2/5 62/2/5
f 64/7/5 55/7/5 54/7/5
f 64/3/5 54/3/5 63/3/5
f 65/7/5 55/7/5 64/7/5
f 66/1/5 58/1/5 57/1/5
f 66/1/5 59/1/5 58/1/5
f 67/3/5 60/3/5 59/3/5
f 67/1/5 59/1/5 66/1/5
f 68/5/5 61/5/5 60/5/5
f 68/3/5 60/3/5 67/3/5
f 69/4/5 62/4/5 61/4/5
f 69/5/5 61/5/5 68/5/5
f 70/6/5 63/6/5 62/6/5
f 70/4/5 62/4/5 69/4/5
f 71/2/5 64/2/5 63/2/5
f 71/6/5 63/6/5 70/6/5
f 72/1/5 68/1/5 67/1/5
f 73/3/5 69/3/5 68/3/5
f 73/1/5 68/1/5 72/1/5
f 74/5/5 70/5/5 69/5/5
f 74/3/5 69/3/5 73/3/5
f 75/2/5 71/2/5 70/2/5
f 75/5/5 70/5/5 74/5/5
f 76/2/5 64/2/5 71/2/5
f 76/2/5 71/2/5 75/2/5
f 76/3/5 65/3/5 64/3/5
f 77/3/5 65/3/5 76/3/5
f 78/1/5 75/1/5 74/1/5
f 78/1/5 74/1/5 73/1/5
f 78/1/5 77/1/5 76/1/5
f 78/1/5 76/1/5 75/1/5
f 79/1/5 77/1/5 78/1/5
f 80/1/6 81/1/6 82/1/6
f 82/1/6 81/1/6 83/1/6
f 83/1/6 81/1/6 84/1/6
f 84/1/6 81/1/6 85/1/6
f 85/1/6 81/1/6 86/1/6
f 86/1/6 81/1/6 87/1/6
f 87/1/6 81/1/6 88/1/6
f 80/1/6 82/1/6 89/1/6
f 82/3/6 83/3/6 90/3/6
f 89/1/6 82/1/6 90/1/6
f 83/4/6 84/4/6 91/4/6
f 90/3/6 83/3/6 91/3/6
f 91/4/6 84/4/6 92/4/6
f 92/4/6 84/4/6 93/4/6
f 84/6/6 85/6/6 94/6/6
f 93/4/6 84/4/6 94/4/6
f 85/2/6 86/2/6 95/2/6
f 94/6/6 85/6/6 95/6/6
f 86/3/6 87/3/6 96/3/6
f 95/2/6 86/2/6 96/2/6
f 87/7/6 88/7/6 97/7/6
f 96/3/6 87/3/6 97/3/6
f 97/7/6 88/7/6 98/7/6
f 90/1/6 91/1/6 99/1/6
f 91/1/6 92/1/6 99/1/6
f 92/3/6 93/3/6 100/3/6
f 99/1/6 92/1/6 100/1/6
f 93/5/6 94/5/6 101/5/6
f 100/3/6 93/3/6 101/3/6
f 94/4/6 95/4/6 102/4/6
f 101/5/6 94/5/6 102/5/6
f 95/6/6 96/6/6 103/6/6
f 102/4/6 95/4/6 103/4/6
f 96/2/6 97/2/6 104/2/6
f 103/6/6 96/6/6 104/6/6
f 100/1/6 101/1/6 105/1/6
f 101/3/6 102/3/6 106/3/6
f 105/1/6 101/1/6 106/1/6
f 102/5/6 103/5/6 107/5/6
f 106/3/6 102/3/6 107/3/6
f 103/2/6 104/2/6 108/2/6
f 107/5/6 103/5/6 108/5/6
f 104/2/6 97/2/6 109/2/6
f 108/2/6 104/2/6 109/2/6
f 97/3/6 98/3/6 109/3/6
f 109/3/6 98/3/6 110/3/6
f 107/1/6 108/1/6 111/1/6
f 106/1/6 107/1/6 111/1/6
f 109/1/6 110/1/6 111/1/6
f 108/1/6 109/1/6 111/1/6
f 111/1/6 110/1/6 112/1/6
