# MagicaVoxel @ Ephtracy

# group
o Limb

# material
mtllib Limb-3-Limb.mtl
usemtl palette

# normals
vn -1 0 0
vn 1 0 0
vn 0 -1 0
vn 0 1 0
vn 0 0 -1
vn 0 0 1

# texcoords
vt 0.00195312 0.5
vt 0.0371094 0.5
vt 0.0410156 0.5

# verts
v 0 0 -0.1
v 0 0.1 -0.1
v 0 0.2 -0.1
v 0 0.4 -0.1
v 0 0 0
v 0 0.1 0
v 0 0.2 0
v 0 0.4 0
v 0.8 0 -0.1
v 0.8 0.3 -0.1
v 0.8 0.4 -0.1
v 0.8 0 0
v 0.8 0.3 0
v 0.8 0.4 0
v 0 0 -0.1
v 0 0 0
v 0.8 0 -0.1
v 0.8 0 0
v 0 0.4 -0.1
v 0 0.4 0
v 0.1 0.4 -0.1
v 0.1 0.4 0
v 0.2 0.4 -0.1
v 0.2 0.4 0
v 0.4 0.4 -0.1
v 0.4 0.4 0
v 0.7 0.4 -0.1
v 0.7 0.4 0
v 0.8 0.4 -0.1
v 0.8 0.4 0
v 0 0 -0.1
v 0.8 0 -0.1
v 0 0.1 -0.1
v 0.1 0.1 -0.1
v 0.2 0.1 -0.1
v 0.7 0.1 -0.1
v 0 0.2 -0.1
v 0.1 0.2 -0.1
v 0.2 0.2 -0.1
v 0.7 0.2 -0.1
v 0.4 0.3 -0.1
v 0.7 0.3 -0.1
v 0.8 0.3 -0.1
v 0 0.4 -0.1
v 0.1 0.4 -0.1
v 0.2 0.4 -0.1
v 0.4 0.4 -0.1
v 0.7 0.4 -0.1
v 0.8 0.4 -0.1
v 0 0 0
v 0.8 0 0
v 0 0.1 0
v 0.1 0.1 0
v 0.2 0.1 0
v 0.7 0.1 0
v 0 0.2 0
v 0.1 0.2 0
v 0.2 0.2 0
v 0.7 0.2 0
v 0.4 0.3 0
v 0.7 0.3 0
v 0.8 0.3 0
v 0 0.4 0
v 0.1 0.4 0
v 0.2 0.4 0
v 0.4 0.4 0
v 0.7 0.4 0
v 0.8 0.4 0

# faces
f 5/1/1 2/1/1 1/1/1
f 6/3/1 3/3/1 2/3/1
f 6/1/1 2/1/1 5/1/1
f 7/1/1 4/1/1 3/1/1
f 7/3/1 3/3/1 6/3/1
f 8/1/1 4/1/1 7/1/1
f 9/1/2 10/1/2 12/1/2
f 10/3/2 11/3/2 13/3/2
f 12/1/2 10/1/2 13/1/2
f 13/3/2 11/3/2 14/3/2
f 17/1/3 16/1/3 15/1/3
f 18/1/3 16/1/3 17/1/3
f 19/1/4 20/1/4 21/1/4
f 21/1/4 20/1/4 22/1/4
f 21/3/4 22/3/4 23/3/4
f 23/3/4 22/3/4 24/3/4
f 23/2/4 24/2/4 25/2/4
f 25/2/4 24/2/4 26/2/4
f 25/1/4 26/1/4 27/1/4
f 27/1/4 26/1/4 28/1/4
f 27/3/4 28/3/4 29/3/4
f 29/3/4 28/3/4 30/3/4
f 33/1/5 32/1/5 31/1/5
f 34/1/5 32/1/5 33/1/5
f 35/1/5 32/1/5 34/1/5
f 36/1/5 32/1/5 35/1/5
f 37/3/5 34/3/5 33/3/5
f 38/1/5 35/1/5 34/1/5
f 38/3/5 34/3/5 37/3/5
f 39/3/5 36/3/5 35/3/5
f 39/1/5 35/1/5 38/1/5
f 40/1/5 32/1/5 36/1/5
f 40/3/5 36/3/5 39/3/5
f 41/2/5 40/2/5 39/2/5
f 42/1/5 32/1/5 40/1/5
f 42/2/5 40/2/5 41/2/5
f 43/1/5 32/1/5 42/1/5
f 44/1/5 38/1/5 37/1/5
f 45/3/5 39/3/5 38/3/5
f 45/1/5 38/1/5 44/1/5
f 46/2/5 41/2/5 39/2/5
f 46/3/5 39/3/5 45/3/5
f 47/1/5 42/1/5 41/1/5
f 47/2/5 41/2/5 46/2/5
f 48/3/5 43/3/5 42/3/5
f 48/1/5 42/1/5 47/1/5
f 49/3/5 43/3/5 48/3/5
f 50/1/6 51/1/6 52/1/6
f 52/1/6 51/1/6 53/1/6
f 53/1/6 51/1/6 54/1/6
f 54/1/6 51/1/6 55/1/6
f 52/3/6 53/3/6 56/3/6
f 53/1/6 54/1/6 57/1/6
f 56/3/6 53/3/6 57/3/6
f 54/3/6 55/3/6 58/3/6
f 57/1/6 54/1/6 58/1/6
f 55/1/6 51/1/6 59/1/6
f 58/3/6 55/3/6 59/3/6
f 58/2/6 59/2/6 60/2/6
f 59/1/6 51/1/6 61/1/6
f 60/2/6 59/2/6 61/2/6
f 61/1/6 51/1/6 62/1/6
f 56/1/6 57/1/6 63/1/6
f 57/3/6 58/3/6 64/3/6
f 63/1/6 57/1/6 64/1/6
f 58/2/6 60/2/6 65/2/6
f 64/3/6 58/3/6 65/3/6
f 60/1/6 61/1/6 66/1/6
f 65/2/6 60/2/6 66/2/6
f 61/3/6 62/3/6 67/3/6
f 66/1/6 61/1/6 67/1/6
f 67/3/6 62/3/6 68/3/6
