# MagicaVoxel @ Ephtracy

# group
o Limb

# material
mtllib Limb-2-Limb.mtl
usemtl palette

# normals
vn -1 0 0
vn 1 0 0
vn 0 -1 0
vn 0 1 0
vn 0 0 -1
vn 0 0 1

# texcoords
vt 0.00195312 0.5
vt 0.0371094 0.5
vt 0.0410156 0.5

# verts
v 0.8 0 -0.1
v 0.8 0.1 -0.1
v 0.8 0.4 -0.1
v 0.8 0 0
v 0.8 0.1 0
v 0.8 0.4 0
v 1.3 0 -0.1
v 1.3 0.1 -0.1
v 1.3 0.3 -0.1
v 1.3 0.4 -0.1
v 1.3 0 0
v 1.3 0.1 0
v 1.3 0.3 0
v 1.3 0.4 0
v 1.4 0.1 -0.1
v 1.4 0.3 -0.1
v 1.4 0.1 0
v 1.4 0.3 0
v 0.8 0 -0.1
v 0.8 0 0
v 1.3 0 -0.1
v 1.3 0 0
v 1.3 0.1 -0.1
v 1.3 0.1 0
v 1.4 0.1 -0.1
v 1.4 0.1 0
v 1.3 0.3 -0.1
v 1.3 0.3 0
v 1.4 0.3 -0.1
v 1.4 0.3 0
v 0.8 0.4 -0.1
v 0.8 0.4 0
v 1 0.4 -0.1
v 1 0.4 0
v 1.3 0.4 -0.1
v 1.3 0.4 0
v 0.8 0 -0.1
v 1.3 0 -0.1
v 0.8 0.1 -0.1
v 1.3 0.1 -0.1
v 1.4 0.1 -0.1
v 0.9 0.2 -0.1
v 1.3 0.2 -0.1
v 0.9 0.3 -0.1
v 1 0.3 -0.1
v 1.3 0.3 -0.1
v 1.4 0.3 -0.1
v 0.8 0.4 -0.1
v 1 0.4 -0.1
v 1.3 0.4 -0.1
v 0.8 0 0
v 1.3 0 0
v 0.8 0.1 0
v 1.3 0.1 0
v 1.4 0.1 0
v 0.9 0.2 0
v 1.3 0.2 0
v 0.9 0.3 0
v 1 0.3 0
v 1.3 0.3 0
v 1.4 0.3 0
v 0.8 0.4 0
v 1 0.4 0
v 1.3 0.4 0

# faces
f 4/1/1 2/1/1 1/1/1
f 5/3/1 3/3/1 2/3/1
f 5/1/1 2/1/1 4/1/1
f 6/3/1 3/3/1 5/3/1
f 7/1/2 8/1/2 11/1/2
f 11/1/2 8/1/2 12/1/2
f 9/1/2 10/1/2 13/1/2
f 13/1/2 10/1/2 14/1/2
f 15/1/2 16/1/2 17/1/2
f 17/1/2 16/1/2 18/1/2
f 21/1/3 20/1/3 19/1/3
f 22/1/3 20/1/3 21/1/3
f 25/1/3 24/1/3 23/1/3
f 26/1/3 24/1/3 25/1/3
f 27/1/4 28/1/4 29/1/4
f 29/1/4 28/1/4 30/1/4
f 31/3/4 32/3/4 33/3/4
f 33/3/4 32/3/4 34/3/4
f 33/1/4 34/1/4 35/1/4
f 35/1/4 34/1/4 36/1/4
f 39/1/5 38/1/5 37/1/5
f 40/1/5 38/1/5 39/1/5
f 42/3/5 40/3/5 39/3/5
f 43/1/5 41/1/5 40/1/5
f 43/3/5 40/3/5 42/3/5
f 44/3/5 42/3/5 39/3/5
f 44/2/5 43/2/5 42/2/5
f 45/2/5 43/2/5 44/2/5
f 46/1/5 41/1/5 43/1/5
f 46/2/5 43/2/5 45/2/5
f 47/1/5 41/1/5 46/1/5
f 48/3/5 45/3/5 44/3/5
f 48/3/5 44/3/5 39/3/5
f 49/1/5 46/1/5 45/1/5
f 49/3/5 45/3/5 48/3/5
f 50/1/5 46/1/5 49/1/5
f 51/1/6 52/1/6 53/1/6
f 53/1/6 52/1/6 54/1/6
f 53/3/6 54/3/6 56/3/6
f 54/1/6 55/1/6 57/1/6
f 56/3/6 54/3/6 57/3/6
f 53/3/6 56/3/6 58/3/6
f 56/2/6 57/2/6 58/2/6
f 58/2/6 57/2/6 59/2/6
f 57/1/6 55/1/6 60/1/6
f 59/2/6 57/2/6 60/2/6
f 60/1/6 55/1/6 61/1/6
f 58/3/6 59/3/6 62/3/6
f 53/3/6 58/3/6 62/3/6
f 59/1/6 60/1/6 63/1/6
f 62/3/6 59/3/6 63/3/6
f 63/1/6 60/1/6 64/1/6
