# MagicaVoxel @ Ephtracy

# group
o Torso

# material
mtllib Torso-1-Torso.mtl
usemtl palette

# normals
vn -1 0 0
vn 1 0 0
vn 0 -1 0
vn 0 1 0
vn 0 0 -1
vn 0 0 1

# texcoords
vt 0.00195312 0.5
vt 0.00585938 0.5
vt 0.00976562 0.5
vt 0.0136719 0.5
vt 0.0175781 0.5
vt 0.0214844 0.5
vt 0.0253906 0.5
vt 0.0332031 0.5

# verts
v -0.3 0.1 -0.1
v -0.3 0.2 -0.1
v -0.3 0.6 -0.1
v -0.3 0.8 -0.1
v -0.3 1 -0.1
v -0.3 0.1 0
v -0.3 0.2 0
v -0.3 0.6 0
v -0.3 0.8 0
v -0.3 1 0
v 0.2 0.1 -0.1
v 0.2 0.2 -0.1
v 0.2 0.1 0
v 0.2 0.2 0
v -0.2 0.1 -0.1
v -0.2 0.2 -0.1
v -0.2 0.1 0
v -0.2 0.2 0
v 0.3 0.1 -0.1
v 0.3 0.2 -0.1
v 0.3 0.5 -0.1
v 0.3 0.8 -0.1
v 0.3 1 -0.1
v 0.3 0.1 0
v 0.3 0.2 0
v 0.3 0.5 0
v 0.3 0.8 0
v 0.3 1 0
v -0.3 0.1 -0.1
v -0.3 0.1 0
v -0.2 0.1 -0.1
v -0.2 0.1 0
v 0.2 0.1 -0.1
v 0.2 0.1 0
v 0.3 0.1 -0.1
v 0.3 0.1 0
v -0.2 0.2 -0.1
v -0.2 0.2 0
v 0.2 0.2 -0.1
v 0.2 0.2 0
v -0.3 1 -0.1
v -0.3 1 0
v -0.1 1 -0.1
v -0.1 1 0
v 0.1 1 -0.1
v 0.1 1 0
v 0.3 1 -0.1
v 0.3 1 0
v -0.3 0.1 -0.1
v -0.2 0.1 -0.1
v 0.2 0.1 -0.1
v 0.3 0.1 -0.1
v -0.3 0.2 -0.1
v -0.2 0.2 -0.1
v 0.2 0.2 -0.1
v 0.3 0.2 -0.1
v -0.2 0.3 -0.1
v 0 0.3 -0.1
v 0.1 0.3 -0.1
v 0.2 0.3 -0.1
v -0.1 0.4 -0.1
v 0 0.4 -0.1
v 0.1 0.4 -0.1
v 0.2 0.4 -0.1
v -0.2 0.5 -0.1
v -0.1 0.5 -0.1
v 0 0.5 -0.1
v 0.1 0.5 -0.1
v 0.2 0.5 -0.1
v 0.3 0.5 -0.1
v -0.3 0.6 -0.1
v -0.2 0.6 -0.1
v -0.1 0.6 -0.1
v 0 0.6 -0.1
v 0.1 0.6 -0.1
v 0.2 0.6 -0.1
v -0.2 0.7 -0.1
v -0.1 0.7 -0.1
v 0 0.7 -0.1
v 0.1 0.7 -0.1
v 0.2 0.7 -0.1
v -0.3 0.8 -0.1
v -0.2 0.8 -0.1
v -0.1 0.8 -0.1
v 0 0.8 -0.1
v 0.1 0.8 -0.1
v 0.2 0.8 -0.1
v 0.3 0.8 -0.1
v -0.2 0.9 -0.1
v -0.1 0.9 -0.1
v 0 0.9 -0.1
v 0.1 0.9 -0.1
v 0.2 0.9 -0.1
v -0.3 1 -0.1
v -0.1 1 -0.1
v 0.1 1 -0.1
v 0.3 1 -0.1
v -0.3 0.1 0
v -0.2 0.1 0
v 0.2 0.1 0
v 0.3 0.1 0
v -0.3 0.2 0
v -0.2 0.2 0
v 0.2 0.2 0
v 0.3 0.2 0
v -0.2 0.3 0
v 0 0.3 0
v 0.1 0.3 0
v 0.2 0.3 0
v -0.1 0.4 0
v 0 0.4 0
v 0.1 0.4 0
v 0.2 0.4 0
v -0.2 0.5 0
v -0.1 0.5 0
v 0 0.5 0
v 0.1 0.5 0
v 0.2 0.5 0
v 0.3 0.5 0
v -0.3 0.6 0
v -0.2 0.6 0
v -0.1 0.6 0
v 0 0.6 0
v 0.1 0.6 0
v 0.2 0.6 0
v -0.2 0.7 0
v -0.1 0.7 0
v 0 0.7 0
v 0.1 0.7 0
v 0.2 0.7 0
v -0.3 0.8 0
v -0.2 0.8 0
v -0.1 0.8 0
v 0 0.8 0
v 0.1 0.8 0
v 0.2 0.8 0
v 0.3 0.8 0
v -0.2 0.9 0
v -0.1 0.9 0
v 0 0.9 0
v 0.1 0.9 0
v 0.2 0.9 0
v -0.3 1 0
v -0.1 1 0
v 0.1 1 0
v 0.3 1 0

# faces
f 6/1/1 2/1/1 1/1/1
f 7/8/1 3/8/1 2/8/1
f 7/1/1 2/1/1 6/1/1
f 8/3/1 4/3/1 3/3/1
f 8/8/1 3/8/1 7/8/1
f 9/8/1 5/8/1 4/8/1
f 9/3/1 4/3/1 8/3/1
f 10/8/1 5/8/1 9/8/1
f 13/1/1 12/1/1 11/1/1
f 14/1/1 12/1/1 13/1/1
f 15/1/2 16/1/2 17/1/2
f 17/1/2 16/1/2 18/1/2
f 19/1/2 20/1/2 24/1/2
f 20/8/2 21/8/2 25/8/2
f 24/1/2 20/1/2 25/1/2
f 21/3/2 22/3/2 26/3/2
f 25/8/2 21/8/2 26/8/2
f 22/8/2 23/8/2 27/8/2
f 26/3/2 22/3/2 27/3/2
f 27/8/2 23/8/2 28/8/2
f 31/1/3 30/1/3 29/1/3
f 32/1/3 30/1/3 31/1/3
f 35/1/3 34/1/3 33/1/3
f 36/1/3 34/1/3 35/1/3
f 39/1/3 38/1/3 37/1/3
f 40/1/3 38/1/3 39/1/3
f 41/8/4 42/8/4 43/8/4
f 43/8/4 42/8/4 44/8/4
f 43/3/4 44/3/4 45/3/4
f 45/3/4 44/3/4 46/3/4
f 45/8/4 46/8/4 47/8/4
f 47/8/4 46/8/4 48/8/4
f 53/1/5 50/1/5 49/1/5
f 54/1/5 50/1/5 53/1/5
f 55/1/5 52/1/5 51/1/5
f 56/1/5 52/1/5 55/1/5
f 57/8/5 54/8/5 53/8/5
f 57/1/5 55/1/5 54/1/5
f 58/1/5 55/1/5 57/1/5
f 59/1/5 55/1/5 58/1/5
f 60/8/5 56/8/5 55/8/5
f 60/1/5 55/1/5 59/1/5
f 61/8/5 58/8/5 57/8/5
f 62/3/5 59/3/5 58/3/5
f 62/8/5 58/8/5 61/8/5
f 63/8/5 60/8/5 59/8/5
f 63/3/5 59/3/5 62/3/5
f 64/8/5 56/8/5 60/8/5
f 64/8/5 60/8/5 63/8/5
f 65/8/5 61/8/5 57/8/5
f 65/8/5 57/8/5 53/8/5
f 66/3/5 62/3/5 61/3/5
f 66/8/5 61/8/5 65/8/5
f 67/4/5 63/4/5 62/4/5
f 67/3/5 62/3/5 66/3/5
f 68/3/5 64/3/5 63/3/5
f 68/4/5 63/4/5 67/4/5
f 69/8/5 56/8/5 64/8/5
f 69/3/5 64/3/5 68/3/5
f 70/8/5 56/8/5 69/8/5
f 71/8/5 65/8/5 53/8/5
f 72/3/5 66/3/5 65/3/5
f 72/8/5 65/8/5 71/8/5
f 73/4/5 68/4/5 67/4/5
f 73/3/5 66/3/5 72/3/5
f 73/4/5 67/4/5 66/4/5
f 74/4/5 68/4/5 73/4/5
f 75/5/5 69/5/5 68/5/5
f 75/4/5 68/4/5 74/4/5
f 76/3/5 70/3/5 69/3/5
f 76/5/5 69/5/5 75/5/5
f 77/3/5 72/3/5 71/3/5
f 77/3/5 73/3/5 72/3/5
f 78/2/5 74/2/5 73/2/5
f 78/3/5 73/3/5 77/3/5
f 79/6/5 75/6/5 74/6/5
f 79/2/5 74/2/5 78/2/5
f 80/7/5 76/7/5 75/7/5
f 80/6/5 75/6/5 79/6/5
f 81/3/5 70/3/5 76/3/5
f 81/7/5 76/7/5 80/7/5
f 82/3/5 77/3/5 71/3/5
f 83/6/5 78/6/5 77/6/5
f 83/3/5 77/3/5 82/3/5
f 84/2/5 80/2/5 79/2/5
f 84/6/5 78/6/5 83/6/5
f 84/2/5 79/2/5 78/2/5
f 85/2/5 80/2/5 84/2/5
f 86/6/5 81/6/5 80/6/5
f 86/2/5 80/2/5 85/2/5
f 87/3/5 70/3/5 81/3/5
f 87/6/5 81/6/5 86/6/5
f 88/3/5 70/3/5 87/3/5
f 89/8/5 83/8/5 82/8/5
f 89/3/5 84/3/5 83/3/5
f 90/6/5 85/6/5 84/6/5
f 90/3/5 84/3/5 89/3/5
f 91/2/5 86/2/5 85/2/5
f 91/6/5 85/6/5 90/6/5
f 92/3/5 87/3/5 86/3/5
f 92/2/5 86/2/5 91/2/5
f 93/8/5 88/8/5 87/8/5
f 93/3/5 87/3/5 92/3/5
f 94/8/5 90/8/5 89/8/5
f 94/8/5 89/8/5 82/8/5
f 95/3/5 92/3/5 91/3/5
f 95/8/5 90/8/5 94/8/5
f 95/3/5 91/3/5 90/3/5
f 96/8/5 93/8/5 92/8/5
f 96/3/5 92/3/5 95/3/5
f 97/8/5 88/8/5 93/8/5
f 97/8/5 93/8/5 96/8/5
f 98/1/6 99/1/6 102/1/6
f 102/1/6 99/1/6 103/1/6
f 100/1/6 101/1/6 104/1/6
f 104/1/6 101/1/6 105/1/6
f 102/8/6 103/8/6 106/8/6
f 103/1/6 104/1/6 106/1/6
f 106/1/6 104/1/6 107/1/6
f 107/1/6 104/1/6 108/1/6
f 104/8/6 105/8/6 109/8/6
f 108/1/6 104/1/6 109/1/6
f 106/8/6 107/8/6 110/8/6
f 107/3/6 108/3/6 111/3/6
f 110/8/6 107/8/6 111/8/6
f 108/8/6 109/8/6 112/8/6
f 111/3/6 108/3/6 112/3/6
f 109/8/6 105/8/6 113/8/6
f 112/8/6 109/8/6 113/8/6
f 106/8/6 110/8/6 114/8/6
f 102/8/6 106/8/6 114/8/6
f 110/3/6 111/3/6 115/3/6
f 114/8/6 110/8/6 115/8/6
f 111/4/6 112/4/6 116/4/6
f 115/3/6 111/3/6 116/3/6
f 112/3/6 113/3/6 117/3/6
f 116/4/6 112/4/6 117/4/6
f 113/8/6 105/8/6 118/8/6
f 117/3/6 113/3/6 118/3/6
f 118/8/6 105/8/6 119/8/6
f 102/8/6 114/8/6 120/8/6
f 114/3/6 115/3/6 121/3/6
f 120/8/6 114/8/6 121/8/6
f 116/4/6 117/4/6 122/4/6
f 121/3/6 115/3/6 122/3/6
f 115/4/6 116/4/6 122/4/6
f 122/4/6 117/4/6 123/4/6
f 117/5/6 118/5/6 124/5/6
f 123/4/6 117/4/6 124/4/6
f 118/3/6 119/3/6 125/3/6
f 124/5/6 118/5/6 125/5/6
f 120/3/6 121/3/6 126/3/6
f 121/3/6 122/3/6 126/3/6
f 122/2/6 123/2/6 127/2/6
f 126/3/6 122/3/6 127/3/6
f 123/6/6 124/6/6 128/6/6
f 127/2/6 123/2/6 128/2/6
f 124/7/6 125/7/6 129/7/6
f 128/6/6 124/6/6 129/6/6
f 125/3/6 119/3/6 130/3/6
f 129/7/6 125/7/6 130/7/6
f 120/3/6 126/3/6 131/3/6
f 126/6/6 127/6/6 132/6/6
f 131/3/6 126/3/6 132/3/6
f 128/2/6 129/2/6 133/2/6
f 132/6/6 127/6/6 133/6/6
f 127/2/6 128/2/6 133/2/6
f 133/2/6 129/2/6 134/2/6
f 129/6/6 130/6/6 135/6/6
f 134/2/6 129/2/6 135/2/6
f 130/3/6 119/3/6 136/3/6
f 135/6/6 130/6/6 136/6/6
f 136/3/6 119/3/6 137/3/6
f 131/8/6 132/8/6 138/8/6
f 132/3/6 133/3/6 138/3/6
f 133/6/6 134/6/6 139/6/6
f 138/3/6 133/3/6 139/3/6
f 134/2/6 135/2/6 140/2/6
f 139/6/6 134/6/6 140/6/6
f 135/3/6 136/3/6 141/3/6
f 140/2/6 135/2/6 141/2/6
f 136/8/6 137/8/6 142/8/6
f 141/3/6 136/3/6 142/3/6
f 138/8/6 139/8/6 143/8/6
f 131/8/6 138/8/6 143/8/6
f 140/3/6 141/3/6 144/3/6
f 143/8/6 139/8/6 144/8/6
f 139/3/6 140/3/6 144/3/6
f 141/8/6 142/8/6 145/8/6
f 144/3/6 141/3/6 145/3/6
f 142/8/6 137/8/6 146/8/6
f 145/8/6 142/8/6 146/8/6
