# MagicaVoxel @ Ephtracy

# group
o Torso

# material
mtllib Torso-5-Torso.mtl
usemtl palette

# normals
vn -1 0 0
vn 1 0 0
vn 0 -1 0
vn 0 1 0
vn 0 0 -1
vn 0 0 1

# texcoords
vt 0.00195312 0.5
vt 0.00585938 0.5
vt 0.00976562 0.5
vt 0.0332031 0.5

# verts
v -0.3 0.1 -0.1
v -0.3 0.2 -0.1
v -0.3 1 -0.1
v -0.3 0.1 0
v -0.3 0.2 0
v -0.3 1 0
v 0.2 0.1 -0.1
v 0.2 0.2 -0.1
v 0.2 0.1 0
v 0.2 0.2 0
v -0.2 0.1 -0.1
v -0.2 0.2 -0.1
v -0.2 0.1 0
v -0.2 0.2 0
v 0.3 0.1 -0.1
v 0.3 0.2 -0.1
v 0.3 1 -0.1
v 0.3 0.1 0
v 0.3 0.2 0
v 0.3 1 0
v -0.3 0.1 -0.1
v -0.3 0.1 0
v -0.2 0.1 -0.1
v -0.2 0.1 0
v 0.2 0.1 -0.1
v 0.2 0.1 0
v 0.3 0.1 -0.1
v 0.3 0.1 0
v -0.2 0.2 -0.1
v -0.2 0.2 0
v 0.2 0.2 -0.1
v 0.2 0.2 0
v -0.3 1 -0.1
v -0.3 1 0
v 0.3 1 -0.1
v 0.3 1 0
v -0.3 0.1 -0.1
v -0.2 0.1 -0.1
v 0.2 0.1 -0.1
v 0.3 0.1 -0.1
v -0.3 0.2 -0.1
v -0.2 0.2 -0.1
v 0.2 0.2 -0.1
v 0.3 0.2 -0.1
v -0.2 0.3 -0.1
v 0.2 0.3 -0.1
v -0.1 0.5 -0.1
v 0 0.5 -0.1
v -0.2 0.7 -0.1
v -0.1 0.7 -0.1
v -0.2 0.8 -0.1
v 0 0.8 -0.1
v -0.2 0.9 -0.1
v 0 0.9 -0.1
v -0.3 1 -0.1
v 0.3 1 -0.1
v -0.3 0.1 0
v -0.2 0.1 0
v 0.2 0.1 0
v 0.3 0.1 0
v -0.3 0.2 0
v -0.2 0.2 0
v 0.2 0.2 0
v 0.3 0.2 0
v -0.2 0.3 0
v 0.2 0.3 0
v -0.1 0.5 0
v 0 0.5 0
v -0.2 0.7 0
v -0.1 0.7 0
v -0.2 0.8 0
v 0 0.8 0
v -0.2 0.9 0
v 0 0.9 0
v -0.3 1 0
v 0.3 1 0

# faces
f 4/1/1 2/1/1 1/1/1
f 5/4/1 3/4/1 2/4/1
f 5/1/1 2/1/1 4/1/1
f 6/4/1 3/4/1 5/4/1
f 9/1/1 8/1/1 7/1/1
f 10/1/1 8/1/1 9/1/1
f 11/1/2 12/1/2 13/1/2
f 13/1/2 12/1/2 14/1/2
f 15/1/2 16/1/2 18/1/2
f 16/4/2 17/4/2 19/4/2
f 18/1/2 16/1/2 19/1/2
f 19/4/2 17/4/2 20/4/2
f 23/1/3 22/1/3 21/1/3
f 24/1/3 22/1/3 23/1/3
f 27/1/3 26/1/3 25/1/3
f 28/1/3 26/1/3 27/1/3
f 31/1/3 30/1/3 29/1/3
f 32/1/3 30/1/3 31/1/3
f 33/4/4 34/4/4 35/4/4
f 35/4/4 34/4/4 36/4/4
f 41/1/5 38/1/5 37/1/5
f 42/1/5 38/1/5 41/1/5
f 43/1/5 40/1/5 39/1/5
f 44/1/5 40/1/5 43/1/5
f 45/4/5 42/4/5 41/4/5
f 45/1/5 43/1/5 42/1/5
f 46/4/5 44/4/5 43/4/5
f 46/1/5 43/1/5 45/1/5
f 47/4/5 46/4/5 45/4/5
f 48/4/5 46/4/5 47/4/5
f 49/4/5 45/4/5 41/4/5
f 49/4/5 47/4/5 45/4/5
f 50/3/5 48/3/5 47/3/5
f 50/4/5 47/4/5 49/4/5
f 51/4/5 49/4/5 41/4/5
f 51/3/5 50/3/5 49/3/5
f 52/4/5 46/4/5 48/4/5
f 52/3/5 50/3/5 51/3/5
f 52/3/5 48/3/5 50/3/5
f 53/4/5 51/4/5 41/4/5
f 53/2/5 52/2/5 51/2/5
f 54/4/5 46/4/5 52/4/5
f 54/2/5 52/2/5 53/2/5
f 55/4/5 53/4/5 41/4/5
f 55/4/5 54/4/5 53/4/5
f 56/4/5 46/4/5 54/4/5
f 56/4/5 54/4/5 55/4/5
f 56/4/5 44/4/5 46/4/5
f 57/1/6 58/1/6 61/1/6
f 61/1/6 58/1/6 62/1/6
f 59/1/6 60/1/6 63/1/6
f 63/1/6 60/1/6 64/1/6
f 61/4/6 62/4/6 65/4/6
f 62/1/6 63/1/6 65/1/6
f 63/4/6 64/4/6 66/4/6
f 65/1/6 63/1/6 66/1/6
f 65/4/6 66/4/6 67/4/6
f 67/4/6 66/4/6 68/4/6
f 61/4/6 65/4/6 69/4/6
f 65/4/6 67/4/6 69/4/6
f 67/3/6 68/3/6 70/3/6
f 69/4/6 67/4/6 70/4/6
f 61/4/6 69/4/6 71/4/6
f 69/3/6 70/3/6 71/3/6
f 68/4/6 66/4/6 72/4/6
f 71/3/6 70/3/6 72/3/6
f 70/3/6 68/3/6 72/3/6
f 61/4/6 71/4/6 73/4/6
f 71/2/6 72/2/6 73/2/6
f 72/4/6 66/4/6 74/4/6
f 73/2/6 72/2/6 74/2/6
f 61/4/6 73/4/6 75/4/6
f 73/4/6 74/4/6 75/4/6
f 74/4/6 66/4/6 76/4/6
f 75/4/6 74/4/6 76/4/6
f 66/4/6 64/4/6 76/4/6
