# MagicaVoxel @ Ephtracy

# group
o Torso

# material
mtllib Torso-4-Torso.mtl
usemtl palette

# normals
vn -1 0 0
vn 1 0 0
vn 0 -1 0
vn 0 1 0
vn 0 0 -1
vn 0 0 1

# texcoords
vt 0.00195312 0.5
vt 0.00585938 0.5
vt 0.00976562 0.5
vt 0.0332031 0.5

# verts
v -0.3 0.1 -0.1
v -0.3 0.2 -0.1
v -0.3 1 -0.1
v -0.3 0.1 0
v -0.3 0.2 0
v -0.3 1 0
v 0.2 0.1 -0.1
v 0.2 0.2 -0.1
v 0.2 0.1 0
v 0.2 0.2 0
v -0.2 0.1 -0.1
v -0.2 0.2 -0.1
v -0.2 0.1 0
v -0.2 0.2 0
v 0.3 0.1 -0.1
v 0.3 0.2 -0.1
v 0.3 0.6 -0.1
v 0.3 0.7 -0.1
v 0.3 1 -0.1
v 0.3 0.1 0
v 0.3 0.2 0
v 0.3 0.6 0
v 0.3 0.7 0
v 0.3 1 0
v -0.3 0.1 -0.1
v -0.3 0.1 0
v -0.2 0.1 -0.1
v -0.2 0.1 0
v 0.2 0.1 -0.1
v 0.2 0.1 0
v 0.3 0.1 -0.1
v 0.3 0.1 0
v -0.2 0.2 -0.1
v -0.2 0.2 0
v 0.2 0.2 -0.1
v 0.2 0.2 0
v -0.3 1 -0.1
v -0.3 1 0
v 0.3 1 -0.1
v 0.3 1 0
v -0.3 0.1 -0.1
v -0.2 0.1 -0.1
v 0.2 0.1 -0.1
v 0.3 0.1 -0.1
v -0.3 0.2 -0.1
v -0.2 0.2 -0.1
v 0.2 0.2 -0.1
v 0.3 0.2 -0.1
v -0.2 0.3 -0.1
v 0.2 0.3 -0.1
v -0.1 0.5 -0.1
v 0 0.5 -0.1
v 0.1 0.5 -0.1
v 0.2 0.5 -0.1
v 0.2 0.6 -0.1
v 0.3 0.6 -0.1
v -0.2 0.7 -0.1
v -0.1 0.7 -0.1
v 0.2 0.7 -0.1
v 0.3 0.7 -0.1
v -0.2 0.8 -0.1
v 0 0.8 -0.1
v 0.1 0.8 -0.1
v 0.2 0.8 -0.1
v -0.2 0.9 -0.1
v 0 0.9 -0.1
v -0.3 1 -0.1
v 0.3 1 -0.1
v -0.3 0.1 0
v -0.2 0.1 0
v 0.2 0.1 0
v 0.3 0.1 0
v -0.3 0.2 0
v -0.2 0.2 0
v 0.2 0.2 0
v 0.3 0.2 0
v -0.2 0.3 0
v 0.2 0.3 0
v -0.1 0.5 0
v 0 0.5 0
v 0.1 0.5 0
v 0.2 0.5 0
v 0.2 0.6 0
v 0.3 0.6 0
v -0.2 0.7 0
v -0.1 0.7 0
v 0.2 0.7 0
v 0.3 0.7 0
v -0.2 0.8 0
v 0 0.8 0
v 0.1 0.8 0
v 0.2 0.8 0
v -0.2 0.9 0
v 0 0.9 0
v -0.3 1 0
v 0.3 1 0

# faces
f 4/1/1 2/1/1 1/1/1
f 5/4/1 3/4/1 2/4/1
f 5/1/1 2/1/1 4/1/1
f 6/4/1 3/4/1 5/4/1
f 9/1/1 8/1/1 7/1/1
f 10/1/1 8/1/1 9/1/1
f 11/1/2 12/1/2 13/1/2
f 13/1/2 12/1/2 14/1/2
f 15/1/2 16/1/2 20/1/2
f 16/4/2 17/4/2 21/4/2
f 20/1/2 16/1/2 21/1/2
f 17/3/2 18/3/2 22/3/2
f 21/4/2 17/4/2 22/4/2
f 18/4/2 19/4/2 23/4/2
f 22/3/2 18/3/2 23/3/2
f 23/4/2 19/4/2 24/4/2
f 27/1/3 26/1/3 25/1/3
f 28/1/3 26/1/3 27/1/3
f 31/1/3 30/1/3 29/1/3
f 32/1/3 30/1/3 31/1/3
f 35/1/3 34/1/3 33/1/3
f 36/1/3 34/1/3 35/1/3
f 37/4/4 38/4/4 39/4/4
f 39/4/4 38/4/4 40/4/4
f 45/1/5 42/1/5 41/1/5
f 46/1/5 42/1/5 45/1/5
f 47/1/5 44/1/5 43/1/5
f 48/1/5 44/1/5 47/1/5
f 49/4/5 46/4/5 45/4/5
f 49/1/5 47/1/5 46/1/5
f 50/4/5 48/4/5 47/4/5
f 50/1/5 47/1/5 49/1/5
f 51/4/5 50/4/5 49/4/5
f 52/4/5 50/4/5 51/4/5
f 53/4/5 50/4/5 52/4/5
f 54/4/5 48/4/5 50/4/5
f 54/4/5 50/4/5 53/4/5
f 55/3/5 54/3/5 53/3/5
f 55/4/5 48/4/5 54/4/5
f 56/4/5 48/4/5 55/4/5
f 57/4/5 49/4/5 45/4/5
f 57/4/5 51/4/5 49/4/5
f 58/3/5 52/3/5 51/3/5
f 58/4/5 51/4/5 57/4/5
f 59/3/5 56/3/5 55/3/5
f 59/3/5 55/3/5 53/3/5
f 60/3/5 56/3/5 59/3/5
f 61/4/5 57/4/5 45/4/5
f 61/3/5 58/3/5 57/3/5
f 62/4/5 53/4/5 52/4/5
f 62/3/5 58/3/5 61/3/5
f 62/3/5 52/3/5 58/3/5
f 63/3/5 59/3/5 53/3/5
f 63/4/5 53/4/5 62/4/5
f 64/4/5 60/4/5 59/4/5
f 64/3/5 59/3/5 63/3/5
f 65/4/5 61/4/5 45/4/5
f 65/2/5 62/2/5 61/2/5
f 66/4/5 64/4/5 63/4/5
f 66/2/5 62/2/5 65/2/5
f 66/4/5 63/4/5 62/4/5
f 67/4/5 65/4/5 45/4/5
f 67/4/5 66/4/5 65/4/5
f 68/4/5 60/4/5 64/4/5
f 68/4/5 66/4/5 67/4/5
f 68/4/5 64/4/5 66/4/5
f 69/1/6 70/1/6 73/1/6
f 73/1/6 70/1/6 74/1/6
f 71/1/6 72/1/6 75/1/6
f 75/1/6 72/1/6 76/1/6
f 73/4/6 74/4/6 77/4/6
f 74/1/6 75/1/6 77/1/6
f 75/4/6 76/4/6 78/4/6
f 77/1/6 75/1/6 78/1/6
f 77/4/6 78/4/6 79/4/6
f 79/4/6 78/4/6 80/4/6
f 80/4/6 78/4/6 81/4/6
f 78/4/6 76/4/6 82/4/6
f 81/4/6 78/4/6 82/4/6
f 81/3/6 82/3/6 83/3/6
f 82/4/6 76/4/6 83/4/6
f 83/4/6 76/4/6 84/4/6
f 73/4/6 77/4/6 85/4/6
f 77/4/6 79/4/6 85/4/6
f 79/3/6 80/3/6 86/3/6
f 85/4/6 79/4/6 86/4/6
f 83/3/6 84/3/6 87/3/6
f 81/3/6 83/3/6 87/3/6
f 87/3/6 84/3/6 88/3/6
f 73/4/6 85/4/6 89/4/6
f 85/3/6 86/3/6 89/3/6
f 80/4/6 81/4/6 90/4/6
f 89/3/6 86/3/6 90/3/6
f 86/3/6 80/3/6 90/3/6
f 81/3/6 87/3/6 91/3/6
f 90/4/6 81/4/6 91/4/6
f 87/4/6 88/4/6 92/4/6
f 91/3/6 87/3/6 92/3/6
f 73/4/6 89/4/6 93/4/6
f 89/2/6 90/2/6 93/2/6
f 91/4/6 92/4/6 94/4/6
f 93/2/6 90/2/6 94/2/6
f 90/4/6 91/4/6 94/4/6
f 73/4/6 93/4/6 95/4/6
f 93/4/6 94/4/6 95/4/6
f 92/4/6 88/4/6 96/4/6
f 95/4/6 94/4/6 96/4/6
f 94/4/6 92/4/6 96/4/6
