# MagicaVoxel @ Ephtracy

# group
o BunnyHead

# material
mtllib BunnyHead-6-BunnyHead.mtl
usemtl palette

# normals
vn -1 0 0
vn 1 0 0
vn 0 -1 0
vn 0 1 0
vn 0 0 -1
vn 0 0 1

# texcoords
vt 0.00195312 0.5
vt 0.00585938 0.5
vt 0.00976562 0.5
vt 0.0214844 0.5
vt 0.0253906 0.5
vt 0.0332031 0.5
vt 0.0371094 0.5
vt 0.0410156 0.5

# verts
v -0.9 0.3 -0.1
v -0.9 0.9 -0.1
v -0.9 0.3 0
v -0.9 0.9 0
v -0.8 0.2 -0.1
v -0.8 0.3 -0.1
v -0.8 0.9 -0.1
v -0.8 1.1 -0.1
v -0.8 0.2 0
v -0.8 0.3 0
v -0.8 0.9 0
v -0.8 1.1 0
v -0.7 0.1 -0.1
v -0.7 0.2 -0.1
v -0.7 1.1 -0.1
v -0.7 1.2 -0.1
v -0.7 0.1 0
v -0.7 0.2 0
v -0.7 1.1 0
v -0.7 1.2 0
v -0.6 0 -0.1
v -0.6 0.1 -0.1
v -0.6 1.2 -0.1
v -0.6 1.3 -0.1
v -0.6 0 0
v -0.6 0.1 0
v -0.6 1.2 0
v -0.6 1.3 0
v -0.5 1.3 -0.1
v -0.5 2.1 -0.1
v -0.5 1.3 0
v -0.5 2.1 0
v -0.4 2.1 -0.1
v -0.4 2.2 -0.1
v -0.4 2.1 0
v -0.4 2.2 0
v 0.1 1.3 -0.1
v 0.1 2.1 -0.1
v 0.1 1.3 0
v 0.1 2.1 0
v 0.2 2.1 -0.1
v 0.2 2.2 -0.1
v 0.2 2.1 0
v 0.2 2.2 0
v -0.2 2.1 -0.1
v -0.2 2.2 -0.1
v -0.2 2.1 0
v -0.2 2.2 0
v -0.1 1.3 -0.1
v -0.1 2.1 -0.1
v -0.1 1.3 0
v -0.1 2.1 0
v 0.4 2.1 -0.1
v 0.4 2.2 -0.1
v 0.4 2.1 0
v 0.4 2.2 0
v 0.5 1.3 -0.1
v 0.5 2.1 -0.1
v 0.5 1.3 0
v 0.5 2.1 0
v 0.6 0 -0.1
v 0.6 0.1 -0.1
v 0.6 1.2 -0.1
v 0.6 1.3 -0.1
v 0.6 0 0
v 0.6 0.1 0
v 0.6 1.2 0
v 0.6 1.3 0
v 0.7 0.1 -0.1
v 0.7 0.2 -0.1
v 0.7 1.1 -0.1
v 0.7 1.2 -0.1
v 0.7 0.1 0
v 0.7 0.2 0
v 0.7 1.1 0
v 0.7 1.2 0
v 0.8 0.2 -0.1
v 0.8 0.3 -0.1
v 0.8 0.9 -0.1
v 0.8 1.1 -0.1
v 0.8 0.2 0
v 0.8 0.3 0
v 0.8 0.9 0
v 0.8 1.1 0
v 0.9 0.3 -0.1
v 0.9 0.9 -0.1
v 0.9 0.3 0
v 0.9 0.9 0
v -0.6 0 -0.1
v -0.6 0 0
v -0.3 0 -0.1
v -0.3 0 0
v 0.3 0 -0.1
v 0.3 0 0
v 0.6 0 -0.1
v 0.6 0 0
v -0.7 0.1 -0.1
v -0.7 0.1 0
v -0.6 0.1 -0.1
v -0.6 0.1 0
v 0.6 0.1 -0.1
v 0.6 0.1 0
v 0.7 0.1 -0.1
v 0.7 0.1 0
v -0.8 0.2 -0.1
v -0.8 0.2 0
v -0.7 0.2 -0.1
v -0.7 0.2 0
v 0.7 0.2 -0.1
v 0.7 0.2 0
v 0.8 0.2 -0.1
v 0.8 0.2 0
v -0.9 0.3 -0.1
v -0.9 0.3 0
v -0.8 0.3 -0.1
v -0.8 0.3 0
v 0.8 0.3 -0.1
v 0.8 0.3 0
v 0.9 0.3 -0.1
v 0.9 0.3 0
v -0.9 0.9 -0.1
v -0.9 0.9 0
v -0.8 0.9 -0.1
v -0.8 0.9 0
v 0.8 0.9 -0.1
v 0.8 0.9 0
v 0.9 0.9 -0.1
v 0.9 0.9 0
v -0.8 1.1 -0.1
v -0.8 1.1 0
v -0.7 1.1 -0.1
v -0.7 1.1 0
v 0.7 1.1 -0.1
v 0.7 1.1 0
v 0.8 1.1 -0.1
v 0.8 1.1 0
v -0.7 1.2 -0.1
v -0.7 1.2 0
v -0.6 1.2 -0.1
v -0.6 1.2 0
v 0.6 1.2 -0.1
v 0.6 1.2 0
v 0.7 1.2 -0.1
v 0.7 1.2 0
v -0.6 1.3 -0.1
v -0.6 1.3 0
v -0.5 1.3 -0.1
v -0.5 1.3 0
v -0.1 1.3 -0.1
v -0.1 1.3 0
v 0.1 1.3 -0.1
v 0.1 1.3 0
v 0.5 1.3 -0.1
v 0.5 1.3 0
v 0.6 1.3 -0.1
v 0.6 1.3 0
v -0.5 2.1 -0.1
v -0.5 2.1 0
v -0.4 2.1 -0.1
v -0.4 2.1 0
v -0.2 2.1 -0.1
v -0.2 2.1 0
v -0.1 2.1 -0.1
v -0.1 2.1 0
v 0.1 2.1 -0.1
v 0.1 2.1 0
v 0.2 2.1 -0.1
v 0.2 2.1 0
v 0.4 2.1 -0.1
v 0.4 2.1 0
v 0.5 2.1 -0.1
v 0.5 2.1 0
v -0.4 2.2 -0.1
v -0.4 2.2 0
v -0.2 2.2 -0.1
v -0.2 2.2 0
v 0.2 2.2 -0.1
v 0.2 2.2 0
v 0.4 2.2 -0.1
v 0.4 2.2 0
v -0.6 0 -0.1
v -0.3 0 -0.1
v 0.3 0 -0.1
v 0.6 0 -0.1
v -0.7 0.1 -0.1
v -0.6 0.1 -0.1
v -0.3 0.1 -0.1
v 0 0.1 -0.1
v 0.3 0.1 -0.1
v 0.6 0.1 -0.1
v 0.7 0.1 -0.1
v -0.8 0.2 -0.1
v -0.7 0.2 -0.1
v -0.6 0.2 -0.1
v -0.5 0.2 -0.1
v 0 0.2 -0.1
v 0.6 0.2 -0.1
v 0.7 0.2 -0.1
v 0.8 0.2 -0.1
v -0.9 0.3 -0.1
v -0.8 0.3 -0.1
v -0.7 0.3 -0.1
v -0.6 0.3 -0.1
v -0.5 0.3 -0.1
v 0.7 0.3 -0.1
v 0.8 0.3 -0.1
v 0.9 0.3 -0.1
v -0.7 0.5 -0.1
v -0.6 0.5 -0.1
v -0.5 0.7 -0.1
v -0.4 0.7 -0.1
v -0.6 0.8 -0.1
v -0.5 0.8 -0.1
v -0.4 0.8 -0.1
v -0.3 0.8 -0.1
v -0.2 0.8 -0.1
v -0.9 0.9 -0.1
v -0.8 0.9 -0.1
v -0.7 0.9 -0.1
v -0.6 0.9 -0.1
v -0.5 0.9 -0.1
v -0.4 0.9 -0.1
v -0.3 0.9 -0.1
v -0.2 0.9 -0.1
v 0.7 0.9 -0.1
v 0.8 0.9 -0.1
v 0.9 0.9 -0.1
v -0.6 1 -0.1
v -0.5 1 -0.1
v -0.4 1 -0.1
v -0.8 1.1 -0.1
v -0.7 1.1 -0.1
v -0.6 1.1 -0.1
v -0.5 1.1 -0.1
v -0.3 1.1 -0.1
v 0.6 1.1 -0.1
v 0.7 1.1 -0.1
v 0.8 1.1 -0.1
v -0.7 1.2 -0.1
v -0.6 1.2 -0.1
v -0.4 1.2 -0.1
v -0.2 1.2 -0.1
v 0.2 1.2 -0.1
v 0.4 1.2 -0.1
v 0.6 1.2 -0.1
v 0.7 1.2 -0.1
v -0.6 1.3 -0.1
v -0.5 1.3 -0.1
v -0.4 1.3 -0.1
v -0.2 1.3 -0.1
v -0.1 1.3 -0.1
v 0.1 1.3 -0.1
v 0.2 1.3 -0.1
v 0.4 1.3 -0.1
v 0.5 1.3 -0.1
v 0.6 1.3 -0.1
v -0.5 2.1 -0.1
v -0.4 2.1 -0.1
v -0.2 2.1 -0.1
v -0.1 2.1 -0.1
v 0.1 2.1 -0.1
v 0.2 2.1 -0.1
v 0.4 2.1 -0.1
v 0.5 2.1 -0.1
v -0.4 2.2 -0.1
v -0.2 2.2 -0.1
v 0.2 2.2 -0.1
v 0.4 2.2 -0.1
v -0.6 0 0
v -0.3 0 0
v 0.3 0 0
v 0.6 0 0
v -0.7 0.1 0
v -0.6 0.1 0
v -0.3 0.1 0
v 0 0.1 0
v 0.3 0.1 0
v 0.6 0.1 0
v 0.7 0.1 0
v -0.8 0.2 0
v -0.7 0.2 0
v -0.6 0.2 0
v -0.5 0.2 0
v 0 0.2 0
v 0.6 0.2 0
v 0.7 0.2 0
v 0.8 0.2 0
v -0.9 0.3 0
v -0.8 0.3 0
v -0.7 0.3 0
v -0.6 0.3 0
v -0.5 0.3 0
v 0.7 0.3 0
v 0.8 0.3 0
v 0.9 0.3 0
v -0.7 0.5 0
v -0.6 0.5 0
v -0.5 0.7 0
v -0.4 0.7 0
v -0.6 0.8 0
v -0.5 0.8 0
v -0.4 0.8 0
v -0.3 0.8 0
v -0.2 0.8 0
v -0.9 0.9 0
v -0.8 0.9 0
v -0.7 0.9 0
v -0.6 0.9 0
v -0.5 0.9 0
v -0.4 0.9 0
v -0.3 0.9 0
v -0.2 0.9 0
v 0.7 0.9 0
v 0.8 0.9 0
v 0.9 0.9 0
v -0.6 1 0
v -0.5 1 0
v -0.4 1 0
v -0.8 1.1 0
v -0.7 1.1 0
v -0.6 1.1 0
v -0.5 1.1 0
v -0.3 1.1 0
v 0.6 1.1 0
v 0.7 1.1 0
v 0.8 1.1 0
v -0.7 1.2 0
v -0.6 1.2 0
v -0.4 1.2 0
v -0.2 1.2 0
v 0.2 1.2 0
v 0.4 1.2 0
v 0.6 1.2 0
v 0.7 1.2 0
v -0.6 1.3 0
v -0.5 1.3 0
v -0.4 1.3 0
v -0.2 1.3 0
v -0.1 1.3 0
v 0.1 1.3 0
v 0.2 1.3 0
v 0.4 1.3 0
v 0.5 1.3 0
v 0.6 1.3 0
v -0.5 2.1 0
v -0.4 2.1 0
v -0.2 2.1 0
v -0.1 2.1 0
v 0.1 2.1 0
v 0.2 2.1 0
v 0.4 2.1 0
v 0.5 2.1 0
v -0.4 2.2 0
v -0.2 2.2 0
v 0.2 2.2 0
v 0.4 2.2 0

# faces
f 3/1/1 2/1/1 1/1/1
f 4/1/1 2/1/1 3/1/1
f 9/1/1 6/1/1 5/1/1
f 10/1/1 6/1/1 9/1/1
f 11/1/1 8/1/1 7/1/1
f 12/1/1 8/1/1 11/1/1
f 17/1/1 14/1/1 13/1/1
f 18/1/1 14/1/1 17/1/1
f 19/1/1 16/1/1 15/1/1
f 20/1/1 16/1/1 19/1/1
f 25/1/1 22/1/1 21/1/1
f 26/1/1 22/1/1 25/1/1
f 27/1/1 24/1/1 23/1/1
f 28/1/1 24/1/1 27/1/1
f 31/1/1 30/1/1 29/1/1
f 32/1/1 30/1/1 31/1/1
f 35/1/1 34/1/1 33/1/1
f 36/1/1 34/1/1 35/1/1
f 39/1/1 38/1/1 37/1/1
f 40/1/1 38/1/1 39/1/1
f 43/1/1 42/1/1 41/1/1
f 44/1/1 42/1/1 43/1/1
f 45/1/2 46/1/2 47/1/2
f 47/1/2 46/1/2 48/1/2
f 49/1/2 50/1/2 51/1/2
f 51/1/2 50/1/2 52/1/2
f 53/1/2 54/1/2 55/1/2
f 55/1/2 54/1/2 56/1/2
f 57/1/2 58/1/2 59/1/2
f 59/1/2 58/1/2 60/1/2
f 61/1/2 62/1/2 65/1/2
f 65/1/2 62/1/2 66/1/2
f 63/1/2 64/1/2 67/1/2
f 67/1/2 64/1/2 68/1/2
f 69/1/2 70/1/2 73/1/2
f 73/1/2 70/1/2 74/1/2
f 71/1/2 72/1/2 75/1/2
f 75/1/2 72/1/2 76/1/2
f 77/1/2 78/1/2 81/1/2
f 81/1/2 78/1/2 82/1/2
f 79/1/2 80/1/2 83/1/2
f 83/1/2 80/1/2 84/1/2
f 85/1/2 86/1/2 87/1/2
f 87/1/2 86/1/2 88/1/2
f 91/1/3 90/1/3 89/1/3
f 92/1/3 90/1/3 91/1/3
f 93/8/3 92/8/3 91/8/3
f 94/8/3 92/8/3 93/8/3
f 95/1/3 94/1/3 93/1/3
f 96/1/3 94/1/3 95/1/3
f 99/1/3 98/1/3 97/1/3
f 100/1/3 98/1/3 99/1/3
f 103/1/3 102/1/3 101/1/3
f 104/1/3 102/1/3 103/1/3
f 107/1/3 106/1/3 105/1/3
f 108/1/3 106/1/3 107/1/3
f 111/1/3 110/1/3 109/1/3
f 112/1/3 110/1/3 111/1/3
f 115/1/3 114/1/3 113/1/3
f 116/1/3 114/1/3 115/1/3
f 119/1/3 118/1/3 117/1/3
f 120/1/3 118/1/3 119/1/3
f 121/1/4 122/1/4 123/1/4
f 123/1/4 122/1/4 124/1/4
f 125/1/4 126/1/4 127/1/4
f 127/1/4 126/1/4 128/1/4
f 129/1/4 130/1/4 131/1/4
f 131/1/4 130/1/4 132/1/4
f 133/1/4 134/1/4 135/1/4
f 135/1/4 134/1/4 136/1/4
f 137/1/4 138/1/4 139/1/4
f 139/1/4 138/1/4 140/1/4
f 141/1/4 142/1/4 143/1/4
f 143/1/4 142/1/4 144/1/4
f 145/1/4 146/1/4 147/1/4
f 147/1/4 146/1/4 148/1/4
f 149/1/4 150/1/4 151/1/4
f 151/1/4 150/1/4 152/1/4
f 153/1/4 154/1/4 155/1/4
f 155/1/4 154/1/4 156/1/4
f 157/1/4 158/1/4 159/1/4
f 159/1/4 158/1/4 160/1/4
f 161/1/4 162/1/4 163/1/4
f 163/1/4 162/1/4 164/1/4
f 165/1/4 166/1/4 167/1/4
f 167/1/4 166/1/4 168/1/4
f 169/1/4 170/1/4 171/1/4
f 171/1/4 170/1/4 172/1/4
f 173/1/4 174/1/4 175/1/4
f 175/1/4 174/1/4 176/1/4
f 177/1/4 178/1/4 179/1/4
f 179/1/4 178/1/4 180/1/4
f 186/1/5 182/1/5 181/1/5
f 187/8/5 183/8/5 182/8/5
f 187/1/5 182/1/5 186/1/5
f 188/8/5 183/8/5 187/8/5
f 189/1/5 184/1/5 183/1/5
f 189/8/5 183/8/5 188/8/5
f 190/1/5 184/1/5 189/1/5
f 193/1/5 186/1/5 185/1/5
f 194/7/5 188/7/5 187/7/5
f 194/7/5 187/7/5 186/7/5
f 194/1/5 186/1/5 193/1/5
f 195/7/5 188/7/5 194/7/5
f 196/6/5 189/6/5 188/6/5
f 196/7/5 188/7/5 195/7/5
f 196/6/5 190/6/5 189/6/5
f 197/1/5 191/1/5 190/1/5
f 197/6/5 190/6/5 196/6/5
f 198/1/5 191/1/5 197/1/5
f 201/1/5 193/1/5 192/1/5
f 202/7/5 195/7/5 194/7/5
f 202/7/5 194/7/5 193/7/5
f 202/1/5 193/1/5 201/1/5
f 203/7/5 195/7/5 202/7/5
f 204/6/5 196/6/5 195/6/5
f 204/7/5 195/7/5 203/7/5
f 204/6/5 197/6/5 196/6/5
f 204/6/5 198/6/5 197/6/5
f 205/1/5 199/1/5 198/1/5
f 205/6/5 198/6/5 204/6/5
f 206/1/5 199/1/5 205/1/5
f 208/7/5 203/7/5 202/7/5
f 208/7/5 202/7/5 201/7/5
f 209/6/5 204/6/5 203/6/5
f 209/7/5 203/7/5 208/7/5
f 209/6/5 206/6/5 205/6/5
f 209/6/5 205/6/5 204/6/5
f 210/6/5 209/6/5 208/6/5
f 210/6/5 206/6/5 209/6/5
f 211/6/5 206/6/5 210/6/5
f 212/6/5 210/6/5 208/6/5
f 213/5/5 211/5/5 210/5/5
f 213/6/5 210/6/5 212/6/5
f 214/6/5 206/6/5 211/6/5
f 214/5/5 211/5/5 213/5/5
f 215/6/5 206/6/5 214/6/5
f 216/6/5 206/6/5 215/6/5
f 217/1/5 201/1/5 200/1/5
f 218/7/5 208/7/5 201/7/5
f 218/1/5 201/1/5 217/1/5
f 219/6/5 212/6/5 208/6/5
f 219/7/5 208/7/5 218/7/5
f 220/5/5 213/5/5 212/5/5
f 220/6/5 212/6/5 219/6/5
f 221/4/5 214/4/5 213/4/5
f 221/5/5 213/5/5 220/5/5
f 222/2/5 215/2/5 214/2/5
f 222/4/5 214/4/5 221/4/5
f 223/3/5 216/3/5 215/3/5
f 223/2/5 215/2/5 222/2/5
f 224/6/5 206/6/5 216/6/5
f 224/3/5 216/3/5 223/3/5
f 225/6/5 206/6/5 224/6/5
f 226/1/5 207/1/5 206/1/5
f 226/6/5 206/6/5 225/6/5
f 227/1/5 207/1/5 226/1/5
f 228/6/5 220/6/5 219/6/5
f 228/3/5 221/3/5 220/3/5
f 229/4/5 222/4/5 221/4/5
f 229/3/5 221/3/5 228/3/5
f 230/5/5 223/5/5 222/5/5
f 230/4/5 222/4/5 229/4/5
f 231/1/5 219/1/5 218/1/5
f 232/6/5 229/6/5 228/6/5
f 232/1/5 219/1/5 231/1/5
f 232/6/5 228/6/5 219/6/5
f 233/6/5 229/6/5 232/6/5
f 234/5/5 230/5/5 229/5/5
f 234/6/5 229/6/5 233/6/5
f 235/6/5 225/6/5 224/6/5
f 235/5/5 230/5/5 234/5/5
f 235/5/5 223/5/5 230/5/5
f 235/6/5 224/6/5 223/6/5
f 236/6/5 225/6/5 235/6/5
f 237/1/5 226/1/5 225/1/5
f 237/6/5 225/6/5 236/6/5
f 238/1/5 226/1/5 237/1/5
f 239/1/5 233/1/5 232/1/5
f 240/6/5 234/6/5 233/6/5
f 240/1/5 233/1/5 239/1/5
f 240/6/5 236/6/5 235/6/5
f 240/6/5 235/6/5 234/6/5
f 241/6/5 236/6/5 240/6/5
f 242/6/5 236/6/5 241/6/5
f 243/6/5 236/6/5 242/6/5
f 244/6/5 236/6/5 243/6/5
f 245/1/5 237/1/5 236/1/5
f 245/6/5 236/6/5 244/6/5
f 246/1/5 237/1/5 245/1/5
f 247/1/5 241/1/5 240/1/5
f 248/1/5 241/1/5 247/1/5
f 249/7/5 242/7/5 241/7/5
f 249/1/5 241/1/5 248/1/5
f 250/1/5 243/1/5 242/1/5
f 250/7/5 242/7/5 249/7/5
f 251/1/5 243/1/5 250/1/5
f 252/1/5 243/1/5 251/1/5
f 253/7/5 244/7/5 243/7/5
f 253/1/5 243/1/5 252/1/5
f 254/1/5 245/1/5 244/1/5
f 254/7/5 244/7/5 253/7/5
f 255/1/5 245/1/5 254/1/5
f 256/1/5 245/1/5 255/1/5
f 257/1/5 249/1/5 248/1/5
f 258/6/5 250/6/5 249/6/5
f 258/1/5 249/1/5 257/1/5
f 259/1/5 251/1/5 250/1/5
f 259/6/5 250/6/5 258/6/5
f 260/1/5 251/1/5 259/1/5
f 261/1/5 253/1/5 252/1/5
f 262/6/5 254/6/5 253/6/5
f 262/1/5 253/1/5 261/1/5
f 263/1/5 255/1/5 254/1/5
f 263/6/5 254/6/5 262/6/5
f 264/1/5 255/1/5 263/1/5
f 265/1/5 259/1/5 258/1/5
f 266/1/5 259/1/5 265/1/5
f 267/1/5 263/1/5 262/1/5
f 268/1/5 263/1/5 267/1/5
f 269/1/6 270/1/6 274/1/6
f 270/8/6 271/8/6 275/8/6
f 274/1/6 270/1/6 275/1/6
f 275/8/6 271/8/6 276/8/6
f 271/1/6 272/1/6 277/1/6
f 276/8/6 271/8/6 277/8/6
f 277/1/6 272/1/6 278/1/6
f 273/1/6 274/1/6 281/1/6
f 275/7/6 276/7/6 282/7/6
f 274/7/6 275/7/6 282/7/6
f 281/1/6 274/1/6 282/1/6
f 282/7/6 276/7/6 283/7/6
f 276/6/6 277/6/6 284/6/6
f 283/7/6 276/7/6 284/7/6
f 277/6/6 278/6/6 284/6/6
f 278/1/6 279/1/6 285/1/6
f 284/6/6 278/6/6 285/6/6
f 285/1/6 279/1/6 286/1/6
f 280/1/6 281/1/6 289/1/6
f 282/7/6 283/7/6 290/7/6
f 281/7/6 282/7/6 290/7/6
f 289/1/6 281/1/6 290/1/6
f 290/7/6 283/7/6 291/7/6
f 283/6/6 284/6/6 292/6/6
f 291/7/6 283/7/6 292/7/6
f 284/6/6 285/6/6 292/6/6
f 285/6/6 286/6/6 292/6/6
f 286/1/6 287/1/6 293/1/6
f 292/6/6 286/6/6 293/6/6
f 293/1/6 287/1/6 294/1/6
f 290/7/6 291/7/6 296/7/6
f 289/7/6 290/7/6 296/7/6
f 291/6/6 292/6/6 297/6/6
f 296/7/6 291/7/6 297/7/6
f 293/6/6 294/6/6 297/6/6
f 292/6/6 293/6/6 297/6/6
f 296/6/6 297/6/6 298/6/6
f 297/6/6 294/6/6 298/6/6
f 298/6/6 294/6/6 299/6/6
f 296/6/6 298/6/6 300/6/6
f 298/5/6 299/5/6 301/5/6
f 300/6/6 298/6/6 301/6/6
f 299/6/6 294/6/6 302/6/6
f 301/5/6 299/5/6 302/5/6
f 302/6/6 294/6/6 303/6/6
f 303/6/6 294/6/6 304/6/6
f 288/1/6 289/1/6 305/1/6
f 289/7/6 296/7/6 306/7/6
f 305/1/6 289/1/6 306/1/6
f 296/6/6 300/6/6 307/6/6
f 306/7/6 296/7/6 307/7/6
f 300/5/6 301/5/6 308/5/6
f 307/6/6 300/6/6 308/6/6
f 301/4/6 302/4/6 309/4/6
f 308/5/6 301/5/6 309/5/6
f 302/2/6 303/2/6 310/2/6
f 309/4/6 302/4/6 310/4/6
f 303/3/6 304/3/6 311/3/6
f 310/2/6 303/2/6 311/2/6
f 304/6/6 294/6/6 312/6/6
f 311/3/6 304/3/6 312/3/6
f 312/6/6 294/6/6 313/6/6
f 294/1/6 295/1/6 314/1/6
f 313/6/6 294/6/6 314/6/6
f 314/1/6 295/1/6 315/1/6
f 307/6/6 308/6/6 316/6/6
f 308/3/6 309/3/6 316/3/6
f 309/4/6 310/4/6 317/4/6
f 316/3/6 309/3/6 317/3/6
f 310/5/6 311/5/6 318/5/6
f 317/4/6 310/4/6 318/4/6
f 306/1/6 307/1/6 319/1/6
f 316/6/6 317/6/6 320/6/6
f 319/1/6 307/1/6 320/1/6
f 307/6/6 316/6/6 320/6/6
f 320/6/6 317/6/6 321/6/6
f 317/5/6 318/5/6 322/5/6
f 321/6/6 317/6/6 322/6/6
f 312/6/6 313/6/6 323/6/6
f 322/5/6 318/5/6 323/5/6
f 318/5/6 311/5/6 323/5/6
f 311/6/6 312/6/6 323/6/6
f 323/6/6 313/6/6 324/6/6
f 313/1/6 314/1/6 325/1/6
f 324/6/6 313/6/6 325/6/6
f 325/1/6 314/1/6 326/1/6
f 320/1/6 321/1/6 327/1/6
f 321/6/6 322/6/6 328/6/6
f 327/1/6 321/1/6 328/1/6
f 323/6/6 324/6/6 328/6/6
f 322/6/6 323/6/6 328/6/6
f 328/6/6 324/6/6 329/6/6
f 329/6/6 324/6/6 330/6/6
f 330/6/6 324/6/6 331/6/6
f 331/6/6 324/6/6 332/6/6
f 324/1/6 325/1/6 333/1/6
f 332/6/6 324/6/6 333/6/6
f 333/1/6 325/1/6 334/1/6
f 328/1/6 329/1/6 335/1/6
f 335/1/6 329/1/6 336/1/6
f 329/7/6 330/7/6 337/7/6
f 336/1/6 329/1/6 337/1/6
f 330/1/6 331/1/6 338/1/6
f 337/7/6 330/7/6 338/7/6
f 338/1/6 331/1/6 339/1/6
f 339/1/6 331/1/6 340/1/6
f 331/7/6 332/7/6 341/7/6
f 340/1/6 331/1/6 341/1/6
f 332/1/6 333/1/6 342/1/6
f 341/7/6 332/7/6 342/7/6
f 342/1/6 333/1/6 343/1/6
f 343/1/6 333/1/6 344/1/6
f 336/1/6 337/1/6 345/1/6
f 337/6/6 338/6/6 346/6/6
f 345/1/6 337/1/6 346/1/6
f 338/1/6 339/1/6 347/1/6
f 346/6/6 338/6/6 347/6/6
f 347/1/6 339/1/6 348/1/6
f 340/1/6 341/1/6 349/1/6
f 341/6/6 342/6/6 350/6/6
f 349/1/6 341/1/6 350/1/6
f 342/1/6 343/1/6 351/1/6
f 350/6/6 342/6/6 351/6/6
f 351/1/6 343/1/6 352/1/6
f 346/1/6 347/1/6 353/1/6
f 353/1/6 347/1/6 354/1/6
f 350/1/6 351/1/6 355/1/6
f 355/1/6 351/1/6 356/1/6
