# MagicaVoxel @ Ephtracy

# group
o BunnyHead

# material
mtllib BunnyHead-2-BunnyHead.mtl
usemtl palette

# normals
vn -1 0 0
vn 1 0 0
vn 0 -1 0
vn 0 1 0
vn 0 0 -1
vn 0 0 1

# texcoords
vt 0.00195312 0.5
vt 0.00585938 0.5
vt 0.00976562 0.5
vt 0.0214844 0.5
vt 0.0253906 0.5
vt 0.0332031 0.5
vt 0.0371094 0.5
vt 0.0410156 0.5

# verts
v -0.9 0.3 -0.1
v -0.9 0.9 -0.1
v -0.9 0.3 0
v -0.9 0.9 0
v -0.8 0.2 -0.1
v -0.8 0.3 -0.1
v -0.8 0.9 -0.1
v -0.8 1.1 -0.1
v -0.8 0.2 0
v -0.8 0.3 0
v -0.8 0.9 0
v -0.8 1.1 0
v -0.7 0.1 -0.1
v -0.7 0.2 -0.1
v -0.7 1.1 -0.1
v -0.7 1.2 -0.1
v -0.7 0.1 0
v -0.7 0.2 0
v -0.7 1.1 0
v -0.7 1.2 0
v -0.6 0 -0.1
v -0.6 0.1 -0.1
v -0.6 1.2 -0.1
v -0.6 1.3 -0.1
v -0.6 0 0
v -0.6 0.1 0
v -0.6 1.2 0
v -0.6 1.3 0
v -0.5 1.3 -0.1
v -0.5 2.1 -0.1
v -0.5 1.3 0
v -0.5 2.1 0
v -0.4 2.1 -0.1
v -0.4 2.2 -0.1
v -0.4 2.1 0
v -0.4 2.2 0
v 0.1 1.3 -0.1
v 0.1 2.1 -0.1
v 0.1 1.3 0
v 0.1 2.1 0
v 0.2 2.1 -0.1
v 0.2 2.2 -0.1
v 0.2 2.1 0
v 0.2 2.2 0
v -0.2 2.1 -0.1
v -0.2 2.2 -0.1
v -0.2 2.1 0
v -0.2 2.2 0
v -0.1 1.3 -0.1
v -0.1 2.1 -0.1
v -0.1 1.3 0
v -0.1 2.1 0
v 0.4 2.1 -0.1
v 0.4 2.2 -0.1
v 0.4 2.1 0
v 0.4 2.2 0
v 0.5 1.3 -0.1
v 0.5 2.1 -0.1
v 0.5 1.3 0
v 0.5 2.1 0
v 0.6 0 -0.1
v 0.6 0.1 -0.1
v 0.6 1.2 -0.1
v 0.6 1.3 -0.1
v 0.6 0 0
v 0.6 0.1 0
v 0.6 1.2 0
v 0.6 1.3 0
v 0.7 0.1 -0.1
v 0.7 0.2 -0.1
v 0.7 1.1 -0.1
v 0.7 1.2 -0.1
v 0.7 0.1 0
v 0.7 0.2 0
v 0.7 1.1 0
v 0.7 1.2 0
v 0.8 0.2 -0.1
v 0.8 0.3 -0.1
v 0.8 0.9 -0.1
v 0.8 1.1 -0.1
v 0.8 0.2 0
v 0.8 0.3 0
v 0.8 0.9 0
v 0.8 1.1 0
v 0.9 0.3 -0.1
v 0.9 0.9 -0.1
v 0.9 0.3 0
v 0.9 0.9 0
v -0.6 0 -0.1
v -0.6 0 0
v -0.3 0 -0.1
v -0.3 0 0
v 0.3 0 -0.1
v 0.3 0 0
v 0.6 0 -0.1
v 0.6 0 0
v -0.7 0.1 -0.1
v -0.7 0.1 0
v -0.6 0.1 -0.1
v -0.6 0.1 0
v 0.6 0.1 -0.1
v 0.6 0.1 0
v 0.7 0.1 -0.1
v 0.7 0.1 0
v -0.8 0.2 -0.1
v -0.8 0.2 0
v -0.7 0.2 -0.1
v -0.7 0.2 0
v 0.7 0.2 -0.1
v 0.7 0.2 0
v 0.8 0.2 -0.1
v 0.8 0.2 0
v -0.9 0.3 -0.1
v -0.9 0.3 0
v -0.8 0.3 -0.1
v -0.8 0.3 0
v 0.8 0.3 -0.1
v 0.8 0.3 0
v 0.9 0.3 -0.1
v 0.9 0.3 0
v -0.9 0.9 -0.1
v -0.9 0.9 0
v -0.8 0.9 -0.1
v -0.8 0.9 0
v 0.8 0.9 -0.1
v 0.8 0.9 0
v 0.9 0.9 -0.1
v 0.9 0.9 0
v -0.8 1.1 -0.1
v -0.8 1.1 0
v -0.7 1.1 -0.1
v -0.7 1.1 0
v 0.7 1.1 -0.1
v 0.7 1.1 0
v 0.8 1.1 -0.1
v 0.8 1.1 0
v -0.7 1.2 -0.1
v -0.7 1.2 0
v -0.6 1.2 -0.1
v -0.6 1.2 0
v 0.6 1.2 -0.1
v 0.6 1.2 0
v 0.7 1.2 -0.1
v 0.7 1.2 0
v -0.6 1.3 -0.1
v -0.6 1.3 0
v -0.5 1.3 -0.1
v -0.5 1.3 0
v -0.1 1.3 -0.1
v -0.1 1.3 0
v 0.1 1.3 -0.1
v 0.1 1.3 0
v 0.5 1.3 -0.1
v 0.5 1.3 0
v 0.6 1.3 -0.1
v 0.6 1.3 0
v -0.5 2.1 -0.1
v -0.5 2.1 0
v -0.4 2.1 -0.1
v -0.4 2.1 0
v -0.2 2.1 -0.1
v -0.2 2.1 0
v -0.1 2.1 -0.1
v -0.1 2.1 0
v 0.1 2.1 -0.1
v 0.1 2.1 0
v 0.2 2.1 -0.1
v 0.2 2.1 0
v 0.4 2.1 -0.1
v 0.4 2.1 0
v 0.5 2.1 -0.1
v 0.5 2.1 0
v -0.4 2.2 -0.1
v -0.4 2.2 0
v -0.2 2.2 -0.1
v -0.2 2.2 0
v 0.2 2.2 -0.1
v 0.2 2.2 0
v 0.4 2.2 -0.1
v 0.4 2.2 0
v -0.6 0 -0.1
v -0.3 0 -0.1
v 0.3 0 -0.1
v 0.6 0 -0.1
v -0.7 0.1 -0.1
v -0.6 0.1 -0.1
v -0.3 0.1 -0.1
v 0 0.1 -0.1
v 0.3 0.1 -0.1
v 0.6 0.1 -0.1
v 0.7 0.1 -0.1
v -0.8 0.2 -0.1
v -0.7 0.2 -0.1
v -0.6 0.2 -0.1
v -0.5 0.2 -0.1
v -0.4 0.2 -0.1
v 0 0.2 -0.1
v 0.6 0.2 -0.1
v 0.7 0.2 -0.1
v 0.8 0.2 -0.1
v -0.9 0.3 -0.1
v -0.8 0.3 -0.1
v -0.7 0.3 -0.1
v -0.6 0.3 -0.1
v -0.5 0.3 -0.1
v 0.7 0.3 -0.1
v 0.8 0.3 -0.1
v 0.9 0.3 -0.1
v -0.7 0.4 -0.1
v -0.6 0.4 -0.1
v -0.5 0.4 -0.1
v -0.7 0.5 -0.1
v -0.6 0.5 -0.1
v -0.5 0.5 -0.1
v -0.4 0.5 -0.1
v -0.3 0.5 -0.1
v -0.6 0.6 -0.1
v -0.5 0.6 -0.1
v -0.3 0.6 -0.1
v -0.2 0.6 -0.1
v 0.2 0.7 -0.1
v 0.8 0.7 -0.1
v -0.7 0.8 -0.1
v -0.6 0.8 -0.1
v -0.5 0.8 -0.1
v -0.4 0.8 -0.1
v 0 0.8 -0.1
v 0.2 0.8 -0.1
v 0.3 0.8 -0.1
v 0.6 0.8 -0.1
v 0.7 0.8 -0.1
v 0.8 0.8 -0.1
v -0.9 0.9 -0.1
v -0.8 0.9 -0.1
v -0.7 0.9 -0.1
v -0.6 0.9 -0.1
v -0.5 0.9 -0.1
v -0.4 0.9 -0.1
v 0 0.9 -0.1
v 0.2 0.9 -0.1
v 0.3 0.9 -0.1
v 0.4 0.9 -0.1
v 0.5 0.9 -0.1
v 0.6 0.9 -0.1
v 0.7 0.9 -0.1
v 0.8 0.9 -0.1
v 0.9 0.9 -0.1
v -0.7 1 -0.1
v -0.6 1 -0.1
v -0.5 1 -0.1
v -0.4 1 -0.1
v -0.3 1 -0.1
v 0.2 1 -0.1
v 0.3 1 -0.1
v 0.4 1 -0.1
v 0.5 1 -0.1
v 0.6 1 -0.1
v 0.7 1 -0.1
v -0.8 1.1 -0.1
v -0.7 1.1 -0.1
v -0.6 1.1 -0.1
v -0.5 1.1 -0.1
v -0.4 1.1 -0.1
v -0.3 1.1 -0.1
v -0.2 1.1 -0.1
v 0.2 1.1 -0.1
v 0.3 1.1 -0.1
v 0.5 1.1 -0.1
v 0.6 1.1 -0.1
v 0.7 1.1 -0.1
v 0.8 1.1 -0.1
v -0.7 1.2 -0.1
v -0.6 1.2 -0.1
v -0.5 1.2 -0.1
v -0.4 1.2 -0.1
v -0.3 1.2 -0.1
v -0.2 1.2 -0.1
v 0.2 1.2 -0.1
v 0.3 1.2 -0.1
v 0.4 1.2 -0.1
v 0.5 1.2 -0.1
v 0.6 1.2 -0.1
v 0.7 1.2 -0.1
v -0.6 1.3 -0.1
v -0.5 1.3 -0.1
v -0.4 1.3 -0.1
v -0.2 1.3 -0.1
v -0.1 1.3 -0.1
v 0.1 1.3 -0.1
v 0.2 1.3 -0.1
v 0.3 1.3 -0.1
v 0.4 1.3 -0.1
v 0.5 1.3 -0.1
v 0.6 1.3 -0.1
v 0.3 1.4 -0.1
v 0.4 1.4 -0.1
v -0.5 2.1 -0.1
v -0.4 2.1 -0.1
v -0.2 2.1 -0.1
v -0.1 2.1 -0.1
v 0.1 2.1 -0.1
v 0.2 2.1 -0.1
v 0.4 2.1 -0.1
v 0.5 2.1 -0.1
v -0.4 2.2 -0.1
v -0.2 2.2 -0.1
v 0.2 2.2 -0.1
v 0.4 2.2 -0.1
v -0.6 0 0
v -0.3 0 0
v 0.3 0 0
v 0.6 0 0
v -0.7 0.1 0
v -0.6 0.1 0
v -0.3 0.1 0
v 0 0.1 0
v 0.3 0.1 0
v 0.6 0.1 0
v 0.7 0.1 0
v -0.8 0.2 0
v -0.7 0.2 0
v -0.6 0.2 0
v -0.5 0.2 0
v -0.4 0.2 0
v 0 0.2 0
v 0.6 0.2 0
v 0.7 0.2 0
v 0.8 0.2 0
v -0.9 0.3 0
v -0.8 0.3 0
v -0.7 0.3 0
v -0.6 0.3 0
v -0.5 0.3 0
v 0.7 0.3 0
v 0.8 0.3 0
v 0.9 0.3 0
v -0.7 0.4 0
v -0.6 0.4 0
v -0.5 0.4 0
v -0.7 0.5 0
v -0.6 0.5 0
v -0.5 0.5 0
v -0.4 0.5 0
v -0.3 0.5 0
v -0.6 0.6 0
v -0.5 0.6 0
v -0.3 0.6 0
v -0.2 0.6 0
v 0.2 0.7 0
v 0.8 0.7 0
v -0.7 0.8 0
v -0.6 0.8 0
v -0.5 0.8 0
v -0.4 0.8 0
v 0 0.8 0
v 0.2 0.8 0
v 0.3 0.8 0
v 0.6 0.8 0
v 0.7 0.8 0
v 0.8 0.8 0
v -0.9 0.9 0
v -0.8 0.9 0
v -0.7 0.9 0
v -0.6 0.9 0
v -0.5 0.9 0
v -0.4 0.9 0
v 0 0.9 0
v 0.2 0.9 0
v 0.3 0.9 0
v 0.4 0.9 0
v 0.5 0.9 0
v 0.6 0.9 0
v 0.7 0.9 0
v 0.8 0.9 0
v 0.9 0.9 0
v -0.7 1 0
v -0.6 1 0
v -0.5 1 0
v -0.4 1 0
v -0.3 1 0
v 0.2 1 0
v 0.3 1 0
v 0.4 1 0
v 0.5 1 0
v 0.6 1 0
v 0.7 1 0
v -0.8 1.1 0
v -0.7 1.1 0
v -0.6 1.1 0
v -0.5 1.1 0
v -0.4 1.1 0
v -0.3 1.1 0
v -0.2 1.1 0
v 0.2 1.1 0
v 0.3 1.1 0
v 0.5 1.1 0
v 0.6 1.1 0
v 0.7 1.1 0
v 0.8 1.1 0
v -0.7 1.2 0
v -0.6 1.2 0
v -0.5 1.2 0
v -0.4 1.2 0
v -0.3 1.2 0
v -0.2 1.2 0
v 0.2 1.2 0
v 0.3 1.2 0
v 0.4 1.2 0
v 0.5 1.2 0
v 0.6 1.2 0
v 0.7 1.2 0
v -0.6 1.3 0
v -0.5 1.3 0
v -0.4 1.3 0
v -0.2 1.3 0
v -0.1 1.3 0
v 0.1 1.3 0
v 0.2 1.3 0
v 0.3 1.3 0
v 0.4 1.3 0
v 0.5 1.3 0
v 0.6 1.3 0
v 0.3 1.4 0
v 0.4 1.4 0
v -0.5 2.1 0
v -0.4 2.1 0
v -0.2 2.1 0
v -0.1 2.1 0
v 0.1 2.1 0
v 0.2 2.1 0
v 0.4 2.1 0
v 0.5 2.1 0
v -0.4 2.2 0
v -0.2 2.2 0
v 0.2 2.2 0
v 0.4 2.2 0

# faces
f 3/1/1 2/1/1 1/1/1
f 4/1/1 2/1/1 3/1/1
f 9/1/1 6/1/1 5/1/1
f 10/1/1 6/1/1 9/1/1
f 11/1/1 8/1/1 7/1/1
f 12/1/1 8/1/1 11/1/1
f 17/1/1 14/1/1 13/1/1
f 18/1/1 14/1/1 17/1/1
f 19/1/1 16/1/1 15/1/1
f 20/1/1 16/1/1 19/1/1
f 25/1/1 22/1/1 21/1/1
f 26/1/1 22/1/1 25/1/1
f 27/1/1 24/1/1 23/1/1
f 28/1/1 24/1/1 27/1/1
f 31/1/1 30/1/1 29/1/1
f 32/1/1 30/1/1 31/1/1
f 35/1/1 34/1/1 33/1/1
f 36/1/1 34/1/1 35/1/1
f 39/1/1 38/1/1 37/1/1
f 40/1/1 38/1/1 39/1/1
f 43/1/1 42/1/1 41/1/1
f 44/1/1 42/1/1 43/1/1
f 45/1/2 46/1/2 47/1/2
f 47/1/2 46/1/2 48/1/2
f 49/1/2 50/1/2 51/1/2
f 51/1/2 50/1/2 52/1/2
f 53/1/2 54/1/2 55/1/2
f 55/1/2 54/1/2 56/1/2
f 57/1/2 58/1/2 59/1/2
f 59/1/2 58/1/2 60/1/2
f 61/1/2 62/1/2 65/1/2
f 65/1/2 62/1/2 66/1/2
f 63/1/2 64/1/2 67/1/2
f 67/1/2 64/1/2 68/1/2
f 69/1/2 70/1/2 73/1/2
f 73/1/2 70/1/2 74/1/2
f 71/1/2 72/1/2 75/1/2
f 75/1/2 72/1/2 76/1/2
f 77/1/2 78/1/2 81/1/2
f 81/1/2 78/1/2 82/1/2
f 79/1/2 80/1/2 83/1/2
f 83/1/2 80/1/2 84/1/2
f 85/1/2 86/1/2 87/1/2
f 87/1/2 86/1/2 88/1/2
f 91/1/3 90/1/3 89/1/3
f 92/1/3 90/1/3 91/1/3
f 93/8/3 92/8/3 91/8/3
f 94/8/3 92/8/3 93/8/3
f 95/1/3 94/1/3 93/1/3
f 96/1/3 94/1/3 95/1/3
f 99/1/3 98/1/3 97/1/3
f 100/1/3 98/1/3 99/1/3
f 103/1/3 102/1/3 101/1/3
f 104/1/3 102/1/3 103/1/3
f 107/1/3 106/1/3 105/1/3
f 108/1/3 106/1/3 107/1/3
f 111/1/3 110/1/3 109/1/3
f 112/1/3 110/1/3 111/1/3
f 115/1/3 114/1/3 113/1/3
f 116/1/3 114/1/3 115/1/3
f 119/1/3 118/1/3 117/1/3
f 120/1/3 118/1/3 119/1/3
f 121/1/4 122/1/4 123/1/4
f 123/1/4 122/1/4 124/1/4
f 125/1/4 126/1/4 127/1/4
f 127/1/4 126/1/4 128/1/4
f 129/1/4 130/1/4 131/1/4
f 131/1/4 130/1/4 132/1/4
f 133/1/4 134/1/4 135/1/4
f 135/1/4 134/1/4 136/1/4
f 137/1/4 138/1/4 139/1/4
f 139/1/4 138/1/4 140/1/4
f 141/1/4 142/1/4 143/1/4
f 143/1/4 142/1/4 144/1/4
f 145/1/4 146/1/4 147/1/4
f 147/1/4 146/1/4 148/1/4
f 149/1/4 150/1/4 151/1/4
f 151/1/4 150/1/4 152/1/4
f 153/1/4 154/1/4 155/1/4
f 155/1/4 154/1/4 156/1/4
f 157/1/4 158/1/4 159/1/4
f 159/1/4 158/1/4 160/1/4
f 161/1/4 162/1/4 163/1/4
f 163/1/4 162/1/4 164/1/4
f 165/1/4 166/1/4 167/1/4
f 167/1/4 166/1/4 168/1/4
f 169/1/4 170/1/4 171/1/4
f 171/1/4 170/1/4 172/1/4
f 173/1/4 174/1/4 175/1/4
f 175/1/4 174/1/4 176/1/4
f 177/1/4 178/1/4 179/1/4
f 179/1/4 178/1/4 180/1/4
f 186/1/5 182/1/5 181/1/5
f 187/8/5 183/8/5 182/8/5
f 187/1/5 182/1/5 186/1/5
f 188/8/5 183/8/5 187/8/5
f 189/1/5 184/1/5 183/1/5
f 189/8/5 183/8/5 188/8/5
f 190/1/5 184/1/5 189/1/5
f 193/1/5 186/1/5 185/1/5
f 194/7/5 188/7/5 187/7/5
f 194/7/5 187/7/5 186/7/5
f 194/1/5 186/1/5 193/1/5
f 195/7/5 188/7/5 194/7/5
f 196/7/5 188/7/5 195/7/5
f 197/6/5 189/6/5 188/6/5
f 197/7/5 188/7/5 196/7/5
f 197/6/5 190/6/5 189/6/5
f 198/1/5 191/1/5 190/1/5
f 198/6/5 190/6/5 197/6/5
f 199/1/5 191/1/5 198/1/5
f 202/1/5 193/1/5 192/1/5
f 203/7/5 195/7/5 194/7/5
f 203/7/5 194/7/5 193/7/5
f 203/1/5 193/1/5 202/1/5
f 204/7/5 195/7/5 203/7/5
f 205/3/5 196/3/5 195/3/5
f 205/7/5 195/7/5 204/7/5
f 206/1/5 200/1/5 199/1/5
f 206/6/5 197/6/5 196/6/5
f 206/6/5 198/6/5 197/6/5
f 206/6/5 199/6/5 198/6/5
f 207/1/5 200/1/5 206/1/5
f 209/7/5 204/7/5 203/7/5
f 209/7/5 203/7/5 202/7/5
f 210/3/5 205/3/5 204/3/5
f 210/7/5 204/7/5 209/7/5
f 211/3/5 196/3/5 205/3/5
f 211/3/5 205/3/5 210/3/5
f 212/3/5 210/3/5 209/3/5
f 212/7/5 209/7/5 202/7/5
f 213/5/5 211/5/5 210/5/5
f 213/3/5 210/3/5 212/3/5
f 214/3/5 196/3/5 211/3/5
f 214/5/5 211/5/5 213/5/5
f 215/6/5 207/6/5 206/6/5
f 215/3/5 196/3/5 214/3/5
f 215/6/5 206/6/5 196/6/5
f 216/6/5 207/6/5 215/6/5
f 217/2/5 213/2/5 212/2/5
f 217/4/5 214/4/5 213/4/5
f 218/3/5 216/3/5 215/3/5
f 218/4/5 214/4/5 217/4/5
f 218/3/5 215/3/5 214/3/5
f 219/6/5 207/6/5 216/6/5
f 219/3/5 216/3/5 218/3/5
f 220/6/5 207/6/5 219/6/5
f 221/6/5 207/6/5 220/6/5
f 222/1/5 208/1/5 207/1/5
f 222/6/5 207/6/5 221/6/5
f 223/2/5 218/2/5 217/2/5
f 223/7/5 212/7/5 202/7/5
f 223/2/5 217/2/5 212/2/5
f 224/2/5 218/2/5 223/2/5
f 225/4/5 219/4/5 218/4/5
f 225/2/5 218/2/5 224/2/5
f 226/4/5 219/4/5 225/4/5
f 227/6/5 221/6/5 220/6/5
f 228/3/5 222/3/5 221/3/5
f 228/6/5 221/6/5 227/6/5
f 229/3/5 222/3/5 228/3/5
f 230/3/5 222/3/5 229/3/5
f 231/3/5 222/3/5 230/3/5
f 232/1/5 208/1/5 222/1/5
f 232/3/5 222/3/5 231/3/5
f 233/1/5 202/1/5 201/1/5
f 234/7/5 223/7/5 202/7/5
f 234/1/5 202/1/5 233/1/5
f 235/3/5 224/3/5 223/3/5
f 235/7/5 223/7/5 234/7/5
f 236/5/5 225/5/5 224/5/5
f 236/3/5 224/3/5 235/3/5
f 237/2/5 226/2/5 225/2/5
f 237/5/5 225/5/5 236/5/5
f 238/4/5 219/4/5 226/4/5
f 238/2/5 226/2/5 237/2/5
f 239/6/5 227/6/5 220/6/5
f 239/3/5 228/3/5 227/3/5
f 240/5/5 229/5/5 228/5/5
f 240/3/5 228/3/5 239/3/5
f 241/4/5 230/4/5 229/4/5
f 241/5/5 229/5/5 240/5/5
f 242/4/5 230/4/5 241/4/5
f 243/4/5 230/4/5 242/4/5
f 244/5/5 231/5/5 230/5/5
f 244/4/5 230/4/5 243/4/5
f 245/2/5 232/2/5 231/2/5
f 245/5/5 231/5/5 244/5/5
f 246/1/5 208/1/5 232/1/5
f 246/2/5 232/2/5 245/2/5
f 247/1/5 208/1/5 246/1/5
f 248/1/5 235/1/5 234/1/5
f 248/3/5 236/3/5 235/3/5
f 249/2/5 237/2/5 236/2/5
f 249/3/5 236/3/5 248/3/5
f 250/5/5 238/5/5 237/5/5
f 250/2/5 237/2/5 249/2/5
f 251/4/5 219/4/5 238/4/5
f 251/5/5 238/5/5 250/5/5
f 252/3/5 220/3/5 219/3/5
f 252/4/5 219/4/5 251/4/5
f 253/3/5 242/3/5 241/3/5
f 253/6/5 240/6/5 239/6/5
f 253/3/5 241/3/5 240/3/5
f 254/3/5 242/3/5 253/3/5
f 255/4/5 243/4/5 242/4/5
f 255/3/5 242/3/5 254/3/5
f 256/5/5 245/5/5 244/5/5
f 256/4/5 243/4/5 255/4/5
f 256/5/5 244/5/5 243/5/5
f 257/5/5 245/5/5 256/5/5
f 258/1/5 246/1/5 245/1/5
f 258/5/5 245/5/5 257/5/5
f 259/1/5 248/1/5 234/1/5
f 260/6/5 249/6/5 248/6/5
f 260/1/5 248/1/5 259/1/5
f 261/3/5 250/3/5 249/3/5
f 261/6/5 249/6/5 260/6/5
f 262/2/5 251/2/5 250/2/5
f 262/3/5 250/3/5 261/3/5
f 263/5/5 252/5/5 251/5/5
f 263/2/5 251/2/5 262/2/5
f 264/3/5 220/3/5 252/3/5
f 264/5/5 252/5/5 263/5/5
f 265/6/5 254/6/5 253/6/5
f 265/3/5 220/3/5 264/3/5
f 265/6/5 239/6/5 220/6/5
f 265/6/5 253/6/5 239/6/5
f 266/6/5 254/6/5 265/6/5
f 267/3/5 255/3/5 254/3/5
f 267/6/5 254/6/5 266/6/5
f 267/3/5 256/3/5 255/3/5
f 268/5/5 257/5/5 256/5/5
f 268/3/5 256/3/5 267/3/5
f 269/2/5 258/2/5 257/2/5
f 269/5/5 257/5/5 268/5/5
f 270/1/5 246/1/5 258/1/5
f 270/2/5 258/2/5 269/2/5
f 271/1/5 246/1/5 270/1/5
f 272/1/5 261/1/5 260/1/5
f 273/6/5 262/6/5 261/6/5
f 273/1/5 261/1/5 272/1/5
f 274/3/5 264/3/5 263/3/5
f 274/6/5 262/6/5 273/6/5
f 274/3/5 263/3/5 262/3/5
f 275/3/5 264/3/5 274/3/5
f 276/6/5 266/6/5 265/6/5
f 276/3/5 264/3/5 275/3/5
f 276/6/5 265/6/5 264/6/5
f 277/6/5 266/6/5 276/6/5
f 278/3/5 267/3/5 266/3/5
f 278/6/5 266/6/5 277/6/5
f 278/3/5 268/3/5 267/3/5
f 279/3/5 268/3/5 278/3/5
f 280/3/5 268/3/5 279/3/5
f 281/2/5 269/2/5 268/2/5
f 281/3/5 268/3/5 280/3/5
f 282/1/5 270/1/5 269/1/5
f 282/2/5 269/2/5 281/2/5
f 283/1/5 270/1/5 282/1/5
f 284/1/5 275/1/5 274/1/5
f 284/1/5 274/1/5 273/1/5
f 285/1/5 275/1/5 284/1/5
f 286/7/5 277/7/5 276/7/5
f 286/1/5 275/1/5 285/1/5
f 286/7/5 276/7/5 275/7/5
f 287/1/5 278/1/5 277/1/5
f 287/7/5 277/7/5 286/7/5
f 288/1/5 278/1/5 287/1/5
f 289/1/5 278/1/5 288/1/5
f 290/7/5 279/7/5 278/7/5
f 290/1/5 278/1/5 289/1/5
f 291/3/5 280/3/5 279/3/5
f 291/7/5 279/7/5 290/7/5
f 292/2/5 281/2/5 280/2/5
f 292/3/5 280/3/5 291/3/5
f 293/1/5 282/1/5 281/1/5
f 293/2/5 281/2/5 292/2/5
f 294/1/5 282/1/5 293/1/5
f 295/3/5 292/3/5 291/3/5
f 295/6/5 291/6/5 290/6/5
f 296/1/5 293/1/5 292/1/5
f 296/3/5 292/3/5 295/3/5
f 297/1/5 286/1/5 285/1/5
f 298/6/5 287/6/5 286/6/5
f 298/1/5 286/1/5 297/1/5
f 299/1/5 288/1/5 287/1/5
f 299/6/5 287/6/5 298/6/5
f 300/1/5 288/1/5 299/1/5
f 301/1/5 290/1/5 289/1/5
f 302/6/5 295/6/5 290/6/5
f 302/1/5 290/1/5 301/1/5
f 302/6/5 296/6/5 295/6/5
f 303/1/5 293/1/5 296/1/5
f 303/6/5 296/6/5 302/6/5
f 304/1/5 293/1/5 303/1/5
f 305/1/5 299/1/5 298/1/5
f 306/1/5 299/1/5 305/1/5
f 307/1/5 303/1/5 302/1/5
f 308/1/5 303/1/5 307/1/5
f 309/1/6 310/1/6 314/1/6
f 310/8/6 311/8/6 315/8/6
f 314/1/6 310/1/6 315/1/6
f 315/8/6 311/8/6 316/8/6
f 311/1/6 312/1/6 317/1/6
f 316/8/6 311/8/6 317/8/6
f 317/1/6 312/1/6 318/1/6
f 313/1/6 314/1/6 321/1/6
f 315/7/6 316/7/6 322/7/6
f 314/7/6 315/7/6 322/7/6
f 321/1/6 314/1/6 322/1/6
f 322/7/6 316/7/6 323/7/6
f 323/7/6 316/7/6 324/7/6
f 316/6/6 317/6/6 325/6/6
f 324/7/6 316/7/6 325/7/6
f 317/6/6 318/6/6 325/6/6
f 318/1/6 319/1/6 326/1/6
f 325/6/6 318/6/6 326/6/6
f 326/1/6 319/1/6 327/1/6
f 320/1/6 321/1/6 330/1/6
f 322/7/6 323/7/6 331/7/6
f 321/7/6 322/7/6 331/7/6
f 330/1/6 321/1/6 331/1/6
f 331/7/6 323/7/6 332/7/6
f 323/3/6 324/3/6 333/3/6
f 332/7/6 323/7/6 333/7/6
f 327/1/6 328/1/6 334/1/6
f 324/6/6 325/6/6 334/6/6
f 325/6/6 326/6/6 334/6/6
f 326/6/6 327/6/6 334/6/6
f 334/1/6 328/1/6 335/1/6
f 331/7/6 332/7/6 337/7/6
f 330/7/6 331/7/6 337/7/6
f 332/3/6 333/3/6 338/3/6
f 337/7/6 332/7/6 338/7/6
f 333/3/6 324/3/6 339/3/6
f 338/3/6 333/3/6 339/3/6
f 337/3/6 338/3/6 340/3/6
f 330/7/6 337/7/6 340/7/6
f 338/5/6 339/5/6 341/5/6
f 340/3/6 338/3/6 341/3/6
f 339/3/6 324/3/6 342/3/6
f 341/5/6 339/5/6 342/5/6
f 334/6/6 335/6/6 343/6/6
f 342/3/6 324/3/6 343/3/6
f 324/6/6 334/6/6 343/6/6
f 343/6/6 335/6/6 344/6/6
f 340/2/6 341/2/6 345/2/6
f 341/4/6 342/4/6 345/4/6
f 343/3/6 344/3/6 346/3/6
f 345/4/6 342/4/6 346/4/6
f 342/3/6 343/3/6 346/3/6
f 344/6/6 335/6/6 347/6/6
f 346/3/6 344/3/6 347/3/6
f 347/6/6 335/6/6 348/6/6
f 348/6/6 335/6/6 349/6/6
f 335/1/6 336/1/6 350/1/6
f 349/6/6 335/6/6 350/6/6
f 345/2/6 346/2/6 351/2/6
f 330/7/6 340/7/6 351/7/6
f 340/2/6 345/2/6 351/2/6
f 351/2/6 346/2/6 352/2/6
f 346/4/6 347/4/6 353/4/6
f 352/2/6 346/2/6 353/2/6
f 353/4/6 347/4/6 354/4/6
f 348/6/6 349/6/6 355/6/6
f 349/3/6 350/3/6 356/3/6
f 355/6/6 349/6/6 356/6/6
f 356/3/6 350/3/6 357/3/6
f 357/3/6 350/3/6 358/3/6
f 358/3/6 350/3/6 359/3/6
f 350/1/6 336/1/6 360/1/6
f 359/3/6 350/3/6 360/3/6
f 329/1/6 330/1/6 361/1/6
f 330/7/6 351/7/6 362/7/6
f 361/1/6 330/1/6 362/1/6
f 351/3/6 352/3/6 363/3/6
f 362/7/6 351/7/6 363/7/6
f 352/5/6 353/5/6 364/5/6
f 363/3/6 352/3/6 364/3/6
f 353/2/6 354/2/6 365/2/6
f 364/5/6 353/5/6 365/5/6
f 354/4/6 347/4/6 366/4/6
f 365/2/6 354/2/6 366/2/6
f 348/6/6 355/6/6 367/6/6
f 355/3/6 356/3/6 367/3/6
f 356/5/6 357/5/6 368/5/6
f 367/3/6 356/3/6 368/3/6
f 357/4/6 358/4/6 369/4/6
f 368/5/6 357/5/6 369/5/6
f 369/4/6 358/4/6 370/4/6
f 370/4/6 358/4/6 371/4/6
f 358/5/6 359/5/6 372/5/6
f 371/4/6 358/4/6 372/4/6
f 359/2/6 360/2/6 373/2/6
f 372/5/6 359/5/6 373/5/6
f 360/1/6 336/1/6 374/1/6
f 373/2/6 360/2/6 374/2/6
f 374/1/6 336/1/6 375/1/6
f 362/1/6 363/1/6 376/1/6
f 363/3/6 364/3/6 376/3/6
f 364/2/6 365/2/6 377/2/6
f 376/3/6 364/3/6 377/3/6
f 365/5/6 366/5/6 378/5/6
f 377/2/6 365/2/6 378/2/6
f 366/4/6 347/4/6 379/4/6
f 378/5/6 366/5/6 379/5/6
f 347/3/6 348/3/6 380/3/6
f 379/4/6 347/4/6 380/4/6
f 369/3/6 370/3/6 381/3/6
f 367/6/6 368/6/6 381/6/6
f 368/3/6 369/3/6 381/3/6
f 381/3/6 370/3/6 382/3/6
f 370/4/6 371/4/6 383/4/6
f 382/3/6 370/3/6 383/3/6
f 372/5/6 373/5/6 384/5/6
f 383/4/6 371/4/6 384/4/6
f 371/5/6 372/5/6 384/5/6
f 384/5/6 373/5/6 385/5/6
f 373/1/6 374/1/6 386/1/6
f 385/5/6 373/5/6 386/5/6
f 362/1/6 376/1/6 387/1/6
f 376/6/6 377/6/6 388/6/6
f 387/1/6 376/1/6 388/1/6
f 377/3/6 378/3/6 389/3/6
f 388/6/6 377/6/6 389/6/6
f 378/2/6 379/2/6 390/2/6
f 389/3/6 378/3/6 390/3/6
f 379/5/6 380/5/6 391/5/6
f 390/2/6 379/2/6 391/2/6
f 380/3/6 348/3/6 392/3/6
f 391/5/6 380/5/6 392/5/6
f 381/6/6 382/6/6 393/6/6
f 392/3/6 348/3/6 393/3/6
f 348/6/6 367/6/6 393/6/6
f 367/6/6 381/6/6 393/6/6
f 393/6/6 382/6/6 394/6/6
f 382/3/6 383/3/6 395/3/6
f 394/6/6 382/6/6 395/6/6
f 383/3/6 384/3/6 395/3/6
f 384/5/6 385/5/6 396/5/6
f 395/3/6 384/3/6 396/3/6
f 385/2/6 386/2/6 397/2/6
f 396/5/6 385/5/6 397/5/6
f 386/1/6 374/1/6 398/1/6
f 397/2/6 386/2/6 398/2/6
f 398/1/6 374/1/6 399/1/6
f 388/1/6 389/1/6 400/1/6
f 389/6/6 390/6/6 401/6/6
f 400/1/6 389/1/6 401/1/6
f 391/3/6 392/3/6 402/3/6
f 401/6/6 390/6/6 402/6/6
f 390/3/6 391/3/6 402/3/6
f 402/3/6 392/3/6 403/3/6
f 393/6/6 394/6/6 404/6/6
f 403/3/6 392/3/6 404/3/6
f 392/6/6 393/6/6 404/6/6
f 404/6/6 394/6/6 405/6/6
f 394/3/6 395/3/6 406/3/6
f 405/6/6 394/6/6 406/6/6
f 395/3/6 396/3/6 406/3/6
f 406/3/6 396/3/6 407/3/6
f 407/3/6 396/3/6 408/3/6
f 396/2/6 397/2/6 409/2/6
f 408/3/6 396/3/6 409/3/6
f 397/1/6 398/1/6 410/1/6
f 409/2/6 397/2/6 410/2/6
f 410/1/6 398/1/6 411/1/6
f 402/1/6 403/1/6 412/1/6
f 401/1/6 402/1/6 412/1/6
f 412/1/6 403/1/6 413/1/6
f 404/7/6 405/7/6 414/7/6
f 413/1/6 403/1/6 414/1/6
f 403/7/6 404/7/6 414/7/6
f 405/1/6 406/1/6 415/1/6
f 414/7/6 405/7/6 415/7/6
f 415/1/6 406/1/6 416/1/6
f 416/1/6 406/1/6 417/1/6
f 406/7/6 407/7/6 418/7/6
f 417/1/6 406/1/6 418/1/6
f 407/3/6 408/3/6 419/3/6
f 418/7/6 407/7/6 419/7/6
f 408/2/6 409/2/6 420/2/6
f 419/3/6 408/3/6 420/3/6
f 409/1/6 410/1/6 421/1/6
f 420/2/6 409/2/6 421/2/6
f 421/1/6 410/1/6 422/1/6
f 419/3/6 420/3/6 423/3/6
f 418/6/6 419/6/6 423/6/6
f 420/1/6 421/1/6 424/1/6
f 423/3/6 420/3/6 424/3/6
f 413/1/6 414/1/6 425/1/6
f 414/6/6 415/6/6 426/6/6
f 425/1/6 414/1/6 426/1/6
f 415/1/6 416/1/6 427/1/6
f 426/6/6 415/6/6 427/6/6
f 427/1/6 416/1/6 428/1/6
f 417/1/6 418/1/6 429/1/6
f 418/6/6 423/6/6 430/6/6
f 429/1/6 418/1/6 430/1/6
f 423/6/6 424/6/6 430/6/6
f 424/1/6 421/1/6 431/1/6
f 430/6/6 424/6/6 431/6/6
f 431/1/6 421/1/6 432/1/6
f 426/1/6 427/1/6 433/1/6
f 433/1/6 427/1/6 434/1/6
f 430/1/6 431/1/6 435/1/6
f 435/1/6 431/1/6 436/1/6
