# MagicaVoxel @ Ephtracy

# group
o BunnyHead

# material
mtllib BunnyHead-3-BunnyHead.mtl
usemtl palette

# normals
vn -1 0 0
vn 1 0 0
vn 0 -1 0
vn 0 1 0
vn 0 0 -1
vn 0 0 1

# texcoords
vt 0.00195312 0.5
vt 0.00585938 0.5
vt 0.00976562 0.5
vt 0.0214844 0.5
vt 0.0253906 0.5
vt 0.0332031 0.5
vt 0.0371094 0.5
vt 0.0410156 0.5

# verts
v -0.9 0.3 -0.1
v -0.9 0.9 -0.1
v -0.9 0.3 0
v -0.9 0.9 0
v -0.8 0.2 -0.1
v -0.8 0.3 -0.1
v -0.8 0.9 -0.1
v -0.8 1.1 -0.1
v -0.8 0.2 0
v -0.8 0.3 0
v -0.8 0.9 0
v -0.8 1.1 0
v -0.7 0.1 -0.1
v -0.7 0.2 -0.1
v -0.7 1.1 -0.1
v -0.7 1.2 -0.1
v -0.7 0.1 0
v -0.7 0.2 0
v -0.7 1.1 0
v -0.7 1.2 0
v -0.6 0 -0.1
v -0.6 0.1 -0.1
v -0.6 1.2 -0.1
v -0.6 1.3 -0.1
v -0.6 0 0
v -0.6 0.1 0
v -0.6 1.2 0
v -0.6 1.3 0
v -0.5 1.3 -0.1
v -0.5 2.1 -0.1
v -0.5 1.3 0
v -0.5 2.1 0
v -0.4 2.1 -0.1
v -0.4 2.2 -0.1
v -0.4 2.1 0
v -0.4 2.2 0
v 0.1 1.3 -0.1
v 0.1 2.1 -0.1
v 0.1 1.3 0
v 0.1 2.1 0
v 0.2 2.1 -0.1
v 0.2 2.2 -0.1
v 0.2 2.1 0
v 0.2 2.2 0
v -0.2 2.1 -0.1
v -0.2 2.2 -0.1
v -0.2 2.1 0
v -0.2 2.2 0
v -0.1 1.3 -0.1
v -0.1 2.1 -0.1
v -0.1 1.3 0
v -0.1 2.1 0
v 0.4 2.1 -0.1
v 0.4 2.2 -0.1
v 0.4 2.1 0
v 0.4 2.2 0
v 0.5 1.3 -0.1
v 0.5 2.1 -0.1
v 0.5 1.3 0
v 0.5 2.1 0
v 0.6 0 -0.1
v 0.6 0.1 -0.1
v 0.6 1.2 -0.1
v 0.6 1.3 -0.1
v 0.6 0 0
v 0.6 0.1 0
v 0.6 1.2 0
v 0.6 1.3 0
v 0.7 0.1 -0.1
v 0.7 0.2 -0.1
v 0.7 1.1 -0.1
v 0.7 1.2 -0.1
v 0.7 0.1 0
v 0.7 0.2 0
v 0.7 1.1 0
v 0.7 1.2 0
v 0.8 0.2 -0.1
v 0.8 0.3 -0.1
v 0.8 0.9 -0.1
v 0.8 1.1 -0.1
v 0.8 0.2 0
v 0.8 0.3 0
v 0.8 0.9 0
v 0.8 1.1 0
v 0.9 0.3 -0.1
v 0.9 0.9 -0.1
v 0.9 0.3 0
v 0.9 0.9 0
v -0.6 0 -0.1
v -0.6 0 0
v -0.3 0 -0.1
v -0.3 0 0
v 0.3 0 -0.1
v 0.3 0 0
v 0.6 0 -0.1
v 0.6 0 0
v -0.7 0.1 -0.1
v -0.7 0.1 0
v -0.6 0.1 -0.1
v -0.6 0.1 0
v 0.6 0.1 -0.1
v 0.6 0.1 0
v 0.7 0.1 -0.1
v 0.7 0.1 0
v -0.8 0.2 -0.1
v -0.8 0.2 0
v -0.7 0.2 -0.1
v -0.7 0.2 0
v 0.7 0.2 -0.1
v 0.7 0.2 0
v 0.8 0.2 -0.1
v 0.8 0.2 0
v -0.9 0.3 -0.1
v -0.9 0.3 0
v -0.8 0.3 -0.1
v -0.8 0.3 0
v 0.8 0.3 -0.1
v 0.8 0.3 0
v 0.9 0.3 -0.1
v 0.9 0.3 0
v -0.9 0.9 -0.1
v -0.9 0.9 0
v -0.8 0.9 -0.1
v -0.8 0.9 0
v 0.8 0.9 -0.1
v 0.8 0.9 0
v 0.9 0.9 -0.1
v 0.9 0.9 0
v -0.8 1.1 -0.1
v -0.8 1.1 0
v -0.7 1.1 -0.1
v -0.7 1.1 0
v 0.7 1.1 -0.1
v 0.7 1.1 0
v 0.8 1.1 -0.1
v 0.8 1.1 0
v -0.7 1.2 -0.1
v -0.7 1.2 0
v -0.6 1.2 -0.1
v -0.6 1.2 0
v 0.6 1.2 -0.1
v 0.6 1.2 0
v 0.7 1.2 -0.1
v 0.7 1.2 0
v -0.6 1.3 -0.1
v -0.6 1.3 0
v -0.5 1.3 -0.1
v -0.5 1.3 0
v -0.1 1.3 -0.1
v -0.1 1.3 0
v 0.1 1.3 -0.1
v 0.1 1.3 0
v 0.5 1.3 -0.1
v 0.5 1.3 0
v 0.6 1.3 -0.1
v 0.6 1.3 0
v -0.5 2.1 -0.1
v -0.5 2.1 0
v -0.4 2.1 -0.1
v -0.4 2.1 0
v -0.2 2.1 -0.1
v -0.2 2.1 0
v -0.1 2.1 -0.1
v -0.1 2.1 0
v 0.1 2.1 -0.1
v 0.1 2.1 0
v 0.2 2.1 -0.1
v 0.2 2.1 0
v 0.4 2.1 -0.1
v 0.4 2.1 0
v 0.5 2.1 -0.1
v 0.5 2.1 0
v -0.4 2.2 -0.1
v -0.4 2.2 0
v -0.2 2.2 -0.1
v -0.2 2.2 0
v 0.2 2.2 -0.1
v 0.2 2.2 0
v 0.4 2.2 -0.1
v 0.4 2.2 0
v -0.6 0 -0.1
v -0.3 0 -0.1
v 0.3 0 -0.1
v 0.6 0 -0.1
v -0.7 0.1 -0.1
v -0.6 0.1 -0.1
v -0.3 0.1 -0.1
v 0 0.1 -0.1
v 0.3 0.1 -0.1
v 0.6 0.1 -0.1
v 0.7 0.1 -0.1
v -0.8 0.2 -0.1
v -0.7 0.2 -0.1
v -0.6 0.2 -0.1
v -0.5 0.2 -0.1
v 0 0.2 -0.1
v 0.6 0.2 -0.1
v 0.7 0.2 -0.1
v 0.8 0.2 -0.1
v -0.9 0.3 -0.1
v -0.8 0.3 -0.1
v -0.7 0.3 -0.1
v -0.6 0.3 -0.1
v -0.5 0.3 -0.1
v 0.7 0.3 -0.1
v 0.8 0.3 -0.1
v 0.9 0.3 -0.1
v -0.5 0.4 -0.1
v -0.4 0.4 -0.1
v -0.7 0.5 -0.1
v -0.6 0.5 -0.1
v -0.7 0.6 -0.1
v -0.5 0.6 -0.1
v -0.4 0.6 -0.1
v -0.3 0.6 -0.1
v -0.6 0.7 -0.1
v -0.5 0.7 -0.1
v -0.3 0.7 -0.1
v -0.2 0.7 -0.1
v 0.2 0.7 -0.1
v 0.8 0.7 -0.1
v -0.5 0.8 -0.1
v -0.3 0.8 -0.1
v 0 0.8 -0.1
v 0.2 0.8 -0.1
v 0.3 0.8 -0.1
v 0.6 0.8 -0.1
v 0.7 0.8 -0.1
v 0.8 0.8 -0.1
v -0.9 0.9 -0.1
v -0.8 0.9 -0.1
v -0.7 0.9 -0.1
v -0.6 0.9 -0.1
v -0.4 0.9 -0.1
v 0 0.9 -0.1
v 0.2 0.9 -0.1
v 0.3 0.9 -0.1
v 0.4 0.9 -0.1
v 0.5 0.9 -0.1
v 0.6 0.9 -0.1
v 0.7 0.9 -0.1
v 0.8 0.9 -0.1
v 0.9 0.9 -0.1
v -0.7 1 -0.1
v -0.6 1 -0.1
v 0.2 1 -0.1
v 0.3 1 -0.1
v 0.4 1 -0.1
v 0.5 1 -0.1
v 0.6 1 -0.1
v 0.7 1 -0.1
v -0.8 1.1 -0.1
v -0.7 1.1 -0.1
v -0.6 1.1 -0.1
v -0.5 1.1 -0.1
v -0.4 1.1 -0.1
v -0.3 1.1 -0.1
v -0.2 1.1 -0.1
v 0.2 1.1 -0.1
v 0.3 1.1 -0.1
v 0.5 1.1 -0.1
v 0.6 1.1 -0.1
v 0.7 1.1 -0.1
v 0.8 1.1 -0.1
v -0.7 1.2 -0.1
v -0.6 1.2 -0.1
v -0.5 1.2 -0.1
v -0.4 1.2 -0.1
v -0.2 1.2 -0.1
v 0.2 1.2 -0.1
v 0.4 1.2 -0.1
v 0.5 1.2 -0.1
v 0.6 1.2 -0.1
v 0.7 1.2 -0.1
v -0.6 1.3 -0.1
v -0.5 1.3 -0.1
v -0.4 1.3 -0.1
v -0.2 1.3 -0.1
v -0.1 1.3 -0.1
v 0.1 1.3 -0.1
v 0.2 1.3 -0.1
v 0.4 1.3 -0.1
v 0.5 1.3 -0.1
v 0.6 1.3 -0.1
v -0.5 2.1 -0.1
v -0.4 2.1 -0.1
v -0.2 2.1 -0.1
v -0.1 2.1 -0.1
v 0.1 2.1 -0.1
v 0.2 2.1 -0.1
v 0.4 2.1 -0.1
v 0.5 2.1 -0.1
v -0.4 2.2 -0.1
v -0.2 2.2 -0.1
v 0.2 2.2 -0.1
v 0.4 2.2 -0.1
v -0.6 0 0
v -0.3 0 0
v 0.3 0 0
v 0.6 0 0
v -0.7 0.1 0
v -0.6 0.1 0
v -0.3 0.1 0
v 0 0.1 0
v 0.3 0.1 0
v 0.6 0.1 0
v 0.7 0.1 0
v -0.8 0.2 0
v -0.7 0.2 0
v -0.6 0.2 0
v -0.5 0.2 0
v 0 0.2 0
v 0.6 0.2 0
v 0.7 0.2 0
v 0.8 0.2 0
v -0.9 0.3 0
v -0.8 0.3 0
v -0.7 0.3 0
v -0.6 0.3 0
v -0.5 0.3 0
v 0.7 0.3 0
v 0.8 0.3 0
v 0.9 0.3 0
v -0.5 0.4 0
v -0.4 0.4 0
v -0.7 0.5 0
v -0.6 0.5 0
v -0.7 0.6 0
v -0.5 0.6 0
v -0.4 0.6 0
v -0.3 0.6 0
v -0.6 0.7 0
v -0.5 0.7 0
v -0.3 0.7 0
v -0.2 0.7 0
v 0.2 0.7 0
v 0.8 0.7 0
v -0.5 0.8 0
v -0.3 0.8 0
v 0 0.8 0
v 0.2 0.8 0
v 0.3 0.8 0
v 0.6 0.8 0
v 0.7 0.8 0
v 0.8 0.8 0
v -0.9 0.9 0
v -0.8 0.9 0
v -0.7 0.9 0
v -0.6 0.9 0
v -0.4 0.9 0
v 0 0.9 0
v 0.2 0.9 0
v 0.3 0.9 0
v 0.4 0.9 0
v 0.5 0.9 0
v 0.6 0.9 0
v 0.7 0.9 0
v 0.8 0.9 0
v 0.9 0.9 0
v -0.7 1 0
v -0.6 1 0
v 0.2 1 0
v 0.3 1 0
v 0.4 1 0
v 0.5 1 0
v 0.6 1 0
v 0.7 1 0
v -0.8 1.1 0
v -0.7 1.1 0
v -0.6 1.1 0
v -0.5 1.1 0
v -0.4 1.1 0
v -0.3 1.1 0
v -0.2 1.1 0
v 0.2 1.1 0
v 0.3 1.1 0
v 0.5 1.1 0
v 0.6 1.1 0
v 0.7 1.1 0
v 0.8 1.1 0
v -0.7 1.2 0
v -0.6 1.2 0
v -0.5 1.2 0
v -0.4 1.2 0
v -0.2 1.2 0
v 0.2 1.2 0
v 0.4 1.2 0
v 0.5 1.2 0
v 0.6 1.2 0
v 0.7 1.2 0
v -0.6 1.3 0
v -0.5 1.3 0
v -0.4 1.3 0
v -0.2 1.3 0
v -0.1 1.3 0
v 0.1 1.3 0
v 0.2 1.3 0
v 0.4 1.3 0
v 0.5 1.3 0
v 0.6 1.3 0
v -0.5 2.1 0
v -0.4 2.1 0
v -0.2 2.1 0
v -0.1 2.1 0
v 0.1 2.1 0
v 0.2 2.1 0
v 0.4 2.1 0
v 0.5 2.1 0
v -0.4 2.2 0
v -0.2 2.2 0
v 0.2 2.2 0
v 0.4 2.2 0

# faces
f 3/1/1 2/1/1 1/1/1
f 4/1/1 2/1/1 3/1/1
f 9/1/1 6/1/1 5/1/1
f 10/1/1 6/1/1 9/1/1
f 11/1/1 8/1/1 7/1/1
f 12/1/1 8/1/1 11/1/1
f 17/1/1 14/1/1 13/1/1
f 18/1/1 14/1/1 17/1/1
f 19/1/1 16/1/1 15/1/1
f 20/1/1 16/1/1 19/1/1
f 25/1/1 22/1/1 21/1/1
f 26/1/1 22/1/1 25/1/1
f 27/1/1 24/1/1 23/1/1
f 28/1/1 24/1/1 27/1/1
f 31/1/1 30/1/1 29/1/1
f 32/1/1 30/1/1 31/1/1
f 35/1/1 34/1/1 33/1/1
f 36/1/1 34/1/1 35/1/1
f 39/1/1 38/1/1 37/1/1
f 40/1/1 38/1/1 39/1/1
f 43/1/1 42/1/1 41/1/1
f 44/1/1 42/1/1 43/1/1
f 45/1/2 46/1/2 47/1/2
f 47/1/2 46/1/2 48/1/2
f 49/1/2 50/1/2 51/1/2
f 51/1/2 50/1/2 52/1/2
f 53/1/2 54/1/2 55/1/2
f 55/1/2 54/1/2 56/1/2
f 57/1/2 58/1/2 59/1/2
f 59/1/2 58/1/2 60/1/2
f 61/1/2 62/1/2 65/1/2
f 65/1/2 62/1/2 66/1/2
f 63/1/2 64/1/2 67/1/2
f 67/1/2 64/1/2 68/1/2
f 69/1/2 70/1/2 73/1/2
f 73/1/2 70/1/2 74/1/2
f 71/1/2 72/1/2 75/1/2
f 75/1/2 72/1/2 76/1/2
f 77/1/2 78/1/2 81/1/2
f 81/1/2 78/1/2 82/1/2
f 79/1/2 80/1/2 83/1/2
f 83/1/2 80/1/2 84/1/2
f 85/1/2 86/1/2 87/1/2
f 87/1/2 86/1/2 88/1/2
f 91/1/3 90/1/3 89/1/3
f 92/1/3 90/1/3 91/1/3
f 93/8/3 92/8/3 91/8/3
f 94/8/3 92/8/3 93/8/3
f 95/1/3 94/1/3 93/1/3
f 96/1/3 94/1/3 95/1/3
f 99/1/3 98/1/3 97/1/3
f 100/1/3 98/1/3 99/1/3
f 103/1/3 102/1/3 101/1/3
f 104/1/3 102/1/3 103/1/3
f 107/1/3 106/1/3 105/1/3
f 108/1/3 106/1/3 107/1/3
f 111/1/3 110/1/3 109/1/3
f 112/1/3 110/1/3 111/1/3
f 115/1/3 114/1/3 113/1/3
f 116/1/3 114/1/3 115/1/3
f 119/1/3 118/1/3 117/1/3
f 120/1/3 118/1/3 119/1/3
f 121/1/4 122/1/4 123/1/4
f 123/1/4 122/1/4 124/1/4
f 125/1/4 126/1/4 127/1/4
f 127/1/4 126/1/4 128/1/4
f 129/1/4 130/1/4 131/1/4
f 131/1/4 130/1/4 132/1/4
f 133/1/4 134/1/4 135/1/4
f 135/1/4 134/1/4 136/1/4
f 137/1/4 138/1/4 139/1/4
f 139/1/4 138/1/4 140/1/4
f 141/1/4 142/1/4 143/1/4
f 143/1/4 142/1/4 144/1/4
f 145/1/4 146/1/4 147/1/4
f 147/1/4 146/1/4 148/1/4
f 149/1/4 150/1/4 151/1/4
f 151/1/4 150/1/4 152/1/4
f 153/1/4 154/1/4 155/1/4
f 155/1/4 154/1/4 156/1/4
f 157/1/4 158/1/4 159/1/4
f 159/1/4 158/1/4 160/1/4
f 161/1/4 162/1/4 163/1/4
f 163/1/4 162/1/4 164/1/4
f 165/1/4 166/1/4 167/1/4
f 167/1/4 166/1/4 168/1/4
f 169/1/4 170/1/4 171/1/4
f 171/1/4 170/1/4 172/1/4
f 173/1/4 174/1/4 175/1/4
f 175/1/4 174/1/4 176/1/4
f 177/1/4 178/1/4 179/1/4
f 179/1/4 178/1/4 180/1/4
f 186/1/5 182/1/5 181/1/5
f 187/8/5 183/8/5 182/8/5
f 187/1/5 182/1/5 186/1/5
f 188/8/5 183/8/5 187/8/5
f 189/1/5 184/1/5 183/1/5
f 189/8/5 183/8/5 188/8/5
f 190/1/5 184/1/5 189/1/5
f 193/1/5 186/1/5 185/1/5
f 194/7/5 188/7/5 187/7/5
f 194/7/5 187/7/5 186/7/5
f 194/1/5 186/1/5 193/1/5
f 195/7/5 188/7/5 194/7/5
f 196/6/5 189/6/5 188/6/5
f 196/7/5 188/7/5 195/7/5
f 196/6/5 190/6/5 189/6/5
f 197/1/5 191/1/5 190/1/5
f 197/6/5 190/6/5 196/6/5
f 198/1/5 191/1/5 197/1/5
f 201/1/5 193/1/5 192/1/5
f 202/7/5 195/7/5 194/7/5
f 202/7/5 194/7/5 193/7/5
f 202/1/5 193/1/5 201/1/5
f 203/7/5 195/7/5 202/7/5
f 204/6/5 196/6/5 195/6/5
f 204/7/5 195/7/5 203/7/5
f 204/6/5 197/6/5 196/6/5
f 204/6/5 198/6/5 197/6/5
f 205/1/5 199/1/5 198/1/5
f 205/6/5 198/6/5 204/6/5
f 206/1/5 199/1/5 205/1/5
f 208/6/5 204/6/5 203/6/5
f 208/6/5 205/6/5 204/6/5
f 208/6/5 206/6/5 205/6/5
f 209/6/5 206/6/5 208/6/5
f 210/7/5 203/7/5 202/7/5
f 210/7/5 202/7/5 201/7/5
f 211/6/5 208/6/5 203/6/5
f 211/7/5 203/7/5 210/7/5
f 212/7/5 210/7/5 201/7/5
f 212/6/5 211/6/5 210/6/5
f 213/3/5 209/3/5 208/3/5
f 213/6/5 211/6/5 212/6/5
f 213/6/5 208/6/5 211/6/5
f 214/6/5 206/6/5 209/6/5
f 214/3/5 209/3/5 213/3/5
f 215/6/5 206/6/5 214/6/5
f 216/3/5 213/3/5 212/3/5
f 216/3/5 214/3/5 213/3/5
f 216/3/5 215/3/5 214/3/5
f 217/3/5 215/3/5 216/3/5
f 218/6/5 206/6/5 215/6/5
f 218/3/5 215/3/5 217/3/5
f 219/6/5 206/6/5 218/6/5
f 220/6/5 206/6/5 219/6/5
f 221/1/5 207/1/5 206/1/5
f 221/6/5 206/6/5 220/6/5
f 222/2/5 217/2/5 216/2/5
f 222/3/5 218/3/5 217/3/5
f 222/3/5 219/3/5 218/3/5
f 223/3/5 219/3/5 222/3/5
f 224/6/5 220/6/5 219/6/5
f 225/3/5 221/3/5 220/3/5
f 225/6/5 220/6/5 224/6/5
f 226/3/5 221/3/5 225/3/5
f 227/3/5 221/3/5 226/3/5
f 228/3/5 221/3/5 227/3/5
f 229/1/5 207/1/5 221/1/5
f 229/3/5 221/3/5 228/3/5
f 230/1/5 201/1/5 200/1/5
f 231/7/5 212/7/5 201/7/5
f 231/1/5 201/1/5 230/1/5
f 232/3/5 216/3/5 212/3/5
f 232/7/5 212/7/5 231/7/5
f 233/2/5 222/2/5 216/2/5
f 233/3/5 216/3/5 232/3/5
f 233/2/5 223/2/5 222/2/5
f 234/2/5 223/2/5 233/2/5
f 235/6/5 224/6/5 219/6/5
f 235/3/5 225/3/5 224/3/5
f 236/5/5 226/5/5 225/5/5
f 236/3/5 225/3/5 235/3/5
f 237/4/5 227/4/5 226/4/5
f 237/5/5 226/5/5 236/5/5
f 238/4/5 227/4/5 237/4/5
f 239/4/5 227/4/5 238/4/5
f 240/5/5 228/5/5 227/5/5
f 240/4/5 227/4/5 239/4/5
f 241/2/5 229/2/5 228/2/5
f 241/5/5 228/5/5 240/5/5
f 242/1/5 207/1/5 229/1/5
f 242/2/5 229/2/5 241/2/5
f 243/1/5 207/1/5 242/1/5
f 244/1/5 232/1/5 231/1/5
f 244/3/5 234/3/5 233/3/5
f 244/3/5 233/3/5 232/3/5
f 245/3/5 234/3/5 244/3/5
f 246/3/5 238/3/5 237/3/5
f 246/6/5 236/6/5 235/6/5
f 246/3/5 237/3/5 236/3/5
f 247/3/5 238/3/5 246/3/5
f 248/4/5 239/4/5 238/4/5
f 248/3/5 238/3/5 247/3/5
f 249/5/5 241/5/5 240/5/5
f 249/4/5 239/4/5 248/4/5
f 249/5/5 240/5/5 239/5/5
f 250/5/5 241/5/5 249/5/5
f 251/1/5 242/1/5 241/1/5
f 251/5/5 241/5/5 250/5/5
f 252/1/5 244/1/5 231/1/5
f 253/6/5 245/6/5 244/6/5
f 253/1/5 244/1/5 252/1/5
f 254/3/5 234/3/5 245/3/5
f 254/6/5 245/6/5 253/6/5
f 255/3/5 234/3/5 254/3/5
f 256/2/5 223/2/5 234/2/5
f 256/3/5 234/3/5 255/3/5
f 257/3/5 219/3/5 223/3/5
f 257/2/5 223/2/5 256/2/5
f 258/6/5 247/6/5 246/6/5
f 258/3/5 219/3/5 257/3/5
f 258/6/5 246/6/5 235/6/5
f 258/6/5 235/6/5 219/6/5
f 259/6/5 247/6/5 258/6/5
f 260/3/5 248/3/5 247/3/5
f 260/6/5 247/6/5 259/6/5
f 260/3/5 249/3/5 248/3/5
f 261/5/5 250/5/5 249/5/5
f 261/3/5 249/3/5 260/3/5
f 262/2/5 251/2/5 250/2/5
f 262/5/5 250/5/5 261/5/5
f 263/1/5 242/1/5 251/1/5
f 263/2/5 251/2/5 262/2/5
f 264/1/5 242/1/5 263/1/5
f 265/1/5 254/1/5 253/1/5
f 266/6/5 255/6/5 254/6/5
f 266/1/5 254/1/5 265/1/5
f 267/3/5 256/3/5 255/3/5
f 267/6/5 255/6/5 266/6/5
f 268/6/5 257/6/5 256/6/5
f 268/3/5 256/3/5 267/3/5
f 268/6/5 259/6/5 258/6/5
f 268/6/5 258/6/5 257/6/5
f 269/6/5 259/6/5 268/6/5
f 270/3/5 260/3/5 259/3/5
f 270/6/5 259/6/5 269/6/5
f 270/3/5 261/3/5 260/3/5
f 271/3/5 261/3/5 270/3/5
f 272/2/5 262/2/5 261/2/5
f 272/3/5 261/3/5 271/3/5
f 273/1/5 263/1/5 262/1/5
f 273/2/5 262/2/5 272/2/5
f 274/1/5 263/1/5 273/1/5
f 275/1/5 267/1/5 266/1/5
f 275/1/5 268/1/5 267/1/5
f 276/1/5 268/1/5 275/1/5
f 277/7/5 269/7/5 268/7/5
f 277/1/5 268/1/5 276/1/5
f 278/1/5 270/1/5 269/1/5
f 278/7/5 269/7/5 277/7/5
f 279/1/5 270/1/5 278/1/5
f 280/1/5 270/1/5 279/1/5
f 281/7/5 271/7/5 270/7/5
f 281/1/5 270/1/5 280/1/5
f 282/1/5 273/1/5 272/1/5
f 282/7/5 271/7/5 281/7/5
f 282/1/5 272/1/5 271/1/5
f 283/1/5 273/1/5 282/1/5
f 284/1/5 273/1/5 283/1/5
f 285/1/5 277/1/5 276/1/5
f 286/6/5 278/6/5 277/6/5
f 286/1/5 277/1/5 285/1/5
f 287/1/5 279/1/5 278/1/5
f 287/6/5 278/6/5 286/6/5
f 288/1/5 279/1/5 287/1/5
f 289/1/5 281/1/5 280/1/5
f 290/6/5 282/6/5 281/6/5
f 290/1/5 281/1/5 289/1/5
f 291/1/5 283/1/5 282/1/5
f 291/6/5 282/6/5 290/6/5
f 292/1/5 283/1/5 291/1/5
f 293/1/5 287/1/5 286/1/5
f 294/1/5 287/1/5 293/1/5
f 295/1/5 291/1/5 290/1/5
f 296/1/5 291/1/5 295/1/5
f 297/1/6 298/1/6 302/1/6
f 298/8/6 299/8/6 303/8/6
f 302/1/6 298/1/6 303/1/6
f 303/8/6 299/8/6 304/8/6
f 299/1/6 300/1/6 305/1/6
f 304/8/6 299/8/6 305/8/6
f 305/1/6 300/1/6 306/1/6
f 301/1/6 302/1/6 309/1/6
f 303/7/6 304/7/6 310/7/6
f 302/7/6 303/7/6 310/7/6
f 309/1/6 302/1/6 310/1/6
f 310/7/6 304/7/6 311/7/6
f 304/6/6 305/6/6 312/6/6
f 311/7/6 304/7/6 312/7/6
f 305/6/6 306/6/6 312/6/6
f 306/1/6 307/1/6 313/1/6
f 312/6/6 306/6/6 313/6/6
f 313/1/6 307/1/6 314/1/6
f 308/1/6 309/1/6 317/1/6
f 310/7/6 311/7/6 318/7/6
f 309/7/6 310/7/6 318/7/6
f 317/1/6 309/1/6 318/1/6
f 318/7/6 311/7/6 319/7/6
f 311/6/6 312/6/6 320/6/6
f 319/7/6 311/7/6 320/7/6
f 312/6/6 313/6/6 320/6/6
f 313/6/6 314/6/6 320/6/6
f 314/1/6 315/1/6 321/1/6
f 320/6/6 314/6/6 321/6/6
f 321/1/6 315/1/6 322/1/6
f 319/6/6 320/6/6 324/6/6
f 320/6/6 321/6/6 324/6/6
f 321/6/6 322/6/6 324/6/6
f 324/6/6 322/6/6 325/6/6
f 318/7/6 319/7/6 326/7/6
f 317/7/6 318/7/6 326/7/6
f 319/6/6 324/6/6 327/6/6
f 326/7/6 319/7/6 327/7/6
f 317/7/6 326/7/6 328/7/6
f 326/6/6 327/6/6 328/6/6
f 324/3/6 325/3/6 329/3/6
f 328/6/6 327/6/6 329/6/6
f 327/6/6 324/6/6 329/6/6
f 325/6/6 322/6/6 330/6/6
f 329/3/6 325/3/6 330/3/6
f 330/6/6 322/6/6 331/6/6
f 328/3/6 329/3/6 332/3/6
f 329/3/6 330/3/6 332/3/6
f 330/3/6 331/3/6 332/3/6
f 332/3/6 331/3/6 333/3/6
f 331/6/6 322/6/6 334/6/6
f 333/3/6 331/3/6 334/3/6
f 334/6/6 322/6/6 335/6/6
f 335/6/6 322/6/6 336/6/6
f 322/1/6 323/1/6 337/1/6
f 336/6/6 322/6/6 337/6/6
f 332/2/6 333/2/6 338/2/6
f 333/3/6 334/3/6 338/3/6
f 334/3/6 335/3/6 338/3/6
f 338/3/6 335/3/6 339/3/6
f 335/6/6 336/6/6 340/6/6
f 336/3/6 337/3/6 341/3/6
f 340/6/6 336/6/6 341/6/6
f 341/3/6 337/3/6 342/3/6
f 342/3/6 337/3/6 343/3/6
f 343/3/6 337/3/6 344/3/6
f 337/1/6 323/1/6 345/1/6
f 344/3/6 337/3/6 345/3/6
f 316/1/6 317/1/6 346/1/6
f 317/7/6 328/7/6 347/7/6
f 346/1/6 317/1/6 347/1/6
f 328/3/6 332/3/6 348/3/6
f 347/7/6 328/7/6 348/7/6
f 332/2/6 338/2/6 349/2/6
f 348/3/6 332/3/6 349/3/6
f 338/2/6 339/2/6 349/2/6
f 349/2/6 339/2/6 350/2/6
f 335/6/6 340/6/6 351/6/6
f 340/3/6 341/3/6 351/3/6
f 341/5/6 342/5/6 352/5/6
f 351/3/6 341/3/6 352/3/6
f 342/4/6 343/4/6 353/4/6
f 352/5/6 342/5/6 353/5/6
f 353/4/6 343/4/6 354/4/6
f 354/4/6 343/4/6 355/4/6
f 343/5/6 344/5/6 356/5/6
f 355/4/6 343/4/6 356/4/6
f 344/2/6 345/2/6 357/2/6
f 356/5/6 344/5/6 357/5/6
f 345/1/6 323/1/6 358/1/6
f 357/2/6 345/2/6 358/2/6
f 358/1/6 323/1/6 359/1/6
f 347/1/6 348/1/6 360/1/6
f 349/3/6 350/3/6 360/3/6
f 348/3/6 349/3/6 360/3/6
f 360/3/6 350/3/6 361/3/6
f 353/3/6 354/3/6 362/3/6
f 351/6/6 352/6/6 362/6/6
f 352/3/6 353/3/6 362/3/6
f 362/3/6 354/3/6 363/3/6
f 354/4/6 355/4/6 364/4/6
f 363/3/6 354/3/6 364/3/6
f 356/5/6 357/5/6 365/5/6
f 364/4/6 355/4/6 365/4/6
f 355/5/6 356/5/6 365/5/6
f 365/5/6 357/5/6 366/5/6
f 357/1/6 358/1/6 367/1/6
f 366/5/6 357/5/6 367/5/6
f 347/1/6 360/1/6 368/1/6
f 360/6/6 361/6/6 369/6/6
f 368/1/6 360/1/6 369/1/6
f 361/3/6 350/3/6 370/3/6
f 369/6/6 361/6/6 370/6/6
f 370/3/6 350/3/6 371/3/6
f 350/2/6 339/2/6 372/2/6
f 371/3/6 350/3/6 372/3/6
f 339/3/6 335/3/6 373/3/6
f 372/2/6 339/2/6 373/2/6
f 362/6/6 363/6/6 374/6/6
f 373/3/6 335/3/6 374/3/6
f 351/6/6 362/6/6 374/6/6
f 335/6/6 351/6/6 374/6/6
f 374/6/6 363/6/6 375/6/6
f 363/3/6 364/3/6 376/3/6
f 375/6/6 363/6/6 376/6/6
f 364/3/6 365/3/6 376/3/6
f 365/5/6 366/5/6 377/5/6
f 376/3/6 365/3/6 377/3/6
f 366/2/6 367/2/6 378/2/6
f 377/5/6 366/5/6 378/5/6
f 367/1/6 358/1/6 379/1/6
f 378/2/6 367/2/6 379/2/6
f 379/1/6 358/1/6 380/1/6
f 369/1/6 370/1/6 381/1/6
f 370/6/6 371/6/6 382/6/6
f 381/1/6 370/1/6 382/1/6
f 371/3/6 372/3/6 383/3/6
f 382/6/6 371/6/6 383/6/6
f 372/6/6 373/6/6 384/6/6
f 383/3/6 372/3/6 384/3/6
f 374/6/6 375/6/6 384/6/6
f 373/6/6 374/6/6 384/6/6
f 384/6/6 375/6/6 385/6/6
f 375/3/6 376/3/6 386/3/6
f 385/6/6 375/6/6 386/6/6
f 376/3/6 377/3/6 386/3/6
f 386/3/6 377/3/6 387/3/6
f 377/2/6 378/2/6 388/2/6
f 387/3/6 377/3/6 388/3/6
f 378/1/6 379/1/6 389/1/6
f 388/2/6 378/2/6 389/2/6
f 389/1/6 379/1/6 390/1/6
f 382/1/6 383/1/6 391/1/6
f 383/1/6 384/1/6 391/1/6
f 391/1/6 384/1/6 392/1/6
f 384/7/6 385/7/6 393/7/6
f 392/1/6 384/1/6 393/1/6
f 385/1/6 386/1/6 394/1/6
f 393/7/6 385/7/6 394/7/6
f 394/1/6 386/1/6 395/1/6
f 395/1/6 386/1/6 396/1/6
f 386/7/6 387/7/6 397/7/6
f 396/1/6 386/1/6 397/1/6
f 388/1/6 389/1/6 398/1/6
f 397/7/6 387/7/6 398/7/6
f 387/1/6 388/1/6 398/1/6
f 398/1/6 389/1/6 399/1/6
f 399/1/6 389/1/6 400/1/6
f 392/1/6 393/1/6 401/1/6
f 393/6/6 394/6/6 402/6/6
f 401/1/6 393/1/6 402/1/6
f 394/1/6 395/1/6 403/1/6
f 402/6/6 394/6/6 403/6/6
f 403/1/6 395/1/6 404/1/6
f 396/1/6 397/1/6 405/1/6
f 397/6/6 398/6/6 406/6/6
f 405/1/6 397/1/6 406/1/6
f 398/1/6 399/1/6 407/1/6
f 406/6/6 398/6/6 407/6/6
f 407/1/6 399/1/6 408/1/6
f 402/1/6 403/1/6 409/1/6
f 409/1/6 403/1/6 410/1/6
f 406/1/6 407/1/6 411/1/6
f 411/1/6 407/1/6 412/1/6
