# MagicaVoxel @ Ephtracy

# group
o CatHead

# material
mtllib CatHead-5-CatHead.mtl
usemtl palette

# normals
vn -1 0 0
vn 1 0 0
vn 0 -1 0
vn 0 1 0
vn 0 0 -1
vn 0 0 1

# texcoords
vt 0.00195312 0.5
vt 0.00585938 0.5
vt 0.00976562 0.5
vt 0.0332031 0.5
vt 0.0371094 0.5
vt 0.0410156 0.5
vt 0.0449219 0.5

# verts
v -0.9 0.3 -0.1
v -0.9 0.9 -0.1
v -0.9 0.3 0
v -0.9 0.9 0
v -0.8 0.2 -0.1
v -0.8 0.3 -0.1
v -0.8 0.9 -0.1
v -0.8 1.1 -0.1
v -0.8 0.2 0
v -0.8 0.3 0
v -0.8 0.9 0
v -0.8 1.1 0
v -0.7 0.1 -0.1
v -0.7 0.2 -0.1
v -0.7 1.1 -0.1
v -0.7 1.2 -0.1
v -0.7 0.1 0
v -0.7 0.2 0
v -0.7 1.1 0
v -0.7 1.2 0
v -0.6 0 -0.1
v -0.6 0.1 -0.1
v -0.6 1.2 -0.1
v -0.6 1.8 -0.1
v -0.6 0 0
v -0.6 0.1 0
v -0.6 1.2 0
v -0.6 1.8 0
v 0.1 1.3 -0.1
v 0.1 1.4 -0.1
v 0.1 1.3 0
v 0.1 1.4 0
v 0.2 1.4 -0.1
v 0.2 1.5 -0.1
v 0.2 1.4 0
v 0.2 1.5 0
v 0.3 1.5 -0.1
v 0.3 1.6 -0.1
v 0.3 1.5 0
v 0.3 1.6 0
v 0.4 1.6 -0.1
v 0.4 1.7 -0.1
v 0.4 1.6 0
v 0.4 1.7 0
v 0.5 1.7 -0.1
v 0.5 1.8 -0.1
v 0.5 1.7 0
v 0.5 1.8 0
v -0.5 1.7 -0.1
v -0.5 1.8 -0.1
v -0.5 1.7 0
v -0.5 1.8 0
v -0.4 1.6 -0.1
v -0.4 1.7 -0.1
v -0.4 1.6 0
v -0.4 1.7 0
v -0.3 1.5 -0.1
v -0.3 1.6 -0.1
v -0.3 1.5 0
v -0.3 1.6 0
v -0.2 1.4 -0.1
v -0.2 1.5 -0.1
v -0.2 1.4 0
v -0.2 1.5 0
v -0.1 1.3 -0.1
v -0.1 1.4 -0.1
v -0.1 1.3 0
v -0.1 1.4 0
v 0.6 0 -0.1
v 0.6 0.1 -0.1
v 0.6 1.2 -0.1
v 0.6 1.8 -0.1
v 0.6 0 0
v 0.6 0.1 0
v 0.6 1.2 0
v 0.6 1.8 0
v 0.7 0.1 -0.1
v 0.7 0.2 -0.1
v 0.7 1.1 -0.1
v 0.7 1.2 -0.1
v 0.7 0.1 0
v 0.7 0.2 0
v 0.7 1.1 0
v 0.7 1.2 0
v 0.8 0.2 -0.1
v 0.8 0.3 -0.1
v 0.8 0.9 -0.1
v 0.8 1.1 -0.1
v 0.8 0.2 0
v 0.8 0.3 0
v 0.8 0.9 0
v 0.8 1.1 0
v 0.9 0.3 -0.1
v 0.9 0.9 -0.1
v 0.9 0.3 0
v 0.9 0.9 0
v -0.6 0 -0.1
v -0.6 0 0
v -0.3 0 -0.1
v -0.3 0 0
v 0.3 0 -0.1
v 0.3 0 0
v 0.6 0 -0.1
v 0.6 0 0
v -0.7 0.1 -0.1
v -0.7 0.1 0
v -0.6 0.1 -0.1
v -0.6 0.1 0
v 0.6 0.1 -0.1
v 0.6 0.1 0
v 0.7 0.1 -0.1
v 0.7 0.1 0
v -0.8 0.2 -0.1
v -0.8 0.2 0
v -0.7 0.2 -0.1
v -0.7 0.2 0
v 0.7 0.2 -0.1
v 0.7 0.2 0
v 0.8 0.2 -0.1
v 0.8 0.2 0
v -0.9 0.3 -0.1
v -0.9 0.3 0
v -0.8 0.3 -0.1
v -0.8 0.3 0
v 0.8 0.3 -0.1
v 0.8 0.3 0
v 0.9 0.3 -0.1
v 0.9 0.3 0
v -0.9 0.9 -0.1
v -0.9 0.9 0
v -0.8 0.9 -0.1
v -0.8 0.9 0
v 0.8 0.9 -0.1
v 0.8 0.9 0
v 0.9 0.9 -0.1
v 0.9 0.9 0
v -0.8 1.1 -0.1
v -0.8 1.1 0
v -0.7 1.1 -0.1
v -0.7 1.1 0
v 0.7 1.1 -0.1
v 0.7 1.1 0
v 0.8 1.1 -0.1
v 0.8 1.1 0
v -0.7 1.2 -0.1
v -0.7 1.2 0
v -0.6 1.2 -0.1
v -0.6 1.2 0
v 0.6 1.2 -0.1
v 0.6 1.2 0
v 0.7 1.2 -0.1
v 0.7 1.2 0
v -0.1 1.3 -0.1
v -0.1 1.3 0
v 0.1 1.3 -0.1
v 0.1 1.3 0
v -0.2 1.4 -0.1
v -0.2 1.4 0
v -0.1 1.4 -0.1
v -0.1 1.4 0
v 0.1 1.4 -0.1
v 0.1 1.4 0
v 0.2 1.4 -0.1
v 0.2 1.4 0
v -0.3 1.5 -0.1
v -0.3 1.5 0
v -0.2 1.5 -0.1
v -0.2 1.5 0
v 0.2 1.5 -0.1
v 0.2 1.5 0
v 0.3 1.5 -0.1
v 0.3 1.5 0
v -0.4 1.6 -0.1
v -0.4 1.6 0
v -0.3 1.6 -0.1
v -0.3 1.6 0
v 0.3 1.6 -0.1
v 0.3 1.6 0
v 0.4 1.6 -0.1
v 0.4 1.6 0
v -0.5 1.7 -0.1
v -0.5 1.7 0
v -0.4 1.7 -0.1
v -0.4 1.7 0
v 0.4 1.7 -0.1
v 0.4 1.7 0
v 0.5 1.7 -0.1
v 0.5 1.7 0
v -0.6 1.8 -0.1
v -0.6 1.8 0
v -0.5 1.8 -0.1
v -0.5 1.8 0
v 0.5 1.8 -0.1
v 0.5 1.8 0
v 0.6 1.8 -0.1
v 0.6 1.8 0
v -0.6 0 -0.1
v -0.3 0 -0.1
v 0.3 0 -0.1
v 0.6 0 -0.1
v -0.7 0.1 -0.1
v -0.6 0.1 -0.1
v -0.3 0.1 -0.1
v 0 0.1 -0.1
v 0.3 0.1 -0.1
v 0.6 0.1 -0.1
v 0.7 0.1 -0.1
v -0.8 0.2 -0.1
v -0.7 0.2 -0.1
v -0.6 0.2 -0.1
v -0.5 0.2 -0.1
v 0 0.2 -0.1
v 0.6 0.2 -0.1
v 0.7 0.2 -0.1
v 0.8 0.2 -0.1
v -0.9 0.3 -0.1
v -0.8 0.3 -0.1
v -0.7 0.3 -0.1
v -0.6 0.3 -0.1
v -0.5 0.3 -0.1
v 0.7 0.3 -0.1
v 0.8 0.3 -0.1
v 0.9 0.3 -0.1
v -0.8 0.4 -0.1
v -0.6 0.4 -0.1
v -0.5 0.4 -0.1
v -0.4 0.4 -0.1
v -0.8 0.5 -0.1
v -0.6 0.5 -0.1
v -0.8 0.6 -0.1
v -0.7 0.6 -0.1
v -0.6 0.6 -0.1
v -0.5 0.6 -0.1
v -0.4 0.6 -0.1
v -0.3 0.6 -0.1
v -0.8 0.7 -0.1
v -0.7 0.7 -0.1
v -0.6 0.7 -0.1
v -0.5 0.7 -0.1
v -0.3 0.7 -0.1
v -0.2 0.7 -0.1
v -0.8 0.8 -0.1
v -0.7 0.8 -0.1
v -0.5 0.8 -0.1
v -0.3 0.8 -0.1
v -0.9 0.9 -0.1
v -0.8 0.9 -0.1
v -0.7 0.9 -0.1
v -0.6 0.9 -0.1
v -0.4 0.9 -0.1
v 0 0.9 -0.1
v 0.1 0.9 -0.1
v 0.2 0.9 -0.1
v 0.3 0.9 -0.1
v 0.4 0.9 -0.1
v 0.5 0.9 -0.1
v 0.7 0.9 -0.1
v 0.8 0.9 -0.1
v 0.9 0.9 -0.1
v -0.7 1 -0.1
v -0.6 1 -0.1
v -0.8 1.1 -0.1
v -0.7 1.1 -0.1
v -0.6 1.1 -0.1
v -0.5 1.1 -0.1
v -0.4 1.1 -0.1
v -0.3 1.1 -0.1
v -0.2 1.1 -0.1
v -0.1 1.1 -0.1
v 0 1.1 -0.1
v 0.1 1.1 -0.1
v 0.2 1.1 -0.1
v 0.3 1.1 -0.1
v 0.4 1.1 -0.1
v 0.5 1.1 -0.1
v 0.6 1.1 -0.1
v 0.7 1.1 -0.1
v 0.8 1.1 -0.1
v -0.7 1.2 -0.1
v -0.6 1.2 -0.1
v -0.5 1.2 -0.1
v -0.4 1.2 -0.1
v -0.2 1.2 -0.1
v -0.1 1.2 -0.1
v 0 1.2 -0.1
v 0.1 1.2 -0.1
v 0.2 1.2 -0.1
v 0.3 1.2 -0.1
v 0.4 1.2 -0.1
v 0.5 1.2 -0.1
v 0.6 1.2 -0.1
v 0.7 1.2 -0.1
v -0.5 1.3 -0.1
v -0.3 1.3 -0.1
v -0.2 1.3 -0.1
v -0.1 1.3 -0.1
v 0.1 1.3 -0.1
v 0.2 1.3 -0.1
v 0.3 1.3 -0.1
v 0.5 1.3 -0.1
v -0.4 1.4 -0.1
v -0.3 1.4 -0.1
v -0.2 1.4 -0.1
v -0.1 1.4 -0.1
v 0.1 1.4 -0.1
v 0.2 1.4 -0.1
v 0.3 1.4 -0.1
v 0.4 1.4 -0.1
v -0.5 1.5 -0.1
v -0.4 1.5 -0.1
v -0.3 1.5 -0.1
v -0.2 1.5 -0.1
v 0.2 1.5 -0.1
v 0.3 1.5 -0.1
v 0.4 1.5 -0.1
v 0.5 1.5 -0.1
v -0.5 1.6 -0.1
v -0.4 1.6 -0.1
v -0.3 1.6 -0.1
v 0.3 1.6 -0.1
v 0.4 1.6 -0.1
v 0.5 1.6 -0.1
v -0.5 1.7 -0.1
v -0.4 1.7 -0.1
v 0.4 1.7 -0.1
v 0.5 1.7 -0.1
v -0.6 1.8 -0.1
v -0.5 1.8 -0.1
v 0.5 1.8 -0.1
v 0.6 1.8 -0.1
v -0.6 0 0
v -0.3 0 0
v 0.3 0 0
v 0.6 0 0
v -0.7 0.1 0
v -0.6 0.1 0
v -0.3 0.1 0
v 0 0.1 0
v 0.3 0.1 0
v 0.6 0.1 0
v 0.7 0.1 0
v -0.8 0.2 0
v -0.7 0.2 0
v -0.6 0.2 0
v -0.5 0.2 0
v 0 0.2 0
v 0.6 0.2 0
v 0.7 0.2 0
v 0.8 0.2 0
v -0.9 0.3 0
v -0.8 0.3 0
v -0.7 0.3 0
v -0.6 0.3 0
v -0.5 0.3 0
v 0.7 0.3 0
v 0.8 0.3 0
v 0.9 0.3 0
v -0.8 0.4 0
v -0.6 0.4 0
v -0.5 0.4 0
v -0.4 0.4 0
v -0.8 0.5 0
v -0.6 0.5 0
v -0.8 0.6 0
v -0.7 0.6 0
v -0.6 0.6 0
v -0.5 0.6 0
v -0.4 0.6 0
v -0.3 0.6 0
v -0.8 0.7 0
v -0.7 0.7 0
v -0.6 0.7 0
v -0.5 0.7 0
v -0.3 0.7 0
v -0.2 0.7 0
v -0.8 0.8 0
v -0.7 0.8 0
v -0.5 0.8 0
v -0.3 0.8 0
v -0.9 0.9 0
v -0.8 0.9 0
v -0.7 0.9 0
v -0.6 0.9 0
v -0.4 0.9 0
v 0 0.9 0
v 0.1 0.9 0
v 0.2 0.9 0
v 0.3 0.9 0
v 0.4 0.9 0
v 0.5 0.9 0
v 0.7 0.9 0
v 0.8 0.9 0
v 0.9 0.9 0
v -0.7 1 0
v -0.6 1 0
v -0.8 1.1 0
v -0.7 1.1 0
v -0.6 1.1 0
v -0.5 1.1 0
v -0.4 1.1 0
v -0.3 1.1 0
v -0.2 1.1 0
v -0.1 1.1 0
v 0 1.1 0
v 0.1 1.1 0
v 0.2 1.1 0
v 0.3 1.1 0
v 0.4 1.1 0
v 0.5 1.1 0
v 0.6 1.1 0
v 0.7 1.1 0
v 0.8 1.1 0
v -0.7 1.2 0
v -0.6 1.2 0
v -0.5 1.2 0
v -0.4 1.2 0
v -0.2 1.2 0
v -0.1 1.2 0
v 0 1.2 0
v 0.1 1.2 0
v 0.2 1.2 0
v 0.3 1.2 0
v 0.4 1.2 0
v 0.5 1.2 0
v 0.6 1.2 0
v 0.7 1.2 0
v -0.5 1.3 0
v -0.3 1.3 0
v -0.2 1.3 0
v -0.1 1.3 0
v 0.1 1.3 0
v 0.2 1.3 0
v 0.3 1.3 0
v 0.5 1.3 0
v -0.4 1.4 0
v -0.3 1.4 0
v -0.2 1.4 0
v -0.1 1.4 0
v 0.1 1.4 0
v 0.2 1.4 0
v 0.3 1.4 0
v 0.4 1.4 0
v -0.5 1.5 0
v -0.4 1.5 0
v -0.3 1.5 0
v -0.2 1.5 0
v 0.2 1.5 0
v 0.3 1.5 0
v 0.4 1.5 0
v 0.5 1.5 0
v -0.5 1.6 0
v -0.4 1.6 0
v -0.3 1.6 0
v 0.3 1.6 0
v 0.4 1.6 0
v 0.5 1.6 0
v -0.5 1.7 0
v -0.4 1.7 0
v 0.4 1.7 0
v 0.5 1.7 0
v -0.6 1.8 0
v -0.5 1.8 0
v 0.5 1.8 0
v 0.6 1.8 0

# faces
f 3/1/1 2/1/1 1/1/1
f 4/1/1 2/1/1 3/1/1
f 9/1/1 6/1/1 5/1/1
f 10/1/1 6/1/1 9/1/1
f 11/1/1 8/1/1 7/1/1
f 12/1/1 8/1/1 11/1/1
f 17/1/1 14/1/1 13/1/1
f 18/1/1 14/1/1 17/1/1
f 19/1/1 16/1/1 15/1/1
f 20/1/1 16/1/1 19/1/1
f 25/1/1 22/1/1 21/1/1
f 26/1/1 22/1/1 25/1/1
f 27/1/1 24/1/1 23/1/1
f 28/1/1 24/1/1 27/1/1
f 31/1/1 30/1/1 29/1/1
f 32/1/1 30/1/1 31/1/1
f 35/1/1 34/1/1 33/1/1
f 36/1/1 34/1/1 35/1/1
f 39/1/1 38/1/1 37/1/1
f 40/1/1 38/1/1 39/1/1
f 43/1/1 42/1/1 41/1/1
f 44/1/1 42/1/1 43/1/1
f 47/1/1 46/1/1 45/1/1
f 48/1/1 46/1/1 47/1/1
f 49/1/2 50/1/2 51/1/2
f 51/1/2 50/1/2 52/1/2
f 53/1/2 54/1/2 55/1/2
f 55/1/2 54/1/2 56/1/2
f 57/1/2 58/1/2 59/1/2
f 59/1/2 58/1/2 60/1/2
f 61/1/2 62/1/2 63/1/2
f 63/1/2 62/1/2 64/1/2
f 65/1/2 66/1/2 67/1/2
f 67/1/2 66/1/2 68/1/2
f 69/1/2 70/1/2 73/1/2
f 73/1/2 70/1/2 74/1/2
f 71/1/2 72/1/2 75/1/2
f 75/1/2 72/1/2 76/1/2
f 77/1/2 78/1/2 81/1/2
f 81/1/2 78/1/2 82/1/2
f 79/1/2 80/1/2 83/1/2
f 83/1/2 80/1/2 84/1/2
f 85/1/2 86/1/2 89/1/2
f 89/1/2 86/1/2 90/1/2
f 87/1/2 88/1/2 91/1/2
f 91/1/2 88/1/2 92/1/2
f 93/1/2 94/1/2 95/1/2
f 95/1/2 94/1/2 96/1/2
f 99/1/3 98/1/3 97/1/3
f 100/1/3 98/1/3 99/1/3
f 101/6/3 100/6/3 99/6/3
f 102/6/3 100/6/3 101/6/3
f 103/1/3 102/1/3 101/1/3
f 104/1/3 102/1/3 103/1/3
f 107/1/3 106/1/3 105/1/3
f 108/1/3 106/1/3 107/1/3
f 111/1/3 110/1/3 109/1/3
f 112/1/3 110/1/3 111/1/3
f 115/1/3 114/1/3 113/1/3
f 116/1/3 114/1/3 115/1/3
f 119/1/3 118/1/3 117/1/3
f 120/1/3 118/1/3 119/1/3
f 123/1/3 122/1/3 121/1/3
f 124/1/3 122/1/3 123/1/3
f 127/1/3 126/1/3 125/1/3
f 128/1/3 126/1/3 127/1/3
f 129/1/4 130/1/4 131/1/4
f 131/1/4 130/1/4 132/1/4
f 133/1/4 134/1/4 135/1/4
f 135/1/4 134/1/4 136/1/4
f 137/1/4 138/1/4 139/1/4
f 139/1/4 138/1/4 140/1/4
f 141/1/4 142/1/4 143/1/4
f 143/1/4 142/1/4 144/1/4
f 145/1/4 146/1/4 147/1/4
f 147/1/4 146/1/4 148/1/4
f 149/1/4 150/1/4 151/1/4
f 151/1/4 150/1/4 152/1/4
f 153/1/4 154/1/4 155/1/4
f 155/1/4 154/1/4 156/1/4
f 157/1/4 158/1/4 159/1/4
f 159/1/4 158/1/4 160/1/4
f 161/1/4 162/1/4 163/1/4
f 163/1/4 162/1/4 164/1/4
f 165/1/4 166/1/4 167/1/4
f 167/1/4 166/1/4 168/1/4
f 169/1/4 170/1/4 171/1/4
f 171/1/4 170/1/4 172/1/4
f 173/1/4 174/1/4 175/1/4
f 175/1/4 174/1/4 176/1/4
f 177/1/4 178/1/4 179/1/4
f 179/1/4 178/1/4 180/1/4
f 181/1/4 182/1/4 183/1/4
f 183/1/4 182/1/4 184/1/4
f 185/1/4 186/1/4 187/1/4
f 187/1/4 186/1/4 188/1/4
f 189/1/4 190/1/4 191/1/4
f 191/1/4 190/1/4 192/1/4
f 193/1/4 194/1/4 195/1/4
f 195/1/4 194/1/4 196/1/4
f 202/1/5 198/1/5 197/1/5
f 203/6/5 199/6/5 198/6/5
f 203/1/5 198/1/5 202/1/5
f 204/6/5 199/6/5 203/6/5
f 205/1/5 200/1/5 199/1/5
f 205/6/5 199/6/5 204/6/5
f 206/1/5 200/1/5 205/1/5
f 209/1/5 202/1/5 201/1/5
f 210/5/5 204/5/5 203/5/5
f 210/5/5 203/5/5 202/5/5
f 210/1/5 202/1/5 209/1/5
f 211/5/5 204/5/5 210/5/5
f 212/4/5 205/4/5 204/4/5
f 212/5/5 204/5/5 211/5/5
f 212/4/5 206/4/5 205/4/5
f 213/1/5 207/1/5 206/1/5
f 213/4/5 206/4/5 212/4/5
f 214/1/5 207/1/5 213/1/5
f 217/1/5 209/1/5 208/1/5
f 218/5/5 211/5/5 210/5/5
f 218/5/5 210/5/5 209/5/5
f 218/1/5 209/1/5 217/1/5
f 219/5/5 211/5/5 218/5/5
f 220/4/5 212/4/5 211/4/5
f 220/5/5 211/5/5 219/5/5
f 220/4/5 213/4/5 212/4/5
f 220/4/5 214/4/5 213/4/5
f 221/1/5 215/1/5 214/1/5
f 221/4/5 214/4/5 220/4/5
f 222/1/5 215/1/5 221/1/5
f 224/7/5 219/7/5 218/7/5
f 224/1/5 217/1/5 216/1/5
f 224/7/5 218/7/5 217/7/5
f 225/4/5 220/4/5 219/4/5
f 225/7/5 219/7/5 224/7/5
f 225/4/5 222/4/5 221/4/5
f 225/4/5 221/4/5 220/4/5
f 226/4/5 222/4/5 225/4/5
f 227/4/5 222/4/5 226/4/5
f 228/1/5 224/1/5 216/1/5
f 228/5/5 225/5/5 224/5/5
f 229/4/5 226/4/5 225/4/5
f 229/5/5 225/5/5 228/5/5
f 230/1/5 228/1/5 216/1/5
f 230/7/5 229/7/5 228/7/5
f 231/7/5 229/7/5 230/7/5
f 232/4/5 226/4/5 229/4/5
f 232/7/5 229/7/5 231/7/5
f 233/3/5 227/3/5 226/3/5
f 233/4/5 226/4/5 232/4/5
f 234/4/5 222/4/5 227/4/5
f 234/3/5 227/3/5 233/3/5
f 235/4/5 222/4/5 234/4/5
f 236/5/5 231/5/5 230/5/5
f 236/1/5 230/1/5 216/1/5
f 237/3/5 233/3/5 232/3/5
f 237/5/5 231/5/5 236/5/5
f 237/3/5 232/3/5 231/3/5
f 237/3/5 234/3/5 233/3/5
f 237/3/5 235/3/5 234/3/5
f 238/3/5 235/3/5 237/3/5
f 239/3/5 235/3/5 238/3/5
f 240/4/5 222/4/5 235/4/5
f 240/3/5 235/3/5 239/3/5
f 241/4/5 222/4/5 240/4/5
f 242/1/5 236/1/5 216/1/5
f 242/7/5 237/7/5 236/7/5
f 243/3/5 238/3/5 237/3/5
f 243/7/5 237/7/5 242/7/5
f 244/2/5 239/2/5 238/2/5
f 244/3/5 241/3/5 240/3/5
f 244/3/5 240/3/5 239/3/5
f 245/3/5 241/3/5 244/3/5
f 246/1/5 242/1/5 216/1/5
f 247/5/5 243/5/5 242/5/5
f 247/1/5 242/1/5 246/1/5
f 248/3/5 238/3/5 243/3/5
f 248/5/5 243/5/5 247/5/5
f 249/2/5 244/2/5 238/2/5
f 249/3/5 238/3/5 248/3/5
f 249/2/5 245/2/5 244/2/5
f 250/2/5 245/2/5 249/2/5
f 251/4/5 222/4/5 241/4/5
f 252/4/5 222/4/5 251/4/5
f 253/4/5 222/4/5 252/4/5
f 254/4/5 222/4/5 253/4/5
f 255/4/5 222/4/5 254/4/5
f 256/4/5 222/4/5 255/4/5
f 257/4/5 222/4/5 256/4/5
f 258/1/5 223/1/5 222/1/5
f 258/4/5 222/4/5 257/4/5
f 259/1/5 223/1/5 258/1/5
f 260/1/5 248/1/5 247/1/5
f 260/3/5 249/3/5 248/3/5
f 260/3/5 250/3/5 249/3/5
f 261/3/5 250/3/5 260/3/5
f 262/1/5 260/1/5 247/1/5
f 263/4/5 261/4/5 260/4/5
f 263/1/5 260/1/5 262/1/5
f 264/3/5 250/3/5 261/3/5
f 264/4/5 261/4/5 263/4/5
f 265/3/5 250/3/5 264/3/5
f 266/2/5 245/2/5 250/2/5
f 266/3/5 250/3/5 265/3/5
f 267/3/5 241/3/5 245/3/5
f 267/2/5 245/2/5 266/2/5
f 268/4/5 251/4/5 241/4/5
f 268/3/5 241/3/5 267/3/5
f 269/4/5 251/4/5 268/4/5
f 270/7/5 252/7/5 251/7/5
f 270/4/5 251/4/5 269/4/5
f 271/4/5 253/4/5 252/4/5
f 271/7/5 252/7/5 270/7/5
f 272/7/5 254/7/5 253/7/5
f 272/4/5 253/4/5 271/4/5
f 273/4/5 255/4/5 254/4/5
f 273/7/5 254/7/5 272/7/5
f 274/7/5 256/7/5 255/7/5
f 274/4/5 255/4/5 273/4/5
f 275/4/5 257/4/5 256/4/5
f 275/7/5 256/7/5 274/7/5
f 276/4/5 257/4/5 275/4/5
f 277/1/5 258/1/5 257/1/5
f 277/4/5 257/4/5 276/4/5
f 278/1/5 258/1/5 277/1/5
f 279/1/5 264/1/5 263/1/5
f 280/4/5 265/4/5 264/4/5
f 280/1/5 264/1/5 279/1/5
f 281/3/5 266/3/5 265/3/5
f 281/4/5 265/4/5 280/4/5
f 282/4/5 267/4/5 266/4/5
f 282/3/5 266/3/5 281/3/5
f 282/4/5 269/4/5 268/4/5
f 282/4/5 268/4/5 267/4/5
f 283/4/5 269/4/5 282/4/5
f 284/7/5 270/7/5 269/7/5
f 284/4/5 269/4/5 283/4/5
f 285/4/5 271/4/5 270/4/5
f 285/7/5 270/7/5 284/7/5
f 286/7/5 272/7/5 271/7/5
f 286/4/5 271/4/5 285/4/5
f 287/4/5 273/4/5 272/4/5
f 287/7/5 272/7/5 286/7/5
f 288/7/5 274/7/5 273/7/5
f 288/4/5 273/4/5 287/4/5
f 289/4/5 276/4/5 275/4/5
f 289/7/5 274/7/5 288/7/5
f 289/4/5 275/4/5 274/4/5
f 290/4/5 276/4/5 289/4/5
f 291/1/5 277/1/5 276/1/5
f 291/4/5 276/4/5 290/4/5
f 292/1/5 277/1/5 291/1/5
f 293/1/5 281/1/5 280/1/5
f 293/5/5 282/5/5 281/5/5
f 293/5/5 283/5/5 282/5/5
f 294/5/5 283/5/5 293/5/5
f 295/1/5 287/1/5 286/1/5
f 295/5/5 283/5/5 294/5/5
f 295/1/5 286/1/5 285/1/5
f 295/1/5 285/1/5 284/1/5
f 295/1/5 284/1/5 283/1/5
f 296/1/5 287/1/5 295/1/5
f 297/1/5 287/1/5 296/1/5
f 298/5/5 288/5/5 287/5/5
f 298/1/5 287/1/5 297/1/5
f 298/5/5 289/5/5 288/5/5
f 298/5/5 290/5/5 289/5/5
f 299/5/5 290/5/5 298/5/5
f 300/1/5 291/1/5 290/1/5
f 300/5/5 290/5/5 299/5/5
f 301/6/5 294/6/5 293/6/5
f 302/4/5 295/4/5 294/4/5
f 302/6/5 294/6/5 301/6/5
f 303/1/5 296/1/5 295/1/5
f 303/4/5 295/4/5 302/4/5
f 304/1/5 296/1/5 303/1/5
f 305/1/5 298/1/5 297/1/5
f 306/4/5 299/4/5 298/4/5
f 306/1/5 298/1/5 305/1/5
f 307/6/5 300/6/5 299/6/5
f 307/4/5 299/4/5 306/4/5
f 308/6/5 300/6/5 307/6/5
f 309/1/5 293/1/5 280/1/5
f 309/6/5 301/6/5 293/6/5
f 310/4/5 302/4/5 301/4/5
f 310/6/5 301/6/5 309/6/5
f 311/1/5 303/1/5 302/1/5
f 311/4/5 302/4/5 310/4/5
f 312/1/5 303/1/5 311/1/5
f 313/1/5 307/1/5 306/1/5
f 314/4/5 308/4/5 307/4/5
f 314/1/5 307/1/5 313/1/5
f 315/6/5 300/6/5 308/6/5
f 315/4/5 308/4/5 314/4/5
f 316/1/5 291/1/5 300/1/5
f 316/6/5 300/6/5 315/6/5
f 317/1/5 309/1/5 280/1/5
f 317/4/5 310/4/5 309/4/5
f 318/1/5 311/1/5 310/1/5
f 318/4/5 310/4/5 317/4/5
f 319/1/5 311/1/5 318/1/5
f 320/1/5 315/1/5 314/1/5
f 321/4/5 316/4/5 315/4/5
f 321/1/5 315/1/5 320/1/5
f 322/1/5 291/1/5 316/1/5
f 322/4/5 316/4/5 321/4/5
f 323/1/5 317/1/5 280/1/5
f 323/1/5 318/1/5 317/1/5
f 324/1/5 318/1/5 323/1/5
f 325/1/5 322/1/5 321/1/5
f 326/1/5 291/1/5 322/1/5
f 326/1/5 322/1/5 325/1/5
f 327/1/5 323/1/5 280/1/5
f 328/1/5 323/1/5 327/1/5
f 329/1/5 291/1/5 326/1/5
f 330/1/5 291/1/5 329/1/5
f 331/1/6 332/1/6 336/1/6
f 332/6/6 333/6/6 337/6/6
f 336/1/6 332/1/6 337/1/6
f 337/6/6 333/6/6 338/6/6
f 333/1/6 334/1/6 339/1/6
f 338/6/6 333/6/6 339/6/6
f 339/1/6 334/1/6 340/1/6
f 335/1/6 336/1/6 343/1/6
f 337/5/6 338/5/6 344/5/6
f 336/5/6 337/5/6 344/5/6
f 343/1/6 336/1/6 344/1/6
f 344/5/6 338/5/6 345/5/6
f 338/4/6 339/4/6 346/4/6
f 345/5/6 338/5/6 346/5/6
f 339/4/6 340/4/6 346/4/6
f 340/1/6 341/1/6 347/1/6
f 346/4/6 340/4/6 347/4/6
f 347/1/6 341/1/6 348/1/6
f 342/1/6 343/1/6 351/1/6
f 344/5/6 345/5/6 352/5/6
f 343/5/6 344/5/6 352/5/6
f 351/1/6 343/1/6 352/1/6
f 352/5/6 345/5/6 353/5/6
f 345/4/6 346/4/6 354/4/6
f 353/5/6 345/5/6 354/5/6
f 346/4/6 347/4/6 354/4/6
f 347/4/6 348/4/6 354/4/6
f 348/1/6 349/1/6 355/1/6
f 354/4/6 348/4/6 355/4/6
f 355/1/6 349/1/6 356/1/6
f 352/7/6 353/7/6 358/7/6
f 350/1/6 351/1/6 358/1/6
f 351/7/6 352/7/6 358/7/6
f 353/4/6 354/4/6 359/4/6
f 358/7/6 353/7/6 359/7/6
f 355/4/6 356/4/6 359/4/6
f 354/4/6 355/4/6 359/4/6
f 359/4/6 356/4/6 360/4/6
f 360/4/6 356/4/6 361/4/6
f 350/1/6 358/1/6 362/1/6
f 358/5/6 359/5/6 362/5/6
f 359/4/6 360/4/6 363/4/6
f 362/5/6 359/5/6 363/5/6
f 350/1/6 362/1/6 364/1/6
f 362/7/6 363/7/6 364/7/6
f 364/7/6 363/7/6 365/7/6
f 363/4/6 360/4/6 366/4/6
f 365/7/6 363/7/6 366/7/6
f 360/3/6 361/3/6 367/3/6
f 366/4/6 360/4/6 367/4/6
f 361/4/6 356/4/6 368/4/6
f 367/3/6 361/3/6 368/3/6
f 368/4/6 356/4/6 369/4/6
f 364/5/6 365/5/6 370/5/6
f 350/1/6 364/1/6 370/1/6
f 366/3/6 367/3/6 371/3/6
f 370/5/6 365/5/6 371/5/6
f 365/3/6 366/3/6 371/3/6
f 367/3/6 368/3/6 371/3/6
f 368/3/6 369/3/6 371/3/6
f 371/3/6 369/3/6 372/3/6
f 372/3/6 369/3/6 373/3/6
f 369/4/6 356/4/6 374/4/6
f 373/3/6 369/3/6 374/3/6
f 374/4/6 356/4/6 375/4/6
f 350/1/6 370/1/6 376/1/6
f 370/7/6 371/7/6 376/7/6
f 371/3/6 372/3/6 377/3/6
f 376/7/6 371/7/6 377/7/6
f 372/2/6 373/2/6 378/2/6
f 374/3/6 375/3/6 378/3/6
f 373/3/6 374/3/6 378/3/6
f 378/3/6 375/3/6 379/3/6
f 350/1/6 376/1/6 380/1/6
f 376/5/6 377/5/6 381/5/6
f 380/1/6 376/1/6 381/1/6
f 377/3/6 372/3/6 382/3/6
f 381/5/6 377/5/6 382/5/6
f 372/2/6 378/2/6 383/2/6
f 382/3/6 372/3/6 383/3/6
f 378/2/6 379/2/6 383/2/6
f 383/2/6 379/2/6 384/2/6
f 375/4/6 356/4/6 385/4/6
f 385/4/6 356/4/6 386/4/6
f 386/4/6 356/4/6 387/4/6
f 387/4/6 356/4/6 388/4/6
f 388/4/6 356/4/6 389/4/6
f 389/4/6 356/4/6 390/4/6
f 390/4/6 356/4/6 391/4/6
f 356/1/6 357/1/6 392/1/6
f 391/4/6 356/4/6 392/4/6
f 392/1/6 357/1/6 393/1/6
f 381/1/6 382/1/6 394/1/6
f 382/3/6 383/3/6 394/3/6
f 383/3/6 384/3/6 394/3/6
f 394/3/6 384/3/6 395/3/6
f 381/1/6 394/1/6 396/1/6
f 394/4/6 395/4/6 397/4/6
f 396/1/6 394/1/6 397/1/6
f 395/3/6 384/3/6 398/3/6
f 397/4/6 395/4/6 398/4/6
f 398/3/6 384/3/6 399/3/6
f 384/2/6 379/2/6 400/2/6
f 399/3/6 384/3/6 400/3/6
f 379/3/6 375/3/6 401/3/6
f 400/2/6 379/2/6 401/2/6
f 375/4/6 385/4/6 402/4/6
f 401/3/6 375/3/6 402/3/6
f 402/4/6 385/4/6 403/4/6
f 385/7/6 386/7/6 404/7/6
f 403/4/6 385/4/6 404/4/6
f 386/4/6 387/4/6 405/4/6
f 404/7/6 386/7/6 405/7/6
f 387/7/6 388/7/6 406/7/6
f 405/4/6 387/4/6 406/4/6
f 388/4/6 389/4/6 407/4/6
f 406/7/6 388/7/6 407/7/6
f 389/7/6 390/7/6 408/7/6
f 407/4/6 389/4/6 408/4/6
f 390/4/6 391/4/6 409/4/6
f 408/7/6 390/7/6 409/7/6
f 409/4/6 391/4/6 410/4/6
f 391/1/6 392/1/6 411/1/6
f 410/4/6 391/4/6 411/4/6
f 411/1/6 392/1/6 412/1/6
f 397/1/6 398/1/6 413/1/6
f 398/4/6 399/4/6 414/4/6
f 413/1/6 398/1/6 414/1/6
f 399/3/6 400/3/6 415/3/6
f 414/4/6 399/4/6 415/4/6
f 400/4/6 401/4/6 416/4/6
f 415/3/6 400/3/6 416/3/6
f 402/4/6 403/4/6 416/4/6
f 401/4/6 402/4/6 416/4/6
f 416/4/6 403/4/6 417/4/6
f 403/7/6 404/7/6 418/7/6
f 417/4/6 403/4/6 418/4/6
f 404/4/6 405/4/6 419/4/6
f 418/7/6 404/7/6 419/7/6
f 405/7/6 406/7/6 420/7/6
f 419/4/6 405/4/6 420/4/6
f 406/4/6 407/4/6 421/4/6
f 420/7/6 406/7/6 421/7/6
f 407/7/6 408/7/6 422/7/6
f 421/4/6 407/4/6 422/4/6
f 409/4/6 410/4/6 423/4/6
f 422/7/6 408/7/6 423/7/6
f 408/4/6 409/4/6 423/4/6
f 423/4/6 410/4/6 424/4/6
f 410/1/6 411/1/6 425/1/6
f 424/4/6 410/4/6 425/4/6
f 425/1/6 411/1/6 426/1/6
f 414/1/6 415/1/6 427/1/6
f 415/5/6 416/5/6 427/5/6
f 416/5/6 417/5/6 427/5/6
f 427/5/6 417/5/6 428/5/6
f 420/1/6 421/1/6 429/1/6
f 428/5/6 417/5/6 429/5/6
f 419/1/6 420/1/6 429/1/6
f 418/1/6 419/1/6 429/1/6
f 417/1/6 418/1/6 429/1/6
f 429/1/6 421/1/6 430/1/6
f 430/1/6 421/1/6 431/1/6
f 421/5/6 422/5/6 432/5/6
f 431/1/6 421/1/6 432/1/6
f 422/5/6 423/5/6 432/5/6
f 423/5/6 424/5/6 432/5/6
f 432/5/6 424/5/6 433/5/6
f 424/1/6 425/1/6 434/1/6
f 433/5/6 424/5/6 434/5/6
f 427/6/6 428/6/6 435/6/6
f 428/4/6 429/4/6 436/4/6
f 435/6/6 428/6/6 436/6/6
f 429/1/6 430/1/6 437/1/6
f 436/4/6 429/4/6 437/4/6
f 437/1/6 430/1/6 438/1/6
f 431/1/6 432/1/6 439/1/6
f 432/4/6 433/4/6 440/4/6
f 439/1/6 432/1/6 440/1/6
f 433/6/6 434/6/6 441/6/6
f 440/4/6 433/4/6 441/4/6
f 441/6/6 434/6/6 442/6/6
f 414/1/6 427/1/6 443/1/6
f 427/6/6 435/6/6 443/6/6
f 435/4/6 436/4/6 444/4/6
f 443/6/6 435/6/6 444/6/6
f 436/1/6 437/1/6 445/1/6
f 444/4/6 436/4/6 445/4/6
f 445/1/6 437/1/6 446/1/6
f 440/1/6 441/1/6 447/1/6
f 441/4/6 442/4/6 448/4/6
f 447/1/6 441/1/6 448/1/6
f 442/6/6 434/6/6 449/6/6
f 448/4/6 442/4/6 449/4/6
f 434/1/6 425/1/6 450/1/6
f 449/6/6 434/6/6 450/6/6
f 414/1/6 443/1/6 451/1/6
f 443/4/6 444/4/6 451/4/6
f 444/1/6 445/1/6 452/1/6
f 451/4/6 444/4/6 452/4/6
f 452/1/6 445/1/6 453/1/6
f 448/1/6 449/1/6 454/1/6
f 449/4/6 450/4/6 455/4/6
f 454/1/6 449/1/6 455/1/6
f 450/1/6 425/1/6 456/1/6
f 455/4/6 450/4/6 456/4/6
f 414/1/6 451/1/6 457/1/6
f 451/1/6 452/1/6 457/1/6
f 457/1/6 452/1/6 458/1/6
f 455/1/6 456/1/6 459/1/6
f 456/1/6 425/1/6 460/1/6
f 459/1/6 456/1/6 460/1/6
f 414/1/6 457/1/6 461/1/6
f 461/1/6 457/1/6 462/1/6
f 460/1/6 425/1/6 463/1/6
f 463/1/6 425/1/6 464/1/6
