# MagicaVoxel @ Ephtracy

# group
o CatHead

# material
mtllib CatHead-2-CatHead.mtl
usemtl palette

# normals
vn -1 0 0
vn 1 0 0
vn 0 -1 0
vn 0 1 0
vn 0 0 -1
vn 0 0 1

# texcoords
vt 0.00195312 0.5
vt 0.00585938 0.5
vt 0.00976562 0.5
vt 0.0214844 0.5
vt 0.0253906 0.5
vt 0.0332031 0.5
vt 0.0371094 0.5
vt 0.0410156 0.5
vt 0.0449219 0.5

# verts
v -0.9 0.3 -0.1
v -0.9 0.9 -0.1
v -0.9 0.3 0
v -0.9 0.9 0
v -0.8 0.2 -0.1
v -0.8 0.3 -0.1
v -0.8 0.9 -0.1
v -0.8 1.1 -0.1
v -0.8 0.2 0
v -0.8 0.3 0
v -0.8 0.9 0
v -0.8 1.1 0
v -0.7 0.1 -0.1
v -0.7 0.2 -0.1
v -0.7 1.1 -0.1
v -0.7 1.2 -0.1
v -0.7 0.1 0
v -0.7 0.2 0
v -0.7 1.1 0
v -0.7 1.2 0
v -0.6 0 -0.1
v -0.6 0.1 -0.1
v -0.6 1.2 -0.1
v -0.6 1.8 -0.1
v -0.6 0 0
v -0.6 0.1 0
v -0.6 1.2 0
v -0.6 1.8 0
v 0.1 1.3 -0.1
v 0.1 1.4 -0.1
v 0.1 1.3 0
v 0.1 1.4 0
v 0.2 1.4 -0.1
v 0.2 1.5 -0.1
v 0.2 1.4 0
v 0.2 1.5 0
v 0.3 1.5 -0.1
v 0.3 1.6 -0.1
v 0.3 1.5 0
v 0.3 1.6 0
v 0.4 1.6 -0.1
v 0.4 1.7 -0.1
v 0.4 1.6 0
v 0.4 1.7 0
v 0.5 1.7 -0.1
v 0.5 1.8 -0.1
v 0.5 1.7 0
v 0.5 1.8 0
v -0.5 1.7 -0.1
v -0.5 1.8 -0.1
v -0.5 1.7 0
v -0.5 1.8 0
v -0.4 1.6 -0.1
v -0.4 1.7 -0.1
v -0.4 1.6 0
v -0.4 1.7 0
v -0.3 1.5 -0.1
v -0.3 1.6 -0.1
v -0.3 1.5 0
v -0.3 1.6 0
v -0.2 1.4 -0.1
v -0.2 1.5 -0.1
v -0.2 1.4 0
v -0.2 1.5 0
v -0.1 1.3 -0.1
v -0.1 1.4 -0.1
v -0.1 1.3 0
v -0.1 1.4 0
v 0.6 0 -0.1
v 0.6 0.1 -0.1
v 0.6 1.2 -0.1
v 0.6 1.8 -0.1
v 0.6 0 0
v 0.6 0.1 0
v 0.6 1.2 0
v 0.6 1.8 0
v 0.7 0.1 -0.1
v 0.7 0.2 -0.1
v 0.7 1.1 -0.1
v 0.7 1.2 -0.1
v 0.7 0.1 0
v 0.7 0.2 0
v 0.7 1.1 0
v 0.7 1.2 0
v 0.8 0.2 -0.1
v 0.8 0.3 -0.1
v 0.8 0.9 -0.1
v 0.8 1.1 -0.1
v 0.8 0.2 0
v 0.8 0.3 0
v 0.8 0.9 0
v 0.8 1.1 0
v 0.9 0.3 -0.1
v 0.9 0.9 -0.1
v 0.9 0.3 0
v 0.9 0.9 0
v -0.6 0 -0.1
v -0.6 0 0
v -0.3 0 -0.1
v -0.3 0 0
v 0.3 0 -0.1
v 0.3 0 0
v 0.6 0 -0.1
v 0.6 0 0
v -0.7 0.1 -0.1
v -0.7 0.1 0
v -0.6 0.1 -0.1
v -0.6 0.1 0
v 0.6 0.1 -0.1
v 0.6 0.1 0
v 0.7 0.1 -0.1
v 0.7 0.1 0
v -0.8 0.2 -0.1
v -0.8 0.2 0
v -0.7 0.2 -0.1
v -0.7 0.2 0
v 0.7 0.2 -0.1
v 0.7 0.2 0
v 0.8 0.2 -0.1
v 0.8 0.2 0
v -0.9 0.3 -0.1
v -0.9 0.3 0
v -0.8 0.3 -0.1
v -0.8 0.3 0
v 0.8 0.3 -0.1
v 0.8 0.3 0
v 0.9 0.3 -0.1
v 0.9 0.3 0
v -0.9 0.9 -0.1
v -0.9 0.9 0
v -0.8 0.9 -0.1
v -0.8 0.9 0
v 0.8 0.9 -0.1
v 0.8 0.9 0
v 0.9 0.9 -0.1
v 0.9 0.9 0
v -0.8 1.1 -0.1
v -0.8 1.1 0
v -0.7 1.1 -0.1
v -0.7 1.1 0
v 0.7 1.1 -0.1
v 0.7 1.1 0
v 0.8 1.1 -0.1
v 0.8 1.1 0
v -0.7 1.2 -0.1
v -0.7 1.2 0
v -0.6 1.2 -0.1
v -0.6 1.2 0
v 0.6 1.2 -0.1
v 0.6 1.2 0
v 0.7 1.2 -0.1
v 0.7 1.2 0
v -0.1 1.3 -0.1
v -0.1 1.3 0
v 0.1 1.3 -0.1
v 0.1 1.3 0
v -0.2 1.4 -0.1
v -0.2 1.4 0
v -0.1 1.4 -0.1
v -0.1 1.4 0
v 0.1 1.4 -0.1
v 0.1 1.4 0
v 0.2 1.4 -0.1
v 0.2 1.4 0
v -0.3 1.5 -0.1
v -0.3 1.5 0
v -0.2 1.5 -0.1
v -0.2 1.5 0
v 0.2 1.5 -0.1
v 0.2 1.5 0
v 0.3 1.5 -0.1
v 0.3 1.5 0
v -0.4 1.6 -0.1
v -0.4 1.6 0
v -0.3 1.6 -0.1
v -0.3 1.6 0
v 0.3 1.6 -0.1
v 0.3 1.6 0
v 0.4 1.6 -0.1
v 0.4 1.6 0
v -0.5 1.7 -0.1
v -0.5 1.7 0
v -0.4 1.7 -0.1
v -0.4 1.7 0
v 0.4 1.7 -0.1
v 0.4 1.7 0
v 0.5 1.7 -0.1
v 0.5 1.7 0
v -0.6 1.8 -0.1
v -0.6 1.8 0
v -0.5 1.8 -0.1
v -0.5 1.8 0
v 0.5 1.8 -0.1
v 0.5 1.8 0
v 0.6 1.8 -0.1
v 0.6 1.8 0
v -0.6 0 -0.1
v -0.3 0 -0.1
v 0.3 0 -0.1
v 0.6 0 -0.1
v -0.7 0.1 -0.1
v -0.6 0.1 -0.1
v -0.3 0.1 -0.1
v 0 0.1 -0.1
v 0.3 0.1 -0.1
v 0.6 0.1 -0.1
v 0.7 0.1 -0.1
v -0.8 0.2 -0.1
v -0.7 0.2 -0.1
v -0.6 0.2 -0.1
v -0.5 0.2 -0.1
v -0.4 0.2 -0.1
v 0 0.2 -0.1
v 0.6 0.2 -0.1
v 0.7 0.2 -0.1
v 0.8 0.2 -0.1
v -0.9 0.3 -0.1
v -0.8 0.3 -0.1
v -0.7 0.3 -0.1
v -0.6 0.3 -0.1
v -0.5 0.3 -0.1
v 0.7 0.3 -0.1
v 0.8 0.3 -0.1
v 0.9 0.3 -0.1
v -0.8 0.4 -0.1
v -0.7 0.4 -0.1
v -0.6 0.4 -0.1
v -0.5 0.4 -0.1
v -0.8 0.5 -0.1
v -0.7 0.5 -0.1
v -0.6 0.5 -0.1
v -0.5 0.5 -0.1
v -0.4 0.5 -0.1
v -0.3 0.5 -0.1
v -0.8 0.6 -0.1
v -0.7 0.6 -0.1
v -0.6 0.6 -0.1
v -0.5 0.6 -0.1
v -0.3 0.6 -0.1
v -0.2 0.6 -0.1
v -0.8 0.7 -0.1
v -0.7 0.7 -0.1
v 0.2 0.7 -0.1
v 0.8 0.7 -0.1
v -0.8 0.8 -0.1
v -0.7 0.8 -0.1
v -0.6 0.8 -0.1
v -0.5 0.8 -0.1
v -0.4 0.8 -0.1
v 0 0.8 -0.1
v 0.2 0.8 -0.1
v 0.3 0.8 -0.1
v 0.6 0.8 -0.1
v 0.7 0.8 -0.1
v 0.8 0.8 -0.1
v -0.9 0.9 -0.1
v -0.8 0.9 -0.1
v -0.7 0.9 -0.1
v -0.6 0.9 -0.1
v -0.5 0.9 -0.1
v -0.4 0.9 -0.1
v 0 0.9 -0.1
v 0.1 0.9 -0.1
v 0.2 0.9 -0.1
v 0.3 0.9 -0.1
v 0.4 0.9 -0.1
v 0.5 0.9 -0.1
v 0.6 0.9 -0.1
v 0.7 0.9 -0.1
v 0.8 0.9 -0.1
v 0.9 0.9 -0.1
v -0.7 1 -0.1
v -0.6 1 -0.1
v -0.5 1 -0.1
v -0.4 1 -0.1
v -0.3 1 -0.1
v 0.2 1 -0.1
v 0.3 1 -0.1
v 0.4 1 -0.1
v 0.5 1 -0.1
v 0.6 1 -0.1
v 0.7 1 -0.1
v -0.8 1.1 -0.1
v -0.7 1.1 -0.1
v -0.6 1.1 -0.1
v -0.5 1.1 -0.1
v -0.4 1.1 -0.1
v -0.3 1.1 -0.1
v -0.2 1.1 -0.1
v -0.1 1.1 -0.1
v 0 1.1 -0.1
v 0.1 1.1 -0.1
v 0.2 1.1 -0.1
v 0.3 1.1 -0.1
v 0.5 1.1 -0.1
v 0.6 1.1 -0.1
v 0.7 1.1 -0.1
v 0.8 1.1 -0.1
v -0.7 1.2 -0.1
v -0.6 1.2 -0.1
v -0.5 1.2 -0.1
v -0.3 1.2 -0.1
v -0.2 1.2 -0.1
v -0.1 1.2 -0.1
v 0 1.2 -0.1
v 0.1 1.2 -0.1
v 0.2 1.2 -0.1
v 0.5 1.2 -0.1
v 0.6 1.2 -0.1
v 0.7 1.2 -0.1
v -0.5 1.3 -0.1
v -0.3 1.3 -0.1
v -0.2 1.3 -0.1
v -0.1 1.3 -0.1
v 0.1 1.3 -0.1
v 0.2 1.3 -0.1
v 0.3 1.3 -0.1
v 0.5 1.3 -0.1
v -0.4 1.4 -0.1
v -0.3 1.4 -0.1
v -0.2 1.4 -0.1
v -0.1 1.4 -0.1
v 0.1 1.4 -0.1
v 0.2 1.4 -0.1
v 0.3 1.4 -0.1
v 0.4 1.4 -0.1
v -0.5 1.5 -0.1
v -0.4 1.5 -0.1
v -0.3 1.5 -0.1
v -0.2 1.5 -0.1
v 0.2 1.5 -0.1
v 0.3 1.5 -0.1
v 0.4 1.5 -0.1
v 0.5 1.5 -0.1
v -0.5 1.6 -0.1
v -0.4 1.6 -0.1
v -0.3 1.6 -0.1
v 0.3 1.6 -0.1
v 0.4 1.6 -0.1
v 0.5 1.6 -0.1
v -0.5 1.7 -0.1
v -0.4 1.7 -0.1
v 0.4 1.7 -0.1
v 0.5 1.7 -0.1
v -0.6 1.8 -0.1
v -0.5 1.8 -0.1
v 0.5 1.8 -0.1
v 0.6 1.8 -0.1
v -0.6 0 0
v -0.3 0 0
v 0.3 0 0
v 0.6 0 0
v -0.7 0.1 0
v -0.6 0.1 0
v -0.3 0.1 0
v 0 0.1 0
v 0.3 0.1 0
v 0.6 0.1 0
v 0.7 0.1 0
v -0.8 0.2 0
v -0.7 0.2 0
v -0.6 0.2 0
v -0.5 0.2 0
v -0.4 0.2 0
v 0 0.2 0
v 0.6 0.2 0
v 0.7 0.2 0
v 0.8 0.2 0
v -0.9 0.3 0
v -0.8 0.3 0
v -0.7 0.3 0
v -0.6 0.3 0
v -0.5 0.3 0
v 0.7 0.3 0
v 0.8 0.3 0
v 0.9 0.3 0
v -0.8 0.4 0
v -0.7 0.4 0
v -0.6 0.4 0
v -0.5 0.4 0
v -0.8 0.5 0
v -0.7 0.5 0
v -0.6 0.5 0
v -0.5 0.5 0
v -0.4 0.5 0
v -0.3 0.5 0
v -0.8 0.6 0
v -0.7 0.6 0
v -0.6 0.6 0
v -0.5 0.6 0
v -0.3 0.6 0
v -0.2 0.6 0
v -0.8 0.7 0
v -0.7 0.7 0
v 0.2 0.7 0
v 0.8 0.7 0
v -0.8 0.8 0
v -0.7 0.8 0
v -0.6 0.8 0
v -0.5 0.8 0
v -0.4 0.8 0
v 0 0.8 0
v 0.2 0.8 0
v 0.3 0.8 0
v 0.6 0.8 0
v 0.7 0.8 0
v 0.8 0.8 0
v -0.9 0.9 0
v -0.8 0.9 0
v -0.7 0.9 0
v -0.6 0.9 0
v -0.5 0.9 0
v -0.4 0.9 0
v 0 0.9 0
v 0.1 0.9 0
v 0.2 0.9 0
v 0.3 0.9 0
v 0.4 0.9 0
v 0.5 0.9 0
v 0.6 0.9 0
v 0.7 0.9 0
v 0.8 0.9 0
v 0.9 0.9 0
v -0.7 1 0
v -0.6 1 0
v -0.5 1 0
v -0.4 1 0
v -0.3 1 0
v 0.2 1 0
v 0.3 1 0
v 0.4 1 0
v 0.5 1 0
v 0.6 1 0
v 0.7 1 0
v -0.8 1.1 0
v -0.7 1.1 0
v -0.6 1.1 0
v -0.5 1.1 0
v -0.4 1.1 0
v -0.3 1.1 0
v -0.2 1.1 0
v -0.1 1.1 0
v 0 1.1 0
v 0.1 1.1 0
v 0.2 1.1 0
v 0.3 1.1 0
v 0.5 1.1 0
v 0.6 1.1 0
v 0.7 1.1 0
v 0.8 1.1 0
v -0.7 1.2 0
v -0.6 1.2 0
v -0.5 1.2 0
v -0.3 1.2 0
v -0.2 1.2 0
v -0.1 1.2 0
v 0 1.2 0
v 0.1 1.2 0
v 0.2 1.2 0
v 0.5 1.2 0
v 0.6 1.2 0
v 0.7 1.2 0
v -0.5 1.3 0
v -0.3 1.3 0
v -0.2 1.3 0
v -0.1 1.3 0
v 0.1 1.3 0
v 0.2 1.3 0
v 0.3 1.3 0
v 0.5 1.3 0
v -0.4 1.4 0
v -0.3 1.4 0
v -0.2 1.4 0
v -0.1 1.4 0
v 0.1 1.4 0
v 0.2 1.4 0
v 0.3 1.4 0
v 0.4 1.4 0
v -0.5 1.5 0
v -0.4 1.5 0
v -0.3 1.5 0
v -0.2 1.5 0
v 0.2 1.5 0
v 0.3 1.5 0
v 0.4 1.5 0
v 0.5 1.5 0
v -0.5 1.6 0
v -0.4 1.6 0
v -0.3 1.6 0
v 0.3 1.6 0
v 0.4 1.6 0
v 0.5 1.6 0
v -0.5 1.7 0
v -0.4 1.7 0
v 0.4 1.7 0
v 0.5 1.7 0
v -0.6 1.8 0
v -0.5 1.8 0
v 0.5 1.8 0
v 0.6 1.8 0

# faces
f 3/1/1 2/1/1 1/1/1
f 4/1/1 2/1/1 3/1/1
f 9/1/1 6/1/1 5/1/1
f 10/1/1 6/1/1 9/1/1
f 11/1/1 8/1/1 7/1/1
f 12/1/1 8/1/1 11/1/1
f 17/1/1 14/1/1 13/1/1
f 18/1/1 14/1/1 17/1/1
f 19/1/1 16/1/1 15/1/1
f 20/1/1 16/1/1 19/1/1
f 25/1/1 22/1/1 21/1/1
f 26/1/1 22/1/1 25/1/1
f 27/1/1 24/1/1 23/1/1
f 28/1/1 24/1/1 27/1/1
f 31/1/1 30/1/1 29/1/1
f 32/1/1 30/1/1 31/1/1
f 35/1/1 34/1/1 33/1/1
f 36/1/1 34/1/1 35/1/1
f 39/1/1 38/1/1 37/1/1
f 40/1/1 38/1/1 39/1/1
f 43/1/1 42/1/1 41/1/1
f 44/1/1 42/1/1 43/1/1
f 47/1/1 46/1/1 45/1/1
f 48/1/1 46/1/1 47/1/1
f 49/1/2 50/1/2 51/1/2
f 51/1/2 50/1/2 52/1/2
f 53/1/2 54/1/2 55/1/2
f 55/1/2 54/1/2 56/1/2
f 57/1/2 58/1/2 59/1/2
f 59/1/2 58/1/2 60/1/2
f 61/1/2 62/1/2 63/1/2
f 63/1/2 62/1/2 64/1/2
f 65/1/2 66/1/2 67/1/2
f 67/1/2 66/1/2 68/1/2
f 69/1/2 70/1/2 73/1/2
f 73/1/2 70/1/2 74/1/2
f 71/1/2 72/1/2 75/1/2
f 75/1/2 72/1/2 76/1/2
f 77/1/2 78/1/2 81/1/2
f 81/1/2 78/1/2 82/1/2
f 79/1/2 80/1/2 83/1/2
f 83/1/2 80/1/2 84/1/2
f 85/1/2 86/1/2 89/1/2
f 89/1/2 86/1/2 90/1/2
f 87/1/2 88/1/2 91/1/2
f 91/1/2 88/1/2 92/1/2
f 93/1/2 94/1/2 95/1/2
f 95/1/2 94/1/2 96/1/2
f 99/1/3 98/1/3 97/1/3
f 100/1/3 98/1/3 99/1/3
f 101/8/3 100/8/3 99/8/3
f 102/8/3 100/8/3 101/8/3
f 103/1/3 102/1/3 101/1/3
f 104/1/3 102/1/3 103/1/3
f 107/1/3 106/1/3 105/1/3
f 108/1/3 106/1/3 107/1/3
f 111/1/3 110/1/3 109/1/3
f 112/1/3 110/1/3 111/1/3
f 115/1/3 114/1/3 113/1/3
f 116/1/3 114/1/3 115/1/3
f 119/1/3 118/1/3 117/1/3
f 120/1/3 118/1/3 119/1/3
f 123/1/3 122/1/3 121/1/3
f 124/1/3 122/1/3 123/1/3
f 127/1/3 126/1/3 125/1/3
f 128/1/3 126/1/3 127/1/3
f 129/1/4 130/1/4 131/1/4
f 131/1/4 130/1/4 132/1/4
f 133/1/4 134/1/4 135/1/4
f 135/1/4 134/1/4 136/1/4
f 137/1/4 138/1/4 139/1/4
f 139/1/4 138/1/4 140/1/4
f 141/1/4 142/1/4 143/1/4
f 143/1/4 142/1/4 144/1/4
f 145/1/4 146/1/4 147/1/4
f 147/1/4 146/1/4 148/1/4
f 149/1/4 150/1/4 151/1/4
f 151/1/4 150/1/4 152/1/4
f 153/1/4 154/1/4 155/1/4
f 155/1/4 154/1/4 156/1/4
f 157/1/4 158/1/4 159/1/4
f 159/1/4 158/1/4 160/1/4
f 161/1/4 162/1/4 163/1/4
f 163/1/4 162/1/4 164/1/4
f 165/1/4 166/1/4 167/1/4
f 167/1/4 166/1/4 168/1/4
f 169/1/4 170/1/4 171/1/4
f 171/1/4 170/1/4 172/1/4
f 173/1/4 174/1/4 175/1/4
f 175/1/4 174/1/4 176/1/4
f 177/1/4 178/1/4 179/1/4
f 179/1/4 178/1/4 180/1/4
f 181/1/4 182/1/4 183/1/4
f 183/1/4 182/1/4 184/1/4
f 185/1/4 186/1/4 187/1/4
f 187/1/4 186/1/4 188/1/4
f 189/1/4 190/1/4 191/1/4
f 191/1/4 190/1/4 192/1/4
f 193/1/4 194/1/4 195/1/4
f 195/1/4 194/1/4 196/1/4
f 202/1/5 198/1/5 197/1/5
f 203/8/5 199/8/5 198/8/5
f 203/1/5 198/1/5 202/1/5
f 204/8/5 199/8/5 203/8/5
f 205/1/5 200/1/5 199/1/5
f 205/8/5 199/8/5 204/8/5
f 206/1/5 200/1/5 205/1/5
f 209/1/5 202/1/5 201/1/5
f 210/7/5 204/7/5 203/7/5
f 210/7/5 203/7/5 202/7/5
f 210/1/5 202/1/5 209/1/5
f 211/7/5 204/7/5 210/7/5
f 212/7/5 204/7/5 211/7/5
f 213/6/5 205/6/5 204/6/5
f 213/7/5 204/7/5 212/7/5
f 213/6/5 206/6/5 205/6/5
f 214/1/5 207/1/5 206/1/5
f 214/6/5 206/6/5 213/6/5
f 215/1/5 207/1/5 214/1/5
f 218/1/5 209/1/5 208/1/5
f 219/7/5 211/7/5 210/7/5
f 219/7/5 210/7/5 209/7/5
f 219/1/5 209/1/5 218/1/5
f 220/7/5 211/7/5 219/7/5
f 221/3/5 212/3/5 211/3/5
f 221/7/5 211/7/5 220/7/5
f 222/1/5 216/1/5 215/1/5
f 222/6/5 213/6/5 212/6/5
f 222/6/5 214/6/5 213/6/5
f 222/6/5 215/6/5 214/6/5
f 223/1/5 216/1/5 222/1/5
f 225/9/5 220/9/5 219/9/5
f 225/1/5 218/1/5 217/1/5
f 225/9/5 219/9/5 218/9/5
f 226/9/5 220/9/5 225/9/5
f 227/3/5 221/3/5 220/3/5
f 227/9/5 220/9/5 226/9/5
f 228/3/5 212/3/5 221/3/5
f 228/3/5 221/3/5 227/3/5
f 229/7/5 226/7/5 225/7/5
f 229/1/5 225/1/5 217/1/5
f 230/3/5 227/3/5 226/3/5
f 230/7/5 226/7/5 229/7/5
f 231/5/5 228/5/5 227/5/5
f 231/3/5 227/3/5 230/3/5
f 232/3/5 212/3/5 228/3/5
f 232/5/5 228/5/5 231/5/5
f 233/6/5 223/6/5 222/6/5
f 233/3/5 212/3/5 232/3/5
f 233/6/5 222/6/5 212/6/5
f 234/6/5 223/6/5 233/6/5
f 235/1/5 229/1/5 217/1/5
f 235/9/5 230/9/5 229/9/5
f 236/2/5 231/2/5 230/2/5
f 236/9/5 230/9/5 235/9/5
f 237/4/5 232/4/5 231/4/5
f 237/2/5 231/2/5 236/2/5
f 238/3/5 234/3/5 233/3/5
f 238/4/5 232/4/5 237/4/5
f 238/3/5 233/3/5 232/3/5
f 239/6/5 223/6/5 234/6/5
f 239/3/5 234/3/5 238/3/5
f 240/6/5 223/6/5 239/6/5
f 241/1/5 235/1/5 217/1/5
f 241/7/5 236/7/5 235/7/5
f 242/2/5 238/2/5 237/2/5
f 242/7/5 236/7/5 241/7/5
f 242/2/5 237/2/5 236/2/5
f 243/6/5 223/6/5 240/6/5
f 244/1/5 224/1/5 223/1/5
f 244/6/5 223/6/5 243/6/5
f 245/1/5 241/1/5 217/1/5
f 245/9/5 242/9/5 241/9/5
f 246/2/5 238/2/5 242/2/5
f 246/9/5 242/9/5 245/9/5
f 247/2/5 238/2/5 246/2/5
f 248/4/5 239/4/5 238/4/5
f 248/2/5 238/2/5 247/2/5
f 249/4/5 239/4/5 248/4/5
f 250/6/5 243/6/5 240/6/5
f 251/3/5 244/3/5 243/3/5
f 251/6/5 243/6/5 250/6/5
f 252/3/5 244/3/5 251/3/5
f 253/3/5 244/3/5 252/3/5
f 254/3/5 244/3/5 253/3/5
f 255/1/5 224/1/5 244/1/5
f 255/3/5 244/3/5 254/3/5
f 256/1/5 245/1/5 217/1/5
f 257/7/5 246/7/5 245/7/5
f 257/1/5 245/1/5 256/1/5
f 258/3/5 247/3/5 246/3/5
f 258/7/5 246/7/5 257/7/5
f 259/5/5 248/5/5 247/5/5
f 259/3/5 247/3/5 258/3/5
f 260/2/5 249/2/5 248/2/5
f 260/5/5 248/5/5 259/5/5
f 261/4/5 239/4/5 249/4/5
f 261/2/5 249/2/5 260/2/5
f 262/6/5 250/6/5 240/6/5
f 262/3/5 251/3/5 250/3/5
f 263/3/5 251/3/5 262/3/5
f 264/5/5 252/5/5 251/5/5
f 264/3/5 251/3/5 263/3/5
f 265/4/5 253/4/5 252/4/5
f 265/5/5 252/5/5 264/5/5
f 266/4/5 253/4/5 265/4/5
f 267/4/5 253/4/5 266/4/5
f 268/5/5 254/5/5 253/5/5
f 268/4/5 253/4/5 267/4/5
f 269/2/5 255/2/5 254/2/5
f 269/5/5 254/5/5 268/5/5
f 270/1/5 224/1/5 255/1/5
f 270/2/5 255/2/5 269/2/5
f 271/1/5 224/1/5 270/1/5
f 272/1/5 258/1/5 257/1/5
f 272/3/5 259/3/5 258/3/5
f 273/2/5 260/2/5 259/2/5
f 273/3/5 259/3/5 272/3/5
f 274/5/5 261/5/5 260/5/5
f 274/2/5 260/2/5 273/2/5
f 275/4/5 239/4/5 261/4/5
f 275/5/5 261/5/5 274/5/5
f 276/3/5 240/3/5 239/3/5
f 276/4/5 239/4/5 275/4/5
f 277/3/5 266/3/5 265/3/5
f 277/6/5 264/6/5 263/6/5
f 277/3/5 265/3/5 264/3/5
f 278/3/5 266/3/5 277/3/5
f 279/4/5 267/4/5 266/4/5
f 279/3/5 266/3/5 278/3/5
f 280/5/5 269/5/5 268/5/5
f 280/4/5 267/4/5 279/4/5
f 280/5/5 268/5/5 267/5/5
f 281/5/5 269/5/5 280/5/5
f 282/1/5 270/1/5 269/1/5
f 282/5/5 269/5/5 281/5/5
f 283/1/5 272/1/5 257/1/5
f 284/6/5 273/6/5 272/6/5
f 284/1/5 272/1/5 283/1/5
f 285/3/5 274/3/5 273/3/5
f 285/6/5 273/6/5 284/6/5
f 286/2/5 275/2/5 274/2/5
f 286/3/5 274/3/5 285/3/5
f 287/5/5 276/5/5 275/5/5
f 287/2/5 275/2/5 286/2/5
f 288/3/5 240/3/5 276/3/5
f 288/5/5 276/5/5 287/5/5
f 289/6/5 262/6/5 240/6/5
f 289/3/5 240/3/5 288/3/5
f 290/6/5 262/6/5 289/6/5
f 291/9/5 263/9/5 262/9/5
f 291/6/5 262/6/5 290/6/5
f 292/6/5 277/6/5 263/6/5
f 292/9/5 263/9/5 291/9/5
f 293/9/5 278/9/5 277/9/5
f 293/6/5 277/6/5 292/6/5
f 294/3/5 279/3/5 278/3/5
f 294/9/5 278/9/5 293/9/5
f 294/3/5 280/3/5 279/3/5
f 295/5/5 281/5/5 280/5/5
f 295/3/5 280/3/5 294/3/5
f 296/2/5 282/2/5 281/2/5
f 296/5/5 281/5/5 295/5/5
f 297/1/5 270/1/5 282/1/5
f 297/2/5 282/2/5 296/2/5
f 298/1/5 270/1/5 297/1/5
f 299/1/5 285/1/5 284/1/5
f 300/6/5 286/6/5 285/6/5
f 300/1/5 285/1/5 299/1/5
f 301/3/5 287/3/5 286/3/5
f 301/6/5 286/6/5 300/6/5
f 301/3/5 288/3/5 287/3/5
f 302/6/5 290/6/5 289/6/5
f 302/3/5 288/3/5 301/3/5
f 302/6/5 289/6/5 288/6/5
f 303/6/5 290/6/5 302/6/5
f 304/9/5 291/9/5 290/9/5
f 304/6/5 290/6/5 303/6/5
f 305/6/5 292/6/5 291/6/5
f 305/9/5 291/9/5 304/9/5
f 306/9/5 293/9/5 292/9/5
f 306/6/5 292/6/5 305/6/5
f 307/3/5 294/3/5 293/3/5
f 307/9/5 293/9/5 306/9/5
f 307/3/5 295/3/5 294/3/5
f 308/2/5 296/2/5 295/2/5
f 308/3/5 295/3/5 307/3/5
f 309/1/5 297/1/5 296/1/5
f 309/2/5 296/2/5 308/2/5
f 310/1/5 297/1/5 309/1/5
f 311/1/5 301/1/5 300/1/5
f 311/7/5 303/7/5 302/7/5
f 311/7/5 302/7/5 301/7/5
f 312/7/5 303/7/5 311/7/5
f 313/1/5 304/1/5 303/1/5
f 313/7/5 303/7/5 312/7/5
f 313/1/5 305/1/5 304/1/5
f 313/1/5 307/1/5 306/1/5
f 313/1/5 306/1/5 305/1/5
f 314/1/5 307/1/5 313/1/5
f 315/1/5 307/1/5 314/1/5
f 316/7/5 308/7/5 307/7/5
f 316/1/5 307/1/5 315/1/5
f 317/7/5 308/7/5 316/7/5
f 318/1/5 309/1/5 308/1/5
f 318/7/5 308/7/5 317/7/5
f 319/8/5 312/8/5 311/8/5
f 320/6/5 313/6/5 312/6/5
f 320/8/5 312/8/5 319/8/5
f 321/1/5 314/1/5 313/1/5
f 321/6/5 313/6/5 320/6/5
f 322/1/5 314/1/5 321/1/5
f 323/1/5 316/1/5 315/1/5
f 324/6/5 317/6/5 316/6/5
f 324/1/5 316/1/5 323/1/5
f 325/8/5 318/8/5 317/8/5
f 325/6/5 317/6/5 324/6/5
f 326/8/5 318/8/5 325/8/5
f 327/1/5 311/1/5 300/1/5
f 327/8/5 319/8/5 311/8/5
f 328/6/5 320/6/5 319/6/5
f 328/8/5 319/8/5 327/8/5
f 329/1/5 321/1/5 320/1/5
f 329/6/5 320/6/5 328/6/5
f 330/1/5 321/1/5 329/1/5
f 331/1/5 325/1/5 324/1/5
f 332/6/5 326/6/5 325/6/5
f 332/1/5 325/1/5 331/1/5
f 333/8/5 318/8/5 326/8/5
f 333/6/5 326/6/5 332/6/5
f 334/1/5 309/1/5 318/1/5
f 334/8/5 318/8/5 333/8/5
f 335/1/5 327/1/5 300/1/5
f 335/6/5 328/6/5 327/6/5
f 336/1/5 329/1/5 328/1/5
f 336/6/5 328/6/5 335/6/5
f 337/1/5 329/1/5 336/1/5
f 338/1/5 333/1/5 332/1/5
f 339/6/5 334/6/5 333/6/5
f 339/1/5 333/1/5 338/1/5
f 340/1/5 309/1/5 334/1/5
f 340/6/5 334/6/5 339/6/5
f 341/1/5 335/1/5 300/1/5
f 341/1/5 336/1/5 335/1/5
f 342/1/5 336/1/5 341/1/5
f 343/1/5 340/1/5 339/1/5
f 344/1/5 309/1/5 340/1/5
f 344/1/5 340/1/5 343/1/5
f 345/1/5 341/1/5 300/1/5
f 346/1/5 341/1/5 345/1/5
f 347/1/5 309/1/5 344/1/5
f 348/1/5 309/1/5 347/1/5
f 349/1/6 350/1/6 354/1/6
f 350/8/6 351/8/6 355/8/6
f 354/1/6 350/1/6 355/1/6
f 355/8/6 351/8/6 356/8/6
f 351/1/6 352/1/6 357/1/6
f 356/8/6 351/8/6 357/8/6
f 357/1/6 352/1/6 358/1/6
f 353/1/6 354/1/6 361/1/6
f 355/7/6 356/7/6 362/7/6
f 354/7/6 355/7/6 362/7/6
f 361/1/6 354/1/6 362/1/6
f 362/7/6 356/7/6 363/7/6
f 363/7/6 356/7/6 364/7/6
f 356/6/6 357/6/6 365/6/6
f 364/7/6 356/7/6 365/7/6
f 357/6/6 358/6/6 365/6/6
f 358/1/6 359/1/6 366/1/6
f 365/6/6 358/6/6 366/6/6
f 366/1/6 359/1/6 367/1/6
f 360/1/6 361/1/6 370/1/6
f 362/7/6 363/7/6 371/7/6
f 361/7/6 362/7/6 371/7/6
f 370/1/6 361/1/6 371/1/6
f 371/7/6 363/7/6 372/7/6
f 363/3/6 364/3/6 373/3/6
f 372/7/6 363/7/6 373/7/6
f 367/1/6 368/1/6 374/1/6
f 364/6/6 365/6/6 374/6/6
f 365/6/6 366/6/6 374/6/6
f 366/6/6 367/6/6 374/6/6
f 374/1/6 368/1/6 375/1/6
f 371/9/6 372/9/6 377/9/6
f 369/1/6 370/1/6 377/1/6
f 370/9/6 371/9/6 377/9/6
f 377/9/6 372/9/6 378/9/6
f 372/3/6 373/3/6 379/3/6
f 378/9/6 372/9/6 379/9/6
f 373/3/6 364/3/6 380/3/6
f 379/3/6 373/3/6 380/3/6
f 377/7/6 378/7/6 381/7/6
f 369/1/6 377/1/6 381/1/6
f 378/3/6 379/3/6 382/3/6
f 381/7/6 378/7/6 382/7/6
f 379/5/6 380/5/6 383/5/6
f 382/3/6 379/3/6 383/3/6
f 380/3/6 364/3/6 384/3/6
f 383/5/6 380/5/6 384/5/6
f 374/6/6 375/6/6 385/6/6
f 384/3/6 364/3/6 385/3/6
f 364/6/6 374/6/6 385/6/6
f 385/6/6 375/6/6 386/6/6
f 369/1/6 381/1/6 387/1/6
f 381/9/6 382/9/6 387/9/6
f 382/2/6 383/2/6 388/2/6
f 387/9/6 382/9/6 388/9/6
f 383/4/6 384/4/6 389/4/6
f 388/2/6 383/2/6 389/2/6
f 385/3/6 386/3/6 390/3/6
f 389/4/6 384/4/6 390/4/6
f 384/3/6 385/3/6 390/3/6
f 386/6/6 375/6/6 391/6/6
f 390/3/6 386/3/6 391/3/6
f 391/6/6 375/6/6 392/6/6
f 369/1/6 387/1/6 393/1/6
f 387/7/6 388/7/6 393/7/6
f 389/2/6 390/2/6 394/2/6
f 393/7/6 388/7/6 394/7/6
f 388/2/6 389/2/6 394/2/6
f 392/6/6 375/6/6 395/6/6
f 375/1/6 376/1/6 396/1/6
f 395/6/6 375/6/6 396/6/6
f 369/1/6 393/1/6 397/1/6
f 393/9/6 394/9/6 397/9/6
f 394/2/6 390/2/6 398/2/6
f 397/9/6 394/9/6 398/9/6
f 398/2/6 390/2/6 399/2/6
f 390/4/6 391/4/6 400/4/6
f 399/2/6 390/2/6 400/2/6
f 400/4/6 391/4/6 401/4/6
f 392/6/6 395/6/6 402/6/6
f 395/3/6 396/3/6 403/3/6
f 402/6/6 395/6/6 403/6/6
f 403/3/6 396/3/6 404/3/6
f 404/3/6 396/3/6 405/3/6
f 405/3/6 396/3/6 406/3/6
f 396/1/6 376/1/6 407/1/6
f 406/3/6 396/3/6 407/3/6
f 369/1/6 397/1/6 408/1/6
f 397/7/6 398/7/6 409/7/6
f 408/1/6 397/1/6 409/1/6
f 398/3/6 399/3/6 410/3/6
f 409/7/6 398/7/6 410/7/6
f 399/5/6 400/5/6 411/5/6
f 410/3/6 399/3/6 411/3/6
f 400/2/6 401/2/6 412/2/6
f 411/5/6 400/5/6 412/5/6
f 401/4/6 391/4/6 413/4/6
f 412/2/6 401/2/6 413/2/6
f 392/6/6 402/6/6 414/6/6
f 402/3/6 403/3/6 414/3/6
f 414/3/6 403/3/6 415/3/6
f 403/5/6 404/5/6 416/5/6
f 415/3/6 403/3/6 416/3/6
f 404/4/6 405/4/6 417/4/6
f 416/5/6 404/5/6 417/5/6
f 417/4/6 405/4/6 418/4/6
f 418/4/6 405/4/6 419/4/6
f 405/5/6 406/5/6 420/5/6
f 419/4/6 405/4/6 420/4/6
f 406/2/6 407/2/6 421/2/6
f 420/5/6 406/5/6 421/5/6
f 407/1/6 376/1/6 422/1/6
f 421/2/6 407/2/6 422/2/6
f 422/1/6 376/1/6 423/1/6
f 409/1/6 410/1/6 424/1/6
f 410/3/6 411/3/6 424/3/6
f 411/2/6 412/2/6 425/2/6
f 424/3/6 411/3/6 425/3/6
f 412/5/6 413/5/6 426/5/6
f 425/2/6 412/2/6 426/2/6
f 413/4/6 391/4/6 427/4/6
f 426/5/6 413/5/6 427/5/6
f 391/3/6 392/3/6 428/3/6
f 427/4/6 391/4/6 428/4/6
f 417/3/6 418/3/6 429/3/6
f 415/6/6 416/6/6 429/6/6
f 416/3/6 417/3/6 429/3/6
f 429/3/6 418/3/6 430/3/6
f 418/4/6 419/4/6 431/4/6
f 430/3/6 418/3/6 431/3/6
f 420/5/6 421/5/6 432/5/6
f 431/4/6 419/4/6 432/4/6
f 419/5/6 420/5/6 432/5/6
f 432/5/6 421/5/6 433/5/6
f 421/1/6 422/1/6 434/1/6
f 433/5/6 421/5/6 434/5/6
f 409/1/6 424/1/6 435/1/6
f 424/6/6 425/6/6 436/6/6
f 435/1/6 424/1/6 436/1/6
f 425/3/6 426/3/6 437/3/6
f 436/6/6 425/6/6 437/6/6
f 426/2/6 427/2/6 438/2/6
f 437/3/6 426/3/6 438/3/6
f 427/5/6 428/5/6 439/5/6
f 438/2/6 427/2/6 439/2/6
f 428/3/6 392/3/6 440/3/6
f 439/5/6 428/5/6 440/5/6
f 392/6/6 414/6/6 441/6/6
f 440/3/6 392/3/6 441/3/6
f 441/6/6 414/6/6 442/6/6
f 414/9/6 415/9/6 443/9/6
f 442/6/6 414/6/6 443/6/6
f 415/6/6 429/6/6 444/6/6
f 443/9/6 415/9/6 444/9/6
f 429/9/6 430/9/6 445/9/6
f 444/6/6 429/6/6 445/6/6
f 430/3/6 431/3/6 446/3/6
f 445/9/6 430/9/6 446/9/6
f 431/3/6 432/3/6 446/3/6
f 432/5/6 433/5/6 447/5/6
f 446/3/6 432/3/6 447/3/6
f 433/2/6 434/2/6 448/2/6
f 447/5/6 433/5/6 448/5/6
f 434/1/6 422/1/6 449/1/6
f 448/2/6 434/2/6 449/2/6
f 449/1/6 422/1/6 450/1/6
f 436/1/6 437/1/6 451/1/6
f 437/6/6 438/6/6 452/6/6
f 451/1/6 437/1/6 452/1/6
f 438/3/6 439/3/6 453/3/6
f 452/6/6 438/6/6 453/6/6
f 439/3/6 440/3/6 453/3/6
f 441/6/6 442/6/6 454/6/6
f 453/3/6 440/3/6 454/3/6
f 440/6/6 441/6/6 454/6/6
f 454/6/6 442/6/6 455/6/6
f 442/9/6 443/9/6 456/9/6
f 455/6/6 442/6/6 456/6/6
f 443/6/6 444/6/6 457/6/6
f 456/9/6 443/9/6 457/9/6
f 444/9/6 445/9/6 458/9/6
f 457/6/6 444/6/6 458/6/6
f 445/3/6 446/3/6 459/3/6
f 458/9/6 445/9/6 459/9/6
f 446/3/6 447/3/6 459/3/6
f 447/2/6 448/2/6 460/2/6
f 459/3/6 447/3/6 460/3/6
f 448/1/6 449/1/6 461/1/6
f 460/2/6 448/2/6 461/2/6
f 461/1/6 449/1/6 462/1/6
f 452/1/6 453/1/6 463/1/6
f 454/7/6 455/7/6 463/7/6
f 453/7/6 454/7/6 463/7/6
f 463/7/6 455/7/6 464/7/6
f 455/1/6 456/1/6 465/1/6
f 464/7/6 455/7/6 465/7/6
f 456/1/6 457/1/6 465/1/6
f 458/1/6 459/1/6 465/1/6
f 457/1/6 458/1/6 465/1/6
f 465/1/6 459/1/6 466/1/6
f 466/1/6 459/1/6 467/1/6
f 459/7/6 460/7/6 468/7/6
f 467/1/6 459/1/6 468/1/6
f 468/7/6 460/7/6 469/7/6
f 460/1/6 461/1/6 470/1/6
f 469/7/6 460/7/6 470/7/6
f 463/8/6 464/8/6 471/8/6
f 464/6/6 465/6/6 472/6/6
f 471/8/6 464/8/6 472/8/6
f 465/1/6 466/1/6 473/1/6
f 472/6/6 465/6/6 473/6/6
f 473/1/6 466/1/6 474/1/6
f 467/1/6 468/1/6 475/1/6
f 468/6/6 469/6/6 476/6/6
f 475/1/6 468/1/6 476/1/6
f 469/8/6 470/8/6 477/8/6
f 476/6/6 469/6/6 477/6/6
f 477/8/6 470/8/6 478/8/6
f 452/1/6 463/1/6 479/1/6
f 463/8/6 471/8/6 479/8/6
f 471/6/6 472/6/6 480/6/6
f 479/8/6 471/8/6 480/8/6
f 472/1/6 473/1/6 481/1/6
f 480/6/6 472/6/6 481/6/6
f 481/1/6 473/1/6 482/1/6
f 476/1/6 477/1/6 483/1/6
f 477/6/6 478/6/6 484/6/6
f 483/1/6 477/1/6 484/1/6
f 478/8/6 470/8/6 485/8/6
f 484/6/6 478/6/6 485/6/6
f 470/1/6 461/1/6 486/1/6
f 485/8/6 470/8/6 486/8/6
f 452/1/6 479/1/6 487/1/6
f 479/6/6 480/6/6 487/6/6
f 480/1/6 481/1/6 488/1/6
f 487/6/6 480/6/6 488/6/6
f 488/1/6 481/1/6 489/1/6
f 484/1/6 485/1/6 490/1/6
f 485/6/6 486/6/6 491/6/6
f 490/1/6 485/1/6 491/1/6
f 486/1/6 461/1/6 492/1/6
f 491/6/6 486/6/6 492/6/6
f 452/1/6 487/1/6 493/1/6
f 487/1/6 488/1/6 493/1/6
f 493/1/6 488/1/6 494/1/6
f 491/1/6 492/1/6 495/1/6
f 492/1/6 461/1/6 496/1/6
f 495/1/6 492/1/6 496/1/6
f 452/1/6 493/1/6 497/1/6
f 497/1/6 493/1/6 498/1/6
f 496/1/6 461/1/6 499/1/6
f 499/1/6 461/1/6 500/1/6
