# MagicaVoxel @ Ephtracy

# group
o GoatHead

# material
mtllib GoatHead-5-GoatHead.mtl
usemtl palette

# normals
vn -1 0 0
vn 1 0 0
vn 0 -1 0
vn 0 1 0
vn 0 0 -1
vn 0 0 1

# texcoords
vt 0.00195312 0.5
vt 0.00585938 0.5
vt 0.00976562 0.5
vt 0.0332031 0.5
vt 0.0371094 0.5
vt 0.0410156 0.5
vt 0.0449219 0.5

# verts
v -1.2 1 -0.1
v -1.2 1.1 -0.1
v -1.2 1 0
v -1.2 1.1 0
v -1.1 0.9 -0.1
v -1.1 1 -0.1
v -1.1 1.1 -0.1
v -1.1 1.2 -0.1
v -1.1 0.9 0
v -1.1 1 0
v -1.1 1.1 0
v -1.1 1.2 0
v -1 0.8 -0.1
v -1 0.9 -0.1
v -1 0.8 0
v -1 0.9 0
v -0.8 0.3 -0.1
v -0.8 0.8 -0.1
v -0.8 0.3 0
v -0.8 0.8 0
v -0.7 0.2 -0.1
v -0.7 0.3 -0.1
v -0.7 0.2 0
v -0.7 0.3 0
v -0.6 0.1 -0.1
v -0.6 0.2 -0.1
v -0.6 1.6 -0.1
v -0.6 1.7 -0.1
v -0.6 0.1 0
v -0.6 0.2 0
v -0.6 1.6 0
v -0.6 1.7 0
v -0.5 0 -0.1
v -0.5 0.1 -0.1
v -0.5 1.2 -0.1
v -0.5 1.3 -0.1
v -0.5 1.5 -0.1
v -0.5 1.6 -0.1
v -0.5 1.7 -0.1
v -0.5 1.8 -0.1
v -0.5 0 0
v -0.5 0.1 0
v -0.5 1.2 0
v -0.5 1.3 0
v -0.5 1.5 0
v -0.5 1.6 0
v -0.5 1.7 0
v -0.5 1.8 0
v -0.4 1.3 -0.1
v -0.4 1.5 -0.1
v -0.4 1.3 0
v -0.4 1.5 0
v 0.0999999 1.6 -0.1
v 0.0999999 1.7 -0.1
v 0.0999999 1.6 0
v 0.0999999 1.7 0
v 0.2 1.5 -0.1
v 0.2 1.6 -0.1
v 0.2 1.7 -0.1
v 0.2 1.8 -0.1
v 0.2 1.5 0
v 0.2 1.6 0
v 0.2 1.7 0
v 0.2 1.8 0
v 0.3 1.3 -0.1
v 0.3 1.5 -0.1
v 0.3 1.3 0
v 0.3 1.5 0
v -0.3 1.7 -0.1
v -0.3 1.8 -0.1
v -0.3 1.7 0
v -0.3 1.8 0
v -0.2 1.6 -0.1
v -0.2 1.7 -0.1
v -0.2 1.6 0
v -0.2 1.7 0
v -0.1 1.3 -0.1
v -0.1 1.6 -0.1
v -0.1 1.3 0
v -0.1 1.6 0
v 0.4 1.7 -0.1
v 0.4 1.8 -0.1
v 0.4 1.7 0
v 0.4 1.8 0
v 0.5 1.6 -0.1
v 0.5 1.7 -0.1
v 0.5 1.6 0
v 0.5 1.7 0
v 0.6 1.3 -0.1
v 0.6 1.6 -0.1
v 0.6 1.3 0
v 0.6 1.6 0
v 0.7 0 -0.1
v 0.7 0.1 -0.1
v 0.7 1.2 -0.1
v 0.7 1.3 -0.1
v 0.7 0 0
v 0.7 0.1 0
v 0.7 1.2 0
v 0.7 1.3 0
v 0.8 0.1 -0.1
v 0.8 0.2 -0.1
v 0.8 0.1 0
v 0.8 0.2 0
v 0.9 0.2 -0.1
v 0.9 0.3 -0.1
v 0.9 0.2 0
v 0.9 0.3 0
v 1 0.3 -0.1
v 1 0.8 -0.1
v 1 0.3 0
v 1 0.8 0
v 1.1 0.8 -0.1
v 1.1 0.9 -0.1
v 1.1 0.8 0
v 1.1 0.9 0
v 1.2 0.9 -0.1
v 1.2 1 -0.1
v 1.2 1.1 -0.1
v 1.2 1.2 -0.1
v 1.2 0.9 0
v 1.2 1 0
v 1.2 1.1 0
v 1.2 1.2 0
v 1.3 1 -0.1
v 1.3 1.1 -0.1
v 1.3 1 0
v 1.3 1.1 0
v -0.5 0 -0.1
v -0.5 0 0
v -0.2 0 -0.1
v -0.2 0 0
v 0.4 0 -0.1
v 0.4 0 0
v 0.7 0 -0.1
v 0.7 0 0
v -0.6 0.1 -0.1
v -0.6 0.1 0
v -0.5 0.1 -0.1
v -0.5 0.1 0
v 0.7 0.1 -0.1
v 0.7 0.1 0
v 0.8 0.1 -0.1
v 0.8 0.1 0
v -0.7 0.2 -0.1
v -0.7 0.2 0
v -0.6 0.2 -0.1
v -0.6 0.2 0
v 0.8 0.2 -0.1
v 0.8 0.2 0
v 0.9 0.2 -0.1
v 0.9 0.2 0
v -0.8 0.3 -0.1
v -0.8 0.3 0
v -0.7 0.3 -0.1
v -0.7 0.3 0
v 0.9 0.3 -0.1
v 0.9 0.3 0
v 1 0.3 -0.1
v 1 0.3 0
v -1 0.8 -0.1
v -1 0.8 0
v -0.8 0.8 -0.1
v -0.8 0.8 0
v 1 0.8 -0.1
v 1 0.8 0
v 1.1 0.8 -0.1
v 1.1 0.8 0
v -1.1 0.9 -0.1
v -1.1 0.9 0
v -1 0.9 -0.1
v -1 0.9 0
v 1.1 0.9 -0.1
v 1.1 0.9 0
v 1.2 0.9 -0.1
v 1.2 0.9 0
v -1.2 1 -0.1
v -1.2 1 0
v -1.1 1 -0.1
v -1.1 1 0
v 1.2 1 -0.1
v 1.2 1 0
v 1.3 1 -0.1
v 1.3 1 0
v -0.5 1.5 -0.1
v -0.5 1.5 0
v -0.4 1.5 -0.1
v -0.4 1.5 0
v 0.2 1.5 -0.1
v 0.2 1.5 0
v 0.3 1.5 -0.1
v 0.3 1.5 0
v -0.6 1.6 -0.1
v -0.6 1.6 0
v -0.5 1.6 -0.1
v -0.5 1.6 0
v 0.0999999 1.6 -0.1
v 0.0999999 1.6 0
v 0.2 1.6 -0.1
v 0.2 1.6 0
v -1.2 1.1 -0.1
v -1.2 1.1 0
v -1.1 1.1 -0.1
v -1.1 1.1 0
v 1.2 1.1 -0.1
v 1.2 1.1 0
v 1.3 1.1 -0.1
v 1.3 1.1 0
v -1.1 1.2 -0.1
v -1.1 1.2 0
v -0.5 1.2 -0.1
v -0.5 1.2 0
v 0.7 1.2 -0.1
v 0.7 1.2 0
v 1.2 1.2 -0.1
v 1.2 1.2 0
v -0.5 1.3 -0.1
v -0.5 1.3 0
v -0.4 1.3 -0.1
v -0.4 1.3 0
v -0.1 1.3 -0.1
v -0.1 1.3 0
v 0.3 1.3 -0.1
v 0.3 1.3 0
v 0.6 1.3 -0.1
v 0.6 1.3 0
v 0.7 1.3 -0.1
v 0.7 1.3 0
v -0.2 1.6 -0.1
v -0.2 1.6 0
v -0.1 1.6 -0.1
v -0.1 1.6 0
v 0.5 1.6 -0.1
v 0.5 1.6 0
v 0.6 1.6 -0.1
v 0.6 1.6 0
v -0.6 1.7 -0.1
v -0.6 1.7 0
v -0.5 1.7 -0.1
v -0.5 1.7 0
v -0.3 1.7 -0.1
v -0.3 1.7 0
v -0.2 1.7 -0.1
v -0.2 1.7 0
v 0.0999999 1.7 -0.1
v 0.0999999 1.7 0
v 0.2 1.7 -0.1
v 0.2 1.7 0
v 0.4 1.7 -0.1
v 0.4 1.7 0
v 0.5 1.7 -0.1
v 0.5 1.7 0
v -0.5 1.8 -0.1
v -0.5 1.8 0
v -0.3 1.8 -0.1
v -0.3 1.8 0
v 0.2 1.8 -0.1
v 0.2 1.8 0
v 0.4 1.8 -0.1
v 0.4 1.8 0
v -0.5 0 -0.1
v -0.2 0 -0.1
v 0.4 0 -0.1
v 0.7 0 -0.1
v -0.6 0.1 -0.1
v -0.5 0.1 -0.1
v -0.2 0.1 -0.1
v 0.0999999 0.1 -0.1
v 0.4 0.1 -0.1
v 0.7 0.1 -0.1
v 0.8 0.1 -0.1
v -0.7 0.2 -0.1
v -0.6 0.2 -0.1
v -0.5 0.2 -0.1
v -0.4 0.2 -0.1
v 0.0999999 0.2 -0.1
v 0.7 0.2 -0.1
v 0.8 0.2 -0.1
v 0.9 0.2 -0.1
v -0.8 0.3 -0.1
v -0.7 0.3 -0.1
v -0.6 0.3 -0.1
v -0.5 0.3 -0.1
v -0.4 0.3 -0.1
v 0.8 0.3 -0.1
v 0.9 0.3 -0.1
v 1 0.3 -0.1
v -0.4 0.4 -0.1
v -0.3 0.4 -0.1
v -0.6 0.5 -0.1
v -0.5 0.5 -0.1
v -0.6 0.6 -0.1
v -0.4 0.6 -0.1
v -0.3 0.6 -0.1
v -0.2 0.6 -0.1
v -0.5 0.7 -0.1
v -0.4 0.7 -0.1
v -0.2 0.7 -0.1
v -0.1 0.7 -0.1
v -1 0.8 -0.1
v -0.8 0.8 -0.1
v -0.4 0.8 -0.1
v -0.2 0.8 -0.1
v 1 0.8 -0.1
v 1.1 0.8 -0.1
v -1.1 0.9 -0.1
v -1 0.9 -0.1
v -0.7 0.9 -0.1
v -0.6 0.9 -0.1
v -0.5 0.9 -0.1
v -0.3 0.9 -0.1
v 0.8 0.9 -0.1
v 0.9 0.9 -0.1
v 1.1 0.9 -0.1
v 1.2 0.9 -0.1
v -1.2 1 -0.1
v -1.1 1 -0.1
v -1 1 -0.1
v -0.7 1 -0.1
v -0.6 1 -0.1
v -0.5 1 -0.1
v 1.1 1 -0.1
v 1.2 1 -0.1
v 1.3 1 -0.1
v -1.2 1.1 -0.1
v -1.1 1.1 -0.1
v -0.5 1.1 -0.1
v -0.4 1.1 -0.1
v -0.3 1.1 -0.1
v -0.2 1.1 -0.1
v -0.1 1.1 -0.1
v 0.7 1.1 -0.1
v 0.8 1.1 -0.1
v 0.9 1.1 -0.1
v 1.2 1.1 -0.1
v 1.3 1.1 -0.1
v -1.1 1.2 -0.1
v -0.5 1.2 -0.1
v -0.4 1.2 -0.1
v -0.3 1.2 -0.1
v 0.7 1.2 -0.1
v 1.2 1.2 -0.1
v -0.5 1.3 -0.1
v -0.4 1.3 -0.1
v -0.3 1.3 -0.1
v -0.2 1.3 -0.1
v -0.1 1.3 -0.1
v 0.3 1.3 -0.1
v 0.4 1.3 -0.1
v 0.5 1.3 -0.1
v 0.6 1.3 -0.1
v 0.7 1.3 -0.1
v -0.5 1.5 -0.1
v -0.4 1.5 -0.1
v -0.3 1.5 -0.1
v 0.2 1.5 -0.1
v 0.3 1.5 -0.1
v 0.4 1.5 -0.1
v -0.6 1.6 -0.1
v -0.5 1.6 -0.1
v -0.4 1.6 -0.1
v -0.3 1.6 -0.1
v -0.2 1.6 -0.1
v -0.1 1.6 -0.1
v 0.0999999 1.6 -0.1
v 0.2 1.6 -0.1
v 0.3 1.6 -0.1
v 0.4 1.6 -0.1
v 0.5 1.6 -0.1
v 0.6 1.6 -0.1
v -0.6 1.7 -0.1
v -0.5 1.7 -0.1
v -0.3 1.7 -0.1
v -0.2 1.7 -0.1
v 0.0999999 1.7 -0.1
v 0.2 1.7 -0.1
v 0.4 1.7 -0.1
v 0.5 1.7 -0.1
v -0.5 1.8 -0.1
v -0.3 1.8 -0.1
v 0.2 1.8 -0.1
v 0.4 1.8 -0.1
v -0.5 0 0
v -0.2 0 0
v 0.4 0 0
v 0.7 0 0
v -0.6 0.1 0
v -0.5 0.1 0
v -0.2 0.1 0
v 0.0999999 0.1 0
v 0.4 0.1 0
v 0.7 0.1 0
v 0.8 0.1 0
v -0.7 0.2 0
v -0.6 0.2 0
v -0.5 0.2 0
v -0.4 0.2 0
v 0.0999999 0.2 0
v 0.7 0.2 0
v 0.8 0.2 0
v 0.9 0.2 0
v -0.8 0.3 0
v -0.7 0.3 0
v -0.6 0.3 0
v -0.5 0.3 0
v -0.4 0.3 0
v 0.8 0.3 0
v 0.9 0.3 0
v 1 0.3 0
v -0.4 0.4 0
v -0.3 0.4 0
v -0.6 0.5 0
v -0.5 0.5 0
v -0.6 0.6 0
v -0.4 0.6 0
v -0.3 0.6 0
v -0.2 0.6 0
v -0.5 0.7 0
v -0.4 0.7 0
v -0.2 0.7 0
v -0.1 0.7 0
v -1 0.8 0
v -0.8 0.8 0
v -0.4 0.8 0
v -0.2 0.8 0
v 1 0.8 0
v 1.1 0.8 0
v -1.1 0.9 0
v -1 0.9 0
v -0.7 0.9 0
v -0.6 0.9 0
v -0.5 0.9 0
v -0.3 0.9 0
v 0.8 0.9 0
v 0.9 0.9 0
v 1.1 0.9 0
v 1.2 0.9 0
v -1.2 1 0
v -1.1 1 0
v -1 1 0
v -0.7 1 0
v -0.6 1 0
v -0.5 1 0
v 1.1 1 0
v 1.2 1 0
v 1.3 1 0
v -1.2 1.1 0
v -1.1 1.1 0
v -0.5 1.1 0
v -0.4 1.1 0
v -0.3 1.1 0
v -0.2 1.1 0
v -0.1 1.1 0
v 0.7 1.1 0
v 0.8 1.1 0
v 0.9 1.1 0
v 1.2 1.1 0
v 1.3 1.1 0
v -1.1 1.2 0
v -0.5 1.2 0
v -0.4 1.2 0
v -0.3 1.2 0
v 0.7 1.2 0
v 1.2 1.2 0
v -0.5 1.3 0
v -0.4 1.3 0
v -0.3 1.3 0
v -0.2 1.3 0
v -0.1 1.3 0
v 0.3 1.3 0
v 0.4 1.3 0
v 0.5 1.3 0
v 0.6 1.3 0
v 0.7 1.3 0
v -0.5 1.5 0
v -0.4 1.5 0
v -0.3 1.5 0
v 0.2 1.5 0
v 0.3 1.5 0
v 0.4 1.5 0
v -0.6 1.6 0
v -0.5 1.6 0
v -0.4 1.6 0
v -0.3 1.6 0
v -0.2 1.6 0
v -0.1 1.6 0
v 0.0999999 1.6 0
v 0.2 1.6 0
v 0.3 1.6 0
v 0.4 1.6 0
v 0.5 1.6 0
v 0.6 1.6 0
v -0.6 1.7 0
v -0.5 1.7 0
v -0.3 1.7 0
v -0.2 1.7 0
v 0.0999999 1.7 0
v 0.2 1.7 0
v 0.4 1.7 0
v 0.5 1.7 0
v -0.5 1.8 0
v -0.3 1.8 0
v 0.2 1.8 0
v 0.4 1.8 0

# faces
f 3/1/1 2/1/1 1/1/1
f 4/1/1 2/1/1 3/1/1
f 9/1/1 6/1/1 5/1/1
f 10/1/1 6/1/1 9/1/1
f 11/1/1 8/1/1 7/1/1
f 12/1/1 8/1/1 11/1/1
f 15/1/1 14/1/1 13/1/1
f 16/1/1 14/1/1 15/1/1
f 19/1/1 18/1/1 17/1/1
f 20/1/1 18/1/1 19/1/1
f 23/1/1 22/1/1 21/1/1
f 24/1/1 22/1/1 23/1/1
f 29/1/1 26/1/1 25/1/1
f 30/1/1 26/1/1 29/1/1
f 31/1/1 28/1/1 27/1/1
f 32/1/1 28/1/1 31/1/1
f 41/1/1 34/1/1 33/1/1
f 42/1/1 34/1/1 41/1/1
f 43/1/1 36/1/1 35/1/1
f 44/1/1 36/1/1 43/1/1
f 45/1/1 38/1/1 37/1/1
f 46/1/1 38/1/1 45/1/1
f 47/1/1 40/1/1 39/1/1
f 48/1/1 40/1/1 47/1/1
f 51/1/1 50/1/1 49/1/1
f 52/1/1 50/1/1 51/1/1
f 55/1/1 54/1/1 53/1/1
f 56/1/1 54/1/1 55/1/1
f 61/1/1 58/1/1 57/1/1
f 62/1/1 58/1/1 61/1/1
f 63/1/1 60/1/1 59/1/1
f 64/1/1 60/1/1 63/1/1
f 67/1/1 66/1/1 65/1/1
f 68/1/1 66/1/1 67/1/1
f 69/1/2 70/1/2 71/1/2
f 71/1/2 70/1/2 72/1/2
f 73/1/2 74/1/2 75/1/2
f 75/1/2 74/1/2 76/1/2
f 77/1/2 78/1/2 79/1/2
f 79/1/2 78/1/2 80/1/2
f 81/1/2 82/1/2 83/1/2
f 83/1/2 82/1/2 84/1/2
f 85/1/2 86/1/2 87/1/2
f 87/1/2 86/1/2 88/1/2
f 89/1/2 90/1/2 91/1/2
f 91/1/2 90/1/2 92/1/2
f 93/1/2 94/1/2 97/1/2
f 97/1/2 94/1/2 98/1/2
f 95/1/2 96/1/2 99/1/2
f 99/1/2 96/1/2 100/1/2
f 101/1/2 102/1/2 103/1/2
f 103/1/2 102/1/2 104/1/2
f 105/1/2 106/1/2 107/1/2
f 107/1/2 106/1/2 108/1/2
f 109/1/2 110/1/2 111/1/2
f 111/1/2 110/1/2 112/1/2
f 113/1/2 114/1/2 115/1/2
f 115/1/2 114/1/2 116/1/2
f 117/1/2 118/1/2 121/1/2
f 121/1/2 118/1/2 122/1/2
f 119/1/2 120/1/2 123/1/2
f 123/1/2 120/1/2 124/1/2
f 125/1/2 126/1/2 127/1/2
f 127/1/2 126/1/2 128/1/2
f 131/1/3 130/1/3 129/1/3
f 132/1/3 130/1/3 131/1/3
f 133/6/3 132/6/3 131/6/3
f 134/6/3 132/6/3 133/6/3
f 135/1/3 134/1/3 133/1/3
f 136/1/3 134/1/3 135/1/3
f 139/1/3 138/1/3 137/1/3
f 140/1/3 138/1/3 139/1/3
f 143/1/3 142/1/3 141/1/3
f 144/1/3 142/1/3 143/1/3
f 147/1/3 146/1/3 145/1/3
f 148/1/3 146/1/3 147/1/3
f 151/1/3 150/1/3 149/1/3
f 152/1/3 150/1/3 151/1/3
f 155/1/3 154/1/3 153/1/3
f 156/1/3 154/1/3 155/1/3
f 159/1/3 158/1/3 157/1/3
f 160/1/3 158/1/3 159/1/3
f 163/1/3 162/1/3 161/1/3
f 164/1/3 162/1/3 163/1/3
f 167/1/3 166/1/3 165/1/3
f 168/1/3 166/1/3 167/1/3
f 171/1/3 170/1/3 169/1/3
f 172/1/3 170/1/3 171/1/3
f 175/1/3 174/1/3 173/1/3
f 176/1/3 174/1/3 175/1/3
f 179/1/3 178/1/3 177/1/3
f 180/1/3 178/1/3 179/1/3
f 183/1/3 182/1/3 181/1/3
f 184/1/3 182/1/3 183/1/3
f 187/1/3 186/1/3 185/1/3
f 188/1/3 186/1/3 187/1/3
f 191/1/3 190/1/3 189/1/3
f 192/1/3 190/1/3 191/1/3
f 195/1/3 194/1/3 193/1/3
f 196/1/3 194/1/3 195/1/3
f 199/1/3 198/1/3 197/1/3
f 200/1/3 198/1/3 199/1/3
f 201/1/4 202/1/4 203/1/4
f 203/1/4 202/1/4 204/1/4
f 205/1/4 206/1/4 207/1/4
f 207/1/4 206/1/4 208/1/4
f 209/1/4 210/1/4 211/1/4
f 211/1/4 210/1/4 212/1/4
f 213/1/4 214/1/4 215/1/4
f 215/1/4 214/1/4 216/1/4
f 217/1/4 218/1/4 219/1/4
f 219/1/4 218/1/4 220/1/4
f 221/1/4 222/1/4 223/1/4
f 223/1/4 222/1/4 224/1/4
f 225/1/4 226/1/4 227/1/4
f 227/1/4 226/1/4 228/1/4
f 229/1/4 230/1/4 231/1/4
f 231/1/4 230/1/4 232/1/4
f 233/1/4 234/1/4 235/1/4
f 235/1/4 234/1/4 236/1/4
f 237/1/4 238/1/4 239/1/4
f 239/1/4 238/1/4 240/1/4
f 241/1/4 242/1/4 243/1/4
f 243/1/4 242/1/4 244/1/4
f 245/1/4 246/1/4 247/1/4
f 247/1/4 246/1/4 248/1/4
f 249/1/4 250/1/4 251/1/4
f 251/1/4 250/1/4 252/1/4
f 253/1/4 254/1/4 255/1/4
f 255/1/4 254/1/4 256/1/4
f 257/1/4 258/1/4 259/1/4
f 259/1/4 258/1/4 260/1/4
f 266/1/5 262/1/5 261/1/5
f 267/6/5 263/6/5 262/6/5
f 267/1/5 262/1/5 266/1/5
f 268/6/5 263/6/5 267/6/5
f 269/1/5 264/1/5 263/1/5
f 269/6/5 263/6/5 268/6/5
f 270/1/5 264/1/5 269/1/5
f 273/1/5 266/1/5 265/1/5
f 274/5/5 268/5/5 267/5/5
f 274/5/5 267/5/5 266/5/5
f 274/1/5 266/1/5 273/1/5
f 275/5/5 268/5/5 274/5/5
f 276/4/5 269/4/5 268/4/5
f 276/5/5 268/5/5 275/5/5
f 276/4/5 270/4/5 269/4/5
f 277/1/5 271/1/5 270/1/5
f 277/4/5 270/4/5 276/4/5
f 278/1/5 271/1/5 277/1/5
f 281/1/5 273/1/5 272/1/5
f 282/5/5 275/5/5 274/5/5
f 282/5/5 274/5/5 273/5/5
f 282/1/5 273/1/5 281/1/5
f 283/5/5 275/5/5 282/5/5
f 284/4/5 276/4/5 275/4/5
f 284/5/5 275/5/5 283/5/5
f 284/4/5 277/4/5 276/4/5
f 284/4/5 278/4/5 277/4/5
f 285/1/5 279/1/5 278/1/5
f 285/4/5 278/4/5 284/4/5
f 286/1/5 279/1/5 285/1/5
f 288/4/5 284/4/5 283/4/5
f 288/4/5 285/4/5 284/4/5
f 288/4/5 286/4/5 285/4/5
f 289/4/5 286/4/5 288/4/5
f 290/5/5 283/5/5 282/5/5
f 290/5/5 282/5/5 281/5/5
f 291/4/5 288/4/5 283/4/5
f 291/5/5 283/5/5 290/5/5
f 292/5/5 290/5/5 281/5/5
f 292/4/5 291/4/5 290/4/5
f 293/3/5 289/3/5 288/3/5
f 293/4/5 291/4/5 292/4/5
f 293/4/5 288/4/5 291/4/5
f 294/4/5 286/4/5 289/4/5
f 294/3/5 289/3/5 293/3/5
f 295/4/5 286/4/5 294/4/5
f 296/3/5 293/3/5 292/3/5
f 296/3/5 294/3/5 293/3/5
f 296/3/5 295/3/5 294/3/5
f 297/3/5 295/3/5 296/3/5
f 298/4/5 286/4/5 295/4/5
f 298/3/5 295/3/5 297/3/5
f 299/4/5 286/4/5 298/4/5
f 301/1/5 281/1/5 280/1/5
f 302/2/5 297/2/5 296/2/5
f 302/3/5 298/3/5 297/3/5
f 302/3/5 299/3/5 298/3/5
f 303/3/5 299/3/5 302/3/5
f 304/1/5 287/1/5 286/1/5
f 307/1/5 301/1/5 300/1/5
f 308/5/5 292/5/5 281/5/5
f 308/1/5 281/1/5 301/1/5
f 308/1/5 301/1/5 307/1/5
f 309/3/5 296/3/5 292/3/5
f 309/5/5 292/5/5 308/5/5
f 310/2/5 302/2/5 296/2/5
f 310/3/5 296/3/5 309/3/5
f 310/2/5 303/2/5 302/2/5
f 311/2/5 303/2/5 310/2/5
f 312/4/5 286/4/5 299/4/5
f 313/1/5 305/1/5 304/1/5
f 313/4/5 286/4/5 312/4/5
f 313/1/5 304/1/5 286/1/5
f 314/1/5 305/1/5 313/1/5
f 317/1/5 307/1/5 306/1/5
f 318/5/5 308/5/5 307/5/5
f 318/1/5 307/1/5 317/1/5
f 319/4/5 309/4/5 308/4/5
f 319/5/5 308/5/5 318/5/5
f 320/3/5 311/3/5 310/3/5
f 320/4/5 309/4/5 319/4/5
f 320/3/5 310/3/5 309/3/5
f 321/3/5 311/3/5 320/3/5
f 322/1/5 315/1/5 314/1/5
f 322/4/5 314/4/5 313/4/5
f 323/1/5 315/1/5 322/1/5
f 325/1/5 317/1/5 316/1/5
f 326/4/5 318/4/5 317/4/5
f 326/1/5 317/1/5 325/1/5
f 326/4/5 319/4/5 318/4/5
f 326/4/5 321/4/5 320/4/5
f 326/4/5 320/4/5 319/4/5
f 327/3/5 311/3/5 321/3/5
f 327/4/5 321/4/5 326/4/5
f 328/3/5 311/3/5 327/3/5
f 329/2/5 303/2/5 311/2/5
f 329/3/5 311/3/5 328/3/5
f 330/3/5 299/3/5 303/3/5
f 330/2/5 303/2/5 329/2/5
f 331/4/5 312/4/5 299/4/5
f 331/3/5 299/3/5 330/3/5
f 332/4/5 312/4/5 331/4/5
f 333/1/5 313/1/5 312/1/5
f 333/4/5 312/4/5 332/4/5
f 334/4/5 323/4/5 322/4/5
f 334/1/5 313/1/5 333/1/5
f 334/4/5 322/4/5 313/4/5
f 335/1/5 324/1/5 323/1/5
f 335/4/5 323/4/5 334/4/5
f 336/1/5 324/1/5 335/1/5
f 337/1/5 327/1/5 326/1/5
f 338/4/5 328/4/5 327/4/5
f 338/1/5 327/1/5 337/1/5
f 339/3/5 329/3/5 328/3/5
f 339/4/5 328/4/5 338/4/5
f 340/4/5 330/4/5 329/4/5
f 340/3/5 329/3/5 339/3/5
f 340/4/5 332/4/5 331/4/5
f 340/4/5 331/4/5 330/4/5
f 341/1/5 334/1/5 333/1/5
f 341/4/5 332/4/5 340/4/5
f 341/1/5 333/1/5 332/1/5
f 341/1/5 335/1/5 334/1/5
f 342/1/5 335/1/5 341/1/5
f 343/1/5 339/1/5 338/1/5
f 343/1/5 341/1/5 340/1/5
f 343/1/5 340/1/5 339/1/5
f 344/1/5 341/1/5 343/1/5
f 345/1/5 341/1/5 344/1/5
f 346/1/5 341/1/5 345/1/5
f 347/1/5 341/1/5 346/1/5
f 348/1/5 341/1/5 347/1/5
f 349/1/5 341/1/5 348/1/5
f 350/1/5 341/1/5 349/1/5
f 351/1/5 341/1/5 350/1/5
f 352/1/5 341/1/5 351/1/5
f 354/1/5 345/1/5 344/1/5
f 355/7/5 346/7/5 345/7/5
f 355/1/5 345/1/5 354/1/5
f 357/1/5 349/1/5 348/1/5
f 358/7/5 350/7/5 349/7/5
f 358/1/5 349/1/5 357/1/5
f 360/1/5 354/1/5 353/1/5
f 361/7/5 355/7/5 354/7/5
f 361/1/5 354/1/5 360/1/5
f 362/7/5 346/7/5 355/7/5
f 362/7/5 355/7/5 361/7/5
f 363/1/5 347/1/5 346/1/5
f 363/7/5 346/7/5 362/7/5
f 364/1/5 347/1/5 363/1/5
f 366/1/5 357/1/5 356/1/5
f 367/7/5 358/7/5 357/7/5
f 367/1/5 357/1/5 366/1/5
f 368/7/5 350/7/5 358/7/5
f 368/7/5 358/7/5 367/7/5
f 369/1/5 351/1/5 350/1/5
f 369/7/5 350/7/5 368/7/5
f 370/1/5 351/1/5 369/1/5
f 371/1/5 360/1/5 359/1/5
f 372/7/5 362/7/5 361/7/5
f 372/1/5 360/1/5 371/1/5
f 372/7/5 361/7/5 360/7/5
f 373/1/5 363/1/5 362/1/5
f 373/7/5 362/7/5 372/7/5
f 374/1/5 363/1/5 373/1/5
f 375/1/5 366/1/5 365/1/5
f 376/7/5 367/7/5 366/7/5
f 376/1/5 366/1/5 375/1/5
f 376/7/5 368/7/5 367/7/5
f 377/1/5 369/1/5 368/1/5
f 377/7/5 368/7/5 376/7/5
f 378/1/5 369/1/5 377/1/5
f 379/1/5 373/1/5 372/1/5
f 380/1/5 373/1/5 379/1/5
f 381/1/5 377/1/5 376/1/5
f 382/1/5 377/1/5 381/1/5
f 383/1/6 384/1/6 388/1/6
f 384/6/6 385/6/6 389/6/6
f 388/1/6 384/1/6 389/1/6
f 389/6/6 385/6/6 390/6/6
f 385/1/6 386/1/6 391/1/6
f 390/6/6 385/6/6 391/6/6
f 391/1/6 386/1/6 392/1/6
f 387/1/6 388/1/6 395/1/6
f 389/5/6 390/5/6 396/5/6
f 388/5/6 389/5/6 396/5/6
f 395/1/6 388/1/6 396/1/6
f 396/5/6 390/5/6 397/5/6
f 390/4/6 391/4/6 398/4/6
f 397/5/6 390/5/6 398/5/6
f 391/4/6 392/4/6 398/4/6
f 392/1/6 393/1/6 399/1/6
f 398/4/6 392/4/6 399/4/6
f 399/1/6 393/1/6 400/1/6
f 394/1/6 395/1/6 403/1/6
f 396/5/6 397/5/6 404/5/6
f 395/5/6 396/5/6 404/5/6
f 403/1/6 395/1/6 404/1/6
f 404/5/6 397/5/6 405/5/6
f 397/4/6 398/4/6 406/4/6
f 405/5/6 397/5/6 406/5/6
f 398/4/6 399/4/6 406/4/6
f 399/4/6 400/4/6 406/4/6
f 400/1/6 401/1/6 407/1/6
f 406/4/6 400/4/6 407/4/6
f 407/1/6 401/1/6 408/1/6
f 405/4/6 406/4/6 410/4/6
f 406/4/6 407/4/6 410/4/6
f 407/4/6 408/4/6 410/4/6
f 410/4/6 408/4/6 411/4/6
f 404/5/6 405/5/6 412/5/6
f 403/5/6 404/5/6 412/5/6
f 405/4/6 410/4/6 413/4/6
f 412/5/6 405/5/6 413/5/6
f 403/5/6 412/5/6 414/5/6
f 412/4/6 413/4/6 414/4/6
f 410/3/6 411/3/6 415/3/6
f 414/4/6 413/4/6 415/4/6
f 413/4/6 410/4/6 415/4/6
f 411/4/6 408/4/6 416/4/6
f 415/3/6 411/3/6 416/3/6
f 416/4/6 408/4/6 417/4/6
f 414/3/6 415/3/6 418/3/6
f 415/3/6 416/3/6 418/3/6
f 416/3/6 417/3/6 418/3/6
f 418/3/6 417/3/6 419/3/6
f 417/4/6 408/4/6 420/4/6
f 419/3/6 417/3/6 420/3/6
f 420/4/6 408/4/6 421/4/6
f 402/1/6 403/1/6 423/1/6
f 418/2/6 419/2/6 424/2/6
f 419/3/6 420/3/6 424/3/6
f 420/3/6 421/3/6 424/3/6
f 424/3/6 421/3/6 425/3/6
f 408/1/6 409/1/6 426/1/6
f 422/1/6 423/1/6 429/1/6
f 403/5/6 414/5/6 430/5/6
f 423/1/6 403/1/6 430/1/6
f 429/1/6 423/1/6 430/1/6
f 414/3/6 418/3/6 431/3/6
f 430/5/6 414/5/6 431/5/6
f 418/2/6 424/2/6 432/2/6
f 431/3/6 418/3/6 432/3/6
f 424/2/6 425/2/6 432/2/6
f 432/2/6 425/2/6 433/2/6
f 421/4/6 408/4/6 434/4/6
f 426/1/6 427/1/6 435/1/6
f 434/4/6 408/4/6 435/4/6
f 408/1/6 426/1/6 435/1/6
f 435/1/6 427/1/6 436/1/6
f 428/1/6 429/1/6 439/1/6
f 429/5/6 430/5/6 440/5/6
f 439/1/6 429/1/6 440/1/6
f 430/4/6 431/4/6 441/4/6
f 440/5/6 430/5/6 441/5/6
f 432/3/6 433/3/6 442/3/6
f 441/4/6 431/4/6 442/4/6
f 431/3/6 432/3/6 442/3/6
f 442/3/6 433/3/6 443/3/6
f 436/1/6 437/1/6 444/1/6
f 435/4/6 436/4/6 444/4/6
f 444/1/6 437/1/6 445/1/6
f 438/1/6 439/1/6 447/1/6
f 439/4/6 440/4/6 448/4/6
f 447/1/6 439/1/6 448/1/6
f 440/4/6 441/4/6 448/4/6
f 442/4/6 443/4/6 448/4/6
f 441/4/6 442/4/6 448/4/6
f 443/3/6 433/3/6 449/3/6
f 448/4/6 443/4/6 449/4/6
f 449/3/6 433/3/6 450/3/6
f 433/2/6 425/2/6 451/2/6
f 450/3/6 433/3/6 451/3/6
f 425/3/6 421/3/6 452/3/6
f 451/2/6 425/2/6 452/2/6
f 421/4/6 434/4/6 453/4/6
f 452/3/6 421/3/6 453/3/6
f 453/4/6 434/4/6 454/4/6
f 434/1/6 435/1/6 455/1/6
f 454/4/6 434/4/6 455/4/6
f 444/4/6 445/4/6 456/4/6
f 455/1/6 435/1/6 456/1/6
f 435/4/6 444/4/6 456/4/6
f 445/1/6 446/1/6 457/1/6
f 456/4/6 445/4/6 457/4/6
f 457/1/6 446/1/6 458/1/6
f 448/1/6 449/1/6 459/1/6
f 449/4/6 450/4/6 460/4/6
f 459/1/6 449/1/6 460/1/6
f 450/3/6 451/3/6 461/3/6
f 460/4/6 450/4/6 461/4/6
f 451/4/6 452/4/6 462/4/6
f 461/3/6 451/3/6 462/3/6
f 453/4/6 454/4/6 462/4/6
f 452/4/6 453/4/6 462/4/6
f 455/1/6 456/1/6 463/1/6
f 462/4/6 454/4/6 463/4/6
f 454/1/6 455/1/6 463/1/6
f 456/1/6 457/1/6 463/1/6
f 463/1/6 457/1/6 464/1/6
f 460/1/6 461/1/6 465/1/6
f 462/1/6 463/1/6 465/1/6
f 461/1/6 462/1/6 465/1/6
f 465/1/6 463/1/6 466/1/6
f 466/1/6 463/1/6 467/1/6
f 467/1/6 463/1/6 468/1/6
f 468/1/6 463/1/6 469/1/6
f 469/1/6 463/1/6 470/1/6
f 470/1/6 463/1/6 471/1/6
f 471/1/6 463/1/6 472/1/6
f 472/1/6 463/1/6 473/1/6
f 473/1/6 463/1/6 474/1/6
f 466/1/6 467/1/6 476/1/6
f 467/7/6 468/7/6 477/7/6
f 476/1/6 467/1/6 477/1/6
f 470/1/6 471/1/6 479/1/6
f 471/7/6 472/7/6 480/7/6
f 479/1/6 471/1/6 480/1/6
f 475/1/6 476/1/6 482/1/6
f 476/7/6 477/7/6 483/7/6
f 482/1/6 476/1/6 483/1/6
f 477/7/6 468/7/6 484/7/6
f 483/7/6 477/7/6 484/7/6
f 468/1/6 469/1/6 485/1/6
f 484/7/6 468/7/6 485/7/6
f 485/1/6 469/1/6 486/1/6
f 478/1/6 479/1/6 488/1/6
f 479/7/6 480/7/6 489/7/6
f 488/1/6 479/1/6 489/1/6
f 480/7/6 472/7/6 490/7/6
f 489/7/6 480/7/6 490/7/6
f 472/1/6 473/1/6 491/1/6
f 490/7/6 472/7/6 491/7/6
f 491/1/6 473/1/6 492/1/6
f 481/1/6 482/1/6 493/1/6
f 483/7/6 484/7/6 494/7/6
f 493/1/6 482/1/6 494/1/6
f 482/7/6 483/7/6 494/7/6
f 484/1/6 485/1/6 495/1/6
f 494/7/6 484/7/6 495/7/6
f 495/1/6 485/1/6 496/1/6
f 487/1/6 488/1/6 497/1/6
f 488/7/6 489/7/6 498/7/6
f 497/1/6 488/1/6 498/1/6
f 489/7/6 490/7/6 498/7/6
f 490/1/6 491/1/6 499/1/6
f 498/7/6 490/7/6 499/7/6
f 499/1/6 491/1/6 500/1/6
f 494/1/6 495/1/6 501/1/6
f 501/1/6 495/1/6 502/1/6
f 498/1/6 499/1/6 503/1/6
f 503/1/6 499/1/6 504/1/6
