# MagicaVoxel @ Ephtracy

# group
o GoatHead

# material
mtllib GoatHead-2-GoatHead.mtl
usemtl palette

# normals
vn -1 0 0
vn 1 0 0
vn 0 -1 0
vn 0 1 0
vn 0 0 -1
vn 0 0 1

# texcoords
vt 0.00195312 0.5
vt 0.00585938 0.5
vt 0.00976562 0.5
vt 0.0214844 0.5
vt 0.0253906 0.5
vt 0.0332031 0.5
vt 0.0371094 0.5
vt 0.0410156 0.5
vt 0.0449219 0.5

# verts
v -1.2 1 -0.1
v -1.2 1.1 -0.1
v -1.2 1 0
v -1.2 1.1 0
v -1.1 0.9 -0.1
v -1.1 1 -0.1
v -1.1 1.1 -0.1
v -1.1 1.2 -0.1
v -1.1 0.9 0
v -1.1 1 0
v -1.1 1.1 0
v -1.1 1.2 0
v -1 0.8 -0.1
v -1 0.9 -0.1
v -1 0.8 0
v -1 0.9 0
v -0.8 0.3 -0.1
v -0.8 0.8 -0.1
v -0.8 0.3 0
v -0.8 0.8 0
v -0.7 0.2 -0.1
v -0.7 0.3 -0.1
v -0.7 0.2 0
v -0.7 0.3 0
v -0.6 0.1 -0.1
v -0.6 0.2 -0.1
v -0.6 1.6 -0.1
v -0.6 1.7 -0.1
v -0.6 0.1 0
v -0.6 0.2 0
v -0.6 1.6 0
v -0.6 1.7 0
v -0.5 0 -0.1
v -0.5 0.1 -0.1
v -0.5 1.2 -0.1
v -0.5 1.3 -0.1
v -0.5 1.5 -0.1
v -0.5 1.6 -0.1
v -0.5 1.7 -0.1
v -0.5 1.8 -0.1
v -0.5 0 0
v -0.5 0.1 0
v -0.5 1.2 0
v -0.5 1.3 0
v -0.5 1.5 0
v -0.5 1.6 0
v -0.5 1.7 0
v -0.5 1.8 0
v -0.4 1.3 -0.1
v -0.4 1.5 -0.1
v -0.4 1.3 0
v -0.4 1.5 0
v 0.0999999 1.6 -0.1
v 0.0999999 1.7 -0.1
v 0.0999999 1.6 0
v 0.0999999 1.7 0
v 0.2 1.5 -0.1
v 0.2 1.6 -0.1
v 0.2 1.7 -0.1
v 0.2 1.8 -0.1
v 0.2 1.5 0
v 0.2 1.6 0
v 0.2 1.7 0
v 0.2 1.8 0
v 0.3 1.3 -0.1
v 0.3 1.5 -0.1
v 0.3 1.3 0
v 0.3 1.5 0
v -0.3 1.7 -0.1
v -0.3 1.8 -0.1
v -0.3 1.7 0
v -0.3 1.8 0
v -0.2 1.6 -0.1
v -0.2 1.7 -0.1
v -0.2 1.6 0
v -0.2 1.7 0
v -0.1 1.3 -0.1
v -0.1 1.6 -0.1
v -0.1 1.3 0
v -0.1 1.6 0
v 0.4 1.7 -0.1
v 0.4 1.8 -0.1
v 0.4 1.7 0
v 0.4 1.8 0
v 0.5 1.6 -0.1
v 0.5 1.7 -0.1
v 0.5 1.6 0
v 0.5 1.7 0
v 0.6 1.3 -0.1
v 0.6 1.6 -0.1
v 0.6 1.3 0
v 0.6 1.6 0
v 0.7 0 -0.1
v 0.7 0.1 -0.1
v 0.7 1.2 -0.1
v 0.7 1.3 -0.1
v 0.7 0 0
v 0.7 0.1 0
v 0.7 1.2 0
v 0.7 1.3 0
v 0.8 0.1 -0.1
v 0.8 0.2 -0.1
v 0.8 0.1 0
v 0.8 0.2 0
v 0.9 0.2 -0.1
v 0.9 0.3 -0.1
v 0.9 0.2 0
v 0.9 0.3 0
v 1 0.3 -0.1
v 1 0.8 -0.1
v 1 0.3 0
v 1 0.8 0
v 1.1 0.8 -0.1
v 1.1 0.9 -0.1
v 1.1 0.8 0
v 1.1 0.9 0
v 1.2 0.9 -0.1
v 1.2 1 -0.1
v 1.2 1.1 -0.1
v 1.2 1.2 -0.1
v 1.2 0.9 0
v 1.2 1 0
v 1.2 1.1 0
v 1.2 1.2 0
v 1.3 1 -0.1
v 1.3 1.1 -0.1
v 1.3 1 0
v 1.3 1.1 0
v -0.5 0 -0.1
v -0.5 0 0
v -0.2 0 -0.1
v -0.2 0 0
v 0.4 0 -0.1
v 0.4 0 0
v 0.7 0 -0.1
v 0.7 0 0
v -0.6 0.1 -0.1
v -0.6 0.1 0
v -0.5 0.1 -0.1
v -0.5 0.1 0
v 0.7 0.1 -0.1
v 0.7 0.1 0
v 0.8 0.1 -0.1
v 0.8 0.1 0
v -0.7 0.2 -0.1
v -0.7 0.2 0
v -0.6 0.2 -0.1
v -0.6 0.2 0
v 0.8 0.2 -0.1
v 0.8 0.2 0
v 0.9 0.2 -0.1
v 0.9 0.2 0
v -0.8 0.3 -0.1
v -0.8 0.3 0
v -0.7 0.3 -0.1
v -0.7 0.3 0
v 0.9 0.3 -0.1
v 0.9 0.3 0
v 1 0.3 -0.1
v 1 0.3 0
v -1 0.8 -0.1
v -1 0.8 0
v -0.8 0.8 -0.1
v -0.8 0.8 0
v 1 0.8 -0.1
v 1 0.8 0
v 1.1 0.8 -0.1
v 1.1 0.8 0
v -1.1 0.9 -0.1
v -1.1 0.9 0
v -1 0.9 -0.1
v -1 0.9 0
v 1.1 0.9 -0.1
v 1.1 0.9 0
v 1.2 0.9 -0.1
v 1.2 0.9 0
v -1.2 1 -0.1
v -1.2 1 0
v -1.1 1 -0.1
v -1.1 1 0
v 1.2 1 -0.1
v 1.2 1 0
v 1.3 1 -0.1
v 1.3 1 0
v -0.5 1.5 -0.1
v -0.5 1.5 0
v -0.4 1.5 -0.1
v -0.4 1.5 0
v 0.2 1.5 -0.1
v 0.2 1.5 0
v 0.3 1.5 -0.1
v 0.3 1.5 0
v -0.6 1.6 -0.1
v -0.6 1.6 0
v -0.5 1.6 -0.1
v -0.5 1.6 0
v 0.0999999 1.6 -0.1
v 0.0999999 1.6 0
v 0.2 1.6 -0.1
v 0.2 1.6 0
v -1.2 1.1 -0.1
v -1.2 1.1 0
v -1.1 1.1 -0.1
v -1.1 1.1 0
v 1.2 1.1 -0.1
v 1.2 1.1 0
v 1.3 1.1 -0.1
v 1.3 1.1 0
v -1.1 1.2 -0.1
v -1.1 1.2 0
v -0.5 1.2 -0.1
v -0.5 1.2 0
v 0.7 1.2 -0.1
v 0.7 1.2 0
v 1.2 1.2 -0.1
v 1.2 1.2 0
v -0.5 1.3 -0.1
v -0.5 1.3 0
v -0.4 1.3 -0.1
v -0.4 1.3 0
v -0.1 1.3 -0.1
v -0.1 1.3 0
v 0.3 1.3 -0.1
v 0.3 1.3 0
v 0.6 1.3 -0.1
v 0.6 1.3 0
v 0.7 1.3 -0.1
v 0.7 1.3 0
v -0.2 1.6 -0.1
v -0.2 1.6 0
v -0.1 1.6 -0.1
v -0.1 1.6 0
v 0.5 1.6 -0.1
v 0.5 1.6 0
v 0.6 1.6 -0.1
v 0.6 1.6 0
v -0.6 1.7 -0.1
v -0.6 1.7 0
v -0.5 1.7 -0.1
v -0.5 1.7 0
v -0.3 1.7 -0.1
v -0.3 1.7 0
v -0.2 1.7 -0.1
v -0.2 1.7 0
v 0.0999999 1.7 -0.1
v 0.0999999 1.7 0
v 0.2 1.7 -0.1
v 0.2 1.7 0
v 0.4 1.7 -0.1
v 0.4 1.7 0
v 0.5 1.7 -0.1
v 0.5 1.7 0
v -0.5 1.8 -0.1
v -0.5 1.8 0
v -0.3 1.8 -0.1
v -0.3 1.8 0
v 0.2 1.8 -0.1
v 0.2 1.8 0
v 0.4 1.8 -0.1
v 0.4 1.8 0
v -0.5 0 -0.1
v -0.2 0 -0.1
v 0.4 0 -0.1
v 0.7 0 -0.1
v -0.6 0.1 -0.1
v -0.5 0.1 -0.1
v -0.2 0.1 -0.1
v 0.0999999 0.1 -0.1
v 0.4 0.1 -0.1
v 0.7 0.1 -0.1
v 0.8 0.1 -0.1
v -0.7 0.2 -0.1
v -0.6 0.2 -0.1
v -0.5 0.2 -0.1
v -0.4 0.2 -0.1
v -0.3 0.2 -0.1
v 0.0999999 0.2 -0.1
v 0.7 0.2 -0.1
v 0.8 0.2 -0.1
v 0.9 0.2 -0.1
v -0.8 0.3 -0.1
v -0.7 0.3 -0.1
v -0.6 0.3 -0.1
v -0.5 0.3 -0.1
v -0.4 0.3 -0.1
v 0.8 0.3 -0.1
v 0.9 0.3 -0.1
v 1 0.3 -0.1
v -0.6 0.4 -0.1
v -0.5 0.4 -0.1
v -0.4 0.4 -0.1
v -0.6 0.5 -0.1
v -0.5 0.5 -0.1
v -0.4 0.5 -0.1
v -0.3 0.5 -0.1
v -0.2 0.5 -0.1
v -0.5 0.6 -0.1
v -0.4 0.6 -0.1
v -0.2 0.6 -0.1
v -0.1 0.6 -0.1
v 0.3 0.7 -0.1
v 0.9 0.7 -0.1
v -1 0.8 -0.1
v -0.8 0.8 -0.1
v -0.6 0.8 -0.1
v -0.5 0.8 -0.1
v -0.4 0.8 -0.1
v -0.3 0.8 -0.1
v 0.0999999 0.8 -0.1
v 0.3 0.8 -0.1
v 0.4 0.8 -0.1
v 0.7 0.8 -0.1
v 0.8 0.8 -0.1
v 0.9 0.8 -0.1
v 1 0.8 -0.1
v 1.1 0.8 -0.1
v -1.1 0.9 -0.1
v -1 0.9 -0.1
v -0.7 0.9 -0.1
v -0.6 0.9 -0.1
v -0.5 0.9 -0.1
v -0.4 0.9 -0.1
v -0.3 0.9 -0.1
v 0.0999999 0.9 -0.1
v 0.3 0.9 -0.1
v 0.4 0.9 -0.1
v 0.5 0.9 -0.1
v 0.6 0.9 -0.1
v 0.7 0.9 -0.1
v 0.8 0.9 -0.1
v 0.9 0.9 -0.1
v 1.1 0.9 -0.1
v 1.2 0.9 -0.1
v -1.2 1 -0.1
v -1.1 1 -0.1
v -1 1 -0.1
v -0.7 1 -0.1
v -0.6 1 -0.1
v -0.5 1 -0.1
v -0.4 1 -0.1
v -0.3 1 -0.1
v -0.2 1 -0.1
v 0.3 1 -0.1
v 0.4 1 -0.1
v 0.5 1 -0.1
v 0.6 1 -0.1
v 0.7 1 -0.1
v 0.8 1 -0.1
v 1.1 1 -0.1
v 1.2 1 -0.1
v 1.3 1 -0.1
v -1.2 1.1 -0.1
v -1.1 1.1 -0.1
v -0.5 1.1 -0.1
v -0.4 1.1 -0.1
v -0.3 1.1 -0.1
v -0.2 1.1 -0.1
v -0.1 1.1 -0.1
v 0.3 1.1 -0.1
v 0.4 1.1 -0.1
v 0.6 1.1 -0.1
v 0.7 1.1 -0.1
v 0.8 1.1 -0.1
v 0.9 1.1 -0.1
v 1.2 1.1 -0.1
v 1.3 1.1 -0.1
v -1.1 1.2 -0.1
v -0.5 1.2 -0.1
v -0.4 1.2 -0.1
v -0.2 1.2 -0.1
v 0.3 1.2 -0.1
v 0.6 1.2 -0.1
v 0.7 1.2 -0.1
v 1.2 1.2 -0.1
v -0.5 1.3 -0.1
v -0.4 1.3 -0.1
v -0.3 1.3 -0.1
v -0.2 1.3 -0.1
v -0.1 1.3 -0.1
v 0.3 1.3 -0.1
v 0.4 1.3 -0.1
v 0.5 1.3 -0.1
v 0.6 1.3 -0.1
v 0.7 1.3 -0.1
v -0.5 1.5 -0.1
v -0.4 1.5 -0.1
v -0.3 1.5 -0.1
v 0.2 1.5 -0.1
v 0.3 1.5 -0.1
v 0.4 1.5 -0.1
v -0.6 1.6 -0.1
v -0.5 1.6 -0.1
v -0.4 1.6 -0.1
v -0.3 1.6 -0.1
v -0.2 1.6 -0.1
v -0.1 1.6 -0.1
v 0.0999999 1.6 -0.1
v 0.2 1.6 -0.1
v 0.3 1.6 -0.1
v 0.4 1.6 -0.1
v 0.5 1.6 -0.1
v 0.6 1.6 -0.1
v -0.6 1.7 -0.1
v -0.5 1.7 -0.1
v -0.3 1.7 -0.1
v -0.2 1.7 -0.1
v 0.0999999 1.7 -0.1
v 0.2 1.7 -0.1
v 0.4 1.7 -0.1
v 0.5 1.7 -0.1
v -0.5 1.8 -0.1
v -0.3 1.8 -0.1
v 0.2 1.8 -0.1
v 0.4 1.8 -0.1
v -0.5 0 0
v -0.2 0 0
v 0.4 0 0
v 0.7 0 0
v -0.6 0.1 0
v -0.5 0.1 0
v -0.2 0.1 0
v 0.0999999 0.1 0
v 0.4 0.1 0
v 0.7 0.1 0
v 0.8 0.1 0
v -0.7 0.2 0
v -0.6 0.2 0
v -0.5 0.2 0
v -0.4 0.2 0
v -0.3 0.2 0
v 0.0999999 0.2 0
v 0.7 0.2 0
v 0.8 0.2 0
v 0.9 0.2 0
v -0.8 0.3 0
v -0.7 0.3 0
v -0.6 0.3 0
v -0.5 0.3 0
v -0.4 0.3 0
v 0.8 0.3 0
v 0.9 0.3 0
v 1 0.3 0
v -0.6 0.4 0
v -0.5 0.4 0
v -0.4 0.4 0
v -0.6 0.5 0
v -0.5 0.5 0
v -0.4 0.5 0
v -0.3 0.5 0
v -0.2 0.5 0
v -0.5 0.6 0
v -0.4 0.6 0
v -0.2 0.6 0
v -0.1 0.6 0
v 0.3 0.7 0
v 0.9 0.7 0
v -1 0.8 0
v -0.8 0.8 0
v -0.6 0.8 0
v -0.5 0.8 0
v -0.4 0.8 0
v -0.3 0.8 0
v 0.0999999 0.8 0
v 0.3 0.8 0
v 0.4 0.8 0
v 0.7 0.8 0
v 0.8 0.8 0
v 0.9 0.8 0
v 1 0.8 0
v 1.1 0.8 0
v -1.1 0.9 0
v -1 0.9 0
v -0.7 0.9 0
v -0.6 0.9 0
v -0.5 0.9 0
v -0.4 0.9 0
v -0.3 0.9 0
v 0.0999999 0.9 0
v 0.3 0.9 0
v 0.4 0.9 0
v 0.5 0.9 0
v 0.6 0.9 0
v 0.7 0.9 0
v 0.8 0.9 0
v 0.9 0.9 0
v 1.1 0.9 0
v 1.2 0.9 0
v -1.2 1 0
v -1.1 1 0
v -1 1 0
v -0.7 1 0
v -0.6 1 0
v -0.5 1 0
v -0.4 1 0
v -0.3 1 0
v -0.2 1 0
v 0.3 1 0
v 0.4 1 0
v 0.5 1 0
v 0.6 1 0
v 0.7 1 0
v 0.8 1 0
v 1.1 1 0
v 1.2 1 0
v 1.3 1 0
v -1.2 1.1 0
v -1.1 1.1 0
v -0.5 1.1 0
v -0.4 1.1 0
v -0.3 1.1 0
v -0.2 1.1 0
v -0.1 1.1 0
v 0.3 1.1 0
v 0.4 1.1 0
v 0.6 1.1 0
v 0.7 1.1 0
v 0.8 1.1 0
v 0.9 1.1 0
v 1.2 1.1 0
v 1.3 1.1 0
v -1.1 1.2 0
v -0.5 1.2 0
v -0.4 1.2 0
v -0.2 1.2 0
v 0.3 1.2 0
v 0.6 1.2 0
v 0.7 1.2 0
v 1.2 1.2 0
v -0.5 1.3 0
v -0.4 1.3 0
v -0.3 1.3 0
v -0.2 1.3 0
v -0.1 1.3 0
v 0.3 1.3 0
v 0.4 1.3 0
v 0.5 1.3 0
v 0.6 1.3 0
v 0.7 1.3 0
v -0.5 1.5 0
v -0.4 1.5 0
v -0.3 1.5 0
v 0.2 1.5 0
v 0.3 1.5 0
v 0.4 1.5 0
v -0.6 1.6 0
v -0.5 1.6 0
v -0.4 1.6 0
v -0.3 1.6 0
v -0.2 1.6 0
v -0.1 1.6 0
v 0.0999999 1.6 0
v 0.2 1.6 0
v 0.3 1.6 0
v 0.4 1.6 0
v 0.5 1.6 0
v 0.6 1.6 0
v -0.6 1.7 0
v -0.5 1.7 0
v -0.3 1.7 0
v -0.2 1.7 0
v 0.0999999 1.7 0
v 0.2 1.7 0
v 0.4 1.7 0
v 0.5 1.7 0
v -0.5 1.8 0
v -0.3 1.8 0
v 0.2 1.8 0
v 0.4 1.8 0

# faces
f 3/1/1 2/1/1 1/1/1
f 4/1/1 2/1/1 3/1/1
f 9/1/1 6/1/1 5/1/1
f 10/1/1 6/1/1 9/1/1
f 11/1/1 8/1/1 7/1/1
f 12/1/1 8/1/1 11/1/1
f 15/1/1 14/1/1 13/1/1
f 16/1/1 14/1/1 15/1/1
f 19/1/1 18/1/1 17/1/1
f 20/1/1 18/1/1 19/1/1
f 23/1/1 22/1/1 21/1/1
f 24/1/1 22/1/1 23/1/1
f 29/1/1 26/1/1 25/1/1
f 30/1/1 26/1/1 29/1/1
f 31/1/1 28/1/1 27/1/1
f 32/1/1 28/1/1 31/1/1
f 41/1/1 34/1/1 33/1/1
f 42/1/1 34/1/1 41/1/1
f 43/1/1 36/1/1 35/1/1
f 44/1/1 36/1/1 43/1/1
f 45/1/1 38/1/1 37/1/1
f 46/1/1 38/1/1 45/1/1
f 47/1/1 40/1/1 39/1/1
f 48/1/1 40/1/1 47/1/1
f 51/1/1 50/1/1 49/1/1
f 52/1/1 50/1/1 51/1/1
f 55/1/1 54/1/1 53/1/1
f 56/1/1 54/1/1 55/1/1
f 61/1/1 58/1/1 57/1/1
f 62/1/1 58/1/1 61/1/1
f 63/1/1 60/1/1 59/1/1
f 64/1/1 60/1/1 63/1/1
f 67/1/1 66/1/1 65/1/1
f 68/1/1 66/1/1 67/1/1
f 69/1/2 70/1/2 71/1/2
f 71/1/2 70/1/2 72/1/2
f 73/1/2 74/1/2 75/1/2
f 75/1/2 74/1/2 76/1/2
f 77/1/2 78/1/2 79/1/2
f 79/1/2 78/1/2 80/1/2
f 81/1/2 82/1/2 83/1/2
f 83/1/2 82/1/2 84/1/2
f 85/1/2 86/1/2 87/1/2
f 87/1/2 86/1/2 88/1/2
f 89/1/2 90/1/2 91/1/2
f 91/1/2 90/1/2 92/1/2
f 93/1/2 94/1/2 97/1/2
f 97/1/2 94/1/2 98/1/2
f 95/1/2 96/1/2 99/1/2
f 99/1/2 96/1/2 100/1/2
f 101/1/2 102/1/2 103/1/2
f 103/1/2 102/1/2 104/1/2
f 105/1/2 106/1/2 107/1/2
f 107/1/2 106/1/2 108/1/2
f 109/1/2 110/1/2 111/1/2
f 111/1/2 110/1/2 112/1/2
f 113/1/2 114/1/2 115/1/2
f 115/1/2 114/1/2 116/1/2
f 117/1/2 118/1/2 121/1/2
f 121/1/2 118/1/2 122/1/2
f 119/1/2 120/1/2 123/1/2
f 123/1/2 120/1/2 124/1/2
f 125/1/2 126/1/2 127/1/2
f 127/1/2 126/1/2 128/1/2
f 131/1/3 130/1/3 129/1/3
f 132/1/3 130/1/3 131/1/3
f 133/8/3 132/8/3 131/8/3
f 134/8/3 132/8/3 133/8/3
f 135/1/3 134/1/3 133/1/3
f 136/1/3 134/1/3 135/1/3
f 139/1/3 138/1/3 137/1/3
f 140/1/3 138/1/3 139/1/3
f 143/1/3 142/1/3 141/1/3
f 144/1/3 142/1/3 143/1/3
f 147/1/3 146/1/3 145/1/3
f 148/1/3 146/1/3 147/1/3
f 151/1/3 150/1/3 149/1/3
f 152/1/3 150/1/3 151/1/3
f 155/1/3 154/1/3 153/1/3
f 156/1/3 154/1/3 155/1/3
f 159/1/3 158/1/3 157/1/3
f 160/1/3 158/1/3 159/1/3
f 163/1/3 162/1/3 161/1/3
f 164/1/3 162/1/3 163/1/3
f 167/1/3 166/1/3 165/1/3
f 168/1/3 166/1/3 167/1/3
f 171/1/3 170/1/3 169/1/3
f 172/1/3 170/1/3 171/1/3
f 175/1/3 174/1/3 173/1/3
f 176/1/3 174/1/3 175/1/3
f 179/1/3 178/1/3 177/1/3
f 180/1/3 178/1/3 179/1/3
f 183/1/3 182/1/3 181/1/3
f 184/1/3 182/1/3 183/1/3
f 187/1/3 186/1/3 185/1/3
f 188/1/3 186/1/3 187/1/3
f 191/1/3 190/1/3 189/1/3
f 192/1/3 190/1/3 191/1/3
f 195/1/3 194/1/3 193/1/3
f 196/1/3 194/1/3 195/1/3
f 199/1/3 198/1/3 197/1/3
f 200/1/3 198/1/3 199/1/3
f 201/1/4 202/1/4 203/1/4
f 203/1/4 202/1/4 204/1/4
f 205/1/4 206/1/4 207/1/4
f 207/1/4 206/1/4 208/1/4
f 209/1/4 210/1/4 211/1/4
f 211/1/4 210/1/4 212/1/4
f 213/1/4 214/1/4 215/1/4
f 215/1/4 214/1/4 216/1/4
f 217/1/4 218/1/4 219/1/4
f 219/1/4 218/1/4 220/1/4
f 221/1/4 222/1/4 223/1/4
f 223/1/4 222/1/4 224/1/4
f 225/1/4 226/1/4 227/1/4
f 227/1/4 226/1/4 228/1/4
f 229/1/4 230/1/4 231/1/4
f 231/1/4 230/1/4 232/1/4
f 233/1/4 234/1/4 235/1/4
f 235/1/4 234/1/4 236/1/4
f 237/1/4 238/1/4 239/1/4
f 239/1/4 238/1/4 240/1/4
f 241/1/4 242/1/4 243/1/4
f 243/1/4 242/1/4 244/1/4
f 245/1/4 246/1/4 247/1/4
f 247/1/4 246/1/4 248/1/4
f 249/1/4 250/1/4 251/1/4
f 251/1/4 250/1/4 252/1/4
f 253/1/4 254/1/4 255/1/4
f 255/1/4 254/1/4 256/1/4
f 257/1/4 258/1/4 259/1/4
f 259/1/4 258/1/4 260/1/4
f 266/1/5 262/1/5 261/1/5
f 267/8/5 263/8/5 262/8/5
f 267/1/5 262/1/5 266/1/5
f 268/8/5 263/8/5 267/8/5
f 269/1/5 264/1/5 263/1/5
f 269/8/5 263/8/5 268/8/5
f 270/1/5 264/1/5 269/1/5
f 273/1/5 266/1/5 265/1/5
f 274/7/5 268/7/5 267/7/5
f 274/7/5 267/7/5 266/7/5
f 274/1/5 266/1/5 273/1/5
f 275/7/5 268/7/5 274/7/5
f 276/7/5 268/7/5 275/7/5
f 277/6/5 269/6/5 268/6/5
f 277/7/5 268/7/5 276/7/5
f 277/6/5 270/6/5 269/6/5
f 278/1/5 271/1/5 270/1/5
f 278/6/5 270/6/5 277/6/5
f 279/1/5 271/1/5 278/1/5
f 282/1/5 273/1/5 272/1/5
f 283/7/5 275/7/5 274/7/5
f 283/7/5 274/7/5 273/7/5
f 283/1/5 273/1/5 282/1/5
f 284/7/5 275/7/5 283/7/5
f 285/3/5 276/3/5 275/3/5
f 285/7/5 275/7/5 284/7/5
f 286/1/5 280/1/5 279/1/5
f 286/6/5 277/6/5 276/6/5
f 286/6/5 278/6/5 277/6/5
f 286/6/5 279/6/5 278/6/5
f 287/1/5 280/1/5 286/1/5
f 289/7/5 284/7/5 283/7/5
f 289/7/5 283/7/5 282/7/5
f 290/3/5 285/3/5 284/3/5
f 290/7/5 284/7/5 289/7/5
f 291/3/5 276/3/5 285/3/5
f 291/3/5 285/3/5 290/3/5
f 292/3/5 290/3/5 289/3/5
f 292/7/5 289/7/5 282/7/5
f 293/5/5 291/5/5 290/5/5
f 293/3/5 290/3/5 292/3/5
f 294/3/5 276/3/5 291/3/5
f 294/5/5 291/5/5 293/5/5
f 295/6/5 287/6/5 286/6/5
f 295/3/5 276/3/5 294/3/5
f 295/6/5 286/6/5 276/6/5
f 296/6/5 287/6/5 295/6/5
f 297/2/5 293/2/5 292/2/5
f 297/4/5 294/4/5 293/4/5
f 298/3/5 296/3/5 295/3/5
f 298/4/5 294/4/5 297/4/5
f 298/3/5 295/3/5 294/3/5
f 299/6/5 287/6/5 296/6/5
f 299/3/5 296/3/5 298/3/5
f 300/6/5 287/6/5 299/6/5
f 301/6/5 287/6/5 300/6/5
f 302/1/5 288/1/5 287/1/5
f 302/6/5 287/6/5 301/6/5
f 304/1/5 282/1/5 281/1/5
f 305/2/5 298/2/5 297/2/5
f 305/7/5 292/7/5 282/7/5
f 305/2/5 297/2/5 292/2/5
f 306/2/5 298/2/5 305/2/5
f 307/4/5 299/4/5 298/4/5
f 307/2/5 298/2/5 306/2/5
f 308/4/5 299/4/5 307/4/5
f 309/6/5 301/6/5 300/6/5
f 310/3/5 302/3/5 301/3/5
f 310/6/5 301/6/5 309/6/5
f 311/3/5 302/3/5 310/3/5
f 312/3/5 302/3/5 311/3/5
f 313/3/5 302/3/5 312/3/5
f 314/1/5 288/1/5 302/1/5
f 314/3/5 302/3/5 313/3/5
f 315/1/5 288/1/5 314/1/5
f 318/1/5 304/1/5 303/1/5
f 319/1/5 282/1/5 304/1/5
f 319/7/5 305/7/5 282/7/5
f 319/1/5 304/1/5 318/1/5
f 320/3/5 306/3/5 305/3/5
f 320/7/5 305/7/5 319/7/5
f 321/5/5 307/5/5 306/5/5
f 321/3/5 306/3/5 320/3/5
f 322/2/5 308/2/5 307/2/5
f 322/5/5 307/5/5 321/5/5
f 323/4/5 299/4/5 308/4/5
f 323/2/5 308/2/5 322/2/5
f 324/6/5 309/6/5 300/6/5
f 324/3/5 310/3/5 309/3/5
f 325/5/5 311/5/5 310/5/5
f 325/3/5 310/3/5 324/3/5
f 326/4/5 312/4/5 311/4/5
f 326/5/5 311/5/5 325/5/5
f 327/4/5 312/4/5 326/4/5
f 328/4/5 312/4/5 327/4/5
f 329/5/5 313/5/5 312/5/5
f 329/4/5 312/4/5 328/4/5
f 330/2/5 314/2/5 313/2/5
f 330/5/5 313/5/5 329/5/5
f 331/1/5 316/1/5 315/1/5
f 331/2/5 314/2/5 330/2/5
f 331/1/5 315/1/5 314/1/5
f 332/1/5 316/1/5 331/1/5
f 335/1/5 318/1/5 317/1/5
f 336/7/5 319/7/5 318/7/5
f 336/1/5 318/1/5 335/1/5
f 337/6/5 320/6/5 319/6/5
f 337/7/5 319/7/5 336/7/5
f 338/3/5 321/3/5 320/3/5
f 338/6/5 320/6/5 337/6/5
f 339/2/5 322/2/5 321/2/5
f 339/3/5 321/3/5 338/3/5
f 340/5/5 323/5/5 322/5/5
f 340/2/5 322/2/5 339/2/5
f 341/4/5 299/4/5 323/4/5
f 341/5/5 323/5/5 340/5/5
f 342/3/5 300/3/5 299/3/5
f 342/4/5 299/4/5 341/4/5
f 343/6/5 325/6/5 324/6/5
f 343/3/5 327/3/5 326/3/5
f 343/3/5 326/3/5 325/3/5
f 344/3/5 327/3/5 343/3/5
f 345/4/5 328/4/5 327/4/5
f 345/3/5 327/3/5 344/3/5
f 346/5/5 330/5/5 329/5/5
f 346/4/5 328/4/5 345/4/5
f 346/5/5 329/5/5 328/5/5
f 347/5/5 330/5/5 346/5/5
f 348/1/5 331/1/5 330/1/5
f 348/5/5 330/5/5 347/5/5
f 349/1/5 333/1/5 332/1/5
f 349/6/5 332/6/5 331/6/5
f 350/1/5 333/1/5 349/1/5
f 352/1/5 335/1/5 334/1/5
f 353/6/5 338/6/5 337/6/5
f 353/1/5 335/1/5 352/1/5
f 353/6/5 336/6/5 335/6/5
f 353/6/5 337/6/5 336/6/5
f 353/6/5 339/6/5 338/6/5
f 354/3/5 340/3/5 339/3/5
f 354/6/5 339/6/5 353/6/5
f 355/2/5 341/2/5 340/2/5
f 355/3/5 340/3/5 354/3/5
f 356/5/5 342/5/5 341/5/5
f 356/2/5 341/2/5 355/2/5
f 357/3/5 300/3/5 342/3/5
f 357/5/5 342/5/5 356/5/5
f 358/6/5 344/6/5 343/6/5
f 358/3/5 300/3/5 357/3/5
f 358/6/5 324/6/5 300/6/5
f 358/6/5 343/6/5 324/6/5
f 359/6/5 344/6/5 358/6/5
f 360/3/5 345/3/5 344/3/5
f 360/6/5 344/6/5 359/6/5
f 360/3/5 346/3/5 345/3/5
f 361/5/5 347/5/5 346/5/5
f 361/3/5 346/3/5 360/3/5
f 362/2/5 348/2/5 347/2/5
f 362/5/5 347/5/5 361/5/5
f 363/1/5 331/1/5 348/1/5
f 363/2/5 348/2/5 362/2/5
f 364/6/5 350/6/5 349/6/5
f 364/1/5 331/1/5 363/1/5
f 364/6/5 349/6/5 331/6/5
f 365/1/5 351/1/5 350/1/5
f 365/6/5 350/6/5 364/6/5
f 366/1/5 351/1/5 365/1/5
f 367/1/5 354/1/5 353/1/5
f 368/6/5 355/6/5 354/6/5
f 368/1/5 354/1/5 367/1/5
f 369/3/5 357/3/5 356/3/5
f 369/6/5 355/6/5 368/6/5
f 369/3/5 356/3/5 355/3/5
f 370/6/5 359/6/5 358/6/5
f 370/3/5 357/3/5 369/3/5
f 370/6/5 358/6/5 357/6/5
f 371/3/5 360/3/5 359/3/5
f 371/6/5 359/6/5 370/6/5
f 371/3/5 361/3/5 360/3/5
f 372/2/5 362/2/5 361/2/5
f 372/3/5 361/3/5 371/3/5
f 373/1/5 364/1/5 363/1/5
f 373/2/5 362/2/5 372/2/5
f 373/1/5 365/1/5 364/1/5
f 373/1/5 363/1/5 362/1/5
f 374/1/5 365/1/5 373/1/5
f 375/1/5 369/1/5 368/1/5
f 375/1/5 371/1/5 370/1/5
f 375/1/5 373/1/5 372/1/5
f 375/1/5 370/1/5 369/1/5
f 375/1/5 372/1/5 371/1/5
f 376/1/5 373/1/5 375/1/5
f 377/1/5 373/1/5 376/1/5
f 378/1/5 373/1/5 377/1/5
f 379/1/5 373/1/5 378/1/5
f 380/1/5 373/1/5 379/1/5
f 381/1/5 373/1/5 380/1/5
f 382/1/5 373/1/5 381/1/5
f 383/1/5 373/1/5 382/1/5
f 384/1/5 373/1/5 383/1/5
f 386/1/5 377/1/5 376/1/5
f 387/9/5 378/9/5 377/9/5
f 387/1/5 377/1/5 386/1/5
f 389/1/5 381/1/5 380/1/5
f 390/9/5 382/9/5 381/9/5
f 390/1/5 381/1/5 389/1/5
f 392/1/5 386/1/5 385/1/5
f 393/9/5 387/9/5 386/9/5
f 393/1/5 386/1/5 392/1/5
f 394/9/5 378/9/5 387/9/5
f 394/9/5 387/9/5 393/9/5
f 395/1/5 379/1/5 378/1/5
f 395/9/5 378/9/5 394/9/5
f 396/1/5 379/1/5 395/1/5
f 398/1/5 389/1/5 388/1/5
f 399/9/5 390/9/5 389/9/5
f 399/1/5 389/1/5 398/1/5
f 400/9/5 382/9/5 390/9/5
f 400/9/5 390/9/5 399/9/5
f 401/1/5 383/1/5 382/1/5
f 401/9/5 382/9/5 400/9/5
f 402/1/5 383/1/5 401/1/5
f 403/1/5 392/1/5 391/1/5
f 404/9/5 394/9/5 393/9/5
f 404/1/5 392/1/5 403/1/5
f 404/9/5 393/9/5 392/9/5
f 405/1/5 395/1/5 394/1/5
f 405/9/5 394/9/5 404/9/5
f 406/1/5 395/1/5 405/1/5
f 407/1/5 398/1/5 397/1/5
f 408/9/5 399/9/5 398/9/5
f 408/1/5 398/1/5 407/1/5
f 408/9/5 400/9/5 399/9/5
f 409/1/5 401/1/5 400/1/5
f 409/9/5 400/9/5 408/9/5
f 410/1/5 401/1/5 409/1/5
f 411/1/5 405/1/5 404/1/5
f 412/1/5 405/1/5 411/1/5
f 413/1/5 409/1/5 408/1/5
f 414/1/5 409/1/5 413/1/5
f 415/1/6 416/1/6 420/1/6
f 416/8/6 417/8/6 421/8/6
f 420/1/6 416/1/6 421/1/6
f 421/8/6 417/8/6 422/8/6
f 417/1/6 418/1/6 423/1/6
f 422/8/6 417/8/6 423/8/6
f 423/1/6 418/1/6 424/1/6
f 419/1/6 420/1/6 427/1/6
f 421/7/6 422/7/6 428/7/6
f 420/7/6 421/7/6 428/7/6
f 427/1/6 420/1/6 428/1/6
f 428/7/6 422/7/6 429/7/6
f 429/7/6 422/7/6 430/7/6
f 422/6/6 423/6/6 431/6/6
f 430/7/6 422/7/6 431/7/6
f 423/6/6 424/6/6 431/6/6
f 424/1/6 425/1/6 432/1/6
f 431/6/6 424/6/6 432/6/6
f 432/1/6 425/1/6 433/1/6
f 426/1/6 427/1/6 436/1/6
f 428/7/6 429/7/6 437/7/6
f 427/7/6 428/7/6 437/7/6
f 436/1/6 427/1/6 437/1/6
f 437/7/6 429/7/6 438/7/6
f 429/3/6 430/3/6 439/3/6
f 438/7/6 429/7/6 439/7/6
f 433/1/6 434/1/6 440/1/6
f 430/6/6 431/6/6 440/6/6
f 431/6/6 432/6/6 440/6/6
f 432/6/6 433/6/6 440/6/6
f 440/1/6 434/1/6 441/1/6
f 437/7/6 438/7/6 443/7/6
f 436/7/6 437/7/6 443/7/6
f 438/3/6 439/3/6 444/3/6
f 443/7/6 438/7/6 444/7/6
f 439/3/6 430/3/6 445/3/6
f 444/3/6 439/3/6 445/3/6
f 443/3/6 444/3/6 446/3/6
f 436/7/6 443/7/6 446/7/6
f 444/5/6 445/5/6 447/5/6
f 446/3/6 444/3/6 447/3/6
f 445/3/6 430/3/6 448/3/6
f 447/5/6 445/5/6 448/5/6
f 440/6/6 441/6/6 449/6/6
f 448/3/6 430/3/6 449/3/6
f 430/6/6 440/6/6 449/6/6
f 449/6/6 441/6/6 450/6/6
f 446/2/6 447/2/6 451/2/6
f 447/4/6 448/4/6 451/4/6
f 449/3/6 450/3/6 452/3/6
f 451/4/6 448/4/6 452/4/6
f 448/3/6 449/3/6 452/3/6
f 450/6/6 441/6/6 453/6/6
f 452/3/6 450/3/6 453/3/6
f 453/6/6 441/6/6 454/6/6
f 454/6/6 441/6/6 455/6/6
f 441/1/6 442/1/6 456/1/6
f 455/6/6 441/6/6 456/6/6
f 435/1/6 436/1/6 458/1/6
f 451/2/6 452/2/6 459/2/6
f 436/7/6 446/7/6 459/7/6
f 446/2/6 451/2/6 459/2/6
f 459/2/6 452/2/6 460/2/6
f 452/4/6 453/4/6 461/4/6
f 460/2/6 452/2/6 461/2/6
f 461/4/6 453/4/6 462/4/6
f 454/6/6 455/6/6 463/6/6
f 455/3/6 456/3/6 464/3/6
f 463/6/6 455/6/6 464/6/6
f 464/3/6 456/3/6 465/3/6
f 465/3/6 456/3/6 466/3/6
f 466/3/6 456/3/6 467/3/6
f 456/1/6 442/1/6 468/1/6
f 467/3/6 456/3/6 468/3/6
f 468/1/6 442/1/6 469/1/6
f 457/1/6 458/1/6 472/1/6
f 458/1/6 436/1/6 473/1/6
f 436/7/6 459/7/6 473/7/6
f 472/1/6 458/1/6 473/1/6
f 459/3/6 460/3/6 474/3/6
f 473/7/6 459/7/6 474/7/6
f 460/5/6 461/5/6 475/5/6
f 474/3/6 460/3/6 475/3/6
f 461/2/6 462/2/6 476/2/6
f 475/5/6 461/5/6 476/5/6
f 462/4/6 453/4/6 477/4/6
f 476/2/6 462/2/6 477/2/6
f 454/6/6 463/6/6 478/6/6
f 463/3/6 464/3/6 478/3/6
f 464/5/6 465/5/6 479/5/6
f 478/3/6 464/3/6 479/3/6
f 465/4/6 466/4/6 480/4/6
f 479/5/6 465/5/6 480/5/6
f 480/4/6 466/4/6 481/4/6
f 481/4/6 466/4/6 482/4/6
f 466/5/6 467/5/6 483/5/6
f 482/4/6 466/4/6 483/4/6
f 467/2/6 468/2/6 484/2/6
f 483/5/6 467/5/6 484/5/6
f 469/1/6 470/1/6 485/1/6
f 484/2/6 468/2/6 485/2/6
f 468/1/6 469/1/6 485/1/6
f 485/1/6 470/1/6 486/1/6
f 471/1/6 472/1/6 489/1/6
f 472/7/6 473/7/6 490/7/6
f 489/1/6 472/1/6 490/1/6
f 473/6/6 474/6/6 491/6/6
f 490/7/6 473/7/6 491/7/6
f 474/3/6 475/3/6 492/3/6
f 491/6/6 474/6/6 492/6/6
f 475/2/6 476/2/6 493/2/6
f 492/3/6 475/3/6 493/3/6
f 476/5/6 477/5/6 494/5/6
f 493/2/6 476/2/6 494/2/6
f 477/4/6 453/4/6 495/4/6
f 494/5/6 477/5/6 495/5/6
f 453/3/6 454/3/6 496/3/6
f 495/4/6 453/4/6 496/4/6
f 478/6/6 479/6/6 497/6/6
f 480/3/6 481/3/6 497/3/6
f 479/3/6 480/3/6 497/3/6
f 497/3/6 481/3/6 498/3/6
f 481/4/6 482/4/6 499/4/6
f 498/3/6 481/3/6 499/3/6
f 483/5/6 484/5/6 500/5/6
f 499/4/6 482/4/6 500/4/6
f 482/5/6 483/5/6 500/5/6
f 500/5/6 484/5/6 501/5/6
f 484/1/6 485/1/6 502/1/6
f 501/5/6 484/5/6 502/5/6
f 486/1/6 487/1/6 503/1/6
f 485/6/6 486/6/6 503/6/6
f 503/1/6 487/1/6 504/1/6
f 488/1/6 489/1/6 506/1/6
f 491/6/6 492/6/6 507/6/6
f 506/1/6 489/1/6 507/1/6
f 489/6/6 490/6/6 507/6/6
f 490/6/6 491/6/6 507/6/6
f 492/6/6 493/6/6 507/6/6
f 493/3/6 494/3/6 508/3/6
f 507/6/6 493/6/6 508/6/6
f 494/2/6 495/2/6 509/2/6
f 508/3/6 494/3/6 509/3/6
f 495/5/6 496/5/6 510/5/6
f 509/2/6 495/2/6 510/2/6
f 496/3/6 454/3/6 511/3/6
f 510/5/6 496/5/6 511/5/6
f 497/6/6 498/6/6 512/6/6
f 511/3/6 454/3/6 512/3/6
f 454/6/6 478/6/6 512/6/6
f 478/6/6 497/6/6 512/6/6
f 512/6/6 498/6/6 513/6/6
f 498/3/6 499/3/6 514/3/6
f 513/6/6 498/6/6 514/6/6
f 499/3/6 500/3/6 514/3/6
f 500/5/6 501/5/6 515/5/6
f 514/3/6 500/3/6 515/3/6
f 501/2/6 502/2/6 516/2/6
f 515/5/6 501/5/6 516/5/6
f 502/1/6 485/1/6 517/1/6
f 516/2/6 502/2/6 517/2/6
f 503/6/6 504/6/6 518/6/6
f 517/1/6 485/1/6 518/1/6
f 485/6/6 503/6/6 518/6/6
f 504/1/6 505/1/6 519/1/6
f 518/6/6 504/6/6 519/6/6
f 519/1/6 505/1/6 520/1/6
f 507/1/6 508/1/6 521/1/6
f 508/6/6 509/6/6 522/6/6
f 521/1/6 508/1/6 522/1/6
f 510/3/6 511/3/6 523/3/6
f 522/6/6 509/6/6 523/6/6
f 509/3/6 510/3/6 523/3/6
f 512/6/6 513/6/6 524/6/6
f 523/3/6 511/3/6 524/3/6
f 511/6/6 512/6/6 524/6/6
f 513/3/6 514/3/6 525/3/6
f 524/6/6 513/6/6 525/6/6
f 514/3/6 515/3/6 525/3/6
f 515/2/6 516/2/6 526/2/6
f 525/3/6 515/3/6 526/3/6
f 517/1/6 518/1/6 527/1/6
f 526/2/6 516/2/6 527/2/6
f 518/1/6 519/1/6 527/1/6
f 516/1/6 517/1/6 527/1/6
f 527/1/6 519/1/6 528/1/6
f 522/1/6 523/1/6 529/1/6
f 524/1/6 525/1/6 529/1/6
f 526/1/6 527/1/6 529/1/6
f 523/1/6 524/1/6 529/1/6
f 525/1/6 526/1/6 529/1/6
f 529/1/6 527/1/6 530/1/6
f 530/1/6 527/1/6 531/1/6
f 531/1/6 527/1/6 532/1/6
f 532/1/6 527/1/6 533/1/6
f 533/1/6 527/1/6 534/1/6
f 534/1/6 527/1/6 535/1/6
f 535/1/6 527/1/6 536/1/6
f 536/1/6 527/1/6 537/1/6
f 537/1/6 527/1/6 538/1/6
f 530/1/6 531/1/6 540/1/6
f 531/9/6 532/9/6 541/9/6
f 540/1/6 531/1/6 541/1/6
f 534/1/6 535/1/6 543/1/6
f 535/9/6 536/9/6 544/9/6
f 543/1/6 535/1/6 544/1/6
f 539/1/6 540/1/6 546/1/6
f 540/9/6 541/9/6 547/9/6
f 546/1/6 540/1/6 547/1/6
f 541/9/6 532/9/6 548/9/6
f 547/9/6 541/9/6 548/9/6
f 532/1/6 533/1/6 549/1/6
f 548/9/6 532/9/6 549/9/6
f 549/1/6 533/1/6 550/1/6
f 542/1/6 543/1/6 552/1/6
f 543/9/6 544/9/6 553/9/6
f 552/1/6 543/1/6 553/1/6
f 544/9/6 536/9/6 554/9/6
f 553/9/6 544/9/6 554/9/6
f 536/1/6 537/1/6 555/1/6
f 554/9/6 536/9/6 555/9/6
f 555/1/6 537/1/6 556/1/6
f 545/1/6 546/1/6 557/1/6
f 547/9/6 548/9/6 558/9/6
f 557/1/6 546/1/6 558/1/6
f 546/9/6 547/9/6 558/9/6
f 548/1/6 549/1/6 559/1/6
f 558/9/6 548/9/6 559/9/6
f 559/1/6 549/1/6 560/1/6
f 551/1/6 552/1/6 561/1/6
f 552/9/6 553/9/6 562/9/6
f 561/1/6 552/1/6 562/1/6
f 553/9/6 554/9/6 562/9/6
f 554/1/6 555/1/6 563/1/6
f 562/9/6 554/9/6 563/9/6
f 563/1/6 555/1/6 564/1/6
f 558/1/6 559/1/6 565/1/6
f 565/1/6 559/1/6 566/1/6
f 562/1/6 563/1/6 567/1/6
f 567/1/6 563/1/6 568/1/6
