# MagicaVoxel @ Ephtracy

# group
o GoatHead

# material
mtllib GoatHead-1-GoatHead.mtl
usemtl palette

# normals
vn -1 0 0
vn 1 0 0
vn 0 -1 0
vn 0 1 0
vn 0 0 -1
vn 0 0 1

# texcoords
vt 0.00195312 0.5
vt 0.00585938 0.5
vt 0.00976562 0.5
vt 0.0136719 0.5
vt 0.0175781 0.5
vt 0.0214844 0.5
vt 0.0253906 0.5
vt 0.0332031 0.5
vt 0.0371094 0.5
vt 0.0410156 0.5
vt 0.0449219 0.5

# verts
v -1.2 1 -0.1
v -1.2 1.1 -0.1
v -1.2 1 0
v -1.2 1.1 0
v -1.1 0.9 -0.1
v -1.1 1 -0.1
v -1.1 1.1 -0.1
v -1.1 1.2 -0.1
v -1.1 0.9 0
v -1.1 1 0
v -1.1 1.1 0
v -1.1 1.2 0
v -1 0.8 -0.1
v -1 0.9 -0.1
v -1 0.8 0
v -1 0.9 0
v -0.8 0.3 -0.1
v -0.8 0.8 -0.1
v -0.8 0.3 0
v -0.8 0.8 0
v -0.7 0.2 -0.1
v -0.7 0.3 -0.1
v -0.7 0.2 0
v -0.7 0.3 0
v -0.6 0.1 -0.1
v -0.6 0.2 -0.1
v -0.6 1.6 -0.1
v -0.6 1.7 -0.1
v -0.6 0.1 0
v -0.6 0.2 0
v -0.6 1.6 0
v -0.6 1.7 0
v -0.5 0 -0.1
v -0.5 0.1 -0.1
v -0.5 1.2 -0.1
v -0.5 1.3 -0.1
v -0.5 1.5 -0.1
v -0.5 1.6 -0.1
v -0.5 1.7 -0.1
v -0.5 1.8 -0.1
v -0.5 0 0
v -0.5 0.1 0
v -0.5 1.2 0
v -0.5 1.3 0
v -0.5 1.5 0
v -0.5 1.6 0
v -0.5 1.7 0
v -0.5 1.8 0
v -0.4 1.3 -0.1
v -0.4 1.5 -0.1
v -0.4 1.3 0
v -0.4 1.5 0
v 0.3 1.3 -0.1
v 0.3 1.4 -0.1
v 0.3 1.3 0
v 0.3 1.4 0
v -0.3 1.7 -0.1
v -0.3 1.8 -0.1
v -0.3 1.7 0
v -0.3 1.8 0
v -0.2 1.6 -0.1
v -0.2 1.7 -0.1
v -0.2 1.6 0
v -0.2 1.7 0
v -0.1 1.3 -0.1
v -0.1 1.6 -0.1
v -0.1 1.3 0
v -0.1 1.6 0
v 0.4 1.3 -0.1
v 0.4 1.4 -0.1
v 0.4 1.3 0
v 0.4 1.4 0
v 0.5 1.2 -0.1
v 0.5 1.3 -0.1
v 0.5 1.2 0
v 0.5 1.3 0
v 0.6 1.1 -0.1
v 0.6 1.2 -0.1
v 0.6 1.1 0
v 0.6 1.2 0
v 0.7 0 -0.1
v 0.7 0.1 -0.1
v 0.7 1 -0.1
v 0.7 1.1 -0.1
v 0.7 0 0
v 0.7 0.1 0
v 0.7 1 0
v 0.7 1.1 0
v 0.8 0.1 -0.1
v 0.8 0.2 -0.1
v 0.8 0.9 -0.1
v 0.8 1 -0.1
v 0.8 0.1 0
v 0.8 0.2 0
v 0.8 0.9 0
v 0.8 1 0
v 0.9 0.2 -0.1
v 0.9 0.3 -0.1
v 0.9 0.5 -0.1
v 0.9 0.9 -0.1
v 0.9 0.2 0
v 0.9 0.3 0
v 0.9 0.5 0
v 0.9 0.9 0
v 1 0.3 -0.1
v 1 0.5 -0.1
v 1 0.3 0
v 1 0.5 0
v -0.5 0 -0.1
v -0.5 0 0
v -0.2 0 -0.1
v -0.2 0 0
v 0.4 0 -0.1
v 0.4 0 0
v 0.7 0 -0.1
v 0.7 0 0
v -0.6 0.1 -0.1
v -0.6 0.1 0
v -0.5 0.1 -0.1
v -0.5 0.1 0
v 0.7 0.1 -0.1
v 0.7 0.1 0
v 0.8 0.1 -0.1
v 0.8 0.1 0
v -0.7 0.2 -0.1
v -0.7 0.2 0
v -0.6 0.2 -0.1
v -0.6 0.2 0
v 0.8 0.2 -0.1
v 0.8 0.2 0
v 0.9 0.2 -0.1
v 0.9 0.2 0
v -0.8 0.3 -0.1
v -0.8 0.3 0
v -0.7 0.3 -0.1
v -0.7 0.3 0
v 0.9 0.3 -0.1
v 0.9 0.3 0
v 1 0.3 -0.1
v 1 0.3 0
v -1 0.8 -0.1
v -1 0.8 0
v -0.8 0.8 -0.1
v -0.8 0.8 0
v -1.1 0.9 -0.1
v -1.1 0.9 0
v -1 0.9 -0.1
v -1 0.9 0
v -1.2 1 -0.1
v -1.2 1 0
v -1.1 1 -0.1
v -1.1 1 0
v -0.5 1.5 -0.1
v -0.5 1.5 0
v -0.4 1.5 -0.1
v -0.4 1.5 0
v -0.6 1.6 -0.1
v -0.6 1.6 0
v -0.5 1.6 -0.1
v -0.5 1.6 0
v 0.9 0.5 -0.1
v 0.9 0.5 0
v 1 0.5 -0.1
v 1 0.5 0
v 0.8 0.9 -0.1
v 0.8 0.9 0
v 0.9 0.9 -0.1
v 0.9 0.9 0
v 0.7 1 -0.1
v 0.7 1 0
v 0.8 1 -0.1
v 0.8 1 0
v -1.2 1.1 -0.1
v -1.2 1.1 0
v -1.1 1.1 -0.1
v -1.1 1.1 0
v 0.6 1.1 -0.1
v 0.6 1.1 0
v 0.7 1.1 -0.1
v 0.7 1.1 0
v -1.1 1.2 -0.1
v -1.1 1.2 0
v -0.5 1.2 -0.1
v -0.5 1.2 0
v 0.5 1.2 -0.1
v 0.5 1.2 0
v 0.6 1.2 -0.1
v 0.6 1.2 0
v -0.5 1.3 -0.1
v -0.5 1.3 0
v -0.4 1.3 -0.1
v -0.4 1.3 0
v -0.1 1.3 -0.1
v -0.1 1.3 0
v 0.3 1.3 -0.1
v 0.3 1.3 0
v 0.4 1.3 -0.1
v 0.4 1.3 0
v 0.5 1.3 -0.1
v 0.5 1.3 0
v 0.3 1.4 -0.1
v 0.3 1.4 0
v 0.4 1.4 -0.1
v 0.4 1.4 0
v -0.2 1.6 -0.1
v -0.2 1.6 0
v -0.1 1.6 -0.1
v -0.1 1.6 0
v -0.6 1.7 -0.1
v -0.6 1.7 0
v -0.5 1.7 -0.1
v -0.5 1.7 0
v -0.3 1.7 -0.1
v -0.3 1.7 0
v -0.2 1.7 -0.1
v -0.2 1.7 0
v -0.5 1.8 -0.1
v -0.5 1.8 0
v -0.3 1.8 -0.1
v -0.3 1.8 0
v -0.5 0 -0.1
v -0.2 0 -0.1
v 0.4 0 -0.1
v 0.7 0 -0.1
v -0.6 0.1 -0.1
v -0.5 0.1 -0.1
v -0.2 0.1 -0.1
v 0.0999999 0.1 -0.1
v 0.4 0.1 -0.1
v 0.7 0.1 -0.1
v 0.8 0.1 -0.1
v -0.7 0.2 -0.1
v -0.6 0.2 -0.1
v -0.5 0.2 -0.1
v -0.4 0.2 -0.1
v -0.3 0.2 -0.1
v 0.0999999 0.2 -0.1
v 0.7 0.2 -0.1
v 0.8 0.2 -0.1
v 0.9 0.2 -0.1
v -0.8 0.3 -0.1
v -0.7 0.3 -0.1
v -0.6 0.3 -0.1
v -0.5 0.3 -0.1
v -0.4 0.3 -0.1
v 0.6 0.3 -0.1
v 0.7 0.3 -0.1
v 0.8 0.3 -0.1
v 0.9 0.3 -0.1
v 1 0.3 -0.1
v -0.6 0.4 -0.1
v -0.5 0.4 -0.1
v -0.4 0.4 -0.1
v 0.7 0.4 -0.1
v 0.8 0.4 -0.1
v -0.6 0.5 -0.1
v -0.5 0.5 -0.1
v -0.4 0.5 -0.1
v -0.3 0.5 -0.1
v -0.2 0.5 -0.1
v 0.4 0.5 -0.1
v 0.6 0.5 -0.1
v 0.7 0.5 -0.1
v 0.8 0.5 -0.1
v 0.9 0.5 -0.1
v 1 0.5 -0.1
v -0.5 0.6 -0.1
v -0.4 0.6 -0.1
v -0.2 0.6 -0.1
v -0.1 0.6 -0.1
v 0.3 0.6 -0.1
v 0.4 0.6 -0.1
v 0.5 0.6 -0.1
v 0.6 0.6 -0.1
v 0.7 0.6 -0.1
v 0.8 0.6 -0.1
v 0.2 0.7 -0.1
v 0.3 0.7 -0.1
v 0.4 0.7 -0.1
v 0.5 0.7 -0.1
v 0.6 0.7 -0.1
v 0.7 0.7 -0.1
v -1 0.8 -0.1
v -0.8 0.8 -0.1
v -0.6 0.8 -0.1
v -0.5 0.8 -0.1
v -0.4 0.8 -0.1
v -0.3 0.8 -0.1
v 0.0999999 0.8 -0.1
v 0.2 0.8 -0.1
v 0.3 0.8 -0.1
v 0.4 0.8 -0.1
v 0.5 0.8 -0.1
v 0.6 0.8 -0.1
v 0.7 0.8 -0.1
v 0.8 0.8 -0.1
v -1.1 0.9 -0.1
v -1 0.9 -0.1
v -0.7 0.9 -0.1
v -0.6 0.9 -0.1
v -0.5 0.9 -0.1
v -0.4 0.9 -0.1
v -0.3 0.9 -0.1
v 0.0999999 0.9 -0.1
v 0.2 0.9 -0.1
v 0.3 0.9 -0.1
v 0.4 0.9 -0.1
v 0.5 0.9 -0.1
v 0.6 0.9 -0.1
v 0.7 0.9 -0.1
v 0.8 0.9 -0.1
v 0.9 0.9 -0.1
v -1.2 1 -0.1
v -1.1 1 -0.1
v -1 1 -0.1
v -0.7 1 -0.1
v -0.6 1 -0.1
v -0.5 1 -0.1
v -0.4 1 -0.1
v -0.3 1 -0.1
v -0.2 1 -0.1
v 0.2 1 -0.1
v 0.3 1 -0.1
v 0.4 1 -0.1
v 0.5 1 -0.1
v 0.6 1 -0.1
v 0.7 1 -0.1
v 0.8 1 -0.1
v -1.2 1.1 -0.1
v -1.1 1.1 -0.1
v -0.5 1.1 -0.1
v -0.4 1.1 -0.1
v -0.3 1.1 -0.1
v -0.2 1.1 -0.1
v -0.1 1.1 -0.1
v 0 1.1 -0.1
v 0.0999999 1.1 -0.1
v 0.2 1.1 -0.1
v 0.3 1.1 -0.1
v 0.4 1.1 -0.1
v 0.5 1.1 -0.1
v 0.6 1.1 -0.1
v 0.7 1.1 -0.1
v -1.1 1.2 -0.1
v -0.5 1.2 -0.1
v -0.4 1.2 -0.1
v -0.2 1.2 -0.1
v 0 1.2 -0.1
v 0.2 1.2 -0.1
v 0.3 1.2 -0.1
v 0.5 1.2 -0.1
v 0.6 1.2 -0.1
v -0.5 1.3 -0.1
v -0.4 1.3 -0.1
v -0.3 1.3 -0.1
v -0.2 1.3 -0.1
v -0.1 1.3 -0.1
v 0.3 1.3 -0.1
v 0.4 1.3 -0.1
v 0.5 1.3 -0.1
v 0.3 1.4 -0.1
v 0.4 1.4 -0.1
v -0.5 1.5 -0.1
v -0.4 1.5 -0.1
v -0.3 1.5 -0.1
v -0.6 1.6 -0.1
v -0.5 1.6 -0.1
v -0.4 1.6 -0.1
v -0.3 1.6 -0.1
v -0.2 1.6 -0.1
v -0.1 1.6 -0.1
v -0.6 1.7 -0.1
v -0.5 1.7 -0.1
v -0.3 1.7 -0.1
v -0.2 1.7 -0.1
v -0.5 1.8 -0.1
v -0.3 1.8 -0.1
v -0.5 0 0
v -0.2 0 0
v 0.4 0 0
v 0.7 0 0
v -0.6 0.1 0
v -0.5 0.1 0
v -0.2 0.1 0
v 0.0999999 0.1 0
v 0.4 0.1 0
v 0.7 0.1 0
v 0.8 0.1 0
v -0.7 0.2 0
v -0.6 0.2 0
v -0.5 0.2 0
v -0.4 0.2 0
v -0.3 0.2 0
v 0.0999999 0.2 0
v 0.7 0.2 0
v 0.8 0.2 0
v 0.9 0.2 0
v -0.8 0.3 0
v -0.7 0.3 0
v -0.6 0.3 0
v -0.5 0.3 0
v -0.4 0.3 0
v 0.6 0.3 0
v 0.7 0.3 0
v 0.8 0.3 0
v 0.9 0.3 0
v 1 0.3 0
v -0.6 0.4 0
v -0.5 0.4 0
v -0.4 0.4 0
v 0.7 0.4 0
v 0.8 0.4 0
v -0.6 0.5 0
v -0.5 0.5 0
v -0.4 0.5 0
v -0.3 0.5 0
v -0.2 0.5 0
v 0.4 0.5 0
v 0.6 0.5 0
v 0.7 0.5 0
v 0.8 0.5 0
v 0.9 0.5 0
v 1 0.5 0
v -0.5 0.6 0
v -0.4 0.6 0
v -0.2 0.6 0
v -0.1 0.6 0
v 0.3 0.6 0
v 0.4 0.6 0
v 0.5 0.6 0
v 0.6 0.6 0
v 0.7 0.6 0
v 0.8 0.6 0
v 0.2 0.7 0
v 0.3 0.7 0
v 0.4 0.7 0
v 0.5 0.7 0
v 0.6 0.7 0
v 0.7 0.7 0
v -1 0.8 0
v -0.8 0.8 0
v -0.6 0.8 0
v -0.5 0.8 0
v -0.4 0.8 0
v -0.3 0.8 0
v 0.0999999 0.8 0
v 0.2 0.8 0
v 0.3 0.8 0
v 0.4 0.8 0
v 0.5 0.8 0
v 0.6 0.8 0
v 0.7 0.8 0
v 0.8 0.8 0
v -1.1 0.9 0
v -1 0.9 0
v -0.7 0.9 0
v -0.6 0.9 0
v -0.5 0.9 0
v -0.4 0.9 0
v -0.3 0.9 0
v 0.0999999 0.9 0
v 0.2 0.9 0
v 0.3 0.9 0
v 0.4 0.9 0
v 0.5 0.9 0
v 0.6 0.9 0
v 0.7 0.9 0
v 0.8 0.9 0
v 0.9 0.9 0
v -1.2 1 0
v -1.1 1 0
v -1 1 0
v -0.7 1 0
v -0.6 1 0
v -0.5 1 0
v -0.4 1 0
v -0.3 1 0
v -0.2 1 0
v 0.2 1 0
v 0.3 1 0
v 0.4 1 0
v 0.5 1 0
v 0.6 1 0
v 0.7 1 0
v 0.8 1 0
v -1.2 1.1 0
v -1.1 1.1 0
v -0.5 1.1 0
v -0.4 1.1 0
v -0.3 1.1 0
v -0.2 1.1 0
v -0.1 1.1 0
v 0 1.1 0
v 0.0999999 1.1 0
v 0.2 1.1 0
v 0.3 1.1 0
v 0.4 1.1 0
v 0.5 1.1 0
v 0.6 1.1 0
v 0.7 1.1 0
v -1.1 1.2 0
v -0.5 1.2 0
v -0.4 1.2 0
v -0.2 1.2 0
v 0 1.2 0
v 0.2 1.2 0
v 0.3 1.2 0
v 0.5 1.2 0
v 0.6 1.2 0
v -0.5 1.3 0
v -0.4 1.3 0
v -0.3 1.3 0
v -0.2 1.3 0
v -0.1 1.3 0
v 0.3 1.3 0
v 0.4 1.3 0
v 0.5 1.3 0
v 0.3 1.4 0
v 0.4 1.4 0
v -0.5 1.5 0
v -0.4 1.5 0
v -0.3 1.5 0
v -0.6 1.6 0
v -0.5 1.6 0
v -0.4 1.6 0
v -0.3 1.6 0
v -0.2 1.6 0
v -0.1 1.6 0
v -0.6 1.7 0
v -0.5 1.7 0
v -0.3 1.7 0
v -0.2 1.7 0
v -0.5 1.8 0
v -0.3 1.8 0

# faces
f 3/1/1 2/1/1 1/1/1
f 4/1/1 2/1/1 3/1/1
f 9/1/1 6/1/1 5/1/1
f 10/1/1 6/1/1 9/1/1
f 11/1/1 8/1/1 7/1/1
f 12/1/1 8/1/1 11/1/1
f 15/1/1 14/1/1 13/1/1
f 16/1/1 14/1/1 15/1/1
f 19/1/1 18/1/1 17/1/1
f 20/1/1 18/1/1 19/1/1
f 23/1/1 22/1/1 21/1/1
f 24/1/1 22/1/1 23/1/1
f 29/1/1 26/1/1 25/1/1
f 30/1/1 26/1/1 29/1/1
f 31/1/1 28/1/1 27/1/1
f 32/1/1 28/1/1 31/1/1
f 41/1/1 34/1/1 33/1/1
f 42/1/1 34/1/1 41/1/1
f 43/1/1 36/1/1 35/1/1
f 44/1/1 36/1/1 43/1/1
f 45/1/1 38/1/1 37/1/1
f 46/1/1 38/1/1 45/1/1
f 47/1/1 40/1/1 39/1/1
f 48/1/1 40/1/1 47/1/1
f 51/1/1 50/1/1 49/1/1
f 52/1/1 50/1/1 51/1/1
f 55/1/1 54/1/1 53/1/1
f 56/1/1 54/1/1 55/1/1
f 57/1/2 58/1/2 59/1/2
f 59/1/2 58/1/2 60/1/2
f 61/1/2 62/1/2 63/1/2
f 63/1/2 62/1/2 64/1/2
f 65/1/2 66/1/2 67/1/2
f 67/1/2 66/1/2 68/1/2
f 69/1/2 70/1/2 71/1/2
f 71/1/2 70/1/2 72/1/2
f 73/1/2 74/1/2 75/1/2
f 75/1/2 74/1/2 76/1/2
f 77/1/2 78/1/2 79/1/2
f 79/1/2 78/1/2 80/1/2
f 81/1/2 82/1/2 85/1/2
f 85/1/2 82/1/2 86/1/2
f 83/1/2 84/1/2 87/1/2
f 87/1/2 84/1/2 88/1/2
f 89/1/2 90/1/2 93/1/2
f 93/1/2 90/1/2 94/1/2
f 91/1/2 92/1/2 95/1/2
f 95/1/2 92/1/2 96/1/2
f 97/1/2 98/1/2 101/1/2
f 101/1/2 98/1/2 102/1/2
f 99/1/2 100/1/2 103/1/2
f 103/1/2 100/1/2 104/1/2
f 105/1/2 106/1/2 107/1/2
f 107/1/2 106/1/2 108/1/2
f 111/1/3 110/1/3 109/1/3
f 112/1/3 110/1/3 111/1/3
f 113/10/3 112/10/3 111/10/3
f 114/10/3 112/10/3 113/10/3
f 115/1/3 114/1/3 113/1/3
f 116/1/3 114/1/3 115/1/3
f 119/1/3 118/1/3 117/1/3
f 120/1/3 118/1/3 119/1/3
f 123/1/3 122/1/3 121/1/3
f 124/1/3 122/1/3 123/1/3
f 127/1/3 126/1/3 125/1/3
f 128/1/3 126/1/3 127/1/3
f 131/1/3 130/1/3 129/1/3
f 132/1/3 130/1/3 131/1/3
f 135/1/3 134/1/3 133/1/3
f 136/1/3 134/1/3 135/1/3
f 139/1/3 138/1/3 137/1/3
f 140/1/3 138/1/3 139/1/3
f 143/1/3 142/1/3 141/1/3
f 144/1/3 142/1/3 143/1/3
f 147/1/3 146/1/3 145/1/3
f 148/1/3 146/1/3 147/1/3
f 151/1/3 150/1/3 149/1/3
f 152/1/3 150/1/3 151/1/3
f 155/1/3 154/1/3 153/1/3
f 156/1/3 154/1/3 155/1/3
f 159/1/3 158/1/3 157/1/3
f 160/1/3 158/1/3 159/1/3
f 161/1/4 162/1/4 163/1/4
f 163/1/4 162/1/4 164/1/4
f 165/1/4 166/1/4 167/1/4
f 167/1/4 166/1/4 168/1/4
f 169/1/4 170/1/4 171/1/4
f 171/1/4 170/1/4 172/1/4
f 173/1/4 174/1/4 175/1/4
f 175/1/4 174/1/4 176/1/4
f 177/1/4 178/1/4 179/1/4
f 179/1/4 178/1/4 180/1/4
f 181/1/4 182/1/4 183/1/4
f 183/1/4 182/1/4 184/1/4
f 185/1/4 186/1/4 187/1/4
f 187/1/4 186/1/4 188/1/4
f 189/1/4 190/1/4 191/1/4
f 191/1/4 190/1/4 192/1/4
f 193/1/4 194/1/4 195/1/4
f 195/1/4 194/1/4 196/1/4
f 197/1/4 198/1/4 199/1/4
f 199/1/4 198/1/4 200/1/4
f 201/1/4 202/1/4 203/1/4
f 203/1/4 202/1/4 204/1/4
f 205/1/4 206/1/4 207/1/4
f 207/1/4 206/1/4 208/1/4
f 209/1/4 210/1/4 211/1/4
f 211/1/4 210/1/4 212/1/4
f 213/1/4 214/1/4 215/1/4
f 215/1/4 214/1/4 216/1/4
f 217/1/4 218/1/4 219/1/4
f 219/1/4 218/1/4 220/1/4
f 226/1/5 222/1/5 221/1/5
f 227/10/5 223/10/5 222/10/5
f 227/1/5 222/1/5 226/1/5
f 228/10/5 223/10/5 227/10/5
f 229/1/5 224/1/5 223/1/5
f 229/10/5 223/10/5 228/10/5
f 230/1/5 224/1/5 229/1/5
f 233/1/5 226/1/5 225/1/5
f 234/9/5 228/9/5 227/9/5
f 234/9/5 227/9/5 226/9/5
f 234/1/5 226/1/5 233/1/5
f 235/9/5 228/9/5 234/9/5
f 236/9/5 228/9/5 235/9/5
f 237/8/5 229/8/5 228/8/5
f 237/9/5 228/9/5 236/9/5
f 237/8/5 230/8/5 229/8/5
f 238/1/5 231/1/5 230/1/5
f 238/8/5 230/8/5 237/8/5
f 239/1/5 231/1/5 238/1/5
f 242/1/5 233/1/5 232/1/5
f 243/9/5 235/9/5 234/9/5
f 243/9/5 234/9/5 233/9/5
f 243/1/5 233/1/5 242/1/5
f 244/9/5 235/9/5 243/9/5
f 245/3/5 236/3/5 235/3/5
f 245/9/5 235/9/5 244/9/5
f 246/8/5 237/8/5 236/8/5
f 246/8/5 238/8/5 237/8/5
f 246/8/5 239/8/5 238/8/5
f 247/8/5 239/8/5 246/8/5
f 248/1/5 240/1/5 239/1/5
f 248/8/5 239/8/5 247/8/5
f 249/1/5 240/1/5 248/1/5
f 251/9/5 244/9/5 243/9/5
f 251/9/5 243/9/5 242/9/5
f 252/3/5 245/3/5 244/3/5
f 252/9/5 244/9/5 251/9/5
f 253/3/5 236/3/5 245/3/5
f 253/3/5 245/3/5 252/3/5
f 254/3/5 247/3/5 246/3/5
f 254/8/5 248/8/5 247/8/5
f 255/3/5 249/3/5 248/3/5
f 255/8/5 248/8/5 254/8/5
f 256/3/5 252/3/5 251/3/5
f 256/9/5 251/9/5 242/9/5
f 257/7/5 253/7/5 252/7/5
f 257/3/5 252/3/5 256/3/5
f 258/3/5 236/3/5 253/3/5
f 258/7/5 253/7/5 257/7/5
f 259/8/5 246/8/5 236/8/5
f 259/3/5 236/3/5 258/3/5
f 260/8/5 246/8/5 259/8/5
f 261/8/5 246/8/5 260/8/5
f 262/3/5 255/3/5 254/3/5
f 262/8/5 246/8/5 261/8/5
f 262/3/5 254/3/5 246/3/5
f 263/3/5 255/3/5 262/3/5
f 264/3/5 249/3/5 255/3/5
f 264/3/5 255/3/5 263/3/5
f 265/1/5 250/1/5 249/1/5
f 265/3/5 249/3/5 264/3/5
f 266/1/5 250/1/5 265/1/5
f 267/2/5 257/2/5 256/2/5
f 267/6/5 258/6/5 257/6/5
f 268/3/5 260/3/5 259/3/5
f 268/6/5 258/6/5 267/6/5
f 268/3/5 259/3/5 258/3/5
f 269/8/5 261/8/5 260/8/5
f 269/3/5 260/3/5 268/3/5
f 270/8/5 261/8/5 269/8/5
f 271/8/5 261/8/5 270/8/5
f 272/3/5 262/3/5 261/3/5
f 272/8/5 261/8/5 271/8/5
f 273/3/5 262/3/5 272/3/5
f 274/2/5 263/2/5 262/2/5
f 274/3/5 262/3/5 273/3/5
f 275/6/5 264/6/5 263/6/5
f 275/2/5 263/2/5 274/2/5
f 276/1/5 265/1/5 264/1/5
f 276/6/5 264/6/5 275/6/5
f 277/8/5 271/8/5 270/8/5
f 278/3/5 272/3/5 271/3/5
f 278/8/5 271/8/5 277/8/5
f 279/2/5 273/2/5 272/2/5
f 279/3/5 272/3/5 278/3/5
f 280/7/5 274/7/5 273/7/5
f 280/2/5 273/2/5 279/2/5
f 280/7/5 275/7/5 274/7/5
f 281/7/5 275/7/5 280/7/5
f 282/4/5 276/4/5 275/4/5
f 282/7/5 275/7/5 281/7/5
f 284/1/5 242/1/5 241/1/5
f 285/2/5 268/2/5 267/2/5
f 285/2/5 267/2/5 256/2/5
f 285/9/5 256/9/5 242/9/5
f 286/2/5 268/2/5 285/2/5
f 287/6/5 269/6/5 268/6/5
f 287/2/5 268/2/5 286/2/5
f 288/6/5 269/6/5 287/6/5
f 289/8/5 277/8/5 270/8/5
f 290/3/5 278/3/5 277/3/5
f 290/8/5 277/8/5 289/8/5
f 291/7/5 279/7/5 278/7/5
f 291/3/5 278/3/5 290/3/5
f 291/7/5 280/7/5 279/7/5
f 292/7/5 280/7/5 291/7/5
f 293/6/5 281/6/5 280/6/5
f 293/7/5 280/7/5 292/7/5
f 294/5/5 282/5/5 281/5/5
f 294/6/5 281/6/5 293/6/5
f 295/4/5 276/4/5 282/4/5
f 295/5/5 282/5/5 294/5/5
f 296/1/5 265/1/5 276/1/5
f 296/4/5 276/4/5 295/4/5
f 298/1/5 284/1/5 283/1/5
f 299/1/5 242/1/5 284/1/5
f 299/9/5 285/9/5 242/9/5
f 299/1/5 284/1/5 298/1/5
f 300/3/5 286/3/5 285/3/5
f 300/9/5 285/9/5 299/9/5
f 301/7/5 287/7/5 286/7/5
f 301/3/5 286/3/5 300/3/5
f 302/2/5 288/2/5 287/2/5
f 302/7/5 287/7/5 301/7/5
f 303/6/5 269/6/5 288/6/5
f 303/2/5 288/2/5 302/2/5
f 304/8/5 289/8/5 270/8/5
f 304/3/5 290/3/5 289/3/5
f 305/2/5 291/2/5 290/2/5
f 305/3/5 290/3/5 304/3/5
f 306/6/5 292/6/5 291/6/5
f 306/2/5 291/2/5 305/2/5
f 307/7/5 293/7/5 292/7/5
f 307/6/5 292/6/5 306/6/5
f 308/4/5 294/4/5 293/4/5
f 308/7/5 293/7/5 307/7/5
f 308/4/5 295/4/5 294/4/5
f 309/4/5 295/4/5 308/4/5
f 310/5/5 296/5/5 295/5/5
f 310/4/5 295/4/5 309/4/5
f 311/1/5 265/1/5 296/1/5
f 311/5/5 296/5/5 310/5/5
f 312/1/5 265/1/5 311/1/5
f 314/1/5 298/1/5 297/1/5
f 315/9/5 299/9/5 298/9/5
f 315/1/5 298/1/5 314/1/5
f 316/8/5 300/8/5 299/8/5
f 316/9/5 299/9/5 315/9/5
f 317/3/5 301/3/5 300/3/5
f 317/8/5 300/8/5 316/8/5
f 318/2/5 302/2/5 301/2/5
f 318/3/5 301/3/5 317/3/5
f 319/7/5 303/7/5 302/7/5
f 319/2/5 302/2/5 318/2/5
f 320/6/5 269/6/5 303/6/5
f 320/7/5 303/7/5 319/7/5
f 321/3/5 270/3/5 269/3/5
f 321/6/5 269/6/5 320/6/5
f 322/2/5 305/2/5 304/2/5
f 322/2/5 306/2/5 305/2/5
f 323/7/5 307/7/5 306/7/5
f 323/2/5 306/2/5 322/2/5
f 324/5/5 308/5/5 307/5/5
f 324/7/5 307/7/5 323/7/5
f 325/4/5 309/4/5 308/4/5
f 325/5/5 308/5/5 324/5/5
f 326/5/5 310/5/5 309/5/5
f 326/4/5 309/4/5 325/4/5
f 327/1/5 311/1/5 310/1/5
f 327/5/5 310/5/5 326/5/5
f 328/1/5 311/1/5 327/1/5
f 329/1/5 314/1/5 313/1/5
f 330/8/5 318/8/5 317/8/5
f 330/1/5 314/1/5 329/1/5
f 330/8/5 317/8/5 316/8/5
f 330/8/5 316/8/5 315/8/5
f 330/8/5 315/8/5 314/8/5
f 331/3/5 319/3/5 318/3/5
f 331/8/5 318/8/5 330/8/5
f 332/2/5 320/2/5 319/2/5
f 332/3/5 319/3/5 331/3/5
f 333/7/5 321/7/5 320/7/5
f 333/2/5 320/2/5 332/2/5
f 334/3/5 270/3/5 321/3/5
f 334/7/5 321/7/5 333/7/5
f 335/8/5 304/8/5 270/8/5
f 335/3/5 270/3/5 334/3/5
f 336/8/5 304/8/5 335/8/5
f 337/2/5 322/2/5 304/2/5
f 337/8/5 304/8/5 336/8/5
f 338/7/5 323/7/5 322/7/5
f 338/2/5 322/2/5 337/2/5
f 339/4/5 324/4/5 323/4/5
f 339/7/5 323/7/5 338/7/5
f 340/5/5 325/5/5 324/5/5
f 340/4/5 324/4/5 339/4/5
f 340/5/5 326/5/5 325/5/5
f 341/5/5 326/5/5 340/5/5
f 342/1/5 327/1/5 326/1/5
f 342/5/5 326/5/5 341/5/5
f 343/1/5 327/1/5 342/1/5
f 344/1/5 331/1/5 330/1/5
f 345/8/5 332/8/5 331/8/5
f 345/1/5 331/1/5 344/1/5
f 346/3/5 333/3/5 332/3/5
f 346/8/5 332/8/5 345/8/5
f 346/3/5 334/3/5 333/3/5
f 347/8/5 336/8/5 335/8/5
f 347/3/5 334/3/5 346/3/5
f 347/8/5 335/8/5 334/8/5
f 348/3/5 338/3/5 337/3/5
f 348/8/5 336/8/5 347/8/5
f 348/3/5 337/3/5 336/3/5
f 349/2/5 339/2/5 338/2/5
f 349/3/5 338/3/5 348/3/5
f 350/5/5 341/5/5 340/5/5
f 350/2/5 339/2/5 349/2/5
f 350/5/5 340/5/5 339/5/5
f 351/1/5 342/1/5 341/1/5
f 351/5/5 341/5/5 350/5/5
f 352/1/5 342/1/5 351/1/5
f 353/1/5 346/1/5 345/1/5
f 353/1/5 348/1/5 347/1/5
f 353/1/5 351/1/5 350/1/5
f 353/1/5 347/1/5 346/1/5
f 353/1/5 350/1/5 349/1/5
f 353/1/5 349/1/5 348/1/5
f 354/1/5 351/1/5 353/1/5
f 355/1/5 351/1/5 354/1/5
f 356/1/5 351/1/5 355/1/5
f 357/1/5 351/1/5 356/1/5
f 358/1/5 351/1/5 357/1/5
f 359/1/5 351/1/5 358/1/5
f 360/1/5 351/1/5 359/1/5
f 361/1/5 359/1/5 358/1/5
f 362/1/5 359/1/5 361/1/5
f 364/1/5 355/1/5 354/1/5
f 365/11/5 356/11/5 355/11/5
f 365/1/5 355/1/5 364/1/5
f 367/1/5 364/1/5 363/1/5
f 368/11/5 365/11/5 364/11/5
f 368/1/5 364/1/5 367/1/5
f 369/11/5 356/11/5 365/11/5
f 369/11/5 365/11/5 368/11/5
f 370/1/5 357/1/5 356/1/5
f 370/11/5 356/11/5 369/11/5
f 371/1/5 357/1/5 370/1/5
f 372/1/5 367/1/5 366/1/5
f 373/11/5 368/11/5 367/11/5
f 373/1/5 367/1/5 372/1/5
f 373/11/5 369/11/5 368/11/5
f 374/1/5 370/1/5 369/1/5
f 374/11/5 369/11/5 373/11/5
f 375/1/5 370/1/5 374/1/5
f 376/1/5 374/1/5 373/1/5
f 377/1/5 374/1/5 376/1/5
f 378/1/6 379/1/6 383/1/6
f 379/10/6 380/10/6 384/10/6
f 383/1/6 379/1/6 384/1/6
f 384/10/6 380/10/6 385/10/6
f 380/1/6 381/1/6 386/1/6
f 385/10/6 380/10/6 386/10/6
f 386/1/6 381/1/6 387/1/6
f 382/1/6 383/1/6 390/1/6
f 384/9/6 385/9/6 391/9/6
f 383/9/6 384/9/6 391/9/6
f 390/1/6 383/1/6 391/1/6
f 391/9/6 385/9/6 392/9/6
f 392/9/6 385/9/6 393/9/6
f 385/8/6 386/8/6 394/8/6
f 393/9/6 385/9/6 394/9/6
f 386/8/6 387/8/6 394/8/6
f 387/1/6 388/1/6 395/1/6
f 394/8/6 387/8/6 395/8/6
f 395/1/6 388/1/6 396/1/6
f 389/1/6 390/1/6 399/1/6
f 391/9/6 392/9/6 400/9/6
f 390/9/6 391/9/6 400/9/6
f 399/1/6 390/1/6 400/1/6
f 400/9/6 392/9/6 401/9/6
f 392/3/6 393/3/6 402/3/6
f 401/9/6 392/9/6 402/9/6
f 393/8/6 394/8/6 403/8/6
f 394/8/6 395/8/6 403/8/6
f 395/8/6 396/8/6 403/8/6
f 403/8/6 396/8/6 404/8/6
f 396/1/6 397/1/6 405/1/6
f 404/8/6 396/8/6 405/8/6
f 405/1/6 397/1/6 406/1/6
f 400/9/6 401/9/6 408/9/6
f 399/9/6 400/9/6 408/9/6
f 401/3/6 402/3/6 409/3/6
f 408/9/6 401/9/6 409/9/6
f 402/3/6 393/3/6 410/3/6
f 409/3/6 402/3/6 410/3/6
f 403/3/6 404/3/6 411/3/6
f 404/8/6 405/8/6 411/8/6
f 405/3/6 406/3/6 412/3/6
f 411/8/6 405/8/6 412/8/6
f 408/3/6 409/3/6 413/3/6
f 399/9/6 408/9/6 413/9/6
f 409/7/6 410/7/6 414/7/6
f 413/3/6 409/3/6 414/3/6
f 410/3/6 393/3/6 415/3/6
f 414/7/6 410/7/6 415/7/6
f 393/8/6 403/8/6 416/8/6
f 415/3/6 393/3/6 416/3/6
f 416/8/6 403/8/6 417/8/6
f 417/8/6 403/8/6 418/8/6
f 411/3/6 412/3/6 419/3/6
f 418/8/6 403/8/6 419/8/6
f 403/3/6 411/3/6 419/3/6
f 419/3/6 412/3/6 420/3/6
f 412/3/6 406/3/6 421/3/6
f 420/3/6 412/3/6 421/3/6
f 406/1/6 407/1/6 422/1/6
f 421/3/6 406/3/6 422/3/6
f 422/1/6 407/1/6 423/1/6
f 413/2/6 414/2/6 424/2/6
f 414/6/6 415/6/6 424/6/6
f 416/3/6 417/3/6 425/3/6
f 424/6/6 415/6/6 425/6/6
f 415/3/6 416/3/6 425/3/6
f 417/8/6 418/8/6 426/8/6
f 425/3/6 417/3/6 426/3/6
f 426/8/6 418/8/6 427/8/6
f 427/8/6 418/8/6 428/8/6
f 418/3/6 419/3/6 429/3/6
f 428/8/6 418/8/6 429/8/6
f 429/3/6 419/3/6 430/3/6
f 419/2/6 420/2/6 431/2/6
f 430/3/6 419/3/6 431/3/6
f 420/6/6 421/6/6 432/6/6
f 431/2/6 420/2/6 432/2/6
f 421/1/6 422/1/6 433/1/6
f 432/6/6 421/6/6 433/6/6
f 427/8/6 428/8/6 434/8/6
f 428/3/6 429/3/6 435/3/6
f 434/8/6 428/8/6 435/8/6
f 429/2/6 430/2/6 436/2/6
f 435/3/6 429/3/6 436/3/6
f 430/7/6 431/7/6 437/7/6
f 436/2/6 430/2/6 437/2/6
f 431/7/6 432/7/6 437/7/6
f 437/7/6 432/7/6 438/7/6
f 432/4/6 433/4/6 439/4/6
f 438/7/6 432/7/6 439/7/6
f 398/1/6 399/1/6 441/1/6
f 424/2/6 425/2/6 442/2/6
f 413/2/6 424/2/6 442/2/6
f 399/9/6 413/9/6 442/9/6
f 442/2/6 425/2/6 443/2/6
f 425/6/6 426/6/6 444/6/6
f 443/2/6 425/2/6 444/2/6
f 444/6/6 426/6/6 445/6/6
f 427/8/6 434/8/6 446/8/6
f 434/3/6 435/3/6 447/3/6
f 446/8/6 434/8/6 447/8/6
f 435/7/6 436/7/6 448/7/6
f 447/3/6 435/3/6 448/3/6
f 436/7/6 437/7/6 448/7/6
f 448/7/6 437/7/6 449/7/6
f 437/6/6 438/6/6 450/6/6
f 449/7/6 437/7/6 450/7/6
f 438/5/6 439/5/6 451/5/6
f 450/6/6 438/6/6 451/6/6
f 439/4/6 433/4/6 452/4/6
f 451/5/6 439/5/6 452/5/6
f 433/1/6 422/1/6 453/1/6
f 452/4/6 433/4/6 453/4/6
f 440/1/6 441/1/6 455/1/6
f 441/1/6 399/1/6 456/1/6
f 399/9/6 442/9/6 456/9/6
f 455/1/6 441/1/6 456/1/6
f 442/3/6 443/3/6 457/3/6
f 456/9/6 442/9/6 457/9/6
f 443/7/6 444/7/6 458/7/6
f 457/3/6 443/3/6 458/3/6
f 444/2/6 445/2/6 459/2/6
f 458/7/6 444/7/6 459/7/6
f 445/6/6 426/6/6 460/6/6
f 459/2/6 445/2/6 460/2/6
f 427/8/6 446/8/6 461/8/6
f 446/3/6 447/3/6 461/3/6
f 447/2/6 448/2/6 462/2/6
f 461/3/6 447/3/6 462/3/6
f 448/6/6 449/6/6 463/6/6
f 462/2/6 448/2/6 463/2/6
f 449/7/6 450/7/6 464/7/6
f 463/6/6 449/6/6 464/6/6
f 450/4/6 451/4/6 465/4/6
f 464/7/6 450/7/6 465/7/6
f 451/4/6 452/4/6 465/4/6
f 465/4/6 452/4/6 466/4/6
f 452/5/6 453/5/6 467/5/6
f 466/4/6 452/4/6 467/4/6
f 453/1/6 422/1/6 468/1/6
f 467/5/6 453/5/6 468/5/6
f 468/1/6 422/1/6 469/1/6
f 454/1/6 455/1/6 471/1/6
f 455/9/6 456/9/6 472/9/6
f 471/1/6 455/1/6 472/1/6
f 456/8/6 457/8/6 473/8/6
f 472/9/6 456/9/6 473/9/6
f 457/3/6 458/3/6 474/3/6
f 473/8/6 457/8/6 474/8/6
f 458/2/6 459/2/6 475/2/6
f 474/3/6 458/3/6 475/3/6
f 459/7/6 460/7/6 476/7/6
f 475/2/6 459/2/6 476/2/6
f 460/6/6 426/6/6 477/6/6
f 476/7/6 460/7/6 477/7/6
f 426/3/6 427/3/6 478/3/6
f 477/6/6 426/6/6 478/6/6
f 461/2/6 462/2/6 479/2/6
f 462/2/6 463/2/6 479/2/6
f 463/7/6 464/7/6 480/7/6
f 479/2/6 463/2/6 480/2/6
f 464/5/6 465/5/6 481/5/6
f 480/7/6 464/7/6 481/7/6
f 465/4/6 466/4/6 482/4/6
f 481/5/6 465/5/6 482/5/6
f 466/5/6 467/5/6 483/5/6
f 482/4/6 466/4/6 483/4/6
f 467/1/6 468/1/6 484/1/6
f 483/5/6 467/5/6 484/5/6
f 484/1/6 468/1/6 485/1/6
f 470/1/6 471/1/6 486/1/6
f 474/8/6 475/8/6 487/8/6
f 486/1/6 471/1/6 487/1/6
f 473/8/6 474/8/6 487/8/6
f 472/8/6 473/8/6 487/8/6
f 471/8/6 472/8/6 487/8/6
f 475/3/6 476/3/6 488/3/6
f 487/8/6 475/8/6 488/8/6
f 476/2/6 477/2/6 489/2/6
f 488/3/6 476/3/6 489/3/6
f 477/7/6 478/7/6 490/7/6
f 489/2/6 477/2/6 490/2/6
f 478/3/6 427/3/6 491/3/6
f 490/7/6 478/7/6 491/7/6
f 427/8/6 461/8/6 492/8/6
f 491/3/6 427/3/6 492/3/6
f 492/8/6 461/8/6 493/8/6
f 461/2/6 479/2/6 494/2/6
f 493/8/6 461/8/6 494/8/6
f 479/7/6 480/7/6 495/7/6
f 494/2/6 479/2/6 495/2/6
f 480/4/6 481/4/6 496/4/6
f 495/7/6 480/7/6 496/7/6
f 481/5/6 482/5/6 497/5/6
f 496/4/6 481/4/6 497/4/6
f 482/5/6 483/5/6 497/5/6
f 497/5/6 483/5/6 498/5/6
f 483/1/6 484/1/6 499/1/6
f 498/5/6 483/5/6 499/5/6
f 499/1/6 484/1/6 500/1/6
f 487/1/6 488/1/6 501/1/6
f 488/8/6 489/8/6 502/8/6
f 501/1/6 488/1/6 502/1/6
f 489/3/6 490/3/6 503/3/6
f 502/8/6 489/8/6 503/8/6
f 490/3/6 491/3/6 503/3/6
f 492/8/6 493/8/6 504/8/6
f 503/3/6 491/3/6 504/3/6
f 491/8/6 492/8/6 504/8/6
f 494/3/6 495/3/6 505/3/6
f 504/8/6 493/8/6 505/8/6
f 493/3/6 494/3/6 505/3/6
f 495/2/6 496/2/6 506/2/6
f 505/3/6 495/3/6 506/3/6
f 497/5/6 498/5/6 507/5/6
f 506/2/6 496/2/6 507/2/6
f 496/5/6 497/5/6 507/5/6
f 498/1/6 499/1/6 508/1/6
f 507/5/6 498/5/6 508/5/6
f 508/1/6 499/1/6 509/1/6
f 502/1/6 503/1/6 510/1/6
f 504/1/6 505/1/6 510/1/6
f 507/1/6 508/1/6 510/1/6
f 503/1/6 504/1/6 510/1/6
f 506/1/6 507/1/6 510/1/6
f 505/1/6 506/1/6 510/1/6
f 510/1/6 508/1/6 511/1/6
f 511/1/6 508/1/6 512/1/6
f 512/1/6 508/1/6 513/1/6
f 513/1/6 508/1/6 514/1/6
f 514/1/6 508/1/6 515/1/6
f 515/1/6 508/1/6 516/1/6
f 516/1/6 508/1/6 517/1/6
f 515/1/6 516/1/6 518/1/6
f 518/1/6 516/1/6 519/1/6
f 511/1/6 512/1/6 521/1/6
f 512/11/6 513/11/6 522/11/6
f 521/1/6 512/1/6 522/1/6
f 520/1/6 521/1/6 524/1/6
f 521/11/6 522/11/6 525/11/6
f 524/1/6 521/1/6 525/1/6
f 522/11/6 513/11/6 526/11/6
f 525/11/6 522/11/6 526/11/6
f 513/1/6 514/1/6 527/1/6
f 526/11/6 513/11/6 527/11/6
f 527/1/6 514/1/6 528/1/6
f 523/1/6 524/1/6 529/1/6
f 524/11/6 525/11/6 530/11/6
f 529/1/6 524/1/6 530/1/6
f 525/11/6 526/11/6 530/11/6
f 526/1/6 527/1/6 531/1/6
f 530/11/6 526/11/6 531/11/6
f 531/1/6 527/1/6 532/1/6
f 530/1/6 531/1/6 533/1/6
f 533/1/6 531/1/6 534/1/6
