# MagicaVoxel @ Ephtracy

# group
o PigHead

# material
mtllib PigHead-2-PigHead.mtl
usemtl palette

# normals
vn -1 0 0
vn 1 0 0
vn 0 -1 0
vn 0 1 0
vn 0 0 -1
vn 0 0 1

# texcoords
vt 0.00195312 0.5
vt 0.00585938 0.5
vt 0.00976562 0.5
vt 0.0214844 0.5
vt 0.0253906 0.5
vt 0.0332031 0.5
vt 0.0371094 0.5
vt 0.0410156 0.5

# verts
v -0.9 0.3 -0.1
v -0.9 0.9 -0.1
v -0.9 0.3 0
v -0.9 0.9 0
v -0.8 0.2 -0.1
v -0.8 0.3 -0.1
v -0.8 0.9 -0.1
v -0.8 1.1 -0.1
v -0.8 0.2 0
v -0.8 0.3 0
v -0.8 0.9 0
v -0.8 1.1 0
v -0.7 0.1 -0.1
v -0.7 0.2 -0.1
v -0.7 1.1 -0.1
v -0.7 1.2 -0.1
v -0.7 0.1 0
v -0.7 0.2 0
v -0.7 1.1 0
v -0.7 1.2 0
v -0.6 0 -0.1
v -0.6 0.1 -0.1
v -0.6 1.2 -0.1
v -0.6 1.3 -0.1
v -0.6 0 0
v -0.6 0.1 0
v -0.6 1.2 0
v -0.6 1.3 0
v -0.5 1.3 -0.1
v -0.5 1.4 -0.1
v -0.5 1.3 0
v -0.5 1.4 0
v -0.4 1.4 -0.1
v -0.4 1.5 -0.1
v -0.4 1.4 0
v -0.4 1.5 0
v -0.3 1.5 -0.1
v -0.3 1.6 -0.1
v -0.3 1.5 0
v -0.3 1.6 0
v 0.1 1.4 -0.1
v 0.1 1.5 -0.1
v 0.1 1.4 0
v 0.1 1.5 0
v 0.2 1.5 -0.1
v 0.2 1.6 -0.1
v 0.2 1.5 0
v 0.2 1.6 0
v -0.2 1.5 -0.1
v -0.2 1.6 -0.1
v -0.2 1.5 0
v -0.2 1.6 0
v -0.1 1.4 -0.1
v -0.1 1.5 -0.1
v -0.1 1.4 0
v -0.1 1.5 0
v 0.3 1.5 -0.1
v 0.3 1.6 -0.1
v 0.3 1.5 0
v 0.3 1.6 0
v 0.4 1.4 -0.1
v 0.4 1.5 -0.1
v 0.4 1.4 0
v 0.4 1.5 0
v 0.5 1.3 -0.1
v 0.5 1.4 -0.1
v 0.5 1.3 0
v 0.5 1.4 0
v 0.6 0 -0.1
v 0.6 0.1 -0.1
v 0.6 1.2 -0.1
v 0.6 1.3 -0.1
v 0.6 0 0
v 0.6 0.1 0
v 0.6 1.2 0
v 0.6 1.3 0
v 0.7 0.1 -0.1
v 0.7 0.2 -0.1
v 0.7 1.1 -0.1
v 0.7 1.2 -0.1
v 0.7 0.1 0
v 0.7 0.2 0
v 0.7 1.1 0
v 0.7 1.2 0
v 0.8 0.2 -0.1
v 0.8 0.3 -0.1
v 0.8 0.9 -0.1
v 0.8 1.1 -0.1
v 0.8 0.2 0
v 0.8 0.3 0
v 0.8 0.9 0
v 0.8 1.1 0
v 0.9 0.3 -0.1
v 0.9 0.9 -0.1
v 0.9 0.3 0
v 0.9 0.9 0
v -0.6 0 -0.1
v -0.6 0 0
v -0.3 0 -0.1
v -0.3 0 0
v 0.3 0 -0.1
v 0.3 0 0
v 0.6 0 -0.1
v 0.6 0 0
v -0.7 0.1 -0.1
v -0.7 0.1 0
v -0.6 0.1 -0.1
v -0.6 0.1 0
v 0.6 0.1 -0.1
v 0.6 0.1 0
v 0.7 0.1 -0.1
v 0.7 0.1 0
v -0.8 0.2 -0.1
v -0.8 0.2 0
v -0.7 0.2 -0.1
v -0.7 0.2 0
v 0.7 0.2 -0.1
v 0.7 0.2 0
v 0.8 0.2 -0.1
v 0.8 0.2 0
v -0.9 0.3 -0.1
v -0.9 0.3 0
v -0.8 0.3 -0.1
v -0.8 0.3 0
v 0.8 0.3 -0.1
v 0.8 0.3 0
v 0.9 0.3 -0.1
v 0.9 0.3 0
v -0.9 0.9 -0.1
v -0.9 0.9 0
v -0.8 0.9 -0.1
v -0.8 0.9 0
v 0.8 0.9 -0.1
v 0.8 0.9 0
v 0.9 0.9 -0.1
v 0.9 0.9 0
v -0.8 1.1 -0.1
v -0.8 1.1 0
v -0.7 1.1 -0.1
v -0.7 1.1 0
v 0.7 1.1 -0.1
v 0.7 1.1 0
v 0.8 1.1 -0.1
v 0.8 1.1 0
v -0.7 1.2 -0.1
v -0.7 1.2 0
v -0.6 1.2 -0.1
v -0.6 1.2 0
v 0.6 1.2 -0.1
v 0.6 1.2 0
v 0.7 1.2 -0.1
v 0.7 1.2 0
v -0.6 1.3 -0.1
v -0.6 1.3 0
v -0.5 1.3 -0.1
v -0.5 1.3 0
v 0.5 1.3 -0.1
v 0.5 1.3 0
v 0.6 1.3 -0.1
v 0.6 1.3 0
v -0.5 1.4 -0.1
v -0.5 1.4 0
v -0.4 1.4 -0.1
v -0.4 1.4 0
v -0.1 1.4 -0.1
v -0.1 1.4 0
v 0.1 1.4 -0.1
v 0.1 1.4 0
v 0.4 1.4 -0.1
v 0.4 1.4 0
v 0.5 1.4 -0.1
v 0.5 1.4 0
v -0.4 1.5 -0.1
v -0.4 1.5 0
v -0.3 1.5 -0.1
v -0.3 1.5 0
v -0.2 1.5 -0.1
v -0.2 1.5 0
v -0.1 1.5 -0.1
v -0.1 1.5 0
v 0.1 1.5 -0.1
v 0.1 1.5 0
v 0.2 1.5 -0.1
v 0.2 1.5 0
v 0.3 1.5 -0.1
v 0.3 1.5 0
v 0.4 1.5 -0.1
v 0.4 1.5 0
v -0.3 1.6 -0.1
v -0.3 1.6 0
v -0.2 1.6 -0.1
v -0.2 1.6 0
v 0.2 1.6 -0.1
v 0.2 1.6 0
v 0.3 1.6 -0.1
v 0.3 1.6 0
v -0.6 0 -0.1
v -0.3 0 -0.1
v 0.3 0 -0.1
v 0.6 0 -0.1
v -0.7 0.1 -0.1
v -0.6 0.1 -0.1
v -0.3 0.1 -0.1
v 0 0.1 -0.1
v 0.3 0.1 -0.1
v 0.6 0.1 -0.1
v 0.7 0.1 -0.1
v -0.8 0.2 -0.1
v -0.7 0.2 -0.1
v -0.6 0.2 -0.1
v -0.5 0.2 -0.1
v -0.4 0.2 -0.1
v 0 0.2 -0.1
v 0.6 0.2 -0.1
v 0.7 0.2 -0.1
v 0.8 0.2 -0.1
v -0.9 0.3 -0.1
v -0.8 0.3 -0.1
v -0.7 0.3 -0.1
v -0.6 0.3 -0.1
v -0.5 0.3 -0.1
v 0.7 0.3 -0.1
v 0.8 0.3 -0.1
v 0.9 0.3 -0.1
v -0.7 0.4 -0.1
v -0.6 0.4 -0.1
v -0.5 0.4 -0.1
v -0.7 0.5 -0.1
v -0.6 0.5 -0.1
v -0.5 0.5 -0.1
v -0.4 0.5 -0.1
v -0.3 0.5 -0.1
v -0.6 0.6 -0.1
v -0.5 0.6 -0.1
v -0.3 0.6 -0.1
v -0.2 0.6 -0.1
v 0.2 0.7 -0.1
v 0.8 0.7 -0.1
v -0.7 0.8 -0.1
v -0.6 0.8 -0.1
v -0.5 0.8 -0.1
v -0.4 0.8 -0.1
v 0 0.8 -0.1
v 0.2 0.8 -0.1
v 0.3 0.8 -0.1
v 0.6 0.8 -0.1
v 0.7 0.8 -0.1
v 0.8 0.8 -0.1
v -0.9 0.9 -0.1
v -0.8 0.9 -0.1
v -0.7 0.9 -0.1
v -0.6 0.9 -0.1
v -0.5 0.9 -0.1
v -0.4 0.9 -0.1
v 0 0.9 -0.1
v 0.2 0.9 -0.1
v 0.3 0.9 -0.1
v 0.4 0.9 -0.1
v 0.5 0.9 -0.1
v 0.6 0.9 -0.1
v 0.7 0.9 -0.1
v 0.8 0.9 -0.1
v 0.9 0.9 -0.1
v -0.7 1 -0.1
v -0.6 1 -0.1
v -0.5 1 -0.1
v -0.4 1 -0.1
v -0.3 1 -0.1
v 0.2 1 -0.1
v 0.3 1 -0.1
v 0.4 1 -0.1
v 0.5 1 -0.1
v 0.6 1 -0.1
v 0.7 1 -0.1
v -0.8 1.1 -0.1
v -0.7 1.1 -0.1
v -0.6 1.1 -0.1
v -0.5 1.1 -0.1
v -0.4 1.1 -0.1
v -0.3 1.1 -0.1
v -0.2 1.1 -0.1
v 0.2 1.1 -0.1
v 0.3 1.1 -0.1
v 0.5 1.1 -0.1
v 0.6 1.1 -0.1
v 0.7 1.1 -0.1
v 0.8 1.1 -0.1
v -0.7 1.2 -0.1
v -0.6 1.2 -0.1
v -0.5 1.2 -0.1
v -0.4 1.2 -0.1
v -0.3 1.2 -0.1
v 0.2 1.2 -0.1
v 0.4 1.2 -0.1
v 0.5 1.2 -0.1
v 0.6 1.2 -0.1
v 0.7 1.2 -0.1
v -0.6 1.3 -0.1
v -0.5 1.3 -0.1
v -0.4 1.3 -0.1
v -0.1 1.3 -0.1
v 0.1 1.3 -0.1
v 0.4 1.3 -0.1
v 0.5 1.3 -0.1
v 0.6 1.3 -0.1
v -0.5 1.4 -0.1
v -0.4 1.4 -0.1
v -0.3 1.4 -0.1
v -0.2 1.4 -0.1
v -0.1 1.4 -0.1
v 0.1 1.4 -0.1
v 0.2 1.4 -0.1
v 0.3 1.4 -0.1
v 0.4 1.4 -0.1
v 0.5 1.4 -0.1
v -0.4 1.5 -0.1
v -0.3 1.5 -0.1
v -0.2 1.5 -0.1
v -0.1 1.5 -0.1
v 0.1 1.5 -0.1
v 0.2 1.5 -0.1
v 0.3 1.5 -0.1
v 0.4 1.5 -0.1
v -0.3 1.6 -0.1
v -0.2 1.6 -0.1
v 0.2 1.6 -0.1
v 0.3 1.6 -0.1
v -0.6 0 0
v -0.3 0 0
v 0.3 0 0
v 0.6 0 0
v -0.7 0.1 0
v -0.6 0.1 0
v -0.3 0.1 0
v 0 0.1 0
v 0.3 0.1 0
v 0.6 0.1 0
v 0.7 0.1 0
v -0.8 0.2 0
v -0.7 0.2 0
v -0.6 0.2 0
v -0.5 0.2 0
v -0.4 0.2 0
v 0 0.2 0
v 0.6 0.2 0
v 0.7 0.2 0
v 0.8 0.2 0
v -0.9 0.3 0
v -0.8 0.3 0
v -0.7 0.3 0
v -0.6 0.3 0
v -0.5 0.3 0
v 0.7 0.3 0
v 0.8 0.3 0
v 0.9 0.3 0
v -0.7 0.4 0
v -0.6 0.4 0
v -0.5 0.4 0
v -0.7 0.5 0
v -0.6 0.5 0
v -0.5 0.5 0
v -0.4 0.5 0
v -0.3 0.5 0
v -0.6 0.6 0
v -0.5 0.6 0
v -0.3 0.6 0
v -0.2 0.6 0
v 0.2 0.7 0
v 0.8 0.7 0
v -0.7 0.8 0
v -0.6 0.8 0
v -0.5 0.8 0
v -0.4 0.8 0
v 0 0.8 0
v 0.2 0.8 0
v 0.3 0.8 0
v 0.6 0.8 0
v 0.7 0.8 0
v 0.8 0.8 0
v -0.9 0.9 0
v -0.8 0.9 0
v -0.7 0.9 0
v -0.6 0.9 0
v -0.5 0.9 0
v -0.4 0.9 0
v 0 0.9 0
v 0.2 0.9 0
v 0.3 0.9 0
v 0.4 0.9 0
v 0.5 0.9 0
v 0.6 0.9 0
v 0.7 0.9 0
v 0.8 0.9 0
v 0.9 0.9 0
v -0.7 1 0
v -0.6 1 0
v -0.5 1 0
v -0.4 1 0
v -0.3 1 0
v 0.2 1 0
v 0.3 1 0
v 0.4 1 0
v 0.5 1 0
v 0.6 1 0
v 0.7 1 0
v -0.8 1.1 0
v -0.7 1.1 0
v -0.6 1.1 0
v -0.5 1.1 0
v -0.4 1.1 0
v -0.3 1.1 0
v -0.2 1.1 0
v 0.2 1.1 0
v 0.3 1.1 0
v 0.5 1.1 0
v 0.6 1.1 0
v 0.7 1.1 0
v 0.8 1.1 0
v -0.7 1.2 0
v -0.6 1.2 0
v -0.5 1.2 0
v -0.4 1.2 0
v -0.3 1.2 0
v 0.2 1.2 0
v 0.4 1.2 0
v 0.5 1.2 0
v 0.6 1.2 0
v 0.7 1.2 0
v -0.6 1.3 0
v -0.5 1.3 0
v -0.4 1.3 0
v -0.1 1.3 0
v 0.1 1.3 0
v 0.4 1.3 0
v 0.5 1.3 0
v 0.6 1.3 0
v -0.5 1.4 0
v -0.4 1.4 0
v -0.3 1.4 0
v -0.2 1.4 0
v -0.1 1.4 0
v 0.1 1.4 0
v 0.2 1.4 0
v 0.3 1.4 0
v 0.4 1.4 0
v 0.5 1.4 0
v -0.4 1.5 0
v -0.3 1.5 0
v -0.2 1.5 0
v -0.1 1.5 0
v 0.1 1.5 0
v 0.2 1.5 0
v 0.3 1.5 0
v 0.4 1.5 0
v -0.3 1.6 0
v -0.2 1.6 0
v 0.2 1.6 0
v 0.3 1.6 0

# faces
f 3/1/1 2/1/1 1/1/1
f 4/1/1 2/1/1 3/1/1
f 9/1/1 6/1/1 5/1/1
f 10/1/1 6/1/1 9/1/1
f 11/1/1 8/1/1 7/1/1
f 12/1/1 8/1/1 11/1/1
f 17/1/1 14/1/1 13/1/1
f 18/1/1 14/1/1 17/1/1
f 19/1/1 16/1/1 15/1/1
f 20/1/1 16/1/1 19/1/1
f 25/1/1 22/1/1 21/1/1
f 26/1/1 22/1/1 25/1/1
f 27/1/1 24/1/1 23/1/1
f 28/1/1 24/1/1 27/1/1
f 31/1/1 30/1/1 29/1/1
f 32/1/1 30/1/1 31/1/1
f 35/1/1 34/1/1 33/1/1
f 36/1/1 34/1/1 35/1/1
f 39/1/1 38/1/1 37/1/1
f 40/1/1 38/1/1 39/1/1
f 43/1/1 42/1/1 41/1/1
f 44/1/1 42/1/1 43/1/1
f 47/1/1 46/1/1 45/1/1
f 48/1/1 46/1/1 47/1/1
f 49/1/2 50/1/2 51/1/2
f 51/1/2 50/1/2 52/1/2
f 53/1/2 54/1/2 55/1/2
f 55/1/2 54/1/2 56/1/2
f 57/1/2 58/1/2 59/1/2
f 59/1/2 58/1/2 60/1/2
f 61/1/2 62/1/2 63/1/2
f 63/1/2 62/1/2 64/1/2
f 65/1/2 66/1/2 67/1/2
f 67/1/2 66/1/2 68/1/2
f 69/1/2 70/1/2 73/1/2
f 73/1/2 70/1/2 74/1/2
f 71/1/2 72/1/2 75/1/2
f 75/1/2 72/1/2 76/1/2
f 77/1/2 78/1/2 81/1/2
f 81/1/2 78/1/2 82/1/2
f 79/1/2 80/1/2 83/1/2
f 83/1/2 80/1/2 84/1/2
f 85/1/2 86/1/2 89/1/2
f 89/1/2 86/1/2 90/1/2
f 87/1/2 88/1/2 91/1/2
f 91/1/2 88/1/2 92/1/2
f 93/1/2 94/1/2 95/1/2
f 95/1/2 94/1/2 96/1/2
f 99/1/3 98/1/3 97/1/3
f 100/1/3 98/1/3 99/1/3
f 101/8/3 100/8/3 99/8/3
f 102/8/3 100/8/3 101/8/3
f 103/1/3 102/1/3 101/1/3
f 104/1/3 102/1/3 103/1/3
f 107/1/3 106/1/3 105/1/3
f 108/1/3 106/1/3 107/1/3
f 111/1/3 110/1/3 109/1/3
f 112/1/3 110/1/3 111/1/3
f 115/1/3 114/1/3 113/1/3
f 116/1/3 114/1/3 115/1/3
f 119/1/3 118/1/3 117/1/3
f 120/1/3 118/1/3 119/1/3
f 123/1/3 122/1/3 121/1/3
f 124/1/3 122/1/3 123/1/3
f 127/1/3 126/1/3 125/1/3
f 128/1/3 126/1/3 127/1/3
f 129/1/4 130/1/4 131/1/4
f 131/1/4 130/1/4 132/1/4
f 133/1/4 134/1/4 135/1/4
f 135/1/4 134/1/4 136/1/4
f 137/1/4 138/1/4 139/1/4
f 139/1/4 138/1/4 140/1/4
f 141/1/4 142/1/4 143/1/4
f 143/1/4 142/1/4 144/1/4
f 145/1/4 146/1/4 147/1/4
f 147/1/4 146/1/4 148/1/4
f 149/1/4 150/1/4 151/1/4
f 151/1/4 150/1/4 152/1/4
f 153/1/4 154/1/4 155/1/4
f 155/1/4 154/1/4 156/1/4
f 157/1/4 158/1/4 159/1/4
f 159/1/4 158/1/4 160/1/4
f 161/1/4 162/1/4 163/1/4
f 163/1/4 162/1/4 164/1/4
f 165/1/4 166/1/4 167/1/4
f 167/1/4 166/1/4 168/1/4
f 169/1/4 170/1/4 171/1/4
f 171/1/4 170/1/4 172/1/4
f 173/1/4 174/1/4 175/1/4
f 175/1/4 174/1/4 176/1/4
f 177/1/4 178/1/4 179/1/4
f 179/1/4 178/1/4 180/1/4
f 181/1/4 182/1/4 183/1/4
f 183/1/4 182/1/4 184/1/4
f 185/1/4 186/1/4 187/1/4
f 187/1/4 186/1/4 188/1/4
f 189/1/4 190/1/4 191/1/4
f 191/1/4 190/1/4 192/1/4
f 193/1/4 194/1/4 195/1/4
f 195/1/4 194/1/4 196/1/4
f 202/1/5 198/1/5 197/1/5
f 203/8/5 199/8/5 198/8/5
f 203/1/5 198/1/5 202/1/5
f 204/8/5 199/8/5 203/8/5
f 205/1/5 200/1/5 199/1/5
f 205/8/5 199/8/5 204/8/5
f 206/1/5 200/1/5 205/1/5
f 209/1/5 202/1/5 201/1/5
f 210/7/5 204/7/5 203/7/5
f 210/7/5 203/7/5 202/7/5
f 210/1/5 202/1/5 209/1/5
f 211/7/5 204/7/5 210/7/5
f 212/7/5 204/7/5 211/7/5
f 213/6/5 205/6/5 204/6/5
f 213/7/5 204/7/5 212/7/5
f 213/6/5 206/6/5 205/6/5
f 214/1/5 207/1/5 206/1/5
f 214/6/5 206/6/5 213/6/5
f 215/1/5 207/1/5 214/1/5
f 218/1/5 209/1/5 208/1/5
f 219/7/5 211/7/5 210/7/5
f 219/7/5 210/7/5 209/7/5
f 219/1/5 209/1/5 218/1/5
f 220/7/5 211/7/5 219/7/5
f 221/3/5 212/3/5 211/3/5
f 221/7/5 211/7/5 220/7/5
f 222/1/5 216/1/5 215/1/5
f 222/6/5 213/6/5 212/6/5
f 222/6/5 214/6/5 213/6/5
f 222/6/5 215/6/5 214/6/5
f 223/1/5 216/1/5 222/1/5
f 225/7/5 220/7/5 219/7/5
f 225/7/5 219/7/5 218/7/5
f 226/3/5 221/3/5 220/3/5
f 226/7/5 220/7/5 225/7/5
f 227/3/5 212/3/5 221/3/5
f 227/3/5 221/3/5 226/3/5
f 228/3/5 226/3/5 225/3/5
f 228/7/5 225/7/5 218/7/5
f 229/5/5 227/5/5 226/5/5
f 229/3/5 226/3/5 228/3/5
f 230/3/5 212/3/5 227/3/5
f 230/5/5 227/5/5 229/5/5
f 231/6/5 223/6/5 222/6/5
f 231/3/5 212/3/5 230/3/5
f 231/6/5 222/6/5 212/6/5
f 232/6/5 223/6/5 231/6/5
f 233/2/5 229/2/5 228/2/5
f 233/4/5 230/4/5 229/4/5
f 234/3/5 232/3/5 231/3/5
f 234/4/5 230/4/5 233/4/5
f 234/3/5 231/3/5 230/3/5
f 235/6/5 223/6/5 232/6/5
f 235/3/5 232/3/5 234/3/5
f 236/6/5 223/6/5 235/6/5
f 237/6/5 223/6/5 236/6/5
f 238/1/5 224/1/5 223/1/5
f 238/6/5 223/6/5 237/6/5
f 239/2/5 234/2/5 233/2/5
f 239/7/5 228/7/5 218/7/5
f 239/2/5 233/2/5 228/2/5
f 240/2/5 234/2/5 239/2/5
f 241/4/5 235/4/5 234/4/5
f 241/2/5 234/2/5 240/2/5
f 242/4/5 235/4/5 241/4/5
f 243/6/5 237/6/5 236/6/5
f 244/3/5 238/3/5 237/3/5
f 244/6/5 237/6/5 243/6/5
f 245/3/5 238/3/5 244/3/5
f 246/3/5 238/3/5 245/3/5
f 247/3/5 238/3/5 246/3/5
f 248/1/5 224/1/5 238/1/5
f 248/3/5 238/3/5 247/3/5
f 249/1/5 218/1/5 217/1/5
f 250/7/5 239/7/5 218/7/5
f 250/1/5 218/1/5 249/1/5
f 251/3/5 240/3/5 239/3/5
f 251/7/5 239/7/5 250/7/5
f 252/5/5 241/5/5 240/5/5
f 252/3/5 240/3/5 251/3/5
f 253/2/5 242/2/5 241/2/5
f 253/5/5 241/5/5 252/5/5
f 254/4/5 235/4/5 242/4/5
f 254/2/5 242/2/5 253/2/5
f 255/6/5 243/6/5 236/6/5
f 255/3/5 244/3/5 243/3/5
f 256/5/5 245/5/5 244/5/5
f 256/3/5 244/3/5 255/3/5
f 257/4/5 246/4/5 245/4/5
f 257/5/5 245/5/5 256/5/5
f 258/4/5 246/4/5 257/4/5
f 259/4/5 246/4/5 258/4/5
f 260/5/5 247/5/5 246/5/5
f 260/4/5 246/4/5 259/4/5
f 261/2/5 248/2/5 247/2/5
f 261/5/5 247/5/5 260/5/5
f 262/1/5 224/1/5 248/1/5
f 262/2/5 248/2/5 261/2/5
f 263/1/5 224/1/5 262/1/5
f 264/1/5 251/1/5 250/1/5
f 264/3/5 252/3/5 251/3/5
f 265/2/5 253/2/5 252/2/5
f 265/3/5 252/3/5 264/3/5
f 266/5/5 254/5/5 253/5/5
f 266/2/5 253/2/5 265/2/5
f 267/4/5 235/4/5 254/4/5
f 267/5/5 254/5/5 266/5/5
f 268/3/5 236/3/5 235/3/5
f 268/4/5 235/4/5 267/4/5
f 269/3/5 258/3/5 257/3/5
f 269/6/5 256/6/5 255/6/5
f 269/3/5 257/3/5 256/3/5
f 270/3/5 258/3/5 269/3/5
f 271/4/5 259/4/5 258/4/5
f 271/3/5 258/3/5 270/3/5
f 272/5/5 261/5/5 260/5/5
f 272/4/5 259/4/5 271/4/5
f 272/5/5 260/5/5 259/5/5
f 273/5/5 261/5/5 272/5/5
f 274/1/5 262/1/5 261/1/5
f 274/5/5 261/5/5 273/5/5
f 275/1/5 264/1/5 250/1/5
f 276/6/5 265/6/5 264/6/5
f 276/1/5 264/1/5 275/1/5
f 277/3/5 266/3/5 265/3/5
f 277/6/5 265/6/5 276/6/5
f 278/2/5 267/2/5 266/2/5
f 278/3/5 266/3/5 277/3/5
f 279/5/5 268/5/5 267/5/5
f 279/2/5 267/2/5 278/2/5
f 280/3/5 236/3/5 268/3/5
f 280/5/5 268/5/5 279/5/5
f 281/6/5 270/6/5 269/6/5
f 281/3/5 236/3/5 280/3/5
f 281/6/5 255/6/5 236/6/5
f 281/6/5 269/6/5 255/6/5
f 282/6/5 270/6/5 281/6/5
f 283/3/5 271/3/5 270/3/5
f 283/6/5 270/6/5 282/6/5
f 283/3/5 272/3/5 271/3/5
f 284/5/5 273/5/5 272/5/5
f 284/3/5 272/3/5 283/3/5
f 285/2/5 274/2/5 273/2/5
f 285/5/5 273/5/5 284/5/5
f 286/1/5 262/1/5 274/1/5
f 286/2/5 274/2/5 285/2/5
f 287/1/5 262/1/5 286/1/5
f 288/1/5 277/1/5 276/1/5
f 289/6/5 278/6/5 277/6/5
f 289/1/5 277/1/5 288/1/5
f 290/3/5 280/3/5 279/3/5
f 290/6/5 278/6/5 289/6/5
f 290/3/5 279/3/5 278/3/5
f 291/3/5 280/3/5 290/3/5
f 292/6/5 282/6/5 281/6/5
f 292/3/5 280/3/5 291/3/5
f 292/6/5 281/6/5 280/6/5
f 293/3/5 283/3/5 282/3/5
f 293/6/5 282/6/5 292/6/5
f 293/3/5 284/3/5 283/3/5
f 294/3/5 284/3/5 293/3/5
f 295/2/5 285/2/5 284/2/5
f 295/3/5 284/3/5 294/3/5
f 296/1/5 286/1/5 285/1/5
f 296/2/5 285/2/5 295/2/5
f 297/1/5 286/1/5 296/1/5
f 298/1/5 291/1/5 290/1/5
f 298/1/5 290/1/5 289/1/5
f 299/1/5 291/1/5 298/1/5
f 300/7/5 294/7/5 293/7/5
f 300/1/5 291/1/5 299/1/5
f 300/7/5 292/7/5 291/7/5
f 300/7/5 293/7/5 292/7/5
f 301/7/5 294/7/5 300/7/5
f 302/7/5 294/7/5 301/7/5
f 303/1/5 296/1/5 295/1/5
f 303/7/5 294/7/5 302/7/5
f 303/1/5 295/1/5 294/1/5
f 304/1/5 296/1/5 303/1/5
f 305/1/5 296/1/5 304/1/5
f 306/1/5 300/1/5 299/1/5
f 307/6/5 301/6/5 300/6/5
f 307/1/5 300/1/5 306/1/5
f 308/6/5 301/6/5 307/6/5
f 309/6/5 301/6/5 308/6/5
f 310/1/5 302/1/5 301/1/5
f 310/6/5 301/6/5 309/6/5
f 311/6/5 303/6/5 302/6/5
f 311/1/5 302/1/5 310/1/5
f 312/6/5 303/6/5 311/6/5
f 313/6/5 303/6/5 312/6/5
f 314/1/5 304/1/5 303/1/5
f 314/6/5 303/6/5 313/6/5
f 315/1/5 304/1/5 314/1/5
f 316/1/5 308/1/5 307/1/5
f 317/6/5 309/6/5 308/6/5
f 317/1/5 308/1/5 316/1/5
f 318/1/5 310/1/5 309/1/5
f 318/6/5 309/6/5 317/6/5
f 319/1/5 310/1/5 318/1/5
f 320/1/5 312/1/5 311/1/5
f 321/6/5 313/6/5 312/6/5
f 321/1/5 312/1/5 320/1/5
f 322/1/5 314/1/5 313/1/5
f 322/6/5 313/6/5 321/6/5
f 323/1/5 314/1/5 322/1/5
f 324/1/5 318/1/5 317/1/5
f 325/1/5 318/1/5 324/1/5
f 326/1/5 322/1/5 321/1/5
f 327/1/5 322/1/5 326/1/5
f 328/1/6 329/1/6 333/1/6
f 329/8/6 330/8/6 334/8/6
f 333/1/6 329/1/6 334/1/6
f 334/8/6 330/8/6 335/8/6
f 330/1/6 331/1/6 336/1/6
f 335/8/6 330/8/6 336/8/6
f 336/1/6 331/1/6 337/1/6
f 332/1/6 333/1/6 340/1/6
f 334/7/6 335/7/6 341/7/6
f 333/7/6 334/7/6 341/7/6
f 340/1/6 333/1/6 341/1/6
f 341/7/6 335/7/6 342/7/6
f 342/7/6 335/7/6 343/7/6
f 335/6/6 336/6/6 344/6/6
f 343/7/6 335/7/6 344/7/6
f 336/6/6 337/6/6 344/6/6
f 337/1/6 338/1/6 345/1/6
f 344/6/6 337/6/6 345/6/6
f 345/1/6 338/1/6 346/1/6
f 339/1/6 340/1/6 349/1/6
f 341/7/6 342/7/6 350/7/6
f 340/7/6 341/7/6 350/7/6
f 349/1/6 340/1/6 350/1/6
f 350/7/6 342/7/6 351/7/6
f 342/3/6 343/3/6 352/3/6
f 351/7/6 342/7/6 352/7/6
f 346/1/6 347/1/6 353/1/6
f 343/6/6 344/6/6 353/6/6
f 344/6/6 345/6/6 353/6/6
f 345/6/6 346/6/6 353/6/6
f 353/1/6 347/1/6 354/1/6
f 350/7/6 351/7/6 356/7/6
f 349/7/6 350/7/6 356/7/6
f 351/3/6 352/3/6 357/3/6
f 356/7/6 351/7/6 357/7/6
f 352/3/6 343/3/6 358/3/6
f 357/3/6 352/3/6 358/3/6
f 356/3/6 357/3/6 359/3/6
f 349/7/6 356/7/6 359/7/6
f 357/5/6 358/5/6 360/5/6
f 359/3/6 357/3/6 360/3/6
f 358/3/6 343/3/6 361/3/6
f 360/5/6 358/5/6 361/5/6
f 353/6/6 354/6/6 362/6/6
f 361/3/6 343/3/6 362/3/6
f 343/6/6 353/6/6 362/6/6
f 362/6/6 354/6/6 363/6/6
f 359/2/6 360/2/6 364/2/6
f 360/4/6 361/4/6 364/4/6
f 362/3/6 363/3/6 365/3/6
f 364/4/6 361/4/6 365/4/6
f 361/3/6 362/3/6 365/3/6
f 363/6/6 354/6/6 366/6/6
f 365/3/6 363/3/6 366/3/6
f 366/6/6 354/6/6 367/6/6
f 367/6/6 354/6/6 368/6/6
f 354/1/6 355/1/6 369/1/6
f 368/6/6 354/6/6 369/6/6
f 364/2/6 365/2/6 370/2/6
f 349/7/6 359/7/6 370/7/6
f 359/2/6 364/2/6 370/2/6
f 370/2/6 365/2/6 371/2/6
f 365/4/6 366/4/6 372/4/6
f 371/2/6 365/2/6 372/2/6
f 372/4/6 366/4/6 373/4/6
f 367/6/6 368/6/6 374/6/6
f 368/3/6 369/3/6 375/3/6
f 374/6/6 368/6/6 375/6/6
f 375/3/6 369/3/6 376/3/6
f 376/3/6 369/3/6 377/3/6
f 377/3/6 369/3/6 378/3/6
f 369/1/6 355/1/6 379/1/6
f 378/3/6 369/3/6 379/3/6
f 348/1/6 349/1/6 380/1/6
f 349/7/6 370/7/6 381/7/6
f 380/1/6 349/1/6 381/1/6
f 370/3/6 371/3/6 382/3/6
f 381/7/6 370/7/6 382/7/6
f 371/5/6 372/5/6 383/5/6
f 382/3/6 371/3/6 383/3/6
f 372/2/6 373/2/6 384/2/6
f 383/5/6 372/5/6 384/5/6
f 373/4/6 366/4/6 385/4/6
f 384/2/6 373/2/6 385/2/6
f 367/6/6 374/6/6 386/6/6
f 374/3/6 375/3/6 386/3/6
f 375/5/6 376/5/6 387/5/6
f 386/3/6 375/3/6 387/3/6
f 376/4/6 377/4/6 388/4/6
f 387/5/6 376/5/6 388/5/6
f 388/4/6 377/4/6 389/4/6
f 389/4/6 377/4/6 390/4/6
f 377/5/6 378/5/6 391/5/6
f 390/4/6 377/4/6 391/4/6
f 378/2/6 379/2/6 392/2/6
f 391/5/6 378/5/6 392/5/6
f 379/1/6 355/1/6 393/1/6
f 392/2/6 379/2/6 393/2/6
f 393/1/6 355/1/6 394/1/6
f 381/1/6 382/1/6 395/1/6
f 382/3/6 383/3/6 395/3/6
f 383/2/6 384/2/6 396/2/6
f 395/3/6 383/3/6 396/3/6
f 384/5/6 385/5/6 397/5/6
f 396/2/6 384/2/6 397/2/6
f 385/4/6 366/4/6 398/4/6
f 397/5/6 385/5/6 398/5/6
f 366/3/6 367/3/6 399/3/6
f 398/4/6 366/4/6 399/4/6
f 388/3/6 389/3/6 400/3/6
f 386/6/6 387/6/6 400/6/6
f 387/3/6 388/3/6 400/3/6
f 400/3/6 389/3/6 401/3/6
f 389/4/6 390/4/6 402/4/6
f 401/3/6 389/3/6 402/3/6
f 391/5/6 392/5/6 403/5/6
f 402/4/6 390/4/6 403/4/6
f 390/5/6 391/5/6 403/5/6
f 403/5/6 392/5/6 404/5/6
f 392/1/6 393/1/6 405/1/6
f 404/5/6 392/5/6 405/5/6
f 381/1/6 395/1/6 406/1/6
f 395/6/6 396/6/6 407/6/6
f 406/1/6 395/1/6 407/1/6
f 396/3/6 397/3/6 408/3/6
f 407/6/6 396/6/6 408/6/6
f 397/2/6 398/2/6 409/2/6
f 408/3/6 397/3/6 409/3/6
f 398/5/6 399/5/6 410/5/6
f 409/2/6 398/2/6 410/2/6
f 399/3/6 367/3/6 411/3/6
f 410/5/6 399/5/6 411/5/6
f 400/6/6 401/6/6 412/6/6
f 411/3/6 367/3/6 412/3/6
f 367/6/6 386/6/6 412/6/6
f 386/6/6 400/6/6 412/6/6
f 412/6/6 401/6/6 413/6/6
f 401/3/6 402/3/6 414/3/6
f 413/6/6 401/6/6 414/6/6
f 402/3/6 403/3/6 414/3/6
f 403/5/6 404/5/6 415/5/6
f 414/3/6 403/3/6 415/3/6
f 404/2/6 405/2/6 416/2/6
f 415/5/6 404/5/6 416/5/6
f 405/1/6 393/1/6 417/1/6
f 416/2/6 405/2/6 417/2/6
f 417/1/6 393/1/6 418/1/6
f 407/1/6 408/1/6 419/1/6
f 408/6/6 409/6/6 420/6/6
f 419/1/6 408/1/6 420/1/6
f 410/3/6 411/3/6 421/3/6
f 420/6/6 409/6/6 421/6/6
f 409/3/6 410/3/6 421/3/6
f 421/3/6 411/3/6 422/3/6
f 412/6/6 413/6/6 423/6/6
f 422/3/6 411/3/6 423/3/6
f 411/6/6 412/6/6 423/6/6
f 413/3/6 414/3/6 424/3/6
f 423/6/6 413/6/6 424/6/6
f 414/3/6 415/3/6 424/3/6
f 424/3/6 415/3/6 425/3/6
f 415/2/6 416/2/6 426/2/6
f 425/3/6 415/3/6 426/3/6
f 416/1/6 417/1/6 427/1/6
f 426/2/6 416/2/6 427/2/6
f 427/1/6 417/1/6 428/1/6
f 421/1/6 422/1/6 429/1/6
f 420/1/6 421/1/6 429/1/6
f 429/1/6 422/1/6 430/1/6
f 424/7/6 425/7/6 431/7/6
f 430/1/6 422/1/6 431/1/6
f 422/7/6 423/7/6 431/7/6
f 423/7/6 424/7/6 431/7/6
f 431/7/6 425/7/6 432/7/6
f 432/7/6 425/7/6 433/7/6
f 426/1/6 427/1/6 434/1/6
f 433/7/6 425/7/6 434/7/6
f 425/1/6 426/1/6 434/1/6
f 434/1/6 427/1/6 435/1/6
f 435/1/6 427/1/6 436/1/6
f 430/1/6 431/1/6 437/1/6
f 431/6/6 432/6/6 438/6/6
f 437/1/6 431/1/6 438/1/6
f 438/6/6 432/6/6 439/6/6
f 439/6/6 432/6/6 440/6/6
f 432/1/6 433/1/6 441/1/6
f 440/6/6 432/6/6 441/6/6
f 433/6/6 434/6/6 442/6/6
f 441/1/6 433/1/6 442/1/6
f 442/6/6 434/6/6 443/6/6
f 443/6/6 434/6/6 444/6/6
f 434/1/6 435/1/6 445/1/6
f 444/6/6 434/6/6 445/6/6
f 445/1/6 435/1/6 446/1/6
f 438/1/6 439/1/6 447/1/6
f 439/6/6 440/6/6 448/6/6
f 447/1/6 439/1/6 448/1/6
f 440/1/6 441/1/6 449/1/6
f 448/6/6 440/6/6 449/6/6
f 449/1/6 441/1/6 450/1/6
f 442/1/6 443/1/6 451/1/6
f 443/6/6 444/6/6 452/6/6
f 451/1/6 443/1/6 452/1/6
f 444/1/6 445/1/6 453/1/6
f 452/6/6 444/6/6 453/6/6
f 453/1/6 445/1/6 454/1/6
f 448/1/6 449/1/6 455/1/6
f 455/1/6 449/1/6 456/1/6
f 452/1/6 453/1/6 457/1/6
f 457/1/6 453/1/6 458/1/6
